<?xml version="1.0" standalone="no"?>
<!DOCTYPE svg PUBLIC "-//W3C//DTD SVG 20010904//EN"
 "http://www.w3.org/TR/2001/REC-SVG-20010904/DTD/svg10.dtd">
<svg version="1.0" xmlns="http://www.w3.org/2000/svg"
 width="512.000000pt" height="512.000000pt" viewBox="0 0 512.000000 512.000000"
 preserveAspectRatio="xMidYMid meet">
<metadata>
Created by potrace 1.14, written by Peter Selinger 2001-2017
</metadata>
<g transform="translate(0.000000,512.000000) scale(0.100000,-0.100000)"
fill="#000000" stroke="none">
<path d="M2568 4235 c-2 -2 -30 -5 -63 -9 -33 -3 -87 -13 -120 -21 -33 -9 -69
-17 -80 -20 -75 -17 -244 -102 -340 -172 -32 -24 -63 -43 -67 -43 -4 0 -39 42
-76 93 -77 103 -96 122 -113 112 -15 -10 -3 -113 27 -226 28 -106 28 -104 11
-121 -33 -33 -147 -210 -180 -280 -70 -149 -119 -315 -141 -478 -13 -98 -15
-351 -2 -425 13 -80 18 -105 33 -165 51 -210 147 -400 286 -565 50 -60 71 -81
141 -142 36 -32 36 -33 20 -59 l-17 -25 -21 23 c-27 30 -63 45 -101 41 -16 -2
-104 -5 -195 -7 -177 -3 -205 -7 -220 -36 -9 -17 -12 -16 -40 12 -29 28 -34
30 -78 23 -50 -8 -372 -14 -384 -8 -11 5 19 73 42 98 47 50 45 121 -3 142 -12
5 -75 9 -139 8 -139 0 -150 -7 -145 -89 2 -31 -7 -91 -25 -159 -27 -107 -73
-225 -84 -215 -2 3 0 34 5 69 18 112 23 199 16 267 -6 56 -12 71 -39 98 l-32
32 -157 -3 c-162 -3 -176 -7 -198 -47 -15 -29 7 -84 46 -114 52 -39 66 -84 80
-256 12 -140 62 -228 148 -259 21 -7 37 -16 37 -20 0 -12 -41 -80 -76 -127
-38 -50 -70 -77 -133 -112 -25 -14 -52 -37 -61 -52 -13 -25 -13 -31 0 -55 34
-61 -154 -57 2533 -58 l2457 0 0 155 c0 92 -6 186 -14 230 -8 41 -17 93 -20
115 -4 22 -14 81 -22 130 -9 50 -16 107 -15 128 4 136 -120 144 -240 16 l-56
-59 -29 37 c-40 53 -75 86 -104 100 -39 18 -107 24 -118 10 -6 -7 -22 -50 -37
-97 -15 -47 -30 -89 -32 -93 -3 -5 -21 23 -40 62 -46 91 -116 142 -185 132
-55 -7 -131 -8 -160 -2 -45 10 -98 -11 -155 -62 l-39 -35 -12 40 c-30 94 -129
195 -234 239 -16 6 -28 14 -28 18 0 7 30 53 40 61 14 10 98 167 130 240 31 73
83 234 95 295 39 203 45 283 32 429 -32 340 -187 680 -411 902 -198 196 -448
318 -716 350 -53 6 -178 12 -182 9z"/>
</g>
</svg>
