<svg width="20" height="20" viewBox="0 0 20 20" fill="none" xmlns="http://www.w3.org/2000/svg">
<path d="M4.19517 20H15.8048C17.8424 20 19.5 18.4431 19.5 16.5292V6.15385C19.5 5.81538 19.2052 5.53846 18.8448 5.53846H14.9138V4.61538C14.9138 2.07077 12.7091 0 10 0C7.29086 0 5.08621 2.07077 5.08621 4.61538V5.53846H1.15517C0.794828 5.53846 0.5 5.81538 0.5 6.15385V16.5292C0.5 18.4431 2.15759 20 4.19517 20ZM6.39655 4.61538C6.39655 2.74769 8.01155 1.23077 10 1.23077C11.9884 1.23077 13.6034 2.74769 13.6034 4.61538V5.53846H6.39655V4.61538ZM1.81034 6.76923H5.08621V8.30769C5.08621 8.64615 5.38103 8.92308 5.74138 8.92308C6.10172 8.92308 6.39655 8.64615 6.39655 8.30769V6.76923H13.6034V8.30769C13.6034 8.64615 13.8983 8.92308 14.2586 8.92308C14.619 8.92308 14.9138 8.64615 14.9138 8.30769V6.76923H18.1897V16.5292C18.1897 17.7631 17.1184 18.7692 15.8048 18.7692H4.19517C2.88155 18.7692 1.81034 17.7631 1.81034 16.5292V6.76923Z" fill="url(#paint0_linear_251_9178)"/>
<defs>
<linearGradient id="paint0_linear_251_9178" x1="10" y1="0" x2="10" y2="20" gradientUnits="userSpaceOnUse">
<stop stop-color="#F0801E"/>
<stop offset="1" stop-color="#FFEE02"/>
</linearGradient>
</defs>
</svg>
