<svg width="228" height="229" viewBox="0 0 228 229" fill="none" xmlns="http://www.w3.org/2000/svg">
<path d="M114 228C176.96 228 228 176.96 228 114C228 51.0395 176.96 0 114 0C51.0395 0 0 51.0395 0 114C0 176.96 51.0395 228 114 228Z" fill="#EFEFEF"/>
<mask id="mask0_980_49984" style="mask-type:alpha" maskUnits="userSpaceOnUse" x="0" y="0" width="228" height="229">
<path d="M114 228.004C176.96 228.004 228 176.964 228 114.004C228 51.0434 176.96 0.00390625 114 0.00390625C51.0395 0.00390625 0 51.0434 0 114.004C0 176.964 51.0395 228.004 114 228.004Z" fill="#D2BABA"/>
</mask>
<g mask="url(#mask0_980_49984)">
<path d="M157 -11.9963H-13C-21.8366 -11.9963 -29 -4.83289 -29 4.00366V159.004C-29 167.84 -21.8366 175.004 -13 175.004H157C165.837 175.004 173 167.84 173 159.004V4.00366C173 -4.83289 165.837 -11.9963 157 -11.9963Z" fill="white"/>
<path d="M141 81.0037H-21C-26.5228 81.0037 -31 85.4808 -31 91.0037V141.004C-31 146.527 -26.5228 151.004 -21 151.004H141C146.523 151.004 151 146.527 151 141.004V91.0037C151 85.4808 146.523 81.0037 141 81.0037Z" fill="#FFEE02"/>
<path d="M109 50.0037H-7C-11.4183 50.0037 -15 53.5854 -15 58.0037C-15 62.4219 -11.4183 66.0037 -7 66.0037H109C113.418 66.0037 117 62.4219 117 58.0037C117 53.5854 113.418 50.0037 109 50.0037Z" fill="#FFEE02"/>
<path d="M142 -27.9963H-5C-10.5228 -27.9963 -15 -23.5192 -15 -17.9963V26.0037C-15 31.5265 -10.5228 36.0037 -5 36.0037H142C147.523 36.0037 152 31.5265 152 26.0037V-17.9963C152 -23.5192 147.523 -27.9963 142 -27.9963Z" fill="#FFEE02"/>
</g>
<path d="M145.6 204.065L134.377 162.3C133.899 160.518 135.883 159.097 137.419 160.121L173.421 184.134C174.955 185.156 174.409 187.529 172.584 187.777L158.059 189.749C157.421 189.836 156.864 190.224 156.563 190.792L149.3 204.487C148.449 206.09 146.071 205.819 145.6 204.065Z" fill="#A3A3A3"/>
<path fill-rule="evenodd" clip-rule="evenodd" d="M78 89C78 87.8954 78.8954 87 80 87H85.9828C88.6617 87 91.016 88.7759 91.7519 91.3517L99.5086 118.5H127.018C127.902 118.5 128.682 117.919 128.935 117.071L135.083 96.429C135.399 95.3704 136.512 94.7679 137.571 95.0832C138.63 95.3986 139.232 96.5124 138.917 97.571L132.768 118.213C132.01 120.756 129.672 122.5 127.018 122.5H99.5202L97.9924 128L127 128C127.055 128 127.109 128.002 127.163 128.007C127.275 128.002 127.387 128 127.5 128C132.194 128 136 131.806 136 136.5C136 141.194 132.194 145 127.5 145C122.806 145 119 141.194 119 136.5C119 134.847 119.472 133.305 120.288 132L101.712 132C102.528 133.305 103 134.847 103 136.5C103 141.194 99.1944 145 94.5 145C89.8056 145 86 141.194 86 136.5C86 132.03 89.4508 128.366 93.8338 128.026L95.9221 120.508L87.9058 92.4506C87.6605 91.592 86.8758 91 85.9828 91H80C78.8954 91 78 90.1046 78 89ZM101 101C101 99.8954 101.895 99 103 99H125C126.105 99 127 99.8954 127 101C127 102.105 126.105 103 125 103H103C101.895 103 101 102.105 101 101ZM127.5 132C125.015 132 123 134.015 123 136.5C123 138.985 125.015 141 127.5 141C129.985 141 132 138.985 132 136.5C132 134.015 129.985 132 127.5 132ZM90 136.5C90 134.015 92.0147 132 94.5 132C96.9853 132 99 134.015 99 136.5C99 138.985 96.9853 141 94.5 141C92.0147 141 90 138.985 90 136.5Z" fill="#E31E25"/>
<rect x="157" y="82.627" width="10" height="4" rx="2" transform="rotate(-15.2348 157 82.627)" fill="#E31E25"/>
<rect x="143" y="69.666" width="10" height="4" rx="2" transform="rotate(-75.1684 143 69.666)" fill="#E31E25"/>
<rect x="150" y="75.4062" width="20.3728" height="4" rx="2" transform="rotate(-45 150 75.4062)" fill="#E31E25"/>
</svg>
