<svg xmlns="http://www.w3.org/2000/svg" width="24" height="20" fill="none" viewBox="0 0 24 20">
  <path fill="#E31E25" d="M12 20a2.975 2.975 0 0 1-1.622-.48c-1.373-.893-4.013-2.725-6.247-4.962C1.39 11.81 0 9.222 0 6.864c0-1.638.479-3.139 1.385-4.34A6.323 6.323 0 0 1 4.832.204a6.26 6.26 0 0 1 4.126.334c1.163.508 2.2 1.364 3.042 2.5.841-1.14 1.879-1.995 3.042-2.5a6.26 6.26 0 0 1 4.126-.333 6.323 6.323 0 0 1 3.447 2.319C23.52 3.725 24 5.226 24 6.864c0 2.358-1.39 4.945-4.131 7.692-2.234 2.237-4.873 4.069-6.247 4.962A2.975 2.975 0 0 1 12 20Z"/>
</svg>
