<svg width="370" height="346" viewBox="0 0 370 346" fill="none" xmlns="http://www.w3.org/2000/svg">
<path d="M259.575 7.25133C233.848 1.51871 207.099 -1.228 180.944 0.522995C157.764 2.07485 131.488 6.31148 112.834 21.4876C103.945 28.7198 93.3423 41.7151 90.4352 53.1791C90.4352 53.1803 75.1287 113.523 44.5181 126.454C13.9062 139.385 -7.3507 360.071 224.785 338.52C224.785 338.52 361.128 332.872 369.337 170.207C371.32 130.911 370.213 87.7133 346.455 54.8561C328.25 29.6779 302.741 18.4822 273.43 10.6489C268.851 9.4249 264.23 8.29076 259.574 7.25255L259.575 7.25133Z" fill="#F3F5FA"/>
<mask id="mask0_1508_84938" style="mask-type:luminance" maskUnits="userSpaceOnUse" x="33" y="5" width="179" height="255">
<path d="M212 260L45.2835 228.28L33 5H212V260Z" fill="white"/>
</mask>
<g mask="url(#mask0_1508_84938)">
<mask id="mask1_1508_84938" style="mask-type:luminance" maskUnits="userSpaceOnUse" x="66" y="12" width="143" height="328">
<path d="M133.734 328.164C110.648 280.84 143.08 258.568 155.551 246.514C174.358 228.337 184.702 201.257 157.491 187.699C130.28 174.141 158.37 119.727 192.068 96.2747C225.044 73.3246 211.557 -18.5315 136.548 22.3518C91.7536 46.7675 98.0405 109.446 95.5394 141.886C93.0383 174.326 56.3291 174.975 68.4461 215.451C78.7964 250.025 92.427 292.061 76.6228 314.553C60.8186 337.044 145.05 351.359 133.734 328.166V328.164Z" fill="white"/>
</mask>
<g mask="url(#mask1_1508_84938)">
<path d="M192.067 96.2549C158.37 119.701 135.535 166.945 160.638 186.573C182.825 203.921 174.359 228.283 155.551 246.455C146.191 255.5 125.586 270.3 125.65 297.124C123.973 296.87 141.244 340.098 139.543 340.547C131.959 342.549 116.892 336.106 116.544 346L71.4952 327.592C72.6008 317.105 76.7104 307.434 83.0947 298.352C98.8988 275.866 78.7963 249.963 68.4461 215.398C56.3291 174.933 93.0382 174.284 95.5393 141.852C98.0403 109.42 91.7523 46.7583 136.548 22.3491C211.556 -18.5235 225.044 73.3085 192.067 96.2525V96.2549Z" fill="url(#paint0_linear_1508_84938)"/>
<g style="mix-blend-mode:soft-light">
<path d="M217 34.5276L216.824 33.225C182.873 40.0863 156.074 63.0048 137.173 101.342C134.885 105.983 132.714 110.853 130.656 115.942C127.544 72.3997 140.338 13.0027 140.469 12.3994L139.517 12C139.383 12.6143 126.183 73.8929 129.807 117.834L129.908 117.823C118.792 145.993 111.139 180.809 107.117 221.644C106.309 229.841 105.679 238.013 105.196 246.087C97.8367 208.132 67.852 180.954 67.5381 180.673L67 181.76C67.3224 182.048 99.1929 210.942 104.942 250.531C104.47 259.364 104.172 268.061 104.012 276.527C104.012 276.529 104.01 276.533 104.009 276.535H104.01C103.726 291.649 103.881 306.028 104.278 319.115L105.26 318.854C104.87 305.902 104.718 291.689 104.998 276.755C116.828 215.466 180.465 203.831 181.094 203.787L181.079 202.471C180.473 202.437 119.39 213.924 105.113 271.534C105.519 255.497 106.437 238.717 108.101 221.824C112.358 178.616 122.125 129.728 143.38 92.4362C176.881 67.1821 207.644 82.0337 207.953 82.1879L208.279 80.9569C207.972 80.8028 178.03 66.3262 144.922 89.7898C161.424 61.996 184.584 41.0769 216.999 34.5264L217 34.5276ZM74.5747 304.322L73.8245 305.155C74.0038 305.436 74.5698 306.031 75.9442 307.47C78.8419 310.499 84.2217 316.128 89.6525 323L90.8171 322.69C85.1852 315.481 79.5473 309.582 76.5441 306.443C75.5563 305.41 74.7031 304.519 74.5747 304.321V304.322Z" fill="#BEB8F2"/>
</g>
</g>
<path d="M136.141 256.093C133.461 253.881 138.588 263.298 135.038 263.298C127.741 263.298 131.391 269.971 111.251 265.398H54.9585C59.0824 248.46 72.1938 231.23 76.6687 222.232C86.1104 203.242 88.5804 194.873 69.0037 155.622C36.3133 104.855 33.0296 56.8655 55.0544 42.3667C77.3706 27.6763 99.7731 45.046 107.961 71.4456C113.2 88.3364 129.798 77.7536 139.605 99.3885C148.213 118.379 131.31 148.63 125.245 165.626C109.404 210.017 129.528 231.221 136.141 256.093Z" fill="url(#paint1_linear_1508_84938)"/>
<mask id="mask2_1508_84938" style="mask-type:luminance" maskUnits="userSpaceOnUse" x="41" y="37" width="101" height="269">
<path d="M132.831 293.51C154.172 245.56 102.442 229.692 125.245 165.737C131.31 148.727 148.213 118.45 139.605 99.4425C129.799 77.7877 113.201 88.3797 107.961 71.4754C99.7726 45.053 77.3699 27.6682 55.0547 42.3713C33.0296 56.8827 36.3133 104.915 69.0029 155.726C88.5798 195.01 86.111 203.386 76.668 222.393C70.0546 235.706 44.5394 267.021 57.1337 288.779C69.7279 310.538 124.967 311.182 132.833 293.51H132.831Z" fill="white"/>
</mask>
<g mask="url(#mask2_1508_84938)">
<g style="mix-blend-mode:soft-light">
<path d="M99.1984 193.306C96.1643 149.721 134.61 87.218 135 86.5926L134.211 86.0279C133.847 86.6132 100.437 140.934 98.2039 183.874C97.0658 173.767 95.6526 163.801 93.9582 154.004C92.7127 146.798 91.3091 139.675 89.7655 132.642L89.7716 132.64C89.7679 132.631 89.7631 132.622 89.7595 132.613C86.886 119.535 83.5055 106.783 79.6387 94.458L79.6532 94.4556C76.7085 70.3238 78.8253 44.2393 79.5217 35.6683C79.6894 33.593 79.7474 32.8632 79.7256 32.6045L78.7807 32.6944C78.7939 32.8911 78.6986 34.0775 78.5755 35.5797C77.9286 43.5447 76.0592 66.5836 78.1386 89.2023C78.1483 89.3128 77.9974 89.3431 77.9636 89.2375C77.0114 86.3327 76.0338 83.451 75.0261 80.5985C69.32 64.4329 62.8163 49.268 55.6946 35.5263C54.4539 33.1315 53.06 30.7562 51.7119 28.4599C49.9161 25.3997 48.0587 22.2363 46.5501 19L45.7017 19.4566C47.2308 22.7378 49.1002 25.9231 50.9081 29.0039C52.249 31.2893 53.6356 33.6525 54.8642 36.0229C61.9642 49.7209 68.4487 64.8409 74.1378 80.9604C79.5748 96.3621 84.2212 112.534 88.0337 129.262C76.6409 110.197 40.9249 96.0756 39.3234 95.4502L39 96.4071C39.4103 96.5674 80.0768 112.641 88.8592 132.955C90.3931 139.944 91.787 147.025 93.0253 154.19C98.5418 186.096 101.114 219.795 100.67 254.349C100.62 258.215 100.52 262.102 100.394 266H101.343C101.468 262.107 101.567 258.223 101.618 254.363C101.885 233.636 101.059 213.22 99.1755 193.308L99.1996 193.306H99.1984ZM58.8879 247.245C59.0593 247.417 66.5925 255.028 74.8982 266H76.1014C67.5616 254.617 59.711 246.676 59.5348 246.501L58.8867 247.245H58.8879Z" fill="#FCFDFE"/>
</g>
</g>
</g>
<path d="M162 281V290.819L131.357 320H121.929L133.715 295.354C133.715 295.354 139.215 292.119 127.429 292.119L85 300.501L85.6053 297.888L136.071 281.839C136.071 281.839 151.786 281 162 281Z" fill="url(#paint2_linear_1508_84938)"/>
<path d="M285 260.581L285.326 264.364L302.883 276L305.572 273.39L295.279 262.923C295.279 262.923 293.235 262.316 296.295 261.285L306 260.586L305.265 259.989L292.702 259C292.702 259 288.34 259.792 285 260.58V260.581Z" fill="url(#paint3_linear_1508_84938)"/>
<path d="M75.9916 294.837C69.4258 295.846 64 292.061 64 286.384V81.7799C64 76.1037 69.4258 72.2296 75.9904 73.13L316.527 106.137C319.559 106.553 322 109.968 322 113.754V250.186C322 253.971 319.559 257.425 316.527 257.892L75.9916 294.836V294.837Z" fill="url(#paint4_linear_1508_84938)"/>
<path d="M77.9384 294.838C71.4015 295.845 66 292.059 66 286.382V81.7815C66 76.1044 71.4015 72.2298 77.9384 73.1298L317.545 106.102C320.567 106.517 323 109.934 323 113.721V250.219C323 254.006 320.567 257.462 317.545 257.928L77.9384 294.839V294.838Z" fill="url(#paint5_linear_1508_84938)"/>
<path d="M318.069 109.486L78.3378 78.0633C74.8504 77.6063 72 79.6731 72 82.6843V240.753V285.403C72 288.414 74.8504 290.435 78.3378 289.92L318.069 254.566C319.692 254.327 321 252.486 321 250.452V113.552C321 111.519 319.692 109.698 318.069 109.486Z" fill="url(#paint6_linear_1508_84938)"/>
<path d="M79.4577 271.978C78.104 272.147 77 271.337 77 270.172V82.824C77 81.6592 78.104 80.8513 79.4577 81.023L318.853 111.338C319.486 111.418 320 112.129 320 112.922V240.523C320 241.317 319.486 242.027 318.853 242.105L79.4577 271.979V271.978Z" fill="url(#paint7_linear_1508_84938)"/>
<g style="mix-blend-mode:overlay" opacity="0.2">
<path d="M297.179 249.319C280.112 237.406 292.096 200.035 272.682 181.541C252.302 162.125 222.156 185.934 206.465 164.995C194.469 148.988 208.478 130.633 197.074 115.24C178.683 90.4149 128.563 120.085 103.941 93.7963C100.358 89.9703 96.7199 84.2787 94.6393 75.4278L77.9384 73.1298C71.4015 72.2298 66 76.1056 66 81.7814V286.382C66 292.059 71.4015 295.845 77.9384 294.838L317.545 257.927C320.567 257.462 323 254.005 323 250.218V247.791C310.297 254.144 302.359 252.936 297.178 249.319H297.179Z" fill="white"/>
</g>
<mask id="mask3_1508_84938" style="mask-type:luminance" maskUnits="userSpaceOnUse" x="112" y="107" width="189" height="133">
<path d="M131.92 239.925L284.416 226.787C293.811 225.978 301 218.583 301 209.729V137.269C301 128.416 293.811 121.02 284.416 120.211L131.92 107.073C121.225 106.152 112 114.053 112 124.131V222.869C112 232.948 121.225 240.848 131.92 239.927V239.925Z" fill="white"/>
</mask>
<g mask="url(#mask3_1508_84938)">
<path d="M132.762 239.921L291.716 225.894C301.508 225.03 309 217.135 309 207.681V130.318C309 120.864 301.506 112.969 291.716 112.105L132.762 98.0781C121.617 97.0946 112 105.53 112 116.291V221.709C112 232.47 121.617 240.905 132.762 239.922V239.921Z" fill="white"/>
<path opacity="0.17" d="M162.574 221.868C185.938 210.563 182.264 189.168 205.236 177.254C232.173 163.284 255.895 183.022 273.969 168.936C281.681 162.925 289.109 150.177 285.586 120C294.397 121.325 301 128.591 301 137.24V211.132C301 220.162 293.811 227.702 284.418 228.528L131.92 241.925C121.226 242.865 112 234.808 112 224.53V222.847C125.99 227.008 145.374 230.189 162.575 221.866L162.574 221.868Z" fill="#A7A7A7"/>
</g>
<path d="M145.897 183.996C144.377 184.759 142.384 185.159 139.917 185.195C136.698 185.242 134.154 184.333 132.283 182.468C130.412 180.603 129.453 178.096 129.407 174.946C129.357 171.592 130.351 168.856 132.387 166.739C134.434 164.621 137.11 163.539 140.415 163.49C142.463 163.461 144.193 163.694 145.605 164.19L145.672 168.739C144.256 167.921 142.65 167.525 140.856 167.551C138.886 167.58 137.306 168.223 136.115 169.479C134.924 170.735 134.344 172.421 134.375 174.537C134.405 176.565 134.999 178.176 136.158 179.368C137.317 180.551 138.862 181.129 140.792 181.1C142.636 181.073 144.316 180.6 145.834 179.681L145.897 183.996ZM167.704 184.424L162.979 184.493L162.73 167.642L154.041 167.768L154.29 184.619L149.565 184.688L149.256 163.712L167.394 163.448L167.704 184.424ZM190.947 184.084L185.798 184.159L184.237 179.515L176.777 179.624L175.369 184.312L170.249 184.386L177.575 163.299L183.177 163.217L190.947 184.084ZM183.101 175.903L180.744 168.885C180.571 168.361 180.445 167.734 180.366 167.004L180.249 167.005C180.209 167.62 180.096 168.232 179.91 168.839L177.733 175.981L183.101 175.903ZM208.299 183.084C206.779 183.848 204.785 184.248 202.318 184.284C199.1 184.331 196.555 183.422 194.684 181.557C192.813 179.692 191.855 177.185 191.808 174.035C191.759 170.68 192.752 167.944 194.789 165.827C196.835 163.71 199.511 162.627 202.817 162.579C204.865 162.549 206.595 162.782 208.007 163.279L208.074 167.828C206.657 167.01 205.052 166.614 203.257 166.64C201.288 166.669 199.707 167.311 198.516 168.567C197.325 169.823 196.745 171.51 196.777 173.626C196.807 175.654 197.401 177.264 198.56 178.457C199.718 179.64 201.263 180.217 203.194 180.189C205.037 180.162 206.718 179.689 208.235 178.769L208.299 183.084ZM230.837 183.501L226.375 183.567L226.205 172.04C226.185 170.714 226.218 169.582 226.301 168.644L226.213 168.646C226.015 169.048 225.672 169.634 225.186 170.402L216.721 183.708L211.967 183.777L211.657 162.801L216.119 162.736L216.29 174.336C216.311 175.769 216.286 176.73 216.216 177.219L216.274 177.218C216.321 177.1 216.673 176.525 217.331 175.491L225.466 162.599L230.527 162.525L230.837 183.501ZM235.664 183.431L235.354 162.455L248.855 162.258L248.913 166.134L240.136 166.262L240.204 170.841L244.256 170.781C246.498 170.749 248.237 171.245 249.471 172.271C250.715 173.287 251.351 174.711 251.378 176.544C251.409 178.651 250.78 180.299 249.49 181.488C248.211 182.667 246.376 183.274 243.987 183.309L235.664 183.431ZM240.254 174.278L240.338 179.91L243.102 179.869C245.316 179.837 246.408 178.855 246.38 176.925C246.353 175.101 245.281 174.205 243.165 174.236L240.254 174.278ZM263.52 183.39C260.517 183.434 258.055 182.494 256.134 180.572C254.213 178.639 253.23 176.103 253.183 172.963C253.134 169.647 254.055 166.951 255.946 164.875C257.837 162.8 260.367 161.738 263.536 161.692C266.53 161.648 268.963 162.593 270.835 164.526C272.717 166.459 273.681 169.03 273.729 172.238C273.777 175.534 272.856 178.206 270.965 180.253C269.083 182.299 266.602 183.345 263.52 183.39ZM263.465 165.761C261.807 165.785 260.5 166.428 259.543 167.691C258.586 168.943 258.123 170.594 258.153 172.641C258.184 174.719 258.695 176.355 259.689 177.55C260.682 178.745 261.968 179.33 263.548 179.307C265.176 179.284 266.46 178.68 267.398 177.495C268.336 176.302 268.79 174.661 268.759 172.574C268.727 170.4 268.239 168.714 267.295 167.519C266.35 166.323 265.074 165.737 263.465 165.761ZM281.987 161.774L281.63 176.234L277.885 176.289L277.131 161.845L281.987 161.774ZM279.903 183.121C279.123 183.133 278.476 182.908 277.962 182.447C277.447 181.977 277.185 181.405 277.175 180.732C277.165 180.03 277.41 179.451 277.911 178.995C278.421 178.539 279.061 178.305 279.831 178.294C280.612 178.283 281.254 178.503 281.758 178.954C282.262 179.395 282.519 179.962 282.529 180.654C282.539 181.356 282.299 181.94 281.809 182.406C281.328 182.871 280.693 183.11 279.903 183.121Z" fill="#333333"/>
<path d="M256.918 318.827L256.989 319.41C257.1 320.331 256.347 321.115 255.466 320.986C253.008 320.627 250.106 320.134 248.855 318.789C247.076 316.878 248.356 315.166 250.115 316.439C251.493 317.437 254.272 317.704 256.032 317.908C256.496 317.962 256.86 318.341 256.92 318.826L256.918 318.827Z" fill="url(#paint8_linear_1508_84938)"/>
<path d="M254.024 315C253.911 315.15 254.224 316.521 254.382 317.176C254.442 317.424 254.612 317.632 254.86 317.748C255.145 317.881 255.561 318.018 256.034 317.998C256.483 317.979 256.838 317.64 256.869 317.234L257 315.5L254.024 315.001V315Z" fill="#D8DEE8"/>
<path d="M252.552 315.86L256.377 316.644C256.377 316.644 261.222 305.744 271.184 306.311C281.147 306.879 289.746 321.067 289.746 321.067L315 325C312.74 319.913 309.149 312.742 303.673 304.823C295.269 292.666 290.294 285.47 281.812 284.194C272.021 282.721 263.772 290.071 261.616 291.992C259.783 293.625 252.483 300.131 252.023 310.028C251.91 312.452 252.235 314.475 252.552 315.86Z" fill="url(#paint9_linear_1508_84938)"/>
<path d="M239.521 321.972C238.028 322.768 239.122 322.827 235.047 321.258C233.505 320.665 232.138 321.175 232.007 321.968C231.876 322.762 233.555 323.195 237.117 324.97C240.548 326.679 242.159 326.204 241.988 323.967C241.961 323.608 241.775 322.706 241.545 322.452C240.838 321.678 239.52 321.972 239.52 321.972H239.521Z" fill="url(#paint10_linear_1508_84938)"/>
<path d="M239.591 319.537C239.889 320.051 240.575 321.306 240.951 322.587C241.183 323.381 240.557 324.16 239.848 323.972C239.672 323.925 239.486 323.877 239.297 323.826C238.989 323.745 238.711 323.551 238.508 323.274L236.129 320.029C235.817 319.602 236.109 318.953 236.592 319.003L239.193 319.269C239.356 319.286 239.502 319.38 239.592 319.537H239.591Z" fill="#D8DEE8"/>
<path d="M236.425 320.909C238.191 320.861 239.958 320.812 241.724 320.763C241.063 319.454 240.391 317.855 239.862 315.978C238.889 312.523 238.783 309.47 238.894 307.277C251.618 310.036 260.465 314.459 266.292 318.099C269.59 320.16 272.09 322.076 280.008 327.054C288.632 332.475 293.014 335.206 296.464 336.146C300.365 337.21 314.263 338.15 325 333.276C318.456 321.38 300.971 306.052 282.821 294.663C273.231 288.645 259.485 280.02 244.336 284.024C241.219 284.847 229.269 288.006 226.544 298.143C224.483 305.809 228.387 314.9 236.425 320.906V320.909Z" fill="url(#paint11_linear_1508_84938)"/>
<path d="M303.522 242.412C307.615 241.957 313.388 241.692 320.182 242.641C322.575 242.975 331.146 244.307 341.497 249.455C350.28 253.824 357.12 257.226 357.934 263.36C357.976 263.682 358.557 268.624 355.312 271.81C347.194 279.779 324.328 267.73 322.51 271.588C321.898 272.886 324.289 274.668 323.643 275.561C322.464 277.19 312.341 274.24 306.782 267.474C298.989 257.991 302.923 244.378 303.522 242.411V242.412Z" fill="url(#paint12_linear_1508_84938)"/>
<path d="M266.129 249.181C254.402 255.333 248.634 264.004 247.55 265.68C245.27 269.204 238.097 280.293 242.29 286.276C245 290.142 251.192 290.067 251.986 290.057C256.562 290.002 258.055 287.762 266.981 283.647C273.035 280.856 276.061 279.461 278.458 279.816C286.413 280.996 290.753 292.686 291.608 294.988C295.196 304.654 291.467 307.018 294.484 316.023C295.459 318.931 300.251 331.826 312.227 335.208C321.041 337.697 328.712 333.613 330.599 332.609C342.201 326.432 345.194 313.903 345.997 310.542C348.488 300.115 345.77 291.589 343.993 286.02C341.082 276.891 335.403 269.805 324.046 255.636C317.615 247.612 315.456 245.924 312.943 244.621C305.957 241 299.068 241.828 289.37 242.995C281.672 243.92 274.523 244.78 266.13 249.183L266.129 249.181Z" fill="url(#paint13_linear_1508_84938)"/>
<path d="M291.483 235L292.905 237.823C293.673 239.348 295.193 240.447 296.997 240.782L301.554 241.848C302.11 241.978 302.161 242.681 301.623 242.865C298.818 243.825 292.724 245.503 285.838 244.855C276.38 243.963 283.307 242.94 285.597 242.793C287.887 242.646 289.196 241.73 289.836 240.249C290.477 238.768 288.689 236.436 288.689 236.436L291.483 235Z" fill="#FAA04C"/>
<path d="M289.435 239.902C289.108 239.727 286.454 239.414 286.089 238.026C285.592 236.142 287.333 233.848 287.55 233.479C288.458 231.934 288.686 231.726 289.109 231.464L289.695 231.13C289.695 231.13 289.728 231.117 289.764 231.106C290.139 230.986 291.404 230.976 291.658 231.035C292.472 231.223 293.268 234.484 292.913 239.064C292.943 239.24 292.972 239.417 292.999 239.595C293.071 240.059 289.41 240.067 289.435 239.903V239.902Z" fill="#FFBF46"/>
<path d="M287.09 231.131C287.355 231.954 288.404 232.804 288.873 233.184C288.942 233.239 289.14 233.427 289.319 233.73C289.346 233.774 289.368 233.825 289.388 233.891C289.647 234.749 288.359 235.721 288.595 236.11C288.768 236.391 289.636 236.042 289.734 236.283C289.826 236.51 289.1 236.958 289.204 237.23C289.283 237.436 289.727 237.26 289.998 237.579C290.133 237.737 290.09 237.859 290.227 238.338C290.304 238.608 290.414 238.904 290.5 239.07C290.921 239.875 292.152 240.194 292.397 239.882C292.464 239.795 292.41 239.719 292.483 239.424C292.483 239.424 292.552 239.15 292.737 238.836C293.003 238.387 293.628 238.077 294.262 237.612C295.436 236.751 295.766 236 295.866 235.748C295.877 235.719 295.887 235.693 295.896 235.669C295.912 235.627 295.927 235.583 295.94 235.54C296.205 234.622 295.526 233.632 295.16 233.172C294.636 232.518 293.755 231.548 292.462 230.684C292.11 230.449 288.69 228.192 287.436 229.308C286.989 229.707 286.91 230.576 287.09 231.134V231.131Z" fill="#26264F"/>
<path d="M288.369 236.199C288.607 235.713 289.007 236.191 289 236.83C288.993 237.47 288.585 238.12 288.2 237.981C287.816 237.842 288.048 236.852 288.369 236.199Z" fill="#FFBF46"/>
<g style="mix-blend-mode:multiply" opacity="0.3">
<path d="M309.048 323.935C305.89 314.289 318.803 302.206 313.469 295.06C309.683 289.989 301.374 293.652 297.132 287.793C292.896 281.942 299.101 275.411 295.018 269.818C290.894 264.167 279.16 263.431 272.339 267.905C268.102 270.685 269.25 273.185 264.075 277.658C263.199 278.414 252.808 287.183 245.432 283.204C244.811 282.869 242.807 281.679 241.258 278.537C240.763 281.128 240.915 283.618 242.296 285.563C245.026 289.407 251.263 289.333 252.063 289.323C256.672 289.268 258.177 287.04 267.168 282.949C273.267 280.174 276.315 278.787 278.73 279.14C286.744 280.313 291.117 291.937 291.977 294.226C295.592 303.836 291.835 306.186 294.875 315.14C295.856 318.032 300.685 330.853 312.749 334.216C316.917 335.378 320.823 335.093 324 334.367C314.033 331.562 310.26 327.636 309.049 323.937L309.048 323.935Z" fill="url(#paint14_linear_1508_84938)"/>
</g>
<path d="M69 268L37 264.167V217.937L69 212V268Z" fill="url(#paint15_linear_1508_84938)"/>
<path d="M108 265.564L69 268V212L108 217.279V265.564Z" fill="url(#paint16_linear_1508_84938)"/>
<g style="mix-blend-mode:soft-light">
<path d="M84 214V236.979L97 238V215.769L84 214Z" fill="white"/>
</g>
<path d="M122 333.918L62 338V253L122 257.081V333.918Z" fill="url(#paint17_linear_1508_84938)"/>
<path d="M62 338L14 332.184V258.426L62 253V338Z" fill="url(#paint18_linear_1508_84938)"/>
<g style="mix-blend-mode:soft-light">
<path d="M84 254V288H104V255.348L84 254Z" fill="white"/>
</g>
<path d="M13.6822 338C11.4714 337.83 8.64186 337.234 5.92717 335.513C2.9895 333.65 -0.836296 329.822 0.161904 327.411C0.534806 326.51 1.60797 325.74 2.55208 325.812C3.94595 325.921 4.10821 327.799 6.52875 329.841C6.97566 330.218 9.28898 332.17 10.439 331.512C11.0102 331.185 11.1801 330.279 11.0861 329.591C10.8138 327.576 8.2775 327.267 5.84083 325.087C3.36905 322.877 1.30907 319.02 2.48661 316.414C3.16315 314.916 4.95364 313.732 6.13023 314.065C6.63312 314.207 6.95194 314.606 8.47865 317.805C9.7321 320.43 10.0101 321.196 10.8185 321.444C11.6497 321.7 12.943 321.379 13.4345 320.585C14.7146 318.515 9.18271 315.46 8.68076 309.67C8.45588 307.075 9.17986 303.228 11.6032 302.404C13.241 301.846 15.5752 302.697 16.4187 304.155C17.1797 305.469 16.2555 306.457 16.8353 309.409C17.0117 310.305 17.3733 312.148 18.138 312.244C19.0357 312.357 20.0405 310.007 20.272 309.435C22.0198 305.126 20.0158 302.91 21.664 300.818C22.9488 299.187 25.745 298.532 27.9597 299.356C29.8982 300.077 31.4486 301.952 31.5521 303.895C31.6574 305.871 29.9428 307.839 26.5146 311.775C24.8882 313.641 23.5949 314.903 23.668 316.758C23.7041 317.662 24.0732 318.934 24.7412 319.05C26.2157 319.307 26.9406 313.55 30.4343 312.66C32.2229 312.205 34.4451 313.099 35.4215 314.663C36.618 316.578 35.8162 319.293 34.3132 320.72C32.352 322.582 30.3404 321.167 26.6503 323.168C25.0135 324.056 22.4402 325.943 22.8169 327.504C22.981 328.184 23.7154 328.85 24.522 328.939C26.3295 329.138 26.9264 326.266 29.8318 325.003C31.925 324.092 34.8199 324.191 35.5079 325.336C36.4785 326.952 33.0313 330.621 31.1981 332.243C28.9826 334.203 23.7562 337.921 13.6803 337.998L13.6822 338Z" fill="url(#paint19_linear_1508_84938)"/>
<path opacity="0.5" d="M15.018 337C14.7296 332.192 17.9677 322.399 20.3236 317.769C22.629 313.239 24.8343 306.072 24.8567 306L25 306.042C24.9775 306.114 22.7686 313.293 20.4575 317.834C18.1091 322.45 14.8804 332.207 15.1669 336.991L15.0171 336.999L15.018 337Z" fill="white"/>
<path d="M7.81384 338.028C6.0957 335.872 3.57575 331.982 3.12443 326.778C2.93842 324.634 2.57424 320.445 5.40942 316.832C6.82212 315.031 9.81785 312.368 11.8424 313.136C13.1455 313.63 13.9531 315.51 13.586 316.94C13.215 318.382 11.8679 318.516 10.3994 320.963C9.85604 321.868 9.23535 322.931 9.71212 323.531C10.1106 324.033 11.2041 324.124 12.0245 323.823C13.7182 323.202 13.1895 321.295 15.0203 319.928C16.3223 318.956 18.4937 318.499 19.4307 319.295C20.2442 319.987 20.1022 321.603 19.3837 322.68C18.2324 324.404 16.1686 323.898 14.8235 325.783C14.2263 326.62 13.8024 327.883 14.3242 328.383C14.9194 328.952 16.6709 328.46 17.7938 327.83C19.276 326.999 19.3308 326.116 20.3069 326.005C21.3955 325.882 22.7573 326.82 22.9697 327.856C23.2683 329.308 21.2966 330.875 19.7351 331.555C17.737 332.427 16.2518 331.915 15.2758 333.106C14.9175 333.543 14.5895 334.255 14.8832 334.688C15.3022 335.306 16.8167 335.101 17.8231 334.966C20.2706 334.637 20.9452 333.834 21.8214 334.224C22.7093 334.619 23.1675 335.952 22.7837 336.887C22.5703 337.407 21.9291 338.212 18.7522 338.717C16.5289 339.07 12.793 339.318 7.81286 338.029L7.81384 338.028Z" fill="url(#paint20_linear_1508_84938)"/>
<path d="M121 157.744C121 181.646 101.617 202.308 77.6345 203.902C53.5692 205.501 34 187.304 34 163.255C34 139.206 53.5681 118.53 77.6334 117.08C101.617 115.635 120.999 133.843 120.999 157.744H121Z" fill="url(#paint21_linear_1508_84938)"/>
<path d="M76.9918 183.989C75.0878 184.112 73.3168 183.24 72.331 181.684L55.7797 155.545C54.2283 153.095 55.0643 149.74 57.6454 148.051C60.2242 146.364 63.5715 146.98 65.1206 149.428L76.5997 167.573L91.7461 137.236C93.1048 134.513 96.3709 133.265 99.0387 134.445C101.705 135.625 102.767 138.787 101.409 141.508L81.8363 180.744C80.9395 182.54 79.1583 183.777 77.1833 183.972C77.1191 183.979 77.056 183.983 76.9918 183.987V183.989Z" fill="white"/>
<defs>
<linearGradient id="paint0_linear_1508_84938" x1="104.626" y1="85.0912" x2="318.559" y2="-41.4413" gradientUnits="userSpaceOnUse">
<stop stop-color="#FFF500"/>
<stop offset="1" stop-color="#FF0000"/>
</linearGradient>
<linearGradient id="paint1_linear_1508_84938" x1="51.9006" y1="99.0911" x2="115.13" y2="99.936" gradientUnits="userSpaceOnUse">
<stop stop-color="#E77070"/>
<stop offset="1" stop-color="#DF5358"/>
</linearGradient>
<linearGradient id="paint2_linear_1508_84938" x1="162.001" y1="300.499" x2="85" y2="300.499" gradientUnits="userSpaceOnUse">
<stop stop-color="#444B8C"/>
<stop offset="1" stop-color="#26264F"/>
</linearGradient>
<linearGradient id="paint3_linear_1508_84938" x1="290.492" y1="263.604" x2="147.421" y2="217.63" gradientUnits="userSpaceOnUse">
<stop stop-color="#444B8C"/>
<stop offset="1" stop-color="#26264F"/>
</linearGradient>
<linearGradient id="paint4_linear_1508_84938" x1="322" y1="184" x2="64" y2="184" gradientUnits="userSpaceOnUse">
<stop stop-color="#444B8C"/>
<stop offset="1" stop-color="#26264F"/>
</linearGradient>
<linearGradient id="paint5_linear_1508_84938" x1="323" y1="184" x2="66" y2="184" gradientUnits="userSpaceOnUse">
<stop stop-color="#454C8D"/>
<stop offset="1" stop-color="#3B407A"/>
</linearGradient>
<linearGradient id="paint6_linear_1508_84938" x1="321.001" y1="183.999" x2="72" y2="183.999" gradientUnits="userSpaceOnUse">
<stop stop-color="#434A8B"/>
<stop offset="1" stop-color="#363A70"/>
</linearGradient>
<linearGradient id="paint7_linear_1508_84938" x1="80.7731" y1="140.434" x2="322.593" y2="166.71" gradientUnits="userSpaceOnUse">
<stop stop-color="#FFB800"/>
<stop offset="1" stop-color="#FFF40B"/>
</linearGradient>
<linearGradient id="paint8_linear_1508_84938" x1="251.253" y1="314.187" x2="257.621" y2="332.771" gradientUnits="userSpaceOnUse">
<stop stop-color="#444B8C"/>
<stop offset="1" stop-color="#26264F"/>
</linearGradient>
<linearGradient id="paint9_linear_1508_84938" x1="291.035" y1="297.578" x2="302.157" y2="270.325" gradientUnits="userSpaceOnUse">
<stop stop-color="#810606"/>
<stop offset="1" stop-color="#DB0019"/>
</linearGradient>
<linearGradient id="paint10_linear_1508_84938" x1="235.53" y1="318.073" x2="242.619" y2="338.139" gradientUnits="userSpaceOnUse">
<stop stop-color="#444B8C"/>
<stop offset="1" stop-color="#26264F"/>
</linearGradient>
<linearGradient id="paint11_linear_1508_84938" x1="270.147" y1="334.694" x2="283.624" y2="290.323" gradientUnits="userSpaceOnUse">
<stop stop-color="#6C0000"/>
<stop offset="1" stop-color="#DB0019"/>
</linearGradient>
<linearGradient id="paint12_linear_1508_84938" x1="330.799" y1="241.134" x2="328.905" y2="281.996" gradientUnits="userSpaceOnUse">
<stop stop-color="#F36F56"/>
<stop offset="1" stop-color="#FFF50A"/>
</linearGradient>
<linearGradient id="paint13_linear_1508_84938" x1="290.967" y1="246.419" x2="297.947" y2="348.346" gradientUnits="userSpaceOnUse">
<stop stop-color="#F36F56"/>
<stop offset="0.421875" stop-color="#FFC444"/>
<stop offset="1" stop-color="#FFC444"/>
</linearGradient>
<linearGradient id="paint14_linear_1508_84938" x1="282.5" y1="265" x2="282.5" y2="335" gradientUnits="userSpaceOnUse">
<stop stop-color="#F0801E"/>
<stop offset="1" stop-color="#FFEE02"/>
</linearGradient>
<linearGradient id="paint15_linear_1508_84938" x1="69.3998" y1="215.839" x2="35.3443" y2="274.557" gradientUnits="userSpaceOnUse">
<stop stop-color="#FFA665"/>
<stop offset="0.31" stop-color="#DC8016"/>
<stop offset="1" stop-color="#A75A00"/>
</linearGradient>
<linearGradient id="paint16_linear_1508_84938" x1="101.506" y1="217.251" x2="66.1675" y2="278.127" gradientUnits="userSpaceOnUse">
<stop stop-color="#FFA665"/>
<stop offset="0.31" stop-color="#DC8016"/>
<stop offset="1" stop-color="#A75A00"/>
</linearGradient>
<linearGradient id="paint17_linear_1508_84938" x1="113.611" y1="258.156" x2="58.4519" y2="354.468" gradientUnits="userSpaceOnUse">
<stop stop-color="#FFA665"/>
<stop offset="0.31" stop-color="#DC8016"/>
<stop offset="1" stop-color="#A75A00"/>
</linearGradient>
<linearGradient id="paint18_linear_1508_84938" x1="61.8057" y1="258.361" x2="9.81152" y2="346.952" gradientUnits="userSpaceOnUse">
<stop stop-color="#FFA665"/>
<stop offset="0.31" stop-color="#DC8016"/>
<stop offset="1" stop-color="#A75A00"/>
</linearGradient>
<linearGradient id="paint19_linear_1508_84938" x1="34.6748" y1="292.675" x2="16.611" y2="328.218" gradientUnits="userSpaceOnUse">
<stop stop-color="#DB0019"/>
<stop offset="1" stop-color="#800000"/>
</linearGradient>
<linearGradient id="paint20_linear_1508_84938" x1="21.1791" y1="319.224" x2="1.34079" y2="345.531" gradientUnits="userSpaceOnUse">
<stop stop-color="#DB0019"/>
<stop offset="1" stop-color="#880001"/>
</linearGradient>
<linearGradient id="paint21_linear_1508_84938" x1="34" y1="160.499" x2="121" y2="160.499" gradientUnits="userSpaceOnUse">
<stop stop-color="#01D425"/>
<stop offset="1" stop-color="#007B23"/>
</linearGradient>
</defs>
</svg>
