<svg xmlns="http://www.w3.org/2000/svg" width="20" height="20" fill="none" viewBox="0 0 20 20">
  <path fill="url(#a)" d="M12.931 8.759a4.853 4.853 0 0 0 1.9-2.4 4.553 4.553 0 0 0 .03-2.994A4.837 4.837 0 0 0 13.014.93 5.305 5.305 0 0 0 9.998 0c-1.084 0-2.14.326-3.014.931a4.837 4.837 0 0 0-1.85 2.434 4.563 4.563 0 0 0 .032 2.995 4.853 4.853 0 0 0 1.899 2.399c-1.906.588-3.567 1.73-4.746 3.262A8.664 8.664 0 0 0 .5 17.29c0 .803.099 1.929.928 2.445.938.587 2.162.094 3.707-.533 1.38-.54 3.098-1.246 4.861-1.246 1.764 0 3.493.706 4.869 1.246 1.058.43 1.972.797 2.737.797.346.008.685-.084.974-.264.829-.516.924-1.642.924-2.445a8.664 8.664 0 0 0-1.82-5.27c-1.18-1.533-2.842-2.674-4.748-3.262Zm-6.62-3.932c0-.688.215-1.361.62-1.934a3.65 3.65 0 0 1 1.655-1.282 3.889 3.889 0 0 1 2.13-.198 3.759 3.759 0 0 1 1.887.953 3.426 3.426 0 0 1 1.009 1.782c.142.676.07 1.376-.21 2.012a3.532 3.532 0 0 1-1.357 1.562 3.842 3.842 0 0 1-2.049.587 3.803 3.803 0 0 1-2.605-1.02 3.39 3.39 0 0 1-1.08-2.462ZM17.8 18.625c-.307.193-1.457-.274-2.378-.647-1.496-.603-3.355-1.352-5.422-1.352-2.067 0-3.923.75-5.418 1.352-.925.373-2.071.84-2.378.647-.05-.03-.293-.237-.293-1.333 0-2.026.852-3.97 2.37-5.402C5.796 10.457 7.854 9.652 10 9.652c2.145 0 4.203.805 5.72 2.237 1.517 1.433 2.369 3.376 2.369 5.402 0 1.096-.243 1.303-.29 1.333Z"/>
  <defs>
    <linearGradient id="a" x1="10" x2="10" y1="0" y2="20" gradientUnits="userSpaceOnUse">
      <stop stop-color="#F0801E"/>
      <stop offset="1" stop-color="#FFEE02"/>
    </linearGradient>
  </defs>
</svg>
