<svg xmlns="http://www.w3.org/2000/svg" width="20" height="20" fill="none" viewBox="0 0 20 20">
  <path fill="#FFEE02" d="M19.948 7.243a1.06 1.06 0 0 0-.915-.731l-5.773-.524L10.978.645a1.063 1.063 0 0 0-1.955 0L6.74 5.989l-5.774.524a1.063 1.063 0 0 0-.603 1.86L4.727 12.2 3.44 17.867a1.062 1.062 0 0 0 1.58 1.149L10 16.039l4.978 2.976a1.059 1.059 0 0 0 1.54-.538c.073-.195.088-.407.041-.61l-1.286-5.668 4.363-3.826a1.063 1.063 0 0 0 .312-1.13Z"/>
  <path fill="#EFEFEF" d="M19.6 6.74a1.06 1.06 0 0 1 .362 1.114 1.07 1.07 0 0 1-.326.519l-4.363 3.826 1.286 5.667a1.063 1.063 0 0 1-1.581 1.149L10 16.039V0c.426 0 .81.253.978.645l2.282 5.343 5.773.524c.207.018.405.098.567.228Z"/>
</svg>
