<svg xmlns="http://www.w3.org/2000/svg" width="28" height="20" fill="none" viewBox="0 0 28 20">
  <path fill="#E31E25" d="M27.332 3.123c-.32-1.23-1.263-2.197-2.46-2.526C22.702 0 14 0 14 0S5.299 0 3.129.597C1.932.926.99 1.894.67 3.123.088 5.351.088 10 .088 10s0 4.649.581 6.877c.32 1.23 1.263 2.197 2.46 2.526C5.3 20 14.001 20 14.001 20s8.701 0 10.87-.597c1.198-.329 2.14-1.297 2.46-2.526.582-2.228.582-6.877.582-6.877s0-4.649-.581-6.877Z"/>
  <path fill="#fff" d="M11.393 14.782V6.086l6.956 4.348-6.956 4.348Z"/>
</svg>
