<svg xmlns="http://www.w3.org/2000/svg" width="20" height="20" fill="none" viewBox="0 0 20 20">
  <path stroke="#333" stroke-linecap="round" stroke-width="1.11" d="M8.398 4.267V2.776c0-.98.846-1.776 1.825-1.776.98 0 1.775.796 1.775 1.776v1.491M13.8 17.2c0 1.863-2.06 1.8-3.648 1.8C8.496 19 6.6 19 6.6 17.2"/>
  <path stroke="#333" stroke-width="1.11" d="M16.179 16.862H4.066a1.07 1.07 0 0 1-.694-1.88 4.953 4.953 0 0 0 1.763-3.793V9.025a4.993 4.993 0 0 1 4.988-4.988 4.993 4.993 0 0 1 4.987 4.988v2.164c0 1.463.64 2.843 1.758 3.787a1.07 1.07 0 0 1-.689 1.886Z"/>
</svg>
