<svg xmlns="http://www.w3.org/2000/svg" width="21" height="22" fill="none" viewBox="0 0 21 22">
  <path fill="#333" d="M19.688 6.406a4.599 4.599 0 0 0-4.594-4.593 4.596 4.596 0 0 0-4.176 2.69L9.459 3.84a.658.658 0 0 0-.543 0L1.697 7.122a.656.656 0 0 0-.385.597v8.531c0 .258.15.49.385.597l7.219 3.281a.656.656 0 0 0 .543 0l7.219-3.28a.656.656 0 0 0 .384-.598v-5.7a4.597 4.597 0 0 0 2.625-4.144ZM9.188 5.16l1.36.618c-.03.208-.046.419-.048.63 0 1.067.37 2.048.982 2.829L9.188 10.28 3.555 7.72l5.633-2.56ZM2.625 8.738l5.906 2.684v7.09l-5.906-2.684v-7.09Zm13.125 7.09L9.844 18.51v-7.088l2.673-1.215c.76.517 1.658.793 2.577.792.223 0 .44-.022.656-.053v4.88Zm-.656-6.14a3.285 3.285 0 0 1-3.281-3.282 3.285 3.285 0 0 1 3.28-3.281 3.285 3.285 0 0 1 3.282 3.281 3.285 3.285 0 0 1-3.281 3.282Z"/>
  <path fill="#333" d="M17.063 5.75H15.75V4.437a.656.656 0 1 0-1.313 0V5.75h-1.312a.656.656 0 1 0 0 1.313h1.313v1.312a.656.656 0 1 0 1.312 0V7.062h1.313a.656.656 0 1 0 0-1.312Z"/>
</svg>
