<svg xmlns="http://www.w3.org/2000/svg" width="20" height="20" fill="none" viewBox="0 0 20 20">
  <path fill="#333" d="M4.195 20h11.61c2.037 0 3.695-1.557 3.695-3.47V6.153c0-.339-.295-.616-.655-.616h-3.931v-.923C14.914 2.071 12.709 0 10 0 7.29 0 5.086 2.07 5.086 4.615v.923h-3.93c-.361 0-.656.277-.656.616v10.375C.5 18.443 2.158 20 4.195 20ZM6.397 4.615c0-1.867 1.615-3.384 3.603-3.384 1.988 0 3.603 1.517 3.603 3.384v.923H6.397v-.923ZM1.81 6.77h3.276v1.539c0 .338.295.615.655.615.36 0 .656-.277.656-.615v-1.54h7.206v1.539c0 .338.295.615.656.615.36 0 .655-.277.655-.615V6.769h3.276v9.76c0 1.234-1.072 2.24-2.385 2.24H4.195c-1.313 0-2.385-1.006-2.385-2.24V6.77Z"/>
</svg>
