<svg xmlns="http://www.w3.org/2000/svg" width="20" height="20" fill="none" viewBox="0 0 20 20">
  <g clip-path="url(#a)">
    <path stroke="#333" stroke-width="1.11" d="M16.302 7.951h-3.644A.659.659 0 0 1 12 7.293V3.649a.558.558 0 0 1 .954-.395l.56.56 2.554-2.555A.881.881 0 0 1 16.695 1a.88.88 0 0 1 .628.26l1.37 1.369a.888.888 0 0 1 0 1.254l-2.556 2.555.56.56a.558.558 0 0 1-.395.953Z"/>
    <path stroke="#333" stroke-width="1.11" d="M11.092 17.709C12.594 18.56 13.95 19 15.061 19c.22 0 .43-.017.63-.052.39-.068.883-.19 1.244-.53l.008-.008 1.576-1.576c.45-.45.59-1.1.395-1.828-.35-1.307-1.726-2.7-3.006-3.043-.722-.193-1.375-.044-1.84.42l-1.31 1.311a18.803 18.803 0 0 1-3.63-2.821C8.057 9.804 6 7.5 6.305 7.243 7 6.5 7.616 5.93 7.616 5.93c.465-.464.614-1.117.42-1.84-.342-1.279-1.735-2.655-3.042-3.005-.729-.195-1.378-.055-1.828.395L1.59 3.057l-.007.008c-.342.361-.463.854-.53 1.244-.211 1.208.217 2.799 1.238 4.599.906 1.597 2.278 3.35 3.865 4.936 1.586 1.587 3.34 2.96 4.936 3.865Z" clip-rule="evenodd"/>
  </g>
  <defs>
    <clipPath id="a">
      <path fill="#fff" d="M0 0h20v20H0z"/>
    </clipPath>
  </defs>
</svg>
