<svg width="22" height="16" viewBox="0 0 22 16" xmlns="http://www.w3.org/2000/svg">
	<g>
	<path d="M0.75 1C0.75 0.585786 1.08579 0.25 1.5 0.25H10C10.4142 0.25 10.75 0.585786 10.75 1C10.75 1.41421 10.4142 1.75 10 1.75H1.5C1.08579 1.75 0.75 1.41421 0.75 1Z" fill="url(#paint0_linear_251_9159)"/>
	<path d="M0.75 8C0.75 7.58579 1.08579 7.25 1.5 7.25H5C5.41421 7.25 5.75 7.58579 5.75 8C5.75 8.41421 5.41421 8.75 5 8.75H1.5C1.08579 8.75 0.75 8.41421 0.75 8Z" fill="url(#paint1_linear_251_9159)"/>
	<path d="M0.75 15C0.75 14.5858 1.08579 14.25 1.5 14.25H10C10.4142 14.25 10.75 14.5858 10.75 15C10.75 15.4142 10.4142 15.75 10 15.75H1.5C1.08579 15.75 0.75 15.4142 0.75 15Z" fill="url(#paint2_linear_251_9159)"/>
	<path d="M12.548 9.17719C12.5894 9.12837 12.6197 9.07158 12.6367 9.01065C12.6602 8.91004 12.6467 8.80492 12.5986 8.7135C12.5505 8.62209 12.4707 8.55016 12.3732 8.5102C11.9603 8.33663 11.616 8.03994 11.3897 7.66287C11.1634 7.2858 11.0669 6.84781 11.1141 6.41202C11.1252 6.31243 11.1011 6.21241 11.0457 6.12841C10.9903 6.04441 10.9069 5.98143 10.8093 5.94983C10.7452 5.92947 10.6771 5.92327 10.61 5.9317C10.5429 5.94013 10.4784 5.96296 10.4214 5.99854C10.3643 6.03411 10.316 6.08153 10.28 6.13735C10.2441 6.19316 10.2213 6.25596 10.2135 6.32116C10.1626 6.94054 10.3085 7.55866 10.6315 8.09224C10.9545 8.62582 11.4391 9.04922 12.02 9.30541C12.0798 9.32966 12.1443 9.34115 12.2092 9.33912C12.2741 9.33709 12.3379 9.32159 12.3964 9.29366C12.4548 9.26573 12.5065 9.22601 12.548 9.17719Z" fill="url(#paint3_linear_251_9159)"/>
	<path fill-rule="evenodd" clip-rule="evenodd" d="M13.25 10.25C15.183 10.25 16.75 8.683 16.75 6.75C16.75 4.817 15.183 3.25 13.25 3.25C11.317 3.25 9.75 4.817 9.75 6.75C9.75 8.683 11.317 10.25 13.25 10.25ZM13.25 11.25C15.7353 11.25 17.75 9.23528 17.75 6.75C17.75 4.26472 15.7353 2.25 13.25 2.25C10.7647 2.25 8.75 4.26472 8.75 6.75C8.75 9.23528 10.7647 11.25 13.25 11.25Z" fill="url(#paint4_linear_251_9159)"/>
	<path d="M16.1068 10.6003C15.9097 10.4068 15.9097 10.0932 16.1068 9.89971C16.3038 9.70625 16.6233 9.70625 16.8204 9.89971L21.1018 14.1032C21.2989 14.2966 21.2989 14.6103 21.1018 14.8038C20.9048 14.9972 20.5853 14.9972 20.3882 14.8038L16.1068 10.6003Z" fill="url(#paint5_linear_251_9159)"/>
	<defs>
		<linearGradient id="paint0_linear_251_9159" x1="10.9998" y1="0.25" x2="10.9998" y2="15.75" gradientUnits="userSpaceOnUse">
		<stop stop-color="#F0801E"/>
		<stop offset="1" stop-color="#FFEE02"/>
		</linearGradient>
		<linearGradient id="paint1_linear_251_9159" x1="10.9998" y1="0.25" x2="10.9998" y2="15.75" gradientUnits="userSpaceOnUse">
		<stop stop-color="#F0801E"/>
		<stop offset="1" stop-color="#FFEE02"/>
		</linearGradient>
		<linearGradient id="paint2_linear_251_9159" x1="10.9998" y1="0.25" x2="10.9998" y2="15.75" gradientUnits="userSpaceOnUse">
		<stop stop-color="#F0801E"/>
		<stop offset="1" stop-color="#FFEE02"/>
		</linearGradient>
		<linearGradient id="paint3_linear_251_9159" x1="10.9998" y1="0.25" x2="10.9998" y2="15.75" gradientUnits="userSpaceOnUse">
		<stop stop-color="#F0801E"/>
		<stop offset="1" stop-color="#FFEE02"/>
		</linearGradient>
		<linearGradient id="paint4_linear_251_9159" x1="10.9998" y1="0.25" x2="10.9998" y2="15.75" gradientUnits="userSpaceOnUse">
		<stop stop-color="#F0801E"/>
		<stop offset="1" stop-color="#FFEE02"/>
		</linearGradient>
		<linearGradient id="paint5_linear_251_9159" x1="10.9998" y1="0.25" x2="10.9998" y2="15.75" gradientUnits="userSpaceOnUse">
		<stop stop-color="#F0801E"/>
		<stop offset="1" stop-color="#FFEE02"/>
		</linearGradient>
	</defs>
	</g>
</svg>
