<svg xmlns="http://www.w3.org/2000/svg" width="26" height="26" fill="none" viewBox="0 0 26 26">
  <g clip-path="url(#a)">
    <mask id="b" width="26" height="26" x="0" y="0" maskUnits="userSpaceOnUse" style="mask-type:luminance">
      <path fill="#fff" d="M26 0H0v26h26V0Z"/>
    </mask>
    <g mask="url(#b)">
      <path stroke="#333" stroke-linecap="round" stroke-linejoin="round" d="M8.06 9.08v1.79m.08-1.77.53.53.4-.55-.4-.4-.53.42Z"/>
      <path stroke="#333" d="m9.78 15.89-.04-3.8m.04 6.5V15.5m-.08 8.87v-5.54"/>
      <path stroke="#333" stroke-linecap="round" stroke-linejoin="round" d="m11.599 14.62-.63-3.44M7.72 14.43l.63-3.29m2.86-.99-.16 1.15m-2.82-1.27.16 1.5m-.019-1.55 1.31-.79 1.32.79-1.32.82-1.31-.82ZM11 11.21l-1.33.82-1.34-.82m3.208 3.42-1.84 1.26-2.05-1.26"/>
      <path stroke="#333" stroke-linecap="round" stroke-linejoin="round" d="m11.601 14.78 2.18 1.72-4.16 2.4-4-2.4 1.78-1.56"/>
      <path stroke="#333" stroke-linecap="round" stroke-linejoin="round" d="M5.5 16.5v5.54l4.12 2.56 4.2-2.68v-5.31m-.58-13.13v2.2m.1-2.16.64.64.49-.68-.49-.48-.64.52Z"/>
      <path stroke="#333" d="m15.34 11.81-.05-4.65m.05 7.94v-3.78m-.1 10.84v-6.77"/>
      <path stroke="#333" stroke-linecap="round" stroke-linejoin="round" d="m17.56 10.26-.77-4.21m-3.97 3.97L13.6 6m3.48-1.21-.19 1.4m-3.44-1.54.2 1.83m-.04-1.89 1.6-1 1.63 1-1.63 1-1.6-1Zm3.18 1.5-1.63 1-1.6-1m3.92 4.17-2.24 1.55-2.5-1.55m-1.6 1.51 1.3-1.12"/>
      <path stroke="#333" stroke-linecap="round" stroke-linejoin="round" d="m17.56 10.5 2.67 2-5.09 3-3.78-2.3M14 21.7l1.18.74 5-2.84.09-6.92"/>
    </g>
  </g>
  <defs>
    <clipPath id="a">
      <path fill="#fff" d="M0 0h26v26H0z"/>
    </clipPath>
  </defs>
</svg>
