<?xml version="1.0" encoding="utf-8"?>
<!-- Generator: Adobe Illustrator 21.1.0, SVG Export Plug-In . SVG Version: 6.00 Build 0)  -->
<svg version="1.1" id="Слой_1" xmlns="http://www.w3.org/2000/svg" xmlns:xlink="http://www.w3.org/1999/xlink" x="0px" y="0px"
	 viewBox="0 0 20 21" style="enable-background:new 0 0 20 21;" xml:space="preserve">
<style type="text/css">
	.st0{clip-path:url(#SVGID_2_);}
	.st1{fill:#333333;}
</style>
<g>
	<defs>
		<rect id="SVGID_1_" y="0.5" width="20" height="20"/>
	</defs>
	<clipPath id="SVGID_2_">
		<use xlink:href="#SVGID_1_"  style="overflow:visible;"/>
	</clipPath>
	<g class="st0">
		<path class="st1" d="M10,20.1c-0.4,0-0.8-0.1-1.1-0.3L7,18.6c-0.6-0.4-1.5-0.4-2.1,0C4.4,19,3.6,19,3,18.7c-0.6-0.3-1-1-1-1.7V2.5
			c0-1.1,0.9-2,2-2h12c1.1,0,2,0.9,2,2V17c0,0.7-0.4,1.3-1,1.7c-0.6,0.3-1.4,0.3-2-0.1c-0.6-0.4-1.5-0.4-2.1,0l-1.9,1.2
			C10.8,20,10.4,20.1,10,20.1z M6,16.8c0.6,0,1.3,0.2,1.9,0.6l1.9,1.2c0.2,0.1,0.4,0.1,0.5,0l1.9-1.2c1.1-0.7,2.6-0.7,3.7,0
			c0.2,0.1,0.4,0.1,0.4,0c0.1,0,0.2-0.1,0.2-0.4V2.5C16.5,2.2,16.3,2,16,2H4C3.7,2,3.5,2.2,3.5,2.5V17c0,0.2,0.2,0.3,0.2,0.4
			c0.1,0,0.2,0.1,0.4,0C4.7,16.9,5.4,16.8,6,16.8z"/>
		<path class="st1" d="M5.8,5.5h8.5c0.4,0,0.8,0.3,0.8,0.8l0,0C15,6.7,14.7,7,14.3,7H5.8C5.3,7,5,6.7,5,6.3l0,0
			C5,5.8,5.3,5.5,5.8,5.5z"/>
		<path class="st1" d="M5.8,8.5h6.5c0.4,0,0.8,0.3,0.8,0.8l0,0c0,0.4-0.3,0.8-0.8,0.8H5.8C5.3,10,5,9.7,5,9.3l0,0
			C5,8.8,5.3,8.5,5.8,8.5z"/>
		<path class="st1" d="M5.8,11.5h2.5c0.4,0,0.8,0.3,0.8,0.8l0,0C9,12.7,8.7,13,8.3,13H5.8C5.3,13,5,12.7,5,12.3l0,0
			C5,11.8,5.3,11.5,5.8,11.5z"/>
	</g>
</g>
</svg>
