<svg width="20" height="21" viewBox="0 0 20 21" fill="none" xmlns="http://www.w3.org/2000/svg">
<path d="M8.18675 8.11542C8.50234 8.11542 8.75818 8.37126 8.75818 8.68685V14.5797C8.75818 14.8953 8.50234 15.1511 8.18675 15.1511C7.87116 15.1511 7.61532 14.8953 7.61532 14.5797V8.68685C7.61532 8.37126 7.87116 8.11542 8.18675 8.11542Z" fill="#333333"/>
<path d="M12.3859 8.68685C12.3859 8.37126 12.1301 8.11542 11.8145 8.11542C11.4989 8.11542 11.2431 8.37126 11.2431 8.68685V14.5797C11.2431 14.8953 11.4989 15.1511 11.8145 15.1511C12.1301 15.1511 12.3859 14.8953 12.3859 14.5797V8.68685Z" fill="#333333"/>
<path fill-rule="evenodd" clip-rule="evenodd" d="M6.96768 1.362C7.25906 0.830446 7.81703 0.5 8.42321 0.5H11.6007C12.212 0.5 12.7738 0.835939 13.063 1.37442L14.1128 3.32886H19.4286C19.7442 3.32886 20 3.5847 20 3.90029C20 4.21588 19.7442 4.47172 19.4286 4.47172H17.5759C17.6192 4.61688 17.6424 4.77068 17.6424 4.92991V18.8993C17.6424 19.7835 16.9256 20.5003 16.0414 20.5003H3.95775C3.07353 20.5003 2.35672 19.7835 2.35672 18.8993V4.92991C2.35672 4.77068 2.37997 4.61688 2.42325 4.47172H0.571428C0.255837 4.47172 0 4.21588 0 3.90029C0 3.5847 0.255837 3.32886 0.571428 3.32886H5.88953L6.96768 1.362ZM8.42321 1.64286C8.2344 1.64286 8.0606 1.74578 7.96985 1.91135L7.19298 3.32857H12.8154L12.0562 1.91522C11.9661 1.74749 11.7911 1.64286 11.6007 1.64286H8.42321ZM3.49958 4.92991C3.49958 4.67687 3.70471 4.47174 3.95775 4.47174H16.0414C16.2944 4.47174 16.4996 4.67687 16.4996 4.92991V18.8993C16.4996 19.1523 16.2944 19.3575 16.0414 19.3575H3.95775C3.70471 19.3575 3.49958 19.1523 3.49958 18.8993V4.92991Z" fill="#333333"/>
</svg>
