<svg width="44" height="53" viewBox="0 0 44 53" fill="none" xmlns="http://www.w3.org/2000/svg">
<path d="M39.955 6.89238H38.8704C38.1619 2.97828 34.7665 0 30.6891 0C26.6142 0 23.2207 2.97839 22.5126 6.89238H4.0491C1.81637 6.89238 0 8.72467 0 10.977V15.8093C0 17.8176 1.44532 19.4881 3.34119 19.8273V48.9476H2.25835C1.151 48.9476 0.249777 49.8576 0.249777 50.9761C0.249777 52.0916 1.14833 53 2.25835 53H41.7415C42.8489 53 43.7501 52.0921 43.7501 50.9761C43.7501 49.8576 42.8489 48.9476 41.7415 48.9476H40.6588V19.8278C42.5541 19.49 44 17.8188 44 15.8093V10.977C43.9999 8.72467 42.1852 6.89238 39.955 6.89238ZM30.6892 1.10416C34.4148 1.10416 37.5319 3.97415 37.885 7.72036C37.9257 8.15926 37.9191 8.46501 37.9191 8.40946C37.9155 11.1491 34.3896 16.9599 32.9124 19.2856C32.4118 20.0718 31.9008 20.8512 31.3795 21.6236C31.0476 22.1202 30.3272 22.1181 29.9951 21.6242C28.2289 18.9762 23.4693 11.6553 23.4642 8.41025L23.464 8.40474C23.464 4.39292 26.6964 1.10416 30.6892 1.10416ZM1.09343 15.8093V10.977C1.09343 9.3337 2.41915 7.99654 4.0491 7.99654H22.3796C22.3735 8.13241 22.3705 8.2684 22.3705 8.4044V8.4053L22.3708 8.40789C22.3733 11.219 25.4007 16.4017 26.866 18.7898H4.0491C2.41915 18.7898 1.09343 17.4526 1.09343 15.8093ZM42.6566 50.976C42.6566 51.483 42.246 51.8957 41.7414 51.8957H2.25835C1.74977 51.8957 1.3432 51.4827 1.3432 50.976C1.3432 50.4662 1.75378 50.0516 2.25835 50.0516H41.7414C42.246 50.0516 42.6566 50.4662 42.6566 50.976ZM19.4543 48.9475H8.008V30.3562C8.008 29.7591 8.48906 29.2733 9.0806 29.2733H18.3822C18.9732 29.2733 19.4543 29.7591 19.4543 30.3562V48.9475ZM20.5477 48.9475V30.3562C20.5477 29.1501 19.576 28.1691 18.3822 28.1691H9.0806C7.88628 28.1691 6.91457 29.15 6.91457 30.3562V48.9475H4.43462V19.8939H27.5554C28.0562 20.684 28.5675 21.4673 29.0892 22.2435C29.8608 23.391 31.5272 23.3796 32.2847 22.2443C32.7786 21.5127 33.2632 20.7748 33.7384 20.0308C33.7674 19.9856 33.7984 19.9389 33.8271 19.8939H39.5655V48.9476H20.5477V48.9475ZM42.9065 15.8093C42.9065 17.4526 41.5824 18.7898 39.955 18.7898H34.5173C35.9941 16.3831 39.01 11.2297 39.0125 8.408L39.0127 8.4053V8.4044C39.0127 8.26586 39.0095 8.12968 39.0036 7.99654H39.955C41.5823 7.99654 42.9065 9.33359 42.9065 10.977V15.8093ZM35.0485 28.1692H24.4062C23.2839 28.1692 22.3704 29.0914 22.3704 30.2247V44.3459C22.3704 45.4792 23.2839 46.4014 24.4062 46.4014H35.0485C36.1707 46.4014 37.0842 45.4792 37.0842 44.3459V30.2246C37.0843 29.0914 36.1707 28.1692 35.0485 28.1692ZM35.9909 44.3459C35.9909 44.8705 35.5681 45.2973 35.0486 45.2973H24.4063C23.8868 45.2973 23.464 44.8705 23.464 44.3459V30.2246C23.464 29.7 23.8868 29.2733 24.4063 29.2733H35.0486C35.5681 29.2733 35.9909 29.7 35.9909 30.2246V44.3459ZM30.6897 12.6755C33.0229 12.6755 34.9214 10.7599 34.9214 8.40553C34.9214 6.04922 33.0229 4.13226 30.6897 4.13226C28.3582 4.13226 26.4612 6.04922 26.4612 8.40553C26.4612 10.7599 28.3582 12.6755 30.6897 12.6755ZM30.6897 5.23642C32.4201 5.23642 33.828 6.65814 33.828 8.40553C33.828 10.1512 32.4201 11.5714 30.6897 11.5714C28.961 11.5714 27.5546 10.1512 27.5546 8.40553C27.5546 6.65814 28.961 5.23642 30.6897 5.23642ZM10.1024 38.1185V40.1022C10.1024 40.4071 9.85788 40.6544 9.55565 40.6544C9.25343 40.6544 9.00889 40.4072 9.00889 40.1022V38.1185C9.00887 38.046 9.023 37.9742 9.05048 37.9072C9.07795 37.8402 9.11822 37.7793 9.169 37.728C9.21977 37.6768 9.28005 37.6361 9.3464 37.6083C9.41274 37.5806 9.48385 37.5663 9.55565 37.5664C9.62746 37.5663 9.69857 37.5806 9.76491 37.6083C9.83126 37.6361 9.89154 37.6768 9.94231 37.728C9.99309 37.7793 10.0334 37.8402 10.0608 37.9072C10.0883 37.9742 10.1024 38.046 10.1024 38.1185Z" fill="#333333"/>
</svg>
