<svg width="44" height="50" viewBox="0 0 44 50" fill="none" xmlns="http://www.w3.org/2000/svg">
<path d="M40.868 10.9078H36.9465C36.8782 10.9078 36.8107 10.9213 36.7476 10.9475C36.6846 10.9736 36.6273 11.012 36.579 11.0604C36.5308 11.1087 36.4925 11.1661 36.4664 11.2293C36.4403 11.2925 36.4268 11.3603 36.4268 11.4287V16.1447H30.1279C31.245 13.8025 32.0288 11.6061 32.0288 10.0465C32.0287 4.5068 27.5296 0 22 0C16.4701 0 11.9713 4.5068 11.9713 10.0465C11.9713 11.6061 12.7551 13.8026 13.8723 16.1447H7.57306V11.4287C7.57306 11.2905 7.51832 11.1581 7.42086 11.0604C7.32341 10.9627 7.19124 10.9078 7.05342 10.9078H3.13197C1.40253 10.9078 0 12.3135 0 14.0469V46.8609C0 48.592 1.40484 50 3.13197 50H40.868C42.5949 50 44 48.592 44 46.8609V14.0469C44 12.3136 42.5976 10.9078 40.868 10.9078ZM36.4268 17.1864V23.0018C35.286 22.3772 34.1951 21.7161 32.8935 21.7902C30.671 21.9135 29.1649 24.2048 27.3237 24.3607C26.752 24.4058 26.184 24.2249 25.7292 23.891C27.0072 21.8863 28.4381 19.5023 29.6146 17.1864H36.4268ZM13.0105 10.0465C13.0105 5.08121 17.0432 1.04165 22 1.04165C26.9568 1.04165 30.9895 5.08121 30.9895 10.0465C30.9895 14.4486 23.8304 24.9774 22 27.597C20.1696 24.9777 13.0105 14.4498 13.0105 10.0465ZM7.57296 17.1864H14.3854C15.0788 18.5514 15.8597 19.9403 16.6474 21.2619C16.2778 21.5251 15.8742 21.7544 15.4445 21.9917C14.5648 22.4779 13.655 22.9805 13.0376 23.8555C12.0974 25.1898 12.1978 26.8247 12.2947 28.406C12.3858 29.8904 12.4718 31.2923 11.7038 32.3205C10.811 33.5229 9.11687 33.7437 7.57286 33.4845V17.1864H7.57296ZM1.03929 14.0469C1.03929 12.8893 1.97694 11.9495 3.13197 11.9495H6.53368V43.7219H3.13197C2.35201 43.7219 1.6152 44.0065 1.03929 44.5265V14.0469ZM20.7111 48.9585H3.13197C1.97805 48.9585 1.03929 48.0176 1.03929 46.861C1.03929 45.7033 1.97694 44.7635 3.13197 44.7635H7.05332C7.19114 44.7635 7.32331 44.7087 7.42076 44.611C7.51822 44.5133 7.57296 44.3809 7.57296 44.2427V34.5374C9.9522 34.9071 11.6834 34.0923 12.5366 32.9438C13.5327 31.6105 13.4307 29.9489 13.332 28.342C13.2422 26.8761 13.1572 25.4918 13.8864 24.4567C14.3659 23.7773 15.1334 23.3531 15.9461 22.904C16.3609 22.6747 16.7839 22.4311 17.1852 22.1524C19.3462 25.6898 21.398 28.553 21.5786 28.8038C21.7858 29.0913 22.2141 29.0915 22.4214 28.8038C22.5546 28.6187 23.7067 27.0114 25.1688 24.762C25.8166 25.2174 26.6148 25.4615 27.4094 25.399C29.6368 25.2106 31.0953 22.9334 32.9517 22.8304C34.1073 22.7602 35.1709 23.5382 36.4267 24.1688V28.155C34.6383 28.9318 33.2699 30.2696 32.7046 31.8681C32.1207 33.5026 32.2787 35.5347 31.1027 36.4361C30.2136 37.1156 28.9054 36.8631 27.9752 36.399C26.8961 35.8685 25.8647 34.939 24.7382 34.3201C23.2042 33.4738 21.6722 33.367 20.5337 34.0264C18.7203 35.0792 18.546 37.6154 19.3118 39.5786C19.9872 41.291 21.1881 42.772 21.5988 44.4444C21.9716 45.948 21.6268 47.6517 20.7111 48.9585ZM40.868 48.9585H21.9472C22.7535 47.5046 23.0022 45.7852 22.608 44.194C22.1448 42.3089 20.9447 40.8841 20.2788 39.1972C19.6901 37.6876 19.7619 35.6782 21.0544 34.9278C21.8577 34.4626 23.0474 34.5763 24.238 35.2329C25.3725 35.8561 26.2822 36.7267 27.5151 37.3327C28.7218 37.9349 30.4645 38.2329 31.7335 37.264C33.3171 36.0496 33.1086 33.8282 33.6836 32.2175C34.1623 30.8639 35.2485 29.9146 36.4269 29.3132V44.2427C36.4269 44.3111 36.4404 44.3788 36.4665 44.442C36.4926 44.5052 36.5308 44.5627 36.5791 44.611C36.6274 44.6594 36.6847 44.6978 36.7477 44.7239C36.8108 44.7501 36.8783 44.7636 36.9466 44.7635H40.8681C42.021 44.7635 42.9608 45.7009 42.9608 46.861C42.9607 48.0176 42.022 48.9585 40.868 48.9585ZM42.9607 44.5264C42.3848 44.0064 41.6479 43.7218 40.868 43.7218H37.4661V11.9494H40.868C42.0208 11.9494 42.9607 12.8868 42.9607 14.0468V44.5264ZM27.3211 10.0465C27.3211 7.10882 24.934 4.71864 22 4.71864C19.066 4.71864 16.6789 7.10882 16.6789 10.0465C16.6789 12.987 19.066 15.3795 22 15.3795C24.934 15.3795 27.3211 12.987 27.3211 10.0465ZM17.7181 10.0465C17.7181 7.68304 19.6391 5.7603 22 5.7603C24.3611 5.7603 26.2819 7.68304 26.2819 10.0465C26.2819 12.4128 24.3612 14.3379 22 14.3379C19.6391 14.3379 17.7181 12.4128 17.7181 10.0465Z" fill="#333333"/>
</svg>
