<?xml version="1.0" encoding="utf-8"?>
<!-- Generator: Adobe Illustrator 21.1.0, SVG Export Plug-In . SVG Version: 6.00 Build 0)  -->
<svg version="1.1" id="Слой_1" xmlns="http://www.w3.org/2000/svg" xmlns:xlink="http://www.w3.org/1999/xlink" x="0px" y="0px"
	 viewBox="0 0 20 21" style="enable-background:new 0 0 20 21;" xml:space="preserve">
<style type="text/css">
	.st0{fill:#333333;}
</style>
<g>
	<path class="st0" d="M13.2,11.5c0,0.1,0.1,0.1,0.1,0.1l0.1-0.2l-0.1,0.2c0.1,0,0.1,0.1,0.2,0.1c0.1,0,0.1,0,0.2-0.1
		c0.1,0,0.1-0.1,0.1-0.1c0.5-0.8,1.1-1,1.6-0.8c0.3,0.1,0.5,0.2,0.7,0.5c0.2,0.2,0.3,0.6,0.3,0.9c0,0.5-0.3,1.1-1,1.9
		c-0.6,0.6-1.3,1.2-1.7,1.4c0,0-0.1,0-0.1,0c-0.1,0-0.1,0-0.1,0l-0.1,0.2l0.1-0.2c-0.4-0.3-1.1-0.8-1.7-1.4v0c-0.7-0.7-1-1.4-1-1.9
		c0-0.4,0.1-0.7,0.3-0.9c0.2-0.2,0.4-0.4,0.7-0.5c0.1,0,0.2,0,0.3,0h0C12.3,10.6,12.8,10.8,13.2,11.5z M13.2,11.5l0.2-0.1L13.2,11.5
		C13.2,11.5,13.2,11.5,13.2,11.5z M12.9,16L12.9,16l2.9-1.7c0.8-0.8,1.2-1.6,1.2-2.3c0-0.5-0.1-0.9-0.4-1.3l0.2-0.1c0,0,0,0,0,0
		c-0.3-0.4-0.7-0.7-1.1-0.8c-0.4-0.1-0.9-0.1-1.3,0.1c-0.3,0.1-0.6,0.3-0.8,0.6c-0.2-0.3-0.5-0.5-0.8-0.6c-0.4-0.2-0.9-0.2-1.3-0.1
		c-0.4,0.1-0.8,0.4-1.1,0.8C10,11,9.8,11.5,9.8,12.1c0,0.8,0.4,1.6,1.3,2.4h0C11.7,15.2,12.5,15.8,12.9,16z M13.5,16.2
		c0.2,0,0.4-0.1,0.6-0.2l-0.6,0L13.5,16.2C13.5,16.2,13.5,16.2,13.5,16.2z"/>
	<path class="st0" d="M13.5,16.4h-0.2V16l-0.4,0.2l-0.1-0.1c-0.4-0.3-1.2-0.8-1.9-1.5c-0.9-0.9-1.3-1.8-1.3-2.6
		c0-0.6,0.2-1.1,0.5-1.5c0.3-0.4,0.7-0.7,1.2-0.8c0.5-0.1,1-0.1,1.5,0.1c0.3,0.1,0.5,0.3,0.7,0.5c0.2-0.2,0.5-0.4,0.7-0.5
		c0.5-0.2,1-0.3,1.5-0.1c0.5,0.1,0.9,0.4,1.2,0.8l0.1,0.2l-0.2,0.1c0.2,0.4,0.3,0.8,0.3,1.3c0,0.8-0.4,1.6-1.3,2.4l0,0l-2.2,1.3l1,0
		l-0.5,0.3C14,16.3,13.7,16.4,13.5,16.4z M11.9,10c-0.2,0-0.3,0-0.5,0.1c-0.4,0.1-0.8,0.4-1,0.7c-0.3,0.4-0.4,0.8-0.4,1.3
		c0,0.7,0.4,1.5,1.2,2.3c0.6,0.6,1.3,1.1,1.7,1.4l0.4-0.2l-0.2-0.2l0,0c-0.4-0.3-1-0.8-1.6-1.3c-0.7-0.7-1.1-1.4-1.1-2
		c0-0.4,0.1-0.8,0.3-1c0.2-0.3,0.5-0.5,0.8-0.5c0.1,0,0.2-0.1,0.4-0.1c0.3,0,0.9,0.1,1.4,0.8l0,0l0.1,0.2c0,0,0,0,0.1,0.1
		c0.1,0,0.1,0,0.2,0c0,0,0.1,0,0.1-0.1c0.5-0.9,1.3-1.1,1.8-0.9c0.3,0.1,0.6,0.3,0.8,0.5c0.2,0.3,0.3,0.7,0.3,1.1
		c0,0.6-0.4,1.3-1.1,2c-0.2,0.2-0.4,0.4-0.6,0.6l0.8-0.5c0.7-0.8,1.1-1.5,1.1-2.1c0-0.4-0.1-0.9-0.4-1.2l-0.1-0.2l0.2-0.1
		c-0.2-0.3-0.5-0.5-0.9-0.5c-0.4-0.1-0.8-0.1-1.2,0.1c-0.3,0.1-0.5,0.3-0.7,0.6l-0.2,0.2l-0.2-0.2c-0.2-0.2-0.5-0.4-0.7-0.6
		C12.4,10.1,12.1,10,11.9,10z M13.6,15.3L13.6,15.3L13.6,15.3L13.6,15.3z M13.5,15.2l0.1,0.1L13.5,15.2c0.4-0.3,1.2-0.8,1.8-1.4
		c0.6-0.7,1-1.3,1-1.7c0-0.3-0.1-0.6-0.2-0.8c-0.1-0.2-0.3-0.3-0.6-0.4c-0.2-0.1-0.9-0.2-1.4,0.7c-0.1,0.1-0.1,0.2-0.2,0.2
		c-0.1,0.1-0.3,0.1-0.4,0.1l0,0l-0.2-0.1l0,0L13,11.7l0,0c0,0,0-0.1-0.1-0.1v0c-0.4-0.7-0.9-0.8-1.1-0.8c-0.1,0-0.2,0-0.3,0
		c-0.2,0.1-0.4,0.2-0.6,0.4c-0.2,0.2-0.2,0.5-0.2,0.8c0,0.5,0.3,1.1,1,1.7C12.4,14.4,13.1,14.9,13.5,15.2L13.5,15.2z"/>
</g>
<path class="st0" d="M18,19H2c-1.1,0-2-0.9-2-2V5c0-1.1,0.9-2,2-2h16c1.1,0,2,0.9,2,2v12C20,18.1,19.1,19,18,19z M2,4.5
	C1.7,4.5,1.5,4.7,1.5,5v12c0,0.3,0.2,0.5,0.5,0.5h16c0.3,0,0.5-0.2,0.5-0.5V5c0-0.3-0.2-0.5-0.5-0.5H2z"/>
<rect x="1" y="6" class="st0" width="18" height="1.5"/>
</svg>
