<svg xmlns="http://www.w3.org/2000/svg" width="11" height="11" fill="none" viewBox="0 0 11 11">
  <path fill="#333" d="M5.5 2.583 1.598 6.457a.934.934 0 0 1-.673.274.895.895 0 0 1-.659-.266A.87.87 0 0 1 0 5.827c0-.248.089-.459.266-.63L5.5 0l5.234 5.196a.845.845 0 0 1 .266.63.87.87 0 0 1-.266.639.895.895 0 0 1-.659.266.934.934 0 0 1-.673-.274L5.5 2.583Zm0 4.284-3.902 3.86A.934.934 0 0 1 .925 11a.895.895 0 0 1-.659-.266.86.86 0 0 1-.266-.63c0-.243.089-.456.266-.639L5.5 4.27l5.234 5.196a.886.886 0 0 1 .266.639.86.86 0 0 1-.266.63.895.895 0 0 1-.659.266.934.934 0 0 1-.673-.274L5.5 6.867Z"/>
</svg>
