<?xml version="1.0" encoding="utf-8"?>
<!-- Generator: Adobe Illustrator 21.1.0, SVG Export Plug-In . SVG Version: 6.00 Build 0)  -->
<svg version="1.1" id="Слой_1" xmlns="http://www.w3.org/2000/svg" xmlns:xlink="http://www.w3.org/1999/xlink" x="0px" y="0px"
	 viewBox="0 0 20 21" style="enable-background:new 0 0 20 21;" xml:space="preserve">
<style type="text/css">
	.st0{clip-path:url(#SVGID_2_);}
	.st1{fill:#333333;}
</style>
<g>
	<defs>
		<rect id="SVGID_1_" y="0.5" width="20" height="20"/>
	</defs>
	<clipPath id="SVGID_2_">
		<use xlink:href="#SVGID_1_"  style="overflow:visible;"/>
	</clipPath>
	<g class="st0">
		<g>
			<path class="st1" d="M18.5,13.6L18.5,13.6c0,0.6-0.2,1-0.5,1.2c-0.3,0.2-0.7,0.3-1,0.3h-0.6V8.5H17c0.3,0,0.7,0,1,0.2
				c0.3,0.2,0.5,0.5,0.5,1.2c0,0,0,0,0,0L18.5,13.6z M17.6,7.4c-0.1-3.9-3.5-6.6-7.6-6.6c-4.1,0-7.5,2.6-7.6,6.6
				C1.9,7.5,1.4,7.7,1,8.1c-0.4,0.4-0.7,1-0.7,1.8v3.7c0,0.9,0.3,1.5,0.8,1.9c0.5,0.4,1.2,0.6,1.8,0.6h1.2c0.1,0,0.3-0.1,0.4-0.2
				c0.1-0.1,0.2-0.2,0.2-0.4V7.9c0-0.1-0.1-0.3-0.2-0.4C4.5,7.4,4.3,7.4,4.2,7.4H3.5C3.6,4.1,6.5,1.9,10,1.9c3.5,0,6.4,2.2,6.5,5.5
				h-0.6c-0.1,0-0.3,0.1-0.4,0.2c-0.1,0.1-0.2,0.2-0.2,0.4v7.6c0,0.1,0.1,0.3,0.2,0.4c0.1,0.1,0.2,0.2,0.4,0.2h0.6
				c0,0.6-0.1,1-0.3,1.3c-0.2,0.3-0.4,0.5-0.7,0.6c-0.3,0.1-0.7,0.2-1.2,0.2c-0.2,0-0.5,0-0.8,0c0,0,0,0-0.1,0c-0.3,0-0.5,0-0.8,0
				v-0.1c0-0.5-0.4-0.9-1-0.9H9c-0.5,0-1,0.4-1,0.9v1.3c0,0.5,0.4,0.9,1,0.9h2.6c0.5,0,1-0.4,1-0.9v-0.1c0.3,0,0.5,0,0.8,0l0,0
				c0.3,0,0.6,0,0.9,0c0.6,0,1.1-0.1,1.6-0.3c0.5-0.2,0.9-0.5,1.2-1c0.3-0.5,0.4-1.1,0.5-2c0.5-0.1,1-0.3,1.4-0.7
				c0.4-0.4,0.7-1,0.7-1.8V9.9c0-0.8-0.3-1.4-0.7-1.8C18.6,7.7,18.1,7.5,17.6,7.4z M3.6,8.4V15H3c-0.3,0-0.7,0-1-0.2
				c-0.3-0.2-0.5-0.5-0.5-1.2V9.9c0-0.6,0.2-1,0.5-1.2c0.3-0.2,0.7-0.3,1-0.3H3.6z M11.4,18.7v0.4H9.1v-1h2.3V18.7z"/>
			<path class="st1" d="M11.6,20.4H9c-0.6,0-1.1-0.5-1.1-1.1v-1.3C7.9,17.5,8.4,17,9,17h2.6c0.6,0,1.1,0.5,1.1,1c0.2,0,0.4,0,0.6,0
				l0.2,0c0.2,0,0.5,0,0.7,0c0.6,0,0.9-0.1,1.2-0.2c0.3-0.1,0.5-0.3,0.6-0.5c0.1-0.3,0.2-0.6,0.3-1.1h-0.5c-0.2,0-0.4-0.1-0.5-0.2
				c-0.1-0.1-0.2-0.3-0.2-0.5V7.9c0-0.2,0.1-0.4,0.2-0.5c0.1-0.1,0.3-0.2,0.5-0.2h0.5c-0.2-3-2.8-5.2-6.3-5.2
				c-3.5,0-6.1,2.2-6.3,5.2h0.5c0.2,0,0.4,0.1,0.5,0.2c0.1,0.1,0.2,0.3,0.2,0.5v7.6c0,0.2-0.1,0.4-0.2,0.5c-0.1,0.1-0.3,0.2-0.5,0.2
				H3c-0.7,0-1.4-0.2-1.9-0.6c-0.6-0.5-0.9-1.2-0.9-2.1V9.9c0-0.8,0.2-1.4,0.7-1.9c0.3-0.3,0.8-0.6,1.3-0.7C2.4,3.5,5.6,0.7,10,0.7
				s7.6,2.8,7.7,6.6c0.5,0.1,1,0.3,1.3,0.7c0.5,0.5,0.7,1.1,0.7,1.9v3.7c0,0.8-0.2,1.4-0.7,1.9c-0.3,0.3-0.8,0.6-1.4,0.7
				c-0.1,0.8-0.2,1.4-0.5,1.9c-0.3,0.5-0.7,0.8-1.3,1c-0.5,0.2-1.2,0.3-1.7,0.3c-0.3,0-0.6,0-0.9,0h0c-0.2,0-0.4,0-0.7,0
				C12.7,20,12.2,20.4,11.6,20.4z M9,17.3c-0.5,0-0.8,0.4-0.8,0.8v1.3c0,0.4,0.4,0.8,0.8,0.8h2.6c0.5,0,0.8-0.4,0.8-0.8v-0.2l0.1,0
				c0.3,0,0.5,0,0.8,0l0.1,0c0.3,0,0.6,0,0.9,0c0.5,0,1.1-0.1,1.6-0.3c0.5-0.2,0.9-0.5,1.1-0.9c0.3-0.5,0.4-1.1,0.5-1.9l0-0.1l0.1,0
				c0.5-0.1,1-0.3,1.3-0.6c0.4-0.4,0.6-1,0.6-1.7V9.9c0-0.7-0.2-1.3-0.6-1.7c-0.3-0.3-0.8-0.5-1.3-0.6l-0.1,0l0-0.1
				C17.4,3.7,14.2,1,10,1S2.6,3.7,2.6,7.4l0,0.1l-0.1,0c-0.5,0.1-1,0.3-1.3,0.6c-0.4,0.4-0.6,1-0.6,1.7v3.7c0,0.8,0.3,1.4,0.8,1.8
				c0.4,0.3,1,0.5,1.7,0.5h1.2c0.1,0,0.2,0,0.3-0.1c0.1-0.1,0.1-0.2,0.1-0.3V7.9c0-0.1,0-0.2-0.1-0.3C4.4,7.6,4.3,7.5,4.2,7.5H3.4
				l0-0.2C3.5,4.1,6.3,1.8,10,1.8s6.5,2.4,6.6,5.6l0,0.2h-0.8c-0.1,0-0.2,0-0.3,0.1s-0.1,0.2-0.1,0.3v7.6c0,0.1,0,0.2,0.1,0.3
				c0.1,0.1,0.2,0.1,0.3,0.1h0.8l0,0.2c0,0.6-0.1,1-0.3,1.3c-0.2,0.3-0.4,0.5-0.8,0.7c-0.3,0.1-0.7,0.2-1.3,0.2c-0.2,0-0.4,0-0.7,0
				l-0.2,0c-0.2,0-0.5,0-0.8,0l-0.2,0v-0.3c0-0.4-0.4-0.8-0.8-0.8H9z M11.6,19.3H9v-1.3h2.6V19.3z M9.3,19h2v-0.7h-2V19z M17,15.1
				h-0.8V8.3H17c0.3,0,0.7,0,1.1,0.3c0.4,0.3,0.6,0.7,0.6,1.3l0,3.7c0,0.6-0.2,1-0.6,1.3C17.7,15.1,17.3,15.1,17,15.1z M16.5,14.8
				H17c0.3,0,0.6,0,0.9-0.2c0.3-0.2,0.5-0.5,0.5-1v0l0-3.7c0-0.5-0.2-0.8-0.5-1c-0.3-0.2-0.6-0.2-0.9-0.2h-0.5V14.8z M3.8,15.1H3
				c-0.3,0-0.7,0-1.1-0.3c-0.4-0.3-0.6-0.7-0.6-1.3V9.9c0-0.6,0.2-1,0.6-1.3C2.2,8.3,2.7,8.3,3,8.3h0.8V15.1z M3,8.6
				c-0.3,0-0.6,0-0.9,0.2C1.8,9,1.6,9.4,1.6,9.9v3.7c0,0.5,0.2,0.8,0.5,1c0.3,0.2,0.6,0.2,0.9,0.2h0.5V8.6H3z"/>
		</g>
	</g>
</g>
</svg>
