<svg width="16" height="17" viewBox="0 0 16 17" fill="none" xmlns="http://www.w3.org/2000/svg">
<path fill-rule="evenodd" clip-rule="evenodd" d="M8 1.08325C4.82435 1.08325 2.25 3.65761 2.25 6.83325C2.25 9.26571 3.63847 11.5199 4.91743 13.0973C5.56843 13.9002 6.21762 14.56 6.70378 15.0191C6.94733 15.2492 7.15118 15.43 7.29551 15.5544C7.3677 15.6166 7.4251 15.6648 7.46523 15.698C7.48529 15.7147 7.50105 15.7276 7.51219 15.7366L7.52541 15.7474L7.52935 15.7505L7.53064 15.7516L7.53112 15.7519C7.53131 15.7521 7.53148 15.7522 8 15.1666L7.53148 15.7522C7.80539 15.9714 8.19461 15.9714 8.46852 15.7522L8 15.1666C8.46852 15.7522 8.46869 15.7521 8.46888 15.7519L8.46936 15.7516L8.47065 15.7505L8.47459 15.7474L8.48781 15.7366C8.49895 15.7276 8.51471 15.7147 8.53477 15.698C8.5749 15.6648 8.6323 15.6166 8.70449 15.5544C8.84882 15.43 9.05267 15.2492 9.29622 15.0191C9.78238 14.56 10.4316 13.9002 11.0826 13.0973C12.3615 11.5199 13.75 9.26571 13.75 6.83325C13.75 3.65761 11.1756 1.08325 8 1.08325ZM8.26628 13.9286C8.17 14.0196 8.08073 14.1019 8 14.175C7.91927 14.1019 7.83 14.0196 7.73372 13.9286C7.28238 13.5023 6.68157 12.8913 6.08257 12.1526C4.86153 10.6466 3.75 8.73413 3.75 6.83325C3.75 4.48603 5.65278 2.58325 8 2.58325C10.3472 2.58325 12.25 4.48603 12.25 6.83325C12.25 8.73413 11.1385 10.6466 9.91743 12.1526C9.31843 12.8913 8.71762 13.5023 8.26628 13.9286ZM8 4.08325C6.48122 4.08325 5.25 5.31447 5.25 6.83325C5.25 8.35203 6.48122 9.58325 8 9.58325C9.51878 9.58325 10.75 8.35203 10.75 6.83325C10.75 5.31447 9.51878 4.08325 8 4.08325ZM6.75 6.83325C6.75 6.1429 7.30965 5.58325 8 5.58325C8.69035 5.58325 9.25 6.1429 9.25 6.83325C9.25 7.5236 8.69035 8.08325 8 8.08325C7.30965 8.08325 6.75 7.5236 6.75 6.83325Z" fill="#E31E25"/>
</svg>
