<svg width="20" height="21" viewBox="0 0 20 21" fill="none" xmlns="http://www.w3.org/2000/svg">
<g clip-path="url(#clip0_428_19466)">
<path d="M0.16288 10.9429L0.154715 10.9347C0.142467 10.9184 0.130219 10.9062 0.122055 10.8898C0.117972 10.8857 0.117972 10.8817 0.11389 10.8776C0.105724 10.8613 0.0934763 10.8449 0.0853119 10.8286C0.0853119 10.8245 0.0812302 10.8204 0.0812302 10.8204C0.0730658 10.8041 0.0649004 10.7878 0.056735 10.7674C0.056735 10.7633 0.056735 10.7633 0.0526524 10.7592C0.044488 10.7429 0.0404053 10.7224 0.0322399 10.702C0.0322399 10.698 0.0322399 10.6939 0.0281572 10.6939C0.0240746 10.6735 0.0159101 10.6571 0.0159101 10.6367C0.0159101 10.6286 0.0159101 10.6245 0.0118275 10.6163C0.00774574 10.6 0.00774479 10.5836 0.00366211 10.5673C-0.000419617 10.5428 -0.000418663 10.5224 -0.000418663 10.4979C-0.000418663 10.4734 -0.000419617 10.453 0.00366211 10.4285C0.00366211 10.4122 0.00774574 10.3959 0.0118275 10.3795C0.0118275 10.3714 0.0118284 10.3673 0.0159101 10.3591C0.0199928 10.3387 0.0240746 10.3224 0.0281572 10.302C0.0281572 10.2979 0.0281582 10.2938 0.0322399 10.2938C0.0363226 10.2734 0.044488 10.257 0.0526524 10.2366C0.0526524 10.2326 0.0526524 10.2326 0.056735 10.2285C0.0649004 10.2121 0.0730658 10.1917 0.0812302 10.1754C0.0812302 10.1713 0.0853119 10.1672 0.0853119 10.1672C0.0934763 10.1509 0.101642 10.1346 0.11389 10.1182C0.117972 10.1142 0.117972 10.1101 0.122055 10.106C0.134302 10.0897 0.142467 10.0733 0.154715 10.0611L0.16288 10.0529C0.17921 10.0366 0.191456 10.0162 0.211868 9.99985L4.24943 5.96637C4.52295 5.69285 4.96794 5.69285 5.24147 5.96637C5.51499 6.2399 5.51499 6.68489 5.24147 6.95841L2.40007 9.79981H13.6963C14.0841 9.79981 14.3984 10.1142 14.3984 10.4979C14.3984 10.8857 14.0841 11.2001 13.6963 11.2001H2.39599L5.21697 14.0211C5.4905 14.2946 5.4905 14.7396 5.21697 15.0131C5.08225 15.1478 4.90262 15.2172 4.72299 15.2172C4.54336 15.2172 4.36374 15.1478 4.22901 15.0131L0.215951 11.0001C0.195539 10.9756 0.17921 10.9592 0.16288 10.9429Z" fill="#333333"/>
<path d="M15.4805 1.90029H10.2549C9.86708 1.90029 9.55273 1.58594 9.55273 1.20218C9.55273 0.81435 9.86708 0.5 10.2549 0.5H15.4805C17.5748 0.5 19.2812 2.20647 19.2812 4.30078V16.6992C19.2812 18.7935 17.5748 20.5 15.4805 20.5H10.3406C9.95282 20.5 9.63847 20.1856 9.63847 19.8019C9.63847 19.4141 9.95282 19.0997 10.3406 19.0997H15.4805C16.8032 19.0997 17.881 18.0219 17.881 16.6992V4.30078C17.8769 2.97397 16.8032 1.90029 15.4805 1.90029Z" fill="#333333"/>
</g>
<defs>
<clipPath id="clip0_428_19466">
<rect width="20" height="20" fill="white" transform="matrix(-1 0 0 1 20 0.5)"/>
</clipPath>
</defs>
</svg>
