<svg width="25" height="22" viewBox="0 0 25 22" fill="none" xmlns="http://www.w3.org/2000/svg">
<path d="M0.273438 10.7051C0.273438 13.8396 0.779297 16.2289 1.79102 17.8729C2.48347 18.9982 3.35789 19.7383 4.41426 20.0934C4.71213 20.1935 5 19.9555 5 19.6413V19.3865C5 19.1705 4.85944 18.9824 4.66279 18.8928C3.89856 18.545 3.26649 17.9024 2.7666 16.9651C1.97168 15.4656 1.57422 13.3247 1.57422 10.5425C1.57422 7.48926 1.98975 5.19934 2.8208 3.67273C3.65186 2.14612 4.81262 1.38281 6.3031 1.38281C8.91628 1.38281 10.3665 3.76251 10.6536 8.52192C10.6697 8.78926 10.8895 9.00049 11.1573 9.00049H11.4802C11.7637 9.00049 11.991 8.76471 11.9751 8.48167C11.6671 2.99031 9.81258 0.244629 6.4115 0.244629C4.44226 0.244629 2.92468 1.12537 1.85876 2.88684C0.80188 4.63928 0.273438 7.24536 0.273438 10.7051Z" fill="#333333"/>
<path fill-rule="evenodd" clip-rule="evenodd" d="M11.8188 15.4663C12.0942 15.7505 12.4561 15.8926 12.9043 15.8926C13.3877 15.8926 13.7744 15.7402 14.0645 15.4355C14.3545 15.1309 14.4995 14.7192 14.4995 14.2007C14.4995 13.6968 14.3677 13.3057 14.104 13.0273C13.8433 12.749 13.48 12.6099 13.0142 12.6099C12.5278 12.6099 12.1382 12.7637 11.8452 13.0713C11.5552 13.3789 11.4102 13.7949 11.4102 14.3193C11.4102 14.7998 11.5464 15.1821 11.8188 15.4663ZM12.3462 14.2754C12.3462 13.6807 12.5601 13.3833 12.9878 13.3833C13.3833 13.3833 13.5811 13.6689 13.5811 14.2402C13.5811 14.8262 13.373 15.1191 12.957 15.1191C12.5498 15.1191 12.3462 14.8379 12.3462 14.2754Z" fill="#333333"/>
<path d="M13.4009 18.9995L17.5054 12.6978H16.4243L12.3286 18.9995H13.4009Z" fill="#333333"/>
<path fill-rule="evenodd" clip-rule="evenodd" d="M15.7432 18.6611C16.0186 18.9453 16.3804 19.0874 16.8286 19.0874C17.312 19.0874 17.6987 18.9336 17.9888 18.626C18.2788 18.3184 18.4238 17.9053 18.4238 17.3867C18.4238 16.8828 18.2935 16.4932 18.0327 16.2178C17.772 15.9424 17.4072 15.8047 16.9385 15.8047C16.4521 15.8047 16.0625 15.9585 15.7695 16.2661C15.4795 16.5737 15.3345 16.9897 15.3345 17.5142C15.3345 17.9946 15.4707 18.377 15.7432 18.6611ZM16.2617 17.4702C16.2617 16.8755 16.4741 16.5781 16.8989 16.5781C17.0806 16.5781 17.2271 16.6528 17.3384 16.8022C17.4497 16.9517 17.5054 17.1626 17.5054 17.4351C17.5054 18.021 17.2974 18.314 16.8813 18.314C16.4683 18.314 16.2617 18.0327 16.2617 17.4702Z" fill="#333333"/>
<path fill-rule="evenodd" clip-rule="evenodd" d="M8.01562 10.0005C6.91106 10.0005 6.01562 10.8959 6.01562 12.0005V20.0005C6.01562 21.1051 6.91106 22.0005 8.01562 22.0005H22.0156C23.1202 22.0005 24.0156 21.1051 24.0156 20.0005V12.0005C24.0156 10.8959 23.1202 10.0005 22.0156 10.0005H8.01562ZM22.0156 11.1105H8.01562C7.52409 11.1105 7.12563 11.509 7.12563 12.0005V20.0005C7.12563 20.492 7.52409 20.8905 8.01562 20.8905H22.0156C22.5072 20.8905 22.9056 20.492 22.9056 20.0005V12.0005C22.9056 11.509 22.5072 11.1105 22.0156 11.1105Z" fill="#333333"/>
</svg>
