<svg width="34" height="22" viewBox="0 0 34 22" fill="none" xmlns="http://www.w3.org/2000/svg">
<mask id="path-1-outside-1_1508_95709" maskUnits="userSpaceOnUse" x="0" y="0" width="34" height="22" fill="black">
<rect fill="white" width="34" height="22"/>
<path d="M30.6667 1H3.33334C2.04673 1 1 2.04617 1 3.33208V18.6679C1 19.9538 2.04673 21 3.33334 21H30.6667C31.9531 21 33 19.9538 33 18.6679V3.33208C33.0001 2.04617 31.9531 1 30.6667 1ZM32.3334 18.6679C32.3334 19.5864 31.5857 20.3337 30.6667 20.3337H3.33334C2.41438 20.3337 1.66669 19.5864 1.66669 18.6679V3.33208C1.66669 2.41363 2.41438 1.66634 3.33334 1.66634H30.6667C31.5856 1.66634 32.3333 2.41363 32.3333 3.33208L32.3334 18.6679ZM30.1648 5.21988C30.1648 5.26363 30.1561 5.30695 30.1394 5.34737C30.1227 5.3878 30.0981 5.42453 30.0671 5.45546C30.0362 5.4864 29.9994 5.51094 29.959 5.52767C29.9186 5.54441 29.8752 5.55302 29.8314 5.55302H4.1685C4.0801 5.55302 3.99532 5.51792 3.93281 5.45544C3.8703 5.39297 3.83518 5.30823 3.83518 5.21988C3.83518 5.13153 3.8703 5.04679 3.93281 4.98432C3.99532 4.92184 4.0801 4.88674 4.1685 4.88674H29.8314C29.8752 4.88673 29.9186 4.89535 29.959 4.91208C29.9994 4.92882 30.0362 4.95336 30.0671 4.9843C30.0981 5.01523 30.1227 5.05196 30.1394 5.09238C30.1561 5.13281 30.1648 5.17613 30.1648 5.21988ZM6.32149 8.81142C6.23309 8.81142 6.14831 8.77633 6.0858 8.71385C6.0233 8.65137 5.98818 8.56664 5.98818 8.47829V7.82388C5.98818 7.73552 6.0233 7.65079 6.0858 7.58831C6.14831 7.52584 6.23309 7.49074 6.32149 7.49074C6.4099 7.49074 6.49468 7.52584 6.55718 7.58831C6.61969 7.65079 6.65481 7.73552 6.65481 7.82388V8.47829C6.65479 8.56664 6.61967 8.65136 6.55717 8.71383C6.49466 8.7763 6.40989 8.81141 6.32149 8.81142ZM8.40886 8.81142C8.32046 8.81142 8.23568 8.77633 8.17317 8.71385C8.11066 8.65137 8.07554 8.56664 8.07554 8.47829V7.82388C8.07554 7.73552 8.11066 7.65079 8.17317 7.58831C8.23568 7.52584 8.32046 7.49074 8.40886 7.49074C8.49726 7.49074 8.58204 7.52584 8.64455 7.58831C8.70706 7.65079 8.74217 7.73552 8.74217 7.82388V8.47829C8.74217 8.56664 8.70706 8.65137 8.64455 8.71385C8.58204 8.77633 8.49726 8.81142 8.40886 8.81142ZM10.4963 8.81142C10.4079 8.81142 10.3231 8.77633 10.2606 8.71385C10.1981 8.65137 10.163 8.56664 10.163 8.47829V7.82388C10.163 7.73552 10.1981 7.65079 10.2606 7.58831C10.3231 7.52584 10.4079 7.49074 10.4963 7.49074C10.5847 7.49074 10.6695 7.52584 10.732 7.58831C10.7945 7.65079 10.8296 7.73552 10.8296 7.82388V8.47829C10.8296 8.56664 10.7945 8.65136 10.732 8.71383C10.6695 8.7763 10.5847 8.81141 10.4963 8.81142ZM14.9126 8.81142C14.8242 8.81142 14.7394 8.77633 14.6769 8.71385C14.6144 8.65137 14.5793 8.56664 14.5793 8.47829V7.82388C14.5793 7.73552 14.6144 7.65079 14.6769 7.58831C14.7394 7.52584 14.8242 7.49074 14.9126 7.49074C15.001 7.49074 15.0858 7.52584 15.1483 7.58831C15.2108 7.65079 15.2459 7.73552 15.2459 7.82388V8.47829C15.2459 8.52204 15.2373 8.56536 15.2205 8.60577C15.2038 8.64619 15.1792 8.68292 15.1483 8.71385C15.1173 8.74478 15.0806 8.76932 15.0402 8.78607C14.9997 8.80281 14.9564 8.81142 14.9126 8.81142ZM17.3333 7.82381V8.47822C17.3333 8.56658 17.2982 8.65131 17.2357 8.71379C17.1732 8.77626 17.0884 8.81136 17 8.81136C16.9116 8.81136 16.8269 8.77626 16.7643 8.71379C16.7018 8.65131 16.6667 8.56658 16.6667 8.47822V7.82381C16.6667 7.73546 16.7018 7.65073 16.7643 7.58825C16.8269 7.52578 16.9116 7.49068 17 7.49068C17.0884 7.49068 17.1732 7.52578 17.2357 7.58825C17.2982 7.65073 17.3333 7.73546 17.3333 7.82381ZM19.4206 7.82381V8.47822C19.4206 8.66221 19.2715 8.81136 19.0873 8.81136C18.9031 8.81136 18.754 8.66221 18.754 8.47822V7.82381C18.754 7.63983 18.9031 7.49068 19.0873 7.49068C19.2715 7.49068 19.4206 7.63983 19.4206 7.82381ZM23.1703 8.47822V7.82381C23.1703 7.78006 23.1789 7.73674 23.1956 7.69632C23.2124 7.6559 23.2369 7.61917 23.2679 7.58823C23.2988 7.5573 23.3356 7.53276 23.376 7.51602C23.4165 7.49928 23.4598 7.49067 23.5036 7.49068C23.5474 7.49067 23.5907 7.49928 23.6312 7.51602C23.6716 7.53276 23.7083 7.5573 23.7393 7.58823C23.7702 7.61917 23.7948 7.6559 23.8115 7.69632C23.8283 7.73674 23.8369 7.78006 23.8369 7.82381V8.47822C23.8369 8.52197 23.8283 8.5653 23.8115 8.60572C23.7948 8.64614 23.7702 8.68287 23.7393 8.71381C23.7083 8.74474 23.6716 8.76928 23.6312 8.78602C23.5907 8.80276 23.5474 8.81137 23.5036 8.81136C23.4598 8.81137 23.4165 8.80276 23.376 8.78602C23.3356 8.76928 23.2988 8.74474 23.2679 8.71381C23.2369 8.68287 23.2124 8.64614 23.1956 8.60572C23.1789 8.5653 23.1703 8.52197 23.1703 8.47822ZM25.5912 8.81142C25.5474 8.81143 25.5041 8.80282 25.4636 8.78608C25.4232 8.76934 25.3864 8.74481 25.3555 8.71387C25.3245 8.68293 25.3 8.6462 25.2832 8.60578C25.2665 8.56536 25.2579 8.52204 25.2579 8.47829V7.82388C25.2579 7.63989 25.407 7.49074 25.5912 7.49074C25.7754 7.49074 25.9245 7.63989 25.9245 7.82388V8.47829C25.9245 8.52204 25.9159 8.56536 25.8992 8.60578C25.8824 8.6462 25.8579 8.68293 25.8269 8.71387C25.796 8.74481 25.7592 8.76934 25.7188 8.78608C25.6783 8.80282 25.635 8.81143 25.5912 8.81142ZM27.6784 8.81142C27.6347 8.81143 27.5913 8.80282 27.5509 8.78608C27.5104 8.76934 27.4737 8.74481 27.4427 8.71387C27.4118 8.68293 27.3872 8.6462 27.3705 8.60578C27.3537 8.56536 27.3451 8.52204 27.3451 8.47829V7.82388C27.3451 7.63989 27.4942 7.49074 27.6784 7.49074C27.8627 7.49074 28.0118 7.63989 28.0118 7.82388V8.47829C28.0118 8.52204 28.0031 8.56536 27.9864 8.60578C27.9697 8.6462 27.9451 8.68293 27.9141 8.71387C27.8832 8.74481 27.8464 8.76934 27.806 8.78608C27.7656 8.80282 27.7222 8.81143 27.6784 8.81142ZM15.6766 13.6709C15.6766 13.8549 15.5274 14.0041 15.3433 14.0041H4.1685C4.0801 14.0041 3.99532 13.969 3.93281 13.9065C3.8703 13.844 3.83518 13.7593 3.83518 13.6709C3.83518 13.5826 3.8703 13.4978 3.93281 13.4354C3.99532 13.3729 4.0801 13.3378 4.1685 13.3378H15.3433C15.5274 13.3378 15.6766 13.4869 15.6766 13.6709ZM12.2802 16.6052C12.2802 16.7892 12.1309 16.9383 11.9469 16.9383H4.1685C4.0801 16.9383 3.99532 16.9032 3.93281 16.8408C3.8703 16.7783 3.83518 16.6936 3.83518 16.6052C3.83518 16.5169 3.8703 16.4321 3.93281 16.3696C3.99532 16.3072 4.0801 16.2721 4.1685 16.2721H11.9468C12.1309 16.2721 12.2802 16.4212 12.2802 16.6052ZM28.8314 12.2914H23.2071C22.4717 12.2914 21.8738 12.8893 21.8738 13.624V16.6519C21.8738 17.3867 22.4718 17.9845 23.2071 17.9845H28.8314C29.5668 17.9845 30.1648 17.3867 30.1648 16.6519V13.624C30.1648 12.8893 29.5667 12.2914 28.8314 12.2914ZM29.4981 16.6519C29.4981 17.0194 29.1989 17.3182 28.8314 17.3182H23.207C22.8395 17.3182 22.5403 17.0194 22.5403 16.6519V13.624C22.5403 13.2566 22.8395 12.9577 23.207 12.9577H28.8314C29.1989 12.9577 29.4981 13.2565 29.4981 13.624V16.6519Z"/>
</mask>
<path d="M30.6667 1H3.33334C2.04673 1 1 2.04617 1 3.33208V18.6679C1 19.9538 2.04673 21 3.33334 21H30.6667C31.9531 21 33 19.9538 33 18.6679V3.33208C33.0001 2.04617 31.9531 1 30.6667 1ZM32.3334 18.6679C32.3334 19.5864 31.5857 20.3337 30.6667 20.3337H3.33334C2.41438 20.3337 1.66669 19.5864 1.66669 18.6679V3.33208C1.66669 2.41363 2.41438 1.66634 3.33334 1.66634H30.6667C31.5856 1.66634 32.3333 2.41363 32.3333 3.33208L32.3334 18.6679ZM30.1648 5.21988C30.1648 5.26363 30.1561 5.30695 30.1394 5.34737C30.1227 5.3878 30.0981 5.42453 30.0671 5.45546C30.0362 5.4864 29.9994 5.51094 29.959 5.52767C29.9186 5.54441 29.8752 5.55302 29.8314 5.55302H4.1685C4.0801 5.55302 3.99532 5.51792 3.93281 5.45544C3.8703 5.39297 3.83518 5.30823 3.83518 5.21988C3.83518 5.13153 3.8703 5.04679 3.93281 4.98432C3.99532 4.92184 4.0801 4.88674 4.1685 4.88674H29.8314C29.8752 4.88673 29.9186 4.89535 29.959 4.91208C29.9994 4.92882 30.0362 4.95336 30.0671 4.9843C30.0981 5.01523 30.1227 5.05196 30.1394 5.09238C30.1561 5.13281 30.1648 5.17613 30.1648 5.21988ZM6.32149 8.81142C6.23309 8.81142 6.14831 8.77633 6.0858 8.71385C6.0233 8.65137 5.98818 8.56664 5.98818 8.47829V7.82388C5.98818 7.73552 6.0233 7.65079 6.0858 7.58831C6.14831 7.52584 6.23309 7.49074 6.32149 7.49074C6.4099 7.49074 6.49468 7.52584 6.55718 7.58831C6.61969 7.65079 6.65481 7.73552 6.65481 7.82388V8.47829C6.65479 8.56664 6.61967 8.65136 6.55717 8.71383C6.49466 8.7763 6.40989 8.81141 6.32149 8.81142ZM8.40886 8.81142C8.32046 8.81142 8.23568 8.77633 8.17317 8.71385C8.11066 8.65137 8.07554 8.56664 8.07554 8.47829V7.82388C8.07554 7.73552 8.11066 7.65079 8.17317 7.58831C8.23568 7.52584 8.32046 7.49074 8.40886 7.49074C8.49726 7.49074 8.58204 7.52584 8.64455 7.58831C8.70706 7.65079 8.74217 7.73552 8.74217 7.82388V8.47829C8.74217 8.56664 8.70706 8.65137 8.64455 8.71385C8.58204 8.77633 8.49726 8.81142 8.40886 8.81142ZM10.4963 8.81142C10.4079 8.81142 10.3231 8.77633 10.2606 8.71385C10.1981 8.65137 10.163 8.56664 10.163 8.47829V7.82388C10.163 7.73552 10.1981 7.65079 10.2606 7.58831C10.3231 7.52584 10.4079 7.49074 10.4963 7.49074C10.5847 7.49074 10.6695 7.52584 10.732 7.58831C10.7945 7.65079 10.8296 7.73552 10.8296 7.82388V8.47829C10.8296 8.56664 10.7945 8.65136 10.732 8.71383C10.6695 8.7763 10.5847 8.81141 10.4963 8.81142ZM14.9126 8.81142C14.8242 8.81142 14.7394 8.77633 14.6769 8.71385C14.6144 8.65137 14.5793 8.56664 14.5793 8.47829V7.82388C14.5793 7.73552 14.6144 7.65079 14.6769 7.58831C14.7394 7.52584 14.8242 7.49074 14.9126 7.49074C15.001 7.49074 15.0858 7.52584 15.1483 7.58831C15.2108 7.65079 15.2459 7.73552 15.2459 7.82388V8.47829C15.2459 8.52204 15.2373 8.56536 15.2205 8.60577C15.2038 8.64619 15.1792 8.68292 15.1483 8.71385C15.1173 8.74478 15.0806 8.76932 15.0402 8.78607C14.9997 8.80281 14.9564 8.81142 14.9126 8.81142ZM17.3333 7.82381V8.47822C17.3333 8.56658 17.2982 8.65131 17.2357 8.71379C17.1732 8.77626 17.0884 8.81136 17 8.81136C16.9116 8.81136 16.8269 8.77626 16.7643 8.71379C16.7018 8.65131 16.6667 8.56658 16.6667 8.47822V7.82381C16.6667 7.73546 16.7018 7.65073 16.7643 7.58825C16.8269 7.52578 16.9116 7.49068 17 7.49068C17.0884 7.49068 17.1732 7.52578 17.2357 7.58825C17.2982 7.65073 17.3333 7.73546 17.3333 7.82381ZM19.4206 7.82381V8.47822C19.4206 8.66221 19.2715 8.81136 19.0873 8.81136C18.9031 8.81136 18.754 8.66221 18.754 8.47822V7.82381C18.754 7.63983 18.9031 7.49068 19.0873 7.49068C19.2715 7.49068 19.4206 7.63983 19.4206 7.82381ZM23.1703 8.47822V7.82381C23.1703 7.78006 23.1789 7.73674 23.1956 7.69632C23.2124 7.6559 23.2369 7.61917 23.2679 7.58823C23.2988 7.5573 23.3356 7.53276 23.376 7.51602C23.4165 7.49928 23.4598 7.49067 23.5036 7.49068C23.5474 7.49067 23.5907 7.49928 23.6312 7.51602C23.6716 7.53276 23.7083 7.5573 23.7393 7.58823C23.7702 7.61917 23.7948 7.6559 23.8115 7.69632C23.8283 7.73674 23.8369 7.78006 23.8369 7.82381V8.47822C23.8369 8.52197 23.8283 8.5653 23.8115 8.60572C23.7948 8.64614 23.7702 8.68287 23.7393 8.71381C23.7083 8.74474 23.6716 8.76928 23.6312 8.78602C23.5907 8.80276 23.5474 8.81137 23.5036 8.81136C23.4598 8.81137 23.4165 8.80276 23.376 8.78602C23.3356 8.76928 23.2988 8.74474 23.2679 8.71381C23.2369 8.68287 23.2124 8.64614 23.1956 8.60572C23.1789 8.5653 23.1703 8.52197 23.1703 8.47822ZM25.5912 8.81142C25.5474 8.81143 25.5041 8.80282 25.4636 8.78608C25.4232 8.76934 25.3864 8.74481 25.3555 8.71387C25.3245 8.68293 25.3 8.6462 25.2832 8.60578C25.2665 8.56536 25.2579 8.52204 25.2579 8.47829V7.82388C25.2579 7.63989 25.407 7.49074 25.5912 7.49074C25.7754 7.49074 25.9245 7.63989 25.9245 7.82388V8.47829C25.9245 8.52204 25.9159 8.56536 25.8992 8.60578C25.8824 8.6462 25.8579 8.68293 25.8269 8.71387C25.796 8.74481 25.7592 8.76934 25.7188 8.78608C25.6783 8.80282 25.635 8.81143 25.5912 8.81142ZM27.6784 8.81142C27.6347 8.81143 27.5913 8.80282 27.5509 8.78608C27.5104 8.76934 27.4737 8.74481 27.4427 8.71387C27.4118 8.68293 27.3872 8.6462 27.3705 8.60578C27.3537 8.56536 27.3451 8.52204 27.3451 8.47829V7.82388C27.3451 7.63989 27.4942 7.49074 27.6784 7.49074C27.8627 7.49074 28.0118 7.63989 28.0118 7.82388V8.47829C28.0118 8.52204 28.0031 8.56536 27.9864 8.60578C27.9697 8.6462 27.9451 8.68293 27.9141 8.71387C27.8832 8.74481 27.8464 8.76934 27.806 8.78608C27.7656 8.80282 27.7222 8.81143 27.6784 8.81142ZM15.6766 13.6709C15.6766 13.8549 15.5274 14.0041 15.3433 14.0041H4.1685C4.0801 14.0041 3.99532 13.969 3.93281 13.9065C3.8703 13.844 3.83518 13.7593 3.83518 13.6709C3.83518 13.5826 3.8703 13.4978 3.93281 13.4354C3.99532 13.3729 4.0801 13.3378 4.1685 13.3378H15.3433C15.5274 13.3378 15.6766 13.4869 15.6766 13.6709ZM12.2802 16.6052C12.2802 16.7892 12.1309 16.9383 11.9469 16.9383H4.1685C4.0801 16.9383 3.99532 16.9032 3.93281 16.8408C3.8703 16.7783 3.83518 16.6936 3.83518 16.6052C3.83518 16.5169 3.8703 16.4321 3.93281 16.3696C3.99532 16.3072 4.0801 16.2721 4.1685 16.2721H11.9468C12.1309 16.2721 12.2802 16.4212 12.2802 16.6052ZM28.8314 12.2914H23.2071C22.4717 12.2914 21.8738 12.8893 21.8738 13.624V16.6519C21.8738 17.3867 22.4718 17.9845 23.2071 17.9845H28.8314C29.5668 17.9845 30.1648 17.3867 30.1648 16.6519V13.624C30.1648 12.8893 29.5667 12.2914 28.8314 12.2914ZM29.4981 16.6519C29.4981 17.0194 29.1989 17.3182 28.8314 17.3182H23.207C22.8395 17.3182 22.5403 17.0194 22.5403 16.6519V13.624C22.5403 13.2566 22.8395 12.9577 23.207 12.9577H28.8314C29.1989 12.9577 29.4981 13.2565 29.4981 13.624V16.6519Z" fill="#333333"/>
<path d="M30.6667 1H3.33334C2.04673 1 1 2.04617 1 3.33208V18.6679C1 19.9538 2.04673 21 3.33334 21H30.6667C31.9531 21 33 19.9538 33 18.6679V3.33208C33.0001 2.04617 31.9531 1 30.6667 1ZM32.3334 18.6679C32.3334 19.5864 31.5857 20.3337 30.6667 20.3337H3.33334C2.41438 20.3337 1.66669 19.5864 1.66669 18.6679V3.33208C1.66669 2.41363 2.41438 1.66634 3.33334 1.66634H30.6667C31.5856 1.66634 32.3333 2.41363 32.3333 3.33208L32.3334 18.6679ZM30.1648 5.21988C30.1648 5.26363 30.1561 5.30695 30.1394 5.34737C30.1227 5.3878 30.0981 5.42453 30.0671 5.45546C30.0362 5.4864 29.9994 5.51094 29.959 5.52767C29.9186 5.54441 29.8752 5.55302 29.8314 5.55302H4.1685C4.0801 5.55302 3.99532 5.51792 3.93281 5.45544C3.8703 5.39297 3.83518 5.30823 3.83518 5.21988C3.83518 5.13153 3.8703 5.04679 3.93281 4.98432C3.99532 4.92184 4.0801 4.88674 4.1685 4.88674H29.8314C29.8752 4.88673 29.9186 4.89535 29.959 4.91208C29.9994 4.92882 30.0362 4.95336 30.0671 4.9843C30.0981 5.01523 30.1227 5.05196 30.1394 5.09238C30.1561 5.13281 30.1648 5.17613 30.1648 5.21988ZM6.32149 8.81142C6.23309 8.81142 6.14831 8.77633 6.0858 8.71385C6.0233 8.65137 5.98818 8.56664 5.98818 8.47829V7.82388C5.98818 7.73552 6.0233 7.65079 6.0858 7.58831C6.14831 7.52584 6.23309 7.49074 6.32149 7.49074C6.4099 7.49074 6.49468 7.52584 6.55718 7.58831C6.61969 7.65079 6.65481 7.73552 6.65481 7.82388V8.47829C6.65479 8.56664 6.61967 8.65136 6.55717 8.71383C6.49466 8.7763 6.40989 8.81141 6.32149 8.81142ZM8.40886 8.81142C8.32046 8.81142 8.23568 8.77633 8.17317 8.71385C8.11066 8.65137 8.07554 8.56664 8.07554 8.47829V7.82388C8.07554 7.73552 8.11066 7.65079 8.17317 7.58831C8.23568 7.52584 8.32046 7.49074 8.40886 7.49074C8.49726 7.49074 8.58204 7.52584 8.64455 7.58831C8.70706 7.65079 8.74217 7.73552 8.74217 7.82388V8.47829C8.74217 8.56664 8.70706 8.65137 8.64455 8.71385C8.58204 8.77633 8.49726 8.81142 8.40886 8.81142ZM10.4963 8.81142C10.4079 8.81142 10.3231 8.77633 10.2606 8.71385C10.1981 8.65137 10.163 8.56664 10.163 8.47829V7.82388C10.163 7.73552 10.1981 7.65079 10.2606 7.58831C10.3231 7.52584 10.4079 7.49074 10.4963 7.49074C10.5847 7.49074 10.6695 7.52584 10.732 7.58831C10.7945 7.65079 10.8296 7.73552 10.8296 7.82388V8.47829C10.8296 8.56664 10.7945 8.65136 10.732 8.71383C10.6695 8.7763 10.5847 8.81141 10.4963 8.81142ZM14.9126 8.81142C14.8242 8.81142 14.7394 8.77633 14.6769 8.71385C14.6144 8.65137 14.5793 8.56664 14.5793 8.47829V7.82388C14.5793 7.73552 14.6144 7.65079 14.6769 7.58831C14.7394 7.52584 14.8242 7.49074 14.9126 7.49074C15.001 7.49074 15.0858 7.52584 15.1483 7.58831C15.2108 7.65079 15.2459 7.73552 15.2459 7.82388V8.47829C15.2459 8.52204 15.2373 8.56536 15.2205 8.60577C15.2038 8.64619 15.1792 8.68292 15.1483 8.71385C15.1173 8.74478 15.0806 8.76932 15.0402 8.78607C14.9997 8.80281 14.9564 8.81142 14.9126 8.81142ZM17.3333 7.82381V8.47822C17.3333 8.56658 17.2982 8.65131 17.2357 8.71379C17.1732 8.77626 17.0884 8.81136 17 8.81136C16.9116 8.81136 16.8269 8.77626 16.7643 8.71379C16.7018 8.65131 16.6667 8.56658 16.6667 8.47822V7.82381C16.6667 7.73546 16.7018 7.65073 16.7643 7.58825C16.8269 7.52578 16.9116 7.49068 17 7.49068C17.0884 7.49068 17.1732 7.52578 17.2357 7.58825C17.2982 7.65073 17.3333 7.73546 17.3333 7.82381ZM19.4206 7.82381V8.47822C19.4206 8.66221 19.2715 8.81136 19.0873 8.81136C18.9031 8.81136 18.754 8.66221 18.754 8.47822V7.82381C18.754 7.63983 18.9031 7.49068 19.0873 7.49068C19.2715 7.49068 19.4206 7.63983 19.4206 7.82381ZM23.1703 8.47822V7.82381C23.1703 7.78006 23.1789 7.73674 23.1956 7.69632C23.2124 7.6559 23.2369 7.61917 23.2679 7.58823C23.2988 7.5573 23.3356 7.53276 23.376 7.51602C23.4165 7.49928 23.4598 7.49067 23.5036 7.49068C23.5474 7.49067 23.5907 7.49928 23.6312 7.51602C23.6716 7.53276 23.7083 7.5573 23.7393 7.58823C23.7702 7.61917 23.7948 7.6559 23.8115 7.69632C23.8283 7.73674 23.8369 7.78006 23.8369 7.82381V8.47822C23.8369 8.52197 23.8283 8.5653 23.8115 8.60572C23.7948 8.64614 23.7702 8.68287 23.7393 8.71381C23.7083 8.74474 23.6716 8.76928 23.6312 8.78602C23.5907 8.80276 23.5474 8.81137 23.5036 8.81136C23.4598 8.81137 23.4165 8.80276 23.376 8.78602C23.3356 8.76928 23.2988 8.74474 23.2679 8.71381C23.2369 8.68287 23.2124 8.64614 23.1956 8.60572C23.1789 8.5653 23.1703 8.52197 23.1703 8.47822ZM25.5912 8.81142C25.5474 8.81143 25.5041 8.80282 25.4636 8.78608C25.4232 8.76934 25.3864 8.74481 25.3555 8.71387C25.3245 8.68293 25.3 8.6462 25.2832 8.60578C25.2665 8.56536 25.2579 8.52204 25.2579 8.47829V7.82388C25.2579 7.63989 25.407 7.49074 25.5912 7.49074C25.7754 7.49074 25.9245 7.63989 25.9245 7.82388V8.47829C25.9245 8.52204 25.9159 8.56536 25.8992 8.60578C25.8824 8.6462 25.8579 8.68293 25.8269 8.71387C25.796 8.74481 25.7592 8.76934 25.7188 8.78608C25.6783 8.80282 25.635 8.81143 25.5912 8.81142ZM27.6784 8.81142C27.6347 8.81143 27.5913 8.80282 27.5509 8.78608C27.5104 8.76934 27.4737 8.74481 27.4427 8.71387C27.4118 8.68293 27.3872 8.6462 27.3705 8.60578C27.3537 8.56536 27.3451 8.52204 27.3451 8.47829V7.82388C27.3451 7.63989 27.4942 7.49074 27.6784 7.49074C27.8627 7.49074 28.0118 7.63989 28.0118 7.82388V8.47829C28.0118 8.52204 28.0031 8.56536 27.9864 8.60578C27.9697 8.6462 27.9451 8.68293 27.9141 8.71387C27.8832 8.74481 27.8464 8.76934 27.806 8.78608C27.7656 8.80282 27.7222 8.81143 27.6784 8.81142ZM15.6766 13.6709C15.6766 13.8549 15.5274 14.0041 15.3433 14.0041H4.1685C4.0801 14.0041 3.99532 13.969 3.93281 13.9065C3.8703 13.844 3.83518 13.7593 3.83518 13.6709C3.83518 13.5826 3.8703 13.4978 3.93281 13.4354C3.99532 13.3729 4.0801 13.3378 4.1685 13.3378H15.3433C15.5274 13.3378 15.6766 13.4869 15.6766 13.6709ZM12.2802 16.6052C12.2802 16.7892 12.1309 16.9383 11.9469 16.9383H4.1685C4.0801 16.9383 3.99532 16.9032 3.93281 16.8408C3.8703 16.7783 3.83518 16.6936 3.83518 16.6052C3.83518 16.5169 3.8703 16.4321 3.93281 16.3696C3.99532 16.3072 4.0801 16.2721 4.1685 16.2721H11.9468C12.1309 16.2721 12.2802 16.4212 12.2802 16.6052ZM28.8314 12.2914H23.2071C22.4717 12.2914 21.8738 12.8893 21.8738 13.624V16.6519C21.8738 17.3867 22.4718 17.9845 23.2071 17.9845H28.8314C29.5668 17.9845 30.1648 17.3867 30.1648 16.6519V13.624C30.1648 12.8893 29.5667 12.2914 28.8314 12.2914ZM29.4981 16.6519C29.4981 17.0194 29.1989 17.3182 28.8314 17.3182H23.207C22.8395 17.3182 22.5403 17.0194 22.5403 16.6519V13.624C22.5403 13.2566 22.8395 12.9577 23.207 12.9577H28.8314C29.1989 12.9577 29.4981 13.2565 29.4981 13.624V16.6519Z" stroke="#333333" stroke-width="0.4" mask="url(#path-1-outside-1_1508_95709)"/>
</svg>
