<svg width="26" height="30" viewBox="0 0 26 30" fill="none" xmlns="http://www.w3.org/2000/svg">
<path d="M6.58789 23.9773H24.2881V25.1745C24.2881 26.3788 23.9072 27.1115 23.4159 27.5454C22.7176 28.162 21.8467 28.1674 21.8467 28.1674H4.74035C3.63501 28.1949 1.83935 27.5897 1.70569 25.7593L1.70508 3.02712C1.70508 2.70962 1.83369 2.40512 2.06261 2.18061C2.29154 1.9561 2.60203 1.82997 2.92578 1.82997H20.0156C20.3394 1.82997 20.6498 1.9561 20.8788 2.18061C21.1077 2.40512 21.2363 2.70962 21.2363 3.02712V20.9844C21.2363 21.1432 21.3006 21.2954 21.4151 21.4077C21.5295 21.52 21.6848 21.583 21.8467 21.583C22.0085 21.583 22.1638 21.52 22.2782 21.4077C22.3927 21.2954 22.457 21.1432 22.457 20.9844V3.02712C22.4571 2.7127 22.394 2.40134 22.2712 2.11087C22.1485 1.8204 21.9685 1.55653 21.7417 1.33435C21.5151 1.11186 21.2461 0.935385 20.9499 0.815007C20.6537 0.694629 20.3362 0.632717 20.0156 0.632813H2.92578C2.60517 0.632717 2.28769 0.694629 1.99151 0.815007C1.69533 0.935385 1.42626 1.11186 1.19971 1.33435C0.97285 1.55653 0.792899 1.8204 0.670153 2.11087C0.547408 2.40134 0.484277 2.7127 0.484375 3.02712V25.7731C0.484375 28.1674 2.92578 29.3645 4.76416 29.3645H21.8467C21.8467 29.3645 23.173 29.3699 24.2325 28.4349C24.9131 27.8346 25.5088 26.8433 25.5088 25.1745V23.3787C25.5088 23.22 25.4445 23.0677 25.33 22.9555C25.2155 22.8432 25.0603 22.7802 24.8984 22.7802H5.97753C5.36718 22.7802 5.36718 23.3787 5.36718 23.3787V26.3716C5.36718 26.5304 5.43149 26.6826 5.54595 26.7949C5.66041 26.9071 5.81566 26.9702 5.97753 26.9702C6.13941 26.9702 6.29465 26.9071 6.40912 26.7949C6.52358 26.6826 6.58789 26.5304 6.58789 26.3716V23.9773ZM4.14648 17.393H18.7949C18.9568 17.393 19.112 17.3299 19.2265 17.2177C19.341 17.1054 19.4053 16.9531 19.4053 16.7944C19.4053 16.6356 19.341 16.4834 19.2265 16.3711C19.112 16.2589 18.9568 16.1958 18.7949 16.1958H4.14648C3.98461 16.1958 3.82936 16.2589 3.7149 16.3711C3.60043 16.4834 3.53613 16.6356 3.53613 16.7944C3.53613 16.9531 3.60043 17.1054 3.7149 17.2177C3.82936 17.3299 3.98461 17.393 4.14648 17.393ZM4.14648 12.6044H18.7949C18.9568 12.6044 19.112 12.5413 19.2265 12.429C19.341 12.3168 19.4053 12.1645 19.4053 12.0058C19.4053 11.847 19.341 11.6948 19.2265 11.5825C19.112 11.4703 18.9568 11.4072 18.7949 11.4072H4.14648C3.98461 11.4072 3.82936 11.4703 3.7149 11.5825C3.60043 11.6948 3.53613 11.847 3.53613 12.0058C3.53613 12.1645 3.60043 12.3168 3.7149 12.429C3.82936 12.5413 3.98461 12.6044 4.14648 12.6044ZM4.14648 7.81574H18.7949C18.9568 7.81574 19.112 7.75268 19.2265 7.64042C19.341 7.52817 19.4053 7.37591 19.4053 7.21716C19.4053 7.05841 19.341 6.90616 19.2265 6.7939C19.112 6.68165 18.9568 6.61858 18.7949 6.61858H4.14648C3.98461 6.61858 3.82936 6.68165 3.7149 6.7939C3.60043 6.90616 3.53613 7.05841 3.53613 7.21716C3.53613 7.37591 3.60043 7.52817 3.7149 7.64042C3.82936 7.75268 3.98461 7.81574 4.14648 7.81574Z" fill="#333333"/>
</svg>
