<svg width="32" height="22" viewBox="0 0 32 22" fill="none" xmlns="http://www.w3.org/2000/svg">
<path d="M31.5 4.69227H31.0344V3.31142C31.0344 3.0387 30.8106 2.81781 30.5344 2.81781H29.9256V1.43696C29.9256 1.16425 29.7019 0.943359 29.4256 0.943359H2.57625C2.3 0.943359 2.07625 1.16425 2.07625 1.43696V2.81781H1.46563C1.18938 2.81781 0.965625 3.0387 0.965625 3.31142V4.69227H0.5C0.22375 4.69227 0 4.91315 0 5.18587V20.564C0 20.8368 0.22375 21.0576 0.5 21.0576H31.5C31.7763 21.0576 32 20.8368 32 20.564V5.18587C32 4.91315 31.7763 4.69227 31.5 4.69227ZM3.07625 1.93056H28.925V2.81781H3.07625V1.93056ZM1.96562 3.80502H30.0344V4.69227H1.96562V3.80502ZM31 20.0704H1V5.67947H31V20.0704ZM1.90125 17.1526V8.59728C1.90125 8.32456 2.125 8.10368 2.40125 8.10368C2.98625 8.10368 3.46188 7.63537 3.46188 7.06032C3.46188 6.78761 3.68563 6.56672 3.96188 6.56672H10.2194C10.4956 6.56672 10.7194 6.78761 10.7194 7.06032C10.7194 7.33304 10.4956 7.55393 10.2194 7.55393H4.4C4.21563 8.27829 3.63562 8.84963 2.90062 9.03041V16.7195C3.63562 16.9009 4.21563 17.4716 4.4 18.196H10.2188C10.495 18.196 10.7188 18.4169 10.7188 18.6896C10.7188 18.9623 10.495 19.1832 10.2188 19.1832H3.96188C3.68563 19.1832 3.46188 18.9623 3.46188 18.6896C3.46188 18.1139 2.98625 17.6462 2.40125 17.6462C2.125 17.6462 1.90125 17.4254 1.90125 17.1526ZM21.2806 7.05971C21.2806 6.78699 21.5044 6.56611 21.7806 6.56611H28.04C28.3163 6.56611 28.54 6.78699 28.54 7.05971C28.54 7.63537 29.015 8.10306 29.5987 8.10306C29.875 8.10306 30.0987 8.32395 30.0987 8.59666V17.152C30.0987 17.4247 29.875 17.6456 29.5987 17.6456C29.015 17.6456 28.54 18.1139 28.54 18.689C28.54 18.9617 28.3163 19.1826 28.04 19.1826H21.7806C21.5044 19.1826 21.2806 18.9617 21.2806 18.689C21.2806 18.4163 21.5044 18.1954 21.7806 18.1954H27.6013C27.785 17.471 28.3644 16.9003 29.0987 16.7189V9.0298C28.3644 8.8484 27.785 8.27705 27.6013 7.55331H21.7806C21.5044 7.55331 21.2806 7.33242 21.2806 7.05971ZM16 19.1832C19.5275 19.1832 22.3975 16.353 22.3975 12.875C22.3975 9.39691 19.5275 6.56611 16 6.56611C12.4725 6.56611 9.6025 9.3963 9.6025 12.875C9.6025 16.3536 12.4725 19.1832 16 19.1832ZM16 7.55331C18.9762 7.55331 21.3975 9.94049 21.3975 12.8743C21.3975 15.8082 18.9762 18.1954 16 18.1954C13.0238 18.1954 10.6025 15.8082 10.6025 12.8743C10.6025 9.94049 13.0238 7.55331 16 7.55331Z" fill="#333333"/>
<path d="M16.4531 13.4256C16.6938 13.4273 16.9325 13.3734 17.1553 13.2672C17.3781 13.161 17.5807 13.0045 17.7515 12.8068C17.9222 12.609 18.0577 12.3739 18.1501 12.1149C18.2426 11.856 18.2902 11.5783 18.2902 11.2978C18.2902 11.0173 18.2426 10.7396 18.1501 10.4806C18.0577 10.2217 17.9222 9.98655 17.7515 9.7888C17.5807 9.59105 17.3781 9.43457 17.1553 9.32837C16.9325 9.22216 16.6938 9.16833 16.4531 9.16996H15.0862C14.9882 9.16996 14.8943 9.21529 14.825 9.29597C14.7558 9.37666 14.7169 9.4861 14.7169 9.60021V12.5651H14.0881C14.0396 12.5651 13.9915 12.5763 13.9467 12.5979C13.9019 12.6195 13.8612 12.6512 13.8269 12.6911C13.7926 12.7311 13.7654 12.7785 13.7469 12.8307C13.7283 12.8829 13.7188 12.9389 13.7188 12.9954C13.7188 13.0519 13.7283 13.1078 13.7469 13.16C13.7654 13.2122 13.7926 13.2597 13.8269 13.2996C13.8612 13.3396 13.9019 13.3713 13.9467 13.3929C13.9915 13.4145 14.0396 13.4256 14.0881 13.4256H14.7169V14.0699H14.0881C13.9901 14.0699 13.8962 14.1153 13.8269 14.1959C13.7577 14.2766 13.7188 14.3861 13.7188 14.5002C13.7188 14.6143 13.7577 14.7237 13.8269 14.8044C13.8962 14.8851 13.9901 14.9304 14.0881 14.9304H14.7169V16.054C14.7169 16.1681 14.7558 16.2775 14.825 16.3582C14.8943 16.4389 14.9882 16.4842 15.0862 16.4842C15.1841 16.4842 15.2781 16.4389 15.3473 16.3582C15.4166 16.2775 15.4555 16.1681 15.4555 16.054V14.9304H17.4095C17.5074 14.9304 17.6014 14.8851 17.6706 14.8044C17.7399 14.7237 17.7788 14.6143 17.7788 14.5002C17.7788 14.3861 17.7399 14.2766 17.6706 14.1959C17.6014 14.1153 17.5074 14.0699 17.4095 14.0699H15.4555V13.4256H16.4531ZM15.4555 10.0305H16.4531C16.5966 10.0292 16.739 10.0611 16.8719 10.1242C17.0048 10.1873 17.1257 10.2805 17.2276 10.3983C17.3295 10.5161 17.4104 10.6562 17.4655 10.8106C17.5207 10.965 17.5491 11.1306 17.5491 11.2978C17.5491 11.465 17.5207 11.6306 17.4655 11.785C17.4104 11.9394 17.3295 12.0795 17.2276 12.1973C17.1257 12.3151 17.0048 12.4083 16.8719 12.4714C16.739 12.5345 16.5966 12.5664 16.4531 12.5651H15.4555V10.0305Z" fill="#333333"/>
</svg>
