<svg width="16" height="15" viewBox="0 0 16 15" fill="none" xmlns="http://www.w3.org/2000/svg">
<path fill-rule="evenodd" clip-rule="evenodd" d="M12 1H4V3H12V1ZM4 0C3.44772 0 3 0.447715 3 1V4H13V1C13 0.447715 12.5523 0 12 0H4Z" fill="#333333"/>
<path fill-rule="evenodd" clip-rule="evenodd" d="M1 4H15V11H13V12H15C15.5523 12 16 11.5523 16 11V4C16 3.44772 15.5523 3 15 3H1C0.447715 3 0 3.44772 0 4V11C0 11.5523 0.447715 12 1 12H3V11H1V4Z" fill="#333333"/>
<path fill-rule="evenodd" clip-rule="evenodd" d="M12 9H4V14H12V9ZM4 8C3.44772 8 3 8.44772 3 9V14C3 14.5523 3.44772 15 4 15H12C12.5523 15 13 14.5523 13 14V9C13 8.44772 12.5523 8 12 8H4Z" fill="#333333"/>
<path d="M2 8.5C2 8.22386 2.22386 8 2.5 8H13.5C13.7761 8 14 8.22386 14 8.5V8.5C14 8.77614 13.7761 9 13.5 9H2.5C2.22386 9 2 8.77614 2 8.5V8.5Z" fill="#333333"/>
<path d="M5 10.5C5 10.2239 5.22386 10 5.5 10H10.5C10.7761 10 11 10.2239 11 10.5V10.5C11 10.7761 10.7761 11 10.5 11H5.5C5.22386 11 5 10.7761 5 10.5V10.5Z" fill="#333333"/>
<path d="M6 12.5C6 12.2239 6.22386 12 6.5 12H9.5C9.77614 12 10 12.2239 10 12.5V12.5C10 12.7761 9.77614 13 9.5 13H6.5C6.22386 13 6 12.7761 6 12.5V12.5Z" fill="#333333"/>
<path d="M14 5.5C14 5.77614 13.7761 6 13.5 6C13.2239 6 13 5.77614 13 5.5C13 5.22386 13.2239 5 13.5 5C13.7761 5 14 5.22386 14 5.5Z" fill="#333333"/>
</svg>
