<svg width="20" height="20" viewBox="0 0 20 20" fill="none" xmlns="http://www.w3.org/2000/svg">
<path d="M12.9315 8.75877C13.8184 8.17005 14.4836 7.32979 14.8307 6.35989C15.1778 5.38998 15.1887 4.34087 14.8618 3.36473C14.5349 2.38859 13.8872 1.53619 13.0127 0.931177C12.1382 0.326163 11.0823 0 9.99824 0C8.91418 0 7.85831 0.326163 6.9838 0.931177C6.10928 1.53619 5.46159 2.38859 5.13469 3.36473C4.80779 4.34087 4.81867 5.38998 5.16576 6.35989C5.51284 7.32979 6.17809 8.17005 7.06498 8.75877C5.159 9.34724 3.49829 10.4888 2.3195 12.0208C1.14071 13.5528 0.503964 15.3971 0.5 17.2909C0.5 18.0938 0.598775 19.2199 1.42778 19.7363C2.36613 20.3227 3.59023 19.8296 5.13535 19.2033C6.51467 18.6635 8.23264 17.9572 9.99647 17.9572C11.7603 17.9572 13.4889 18.6635 14.8646 19.2033C15.9229 19.633 16.8366 19.9995 17.6021 19.9995C17.9475 20.0076 18.2872 19.9158 18.5758 19.7363C19.4048 19.2199 19.5 18.0938 19.5 17.2909C19.4958 15.3967 18.8585 13.5521 17.6791 12.0201C16.4996 10.488 14.8381 9.34667 12.9315 8.75877ZM6.31006 4.8275C6.31006 4.13893 6.52627 3.46582 6.93133 2.89329C7.3364 2.32076 7.91214 1.87453 8.58574 1.61102C9.25935 1.34751 10.0006 1.27857 10.7157 1.4129C11.4307 1.54724 12.0876 1.87882 12.6032 2.36571C13.1187 2.85261 13.4698 3.47295 13.612 4.1483C13.7543 4.82364 13.6813 5.52365 13.4023 6.15982C13.1233 6.79598 12.6508 7.33971 12.0445 7.72226C11.4383 8.10482 10.7256 8.309 9.99647 8.309C9.01906 8.30812 8.08195 7.94104 7.39082 7.28832C6.69969 6.6356 6.311 5.75058 6.31006 4.8275ZM17.7997 18.6236C17.4928 18.8168 16.3427 18.3504 15.422 17.9772C13.9263 17.3742 12.0672 16.6246 10 16.6246C7.93279 16.6246 6.07724 17.3742 4.58151 17.9772C3.65726 18.3504 2.51077 18.8168 2.20386 18.6236C2.15447 18.5936 1.91107 18.387 1.91107 17.2909C1.91107 15.2649 2.76329 13.3218 4.28026 11.8891C5.79723 10.4565 7.85468 9.65163 10 9.65163C12.1453 9.65163 14.2028 10.4565 15.7197 11.8891C17.2367 13.3218 18.0889 15.2649 18.0889 17.2909C18.0889 18.387 17.8455 18.5936 17.7997 18.6236Z" fill="#333333"/>
</svg>
