<svg version="1.1" xmlns="http://www.w3.org/2000/svg" xmlns:xlink="http://www.w3.org/1999/xlink" x="0px" y="0px" viewBox="0 0 20 21" xml:space="preserve">
<g>
	<g>
		<path d="M0,12.6L0,12.6c0.1-0.1,0.1-0.1,0.2-0.1c0.1,0,0.1,0,0.2,0 M0,12.6l0.4,0 M0,12.6c-0.1,0.1-0.1,0.1-0.1,0.2
			c0,0.1,0,0.1,0,0.2v0v3.3c0,1,0.8,1.8,1.8,1.8h16.7c1,0,1.8-0.8,1.8-1.8V13L0,12.6z M0.4,12.4l0,0.1 M0.4,12.4
			C0.4,12.4,0.4,12.4,0.4,12.4l0,0.1 M0.4,12.4c1.1,0,1.9-0.9,1.9-1.9S1.5,8.6,0.4,8.6 M0.4,12.6c1.1,0,2.1-0.9,2.1-2.1
			c0-1.1-0.9-2.1-2.1-2.1 M0.4,8.6l0-0.1 M0.4,8.6C0.4,8.6,0.4,8.6,0.4,8.6l0-0.1 M0.4,8.6c-0.1,0-0.1,0-0.2,0l0.1-0.1L0.2,8.5
			C0.1,8.5,0.1,8.5,0,8.4C0,8.3-0.1,8.3-0.1,8.2c0-0.1,0-0.1,0-0.2c0,0,0,0,0,0V4.7c0-1,0.8-1.8,1.8-1.8h16.7c1,0,1.8,0.8,1.8,1.8
			V8v0H20c0,0.1,0,0.1,0,0.2c0,0.1-0.1,0.1-0.1,0.1L0.4,8.4 M17.6,10.5c0-1.1,0.9-1.9,1.9-1.9L20,13c0-0.1,0-0.1,0-0.2
			c0-0.1-0.1-0.1-0.1-0.1s-0.1-0.1-0.1-0.1c-0.1,0-0.1,0-0.2,0v-0.1c0,0,0,0,0,0C18.5,12.4,17.6,11.6,17.6,10.5z M16.5,10.5
			c0,1.5,1.1,2.7,2.5,3v2.8c0,0.4-0.3,0.7-0.7,0.7H1.7C1.3,17,1,16.7,1,16.3v-2.8c1.4-0.3,2.5-1.5,2.5-3c0-1.5-1.1-2.7-2.5-3V4.7
			C1,4.3,1.3,4,1.7,4h16.7C18.7,4,19,4.3,19,4.7v2.8C17.6,7.8,16.5,9,16.5,10.5z"/>
		<path d="M18.3,18.3H1.7c-1.1,0-2-0.9-2-2V13c0-0.1,0-0.2,0.1-0.3c0-0.1,0.1-0.2,0.2-0.2l0,0c0,0,0,0,0,0l0,0
			c0.1,0,0.1-0.1,0.2-0.1c0.1,0,0.2-0.1,0.3-0.1c1,0,1.8-0.8,1.8-1.8S1.4,8.7,0.4,8.7V8.6v0.1c0,0-0.1,0-0.1,0l0,0L0.1,8.7
			c0,0,0,0,0,0l0,0c0,0,0,0,0,0L0,8.6l0,0c0,0-0.1-0.1-0.1-0.1c-0.1-0.1-0.1-0.1-0.2-0.2c0-0.1-0.1-0.2-0.1-0.3V4.7
			c0-1.1,0.9-2,2-2h16.7c1.1,0,2,0.9,2,2v3.5h-0.2c0,0,0,0,0,0.1c0,0.1-0.1,0.1-0.1,0.2l0,0l-0.2,0l0.4,4.4l0.1,0v3.5
			C20.3,17.4,19.4,18.3,18.3,18.3z M0.1,12.8C0.1,12.8,0,12.8,0.1,12.8C0,12.9,0,12.9,0,13v3.3C0,17.3,0.7,18,1.7,18h16.7
			c0.9,0,1.7-0.7,1.7-1.7v-3.2l-1.7,0c0.2,0.1,0.5,0.2,0.8,0.3l0.1,0v2.9c0,0.5-0.4,0.8-0.8,0.8H1.7c-0.5,0-0.8-0.4-0.8-0.8v-2.9
			l0.1,0c0.5-0.1,0.9-0.3,1.3-0.6L0.1,12.8z M1.1,13.6v2.7c0,0.3,0.2,0.5,0.5,0.5h16.7c0.3,0,0.5-0.2,0.5-0.5v-2.7
			c-0.4-0.1-0.8-0.3-1.2-0.5l-15-0.3C2.3,13.2,1.7,13.5,1.1,13.6z M17.8,12.8l2,0c0,0,0,0,0,0c0,0-0.1,0-0.1-0.1c0,0-0.1,0-0.1,0
			h-0.2v-0.2c-1.1-0.1-1.9-1-1.9-2.1c0-1,0.7-1.9,1.7-2.1l-1.7,0c-0.5,0.5-0.8,1.3-0.8,2C16.7,11.4,17.1,12.3,17.8,12.8z M2.9,12.5
			l14.4,0.3c-0.6-0.6-1-1.4-1-2.3c0-0.8,0.3-1.5,0.7-2L3,8.6c0.4,0.5,0.7,1.2,0.7,1.9C3.6,11.3,3.4,12,2.9,12.5z M1.5,12.5l1.1,0
			c0.5-0.5,0.8-1.2,0.8-2c0-0.7-0.3-1.4-0.7-1.9l-1.1,0c0.7,0.4,1.1,1.1,1.1,1.9C2.6,11.4,2.2,12.1,1.5,12.5z M19.7,12.5
			C19.8,12.5,19.8,12.5,19.7,12.5l-0.3-3.7c-0.9,0.1-1.6,0.8-1.6,1.8c0,1,0.8,1.8,1.8,1.8h0.2V12.5z M0.3,8.4c0,0,0.1,0,0.1,0l0,0
			l0-0.1h0h0l1.9,0C1.9,7.9,1.5,7.7,1,7.6l-0.1,0V4.7c0-0.5,0.4-0.8,0.8-0.8h16.7c0.5,0,0.8,0.4,0.8,0.8v2.9l-0.1,0
			c-0.4,0.1-0.9,0.3-1.2,0.5l2,0c0,0,0,0,0,0c0,0,0-0.1,0-0.1V7.9H20V4.7C20,3.7,19.3,3,18.3,3H1.7C0.7,3,0,3.7,0,4.7V8
			c0,0.1,0,0.1,0,0.2c0,0.1,0.1,0.1,0.1,0.1C0.2,8.3,0.2,8.4,0.3,8.4L0.3,8.4z M1.1,7.4c0.6,0.1,1.2,0.5,1.6,0.9l14.7-0.1
			c0.4-0.4,0.9-0.7,1.5-0.8V4.7c0-0.3-0.2-0.5-0.5-0.5H1.7c-0.3,0-0.5,0.2-0.5,0.5V7.4z"/>
	</g>
	<g>
		<path d="M5.2,4.5c0.1,0,0.1,0,0.2,0l0,0.1l0-0.1c0.1,0,0.1,0,0.2,0c0.1,0,0.1,0.1,0.2,0.1c0,0,0.1,0.1,0.1,0.2
			c0,0.1,0,0.1,0,0.2c0,0,0,0,0,0 M5.2,4.5L5.8,5l0.1,0 M5.2,4.5c-0.1,0-0.1,0.1-0.2,0.1c0,0-0.1,0.1-0.1,0.2c0,0.1,0,0.1,0,0.2
			L5.2,4.5z M5.9,5v0.9V5z M5.2,7.9c0.1,0,0.1,0,0.2,0l0,0.1l0-0.1c0.1,0,0.1,0,0.2,0C5.7,8,5.7,8,5.8,8.1c0,0,0.1,0.1,0.1,0.2
			c0,0.1,0,0.1,0,0.2c0,0,0,0,0,0 M5.2,7.9l0.6,0.5l0.1,0 M5.2,7.9C5.2,8,5.1,8,5.1,8.1c0,0-0.1,0.1-0.1,0.2c0,0.1,0,0.1,0,0.2
			L5.2,7.9z M5.9,8.4v0.8V8.4z M5.2,11.3c0.1,0,0.1,0,0.2,0l0,0.1l0-0.1c0.1,0,0.1,0,0.2,0c0.1,0,0.1,0.1,0.2,0.1
			c0,0,0.1,0.1,0.1,0.2c0,0.1,0,0.1,0,0.2l0,0 M5.2,11.3l0.6,0.5h0.1 M5.2,11.3c-0.1,0-0.1,0.1-0.2,0.1c0,0-0.1,0.1-0.1,0.2
			c0,0.1,0,0.1,0,0.2L5.2,11.3z M5.9,11.8v0.8V11.8z M5.2,14.6c0.1,0,0.1,0,0.2,0l0,0.1l0-0.1c0.1,0,0.1,0,0.2,0
			c0.1,0,0.1,0.1,0.2,0.1c0,0,0.1,0.1,0.1,0.2c0,0.1,0,0.1,0,0.2l0,0 M5.2,14.6l0.6,0.5h0.1 M5.2,14.6c-0.1,0-0.1,0.1-0.2,0.1
			c0,0-0.1,0.1-0.1,0.2c0,0.1,0,0.1,0,0.2L5.2,14.6z M5.9,15.1v0.8V15.1z M5.9,6.1c0-0.1,0-0.1,0-0.2h-1c0,0.1,0,0.1,0,0.2
			C5,6.2,5,6.2,5.1,6.3c0,0,0.1,0.1,0.2,0.1c0.1,0,0.1,0,0.2,0l0-0.1l0,0.1c0.1,0,0.1,0,0.2,0c0.1,0,0.1-0.1,0.2-0.1
			C5.8,6.2,5.9,6.2,5.9,6.1z M5.9,9.4c0-0.1,0-0.1,0-0.2h-1c0,0.1,0,0.1,0,0.2C5,9.5,5,9.6,5.1,9.6c0,0,0.1,0.1,0.2,0.1
			c0.1,0,0.1,0,0.2,0l0-0.1l0,0.1c0.1,0,0.1,0,0.2,0c0.1,0,0.1-0.1,0.2-0.1C5.8,9.6,5.9,9.5,5.9,9.4z M5.9,12.8c0-0.1,0-0.1,0-0.2
			h-1c0,0.1,0,0.1,0,0.2c0,0.1,0.1,0.1,0.1,0.2c0,0,0.1,0.1,0.2,0.1c0.1,0,0.1,0,0.2,0l0-0.1l0,0.1c0.1,0,0.1,0,0.2,0
			c0.1,0,0.1-0.1,0.2-0.1C5.8,12.9,5.9,12.8,5.9,12.8z M5.9,16.1c0-0.1,0-0.1,0-0.2h-1c0,0.1,0,0.1,0,0.2c0,0.1,0.1,0.1,0.1,0.2
			c0,0,0.1,0.1,0.2,0.1c0.1,0,0.1,0,0.2,0l0-0.1l0,0.1c0.1,0,0.1,0,0.2,0c0.1,0,0.1-0.1,0.2-0.1C5.8,16.2,5.9,16.2,5.9,16.1z"/>
		<path d="M5.5,16.5H5.4c0,0,0,0,0,0l0,0l-0.1,0c0,0-0.1,0-0.1,0c-0.1,0-0.1-0.1-0.2-0.1c-0.1-0.1-0.1-0.1-0.1-0.2
			c0-0.1,0-0.2,0-0.2v-0.1h1v-0.6h0l-0.6-0.4l-0.4,0.7v-0.3c0-0.1,0-0.2,0-0.2c0-0.1,0.1-0.1,0.1-0.2c0.1-0.1,0.1-0.1,0.2-0.1
			l0.3-0.1l-0.1,0.1l0.1,0c0,0,0.1,0,0.1,0c0.1,0,0.1,0.1,0.2,0.1C5.9,14.7,6,14.8,6,14.8c0,0.1,0,0.2,0,0.2v0.8c0,0.1,0,0.2,0,0.2
			c0,0.1-0.1,0.1-0.1,0.2c-0.1,0.1-0.1,0.1-0.2,0.1C5.6,16.5,5.6,16.5,5.5,16.5L5.5,16.5z M5,16C5,16,5,16.1,5,16
			c0,0.1,0.1,0.2,0.1,0.2c0,0,0.1,0.1,0.1,0.1c0,0,0.1,0,0.1,0h0.1c0,0,0.1,0,0.1,0c0,0,0.1-0.1,0.1-0.1c0,0,0.1-0.1,0.1-0.1
			c0,0,0,0,0-0.1H5z M5.5,14.7l0.3,0.3c0,0,0,0,0,0c0-0.1-0.1-0.1-0.1-0.1c0,0-0.1-0.1-0.1-0.1C5.5,14.7,5.5,14.7,5.5,14.7z
				M5.5,13.2H5.4c0,0,0,0,0,0l0,0l-0.1,0c0,0-0.1,0-0.1,0C5.1,13.1,5,13.1,5,13c-0.1-0.1-0.1-0.1-0.1-0.2c0-0.1,0-0.2,0-0.2v-0.1h1
			v-0.6h0l-0.6-0.4l-0.4,0.7v-0.3c0-0.1,0-0.2,0-0.2c0-0.1,0.1-0.1,0.1-0.2c0.1-0.1,0.1-0.1,0.2-0.1l0.3-0.1l-0.1,0.1l0.1,0
			c0,0,0.1,0,0.1,0c0.1,0,0.1,0.1,0.2,0.1C5.9,11.4,6,11.4,6,11.5s0,0.2,0,0.2v0.8c0,0.1,0,0.2,0,0.2C6,12.9,5.9,13,5.9,13
			c-0.1,0.1-0.1,0.1-0.2,0.1C5.6,13.2,5.6,13.2,5.5,13.2L5.5,13.2z M5,12.7C5,12.7,5,12.7,5,12.7c0,0.1,0.1,0.2,0.1,0.2
			c0,0,0.1,0.1,0.1,0.1c0.1,0,0.2,0,0.3,0c0.1,0,0.1-0.1,0.1-0.1c0,0,0.1-0.1,0.1-0.1c0,0,0,0,0-0.1H5z M5.5,11.3l0.3,0.3
			c0,0,0,0,0,0c0-0.1-0.1-0.1-0.1-0.1c0,0-0.1-0.1-0.1-0.1C5.5,11.4,5.5,11.3,5.5,11.3z M5.5,9.9H5.4c0,0,0,0,0,0l0,0l-0.1,0
			c0,0-0.1,0-0.1,0C5.1,9.8,5,9.7,5,9.7C4.9,9.6,4.9,9.6,4.8,9.5c0-0.1,0-0.2,0-0.2V9.1h1V8.5h0L5.2,8.1L4.8,8.7V8.4
			c0-0.1,0-0.2,0-0.2S4.9,8,5,8C5,7.9,5.1,7.9,5.2,7.8c0,0,0,0,0,0l0.3-0.1L5.4,7.8l0.1,0c0,0,0.1,0,0.1,0c0.1,0,0.1,0.1,0.2,0.1
			C5.9,8,6,8.1,6,8.2c0,0.1,0,0.2,0,0.2v0.8c0,0.1,0,0.2,0,0.2S5.9,9.6,5.9,9.7C5.8,9.7,5.7,9.8,5.7,9.8C5.6,9.8,5.6,9.9,5.5,9.9
			L5.5,9.9z M5,9.4C5,9.4,5,9.4,5,9.4c0,0.1,0.1,0.2,0.1,0.2c0,0,0.1,0.1,0.1,0.1c0,0,0.1,0,0.1,0l0,0c0,0,0.1,0,0.1,0
			c0.1,0,0.1-0.1,0.1-0.1c0,0,0.1-0.1,0.1-0.1c0,0,0,0,0-0.1H5z M5.5,8l0.3,0.3c0,0,0,0,0,0c0,0-0.1-0.1-0.1-0.1
			c0,0-0.1-0.1-0.1-0.1C5.5,8,5.5,8,5.5,8z M5.5,6.5H5.4c0,0,0,0,0,0l0,0l-0.1,0c0,0-0.1,0-0.1,0C5.1,6.5,5,6.4,5,6.4
			C4.9,6.3,4.9,6.2,4.8,6.2c0-0.1,0-0.2,0-0.2V5.8h1V5.1h0L5.2,4.6L4.8,5.3V5c0-0.1,0-0.2,0-0.2S4.9,4.6,5,4.5
			C5,4.5,5.1,4.4,5.2,4.4c0,0,0,0,0,0l0.3-0.1L5.4,4.4l0.1,0c0,0,0.1,0,0.1,0c0.1,0,0.1,0.1,0.2,0.1C5.9,4.6,6,4.7,6,4.7
			C6,4.8,6,4.9,6,5v0.9C6,6,6,6.1,6,6.2l0,0c0,0.1-0.1,0.1-0.1,0.2C5.8,6.4,5.7,6.5,5.7,6.5C5.6,6.5,5.6,6.5,5.5,6.5L5.5,6.5z M5,6
			C5,6,5,6.1,5,6c0,0.1,0.1,0.2,0.1,0.2c0,0,0.1,0.1,0.1,0.1c0,0,0.1,0,0.1,0l0,0c0,0,0.1,0,0.1,0c0.1,0,0.1-0.1,0.1-0.1
			c0,0,0.1-0.1,0.1-0.1l0,0c0,0,0,0,0-0.1H5z M5.5,4.6l0.3,0.3c0,0,0,0,0,0c0,0-0.1-0.1-0.1-0.1c0,0-0.1-0.1-0.1-0.1
			C5.5,4.6,5.5,4.6,5.5,4.6z"/>
	</g>
</g>
</svg>
