<?xml version="1.0" encoding="utf-8"?>
<!-- Generator: Adobe Illustrator 21.1.0, SVG Export Plug-In . SVG Version: 6.00 Build 0)  -->
<svg version="1.1" id="Слой_1" xmlns="http://www.w3.org/2000/svg" xmlns:xlink="http://www.w3.org/1999/xlink" x="0px" y="0px"
	 viewBox="0 0 20 21" style="enable-background:new 0 0 20 21;" xml:space="preserve">
<style type="text/css">
	.st0{fill:#333333;}
</style>
<g>
	<path class="st0" d="M18.9,1.6c-0.3-0.3-0.7-0.3-0.9,0L1.1,18.5c-0.3,0.3-0.3,0.7,0,0.9c0.1,0.1,0.3,0.2,0.5,0.2
		c0.2,0,0.3-0.1,0.5-0.2L18.9,2.5C19.2,2.3,19.2,1.9,18.9,1.6z M4.9,1.4c-2.2,0-4,1.8-4,4c0,2.2,1.8,4,4,4c2.2,0,4-1.8,4-4
		C9,3.2,7.2,1.4,4.9,1.4z M4.9,8.2c-1.5,0-2.7-1.2-2.7-2.7c0-1.5,1.2-2.7,2.7-2.7c1.5,0,2.7,1.2,2.7,2.7C7.7,6.9,6.4,8.2,4.9,8.2z
		 M15.1,11.5c-2.2,0-4,1.8-4,4c0,2.2,1.8,4,4,4c2.2,0,4-1.8,4-4C19.1,13.3,17.3,11.5,15.1,11.5z M15.1,18.3c-1.5,0-2.7-1.2-2.7-2.7
		c0-1.5,1.2-2.7,2.7-2.7s2.7,1.2,2.7,2.7C17.8,17.1,16.5,18.3,15.1,18.3z"/>
	<path class="st0" d="M15.1,19.7c-2.3,0-4.1-1.9-4.1-4.1s1.9-4.1,4.1-4.1s4.1,1.9,4.1,4.1S17.3,19.7,15.1,19.7z M15.1,11.6
		c-2.2,0-3.9,1.8-3.9,3.9s1.8,3.9,3.9,3.9s3.9-1.8,3.9-3.9S17.2,11.6,15.1,11.6z M1.6,19.7c-0.2,0-0.4-0.1-0.5-0.2
		c-0.1-0.1-0.2-0.3-0.2-0.5c0-0.2,0.1-0.4,0.2-0.5L17.9,1.5c0.3-0.3,0.8-0.3,1.1,0l0,0c0.3,0.3,0.3,0.8,0,1.1L2.1,19.5
		C2,19.6,1.8,19.7,1.6,19.7z M18.4,1.5c-0.1,0-0.3,0.1-0.4,0.2L1.2,18.5C1.1,18.6,1,18.8,1,18.9c0,0.2,0.1,0.3,0.2,0.4
		c0.2,0.2,0.6,0.2,0.8,0L18.8,2.5c0.2-0.2,0.2-0.6,0-0.8C18.7,1.6,18.6,1.5,18.4,1.5z M15.1,18.4c-1.6,0-2.8-1.3-2.8-2.8
		c0-1.6,1.3-2.8,2.8-2.8s2.8,1.3,2.8,2.8C17.9,17.1,16.6,18.4,15.1,18.4z M15.1,12.9c-1.4,0-2.6,1.2-2.6,2.6s1.2,2.6,2.6,2.6
		s2.6-1.2,2.6-2.6S16.5,12.9,15.1,12.9z M4.9,9.6c-2.3,0-4.1-1.9-4.1-4.1c0-2.3,1.9-4.1,4.1-4.1c2.3,0,4.1,1.9,4.1,4.1
		C9.1,7.7,7.2,9.6,4.9,9.6z M4.9,1.5C2.8,1.5,1,3.3,1,5.4c0,2.2,1.8,3.9,3.9,3.9c2.2,0,3.9-1.8,3.9-3.9C8.9,3.3,7.1,1.5,4.9,1.5z
		 M4.9,8.3C3.4,8.3,2.1,7,2.1,5.4c0-1.6,1.3-2.8,2.8-2.8s2.8,1.3,2.8,2.8C7.8,7,6.5,8.3,4.9,8.3z M4.9,2.8C3.5,2.8,2.3,4,2.3,5.4
		c0,1.4,1.2,2.6,2.6,2.6c1.4,0,2.6-1.2,2.6-2.6C7.6,4,6.4,2.8,4.9,2.8z"/>
</g>
</svg>
