<svg xmlns="http://www.w3.org/2000/svg" width="16" height="17" fill="none" viewBox="0 0 16 17">
  <path fill="#E31E25" d="M7.463 11.168a2.955 2.955 0 0 1-.135-.879c0-.25.049-.475.147-.674.101-.203.226-.392.375-.568a5.36 5.36 0 0 1 .486-.504c.176-.164.338-.328.486-.492a2.83 2.83 0 0 0 .37-.522c.101-.183.152-.384.152-.603a1.075 1.075 0 0 0-.405-.862 1.257 1.257 0 0 0-.433-.216 1.754 1.754 0 0 0-.522-.077c-.66 0-1.232.26-1.716.78V5.52c.597-.375 1.216-.563 1.857-.563.297 0 .576.04.838.117a2 2 0 0 1 .685.352c.2.152.356.344.47.574.112.23.17.498.17.803 0 .289-.052.547-.153.773-.102.227-.23.436-.387.627a4.882 4.882 0 0 1-.498.527c-.18.165-.348.329-.504.493-.152.16-.28.328-.38.504a1.133 1.133 0 0 0-.153.58c0 .18.021.343.064.492.043.144.086.267.13.369h-.944Zm.527 2.438a.648.648 0 0 1-.457-.188.613.613 0 0 1-.193-.457.6.6 0 0 1 .193-.457.625.625 0 0 1 .457-.194c.176 0 .328.065.457.194a.6.6 0 0 1 .194.457c0 .18-.065.332-.194.457a.648.648 0 0 1-.457.188Z"/>
  <rect width="15" height="15" x=".5" y="1" stroke="#E31E25" rx="7.5"/>
</svg>
