<svg width="20" height="20" viewBox="0 0 20 20" fill="none" xmlns="http://www.w3.org/2000/svg">
<path d="M7.51088 15.0218C6.02537 15.0218 4.57322 14.5812 3.33806 13.7559C2.1029 12.9306 1.14021 11.7576 0.571735 10.3852C0.00325437 9.01273 -0.145486 7.50255 0.144323 6.04558C0.434131 4.58861 1.14947 3.2503 2.19989 2.19989C3.2503 1.14947 4.58861 0.434131 6.04558 0.144323C7.50255 -0.145486 9.01273 0.00325437 10.3852 0.571735C11.7576 1.14021 12.9306 2.1029 13.7559 3.33806C14.5812 4.57322 15.0218 6.02537 15.0218 7.51088C15.0218 9.50288 14.2304 11.4133 12.8219 12.8219C11.4133 14.2304 9.50288 15.0218 7.51088 15.0218ZM7.51088 1.36562C6.29546 1.36562 5.10734 1.72603 4.09675 2.40128C3.08617 3.07653 2.29852 4.03629 1.8334 5.15919C1.36828 6.28209 1.24658 7.51769 1.4837 8.70976C1.72081 9.90182 2.30609 10.9968 3.16552 11.8562C4.02495 12.7157 5.11993 13.3009 6.312 13.5381C7.50406 13.7752 8.73967 13.6535 9.86257 13.1884C10.9855 12.7232 11.9452 11.9356 12.6205 10.925C13.2957 9.91442 13.6561 8.72629 13.6561 7.51088C13.6561 5.88105 13.0087 4.31798 11.8562 3.16552C10.7038 2.01306 9.1407 1.36562 7.51088 1.36562Z" fill="#333333"/>
<path d="M18.8379 19.8019L11.8528 12.8236L12.8156 11.8609L19.8007 18.8392C19.9279 18.9671 19.9992 19.1402 19.9992 19.3205C19.9992 19.5009 19.9279 19.674 19.8007 19.8019C19.6727 19.9291 19.4997 20.0005 19.3193 20.0005C19.1389 20.0005 18.9659 19.9291 18.8379 19.8019ZM5.53685 10.9254C5.4881 11.01 5.4218 11.0831 5.34241 11.1398C5.26303 11.1966 5.1724 11.2356 5.07664 11.2544C4.98087 11.2732 4.8822 11.2712 4.78726 11.2486C4.69233 11.226 4.60334 11.1833 4.5263 11.1234C3.78521 10.5104 3.2498 9.68503 2.9922 8.75841C2.7346 7.83179 2.76719 6.84848 3.08557 5.94095C3.12272 5.8464 3.18049 5.76133 3.25468 5.69194C3.32887 5.62255 3.41761 5.57059 3.51443 5.53984C3.61125 5.50909 3.71371 5.50034 3.81434 5.51421C3.91497 5.52808 4.01124 5.56423 4.09613 5.62003C4.22519 5.7059 4.32119 5.83313 4.36835 5.9808C4.4155 6.12847 4.411 6.28779 4.35559 6.43257C4.11502 7.0666 4.08192 7.76063 4.26108 8.41467C4.44024 9.06871 4.82239 9.649 5.35249 10.0719C5.47807 10.1703 5.56526 10.3095 5.59894 10.4654C5.63261 10.6213 5.61064 10.784 5.53685 10.9254Z" fill="#333333"/>
</svg>
