<svg xmlns="http://www.w3.org/2000/svg" width="26" height="26" fill="none" viewBox="0 0 26 26">
  <path fill="url(#a)" d="m24.94 10.484-1.319-1.317a1.723 1.723 0 0 1-.506-1.223V6.401a3.546 3.546 0 0 0-3.54-3.541h-1.543a1.741 1.741 0 0 1-1.222-.505l-1.318-1.32a3.545 3.545 0 0 0-5.008 0l-1.317 1.32a1.746 1.746 0 0 1-1.223.506H6.4a3.545 3.545 0 0 0-3.54 3.542v1.541a1.722 1.722 0 0 1-.505 1.223l-1.32 1.317a3.545 3.545 0 0 0 0 5.008l1.32 1.317a1.72 1.72 0 0 1 .506 1.223v1.543a3.546 3.546 0 0 0 3.54 3.541h1.543a1.74 1.74 0 0 1 1.222.507l1.318 1.318a3.544 3.544 0 0 0 5.008 0l1.317-1.318a1.746 1.746 0 0 1 1.223-.507h1.544a3.546 3.546 0 0 0 3.54-3.541v-1.543a1.72 1.72 0 0 1 .507-1.223l1.318-1.317a3.545 3.545 0 0 0 0-5.008Zm-7.687.725-4.833 4.834a.905.905 0 0 1-1.28 0l-2.417-2.417a.906.906 0 0 1 1.28-1.28l1.777 1.777 4.193-4.192a.906.906 0 0 1 1.28 1.28v-.002Z"/>
  <defs>
    <linearGradient id="a" x1="12.988" x2="12.988" y1="0" y2="25.977" gradientUnits="userSpaceOnUse">
      <stop stop-color="#FFEE02"/>
      <stop offset="1" stop-color="#F0801E"/>
    </linearGradient>
  </defs>
</svg>
