<svg xmlns="http://www.w3.org/2000/svg" width="30" height="16" fill="none" viewBox="0 0 30 16">
  <path fill="#fff" d="M16.471 15.933s.542-.056.819-.335c.254-.255.245-.736.245-.736s-.034-2.248 1.083-2.58c1.1-.327 2.513 2.174 4.013 3.135 1.133.727 1.993.568 1.993.568l4.007-.052s2.095-.12 1.102-1.661c-.082-.126-.58-1.14-2.979-3.222-2.513-2.18-2.176-1.827.85-5.598 1.843-2.296 2.58-3.698 2.349-4.298-.219-.573-1.575-.42-1.575-.42l-4.51.025s-.335-.042-.583.096c-.242.136-.399.453-.399.453s-.713 1.776-1.665 3.288c-2.009 3.188-2.811 3.356-3.14 3.159-.765-.462-.574-1.855-.574-2.844 0-3.09.502-4.378-.976-4.711-.49-.112-.85-.184-2.105-.197-1.61-.015-2.972.006-3.743.358-.514.235-.91.759-.668.79.298.036.973.17 1.331.625.462.588.446 1.908.446 1.908s.266 3.638-.62 4.089c-.608.31-1.442-.323-3.233-3.215-.917-1.482-1.61-3.12-1.61-3.12s-.133-.306-.372-.47c-.29-.2-.693-.26-.693-.26L.978.732s-.644.017-.88.279c-.21.231-.017.713-.017.713s3.356 7.34 7.157 11.04c3.484 3.39 7.44 3.168 7.44 3.168h1.793Z"/>
</svg>
