<svg width="301" height="303" viewBox="0 0 301 303" fill="none" xmlns="http://www.w3.org/2000/svg">
<path d="M119.788 52.5546C106.391 54.1159 101.863 28.6418 79.0678 22.9088C63.6487 19.0309 50.1616 26.7742 47.5362 28.3583C36.7481 34.8652 27.1386 47.2572 26.29 61.2312C25.0099 82.2998 44.3893 94.6669 38.5104 104.79C33.9643 112.618 20.4721 108.499 16.7809 116.893C13.7374 123.814 20.0934 133.019 23.945 138.596C34.4797 153.851 43.4507 152.617 46.7177 160.59C53.1006 176.166 22.6215 190.062 15.5049 220.653C10.0606 244.055 18.9944 274.197 40.3596 290.2C65.9522 309.37 101.785 302.559 122.429 290.2C144.816 276.797 141.268 261.704 159.287 256.916C181.019 251.14 191.896 271.572 232.635 273.79C245.947 274.514 260.201 275.095 267.807 265.975C278.514 253.136 269.044 229.469 267.544 225.721C256.229 197.444 230.335 188.206 234.074 177.603C236.424 170.939 248.592 169.096 250.244 168.845C262.524 166.985 268.371 174.697 277.223 171.448C282.414 169.542 287.915 164.132 288.767 158.176C291.236 140.936 253.03 131.316 253.707 113.016C254.124 101.718 268.856 100.81 281.876 83.112C294.716 65.6595 303.729 34.8176 290.474 16.6874C275.886 -3.26686 237.615 -3.32377 214.148 10.644C186.222 27.2657 181.844 62.2099 168.543 60.45C156.984 58.9198 154.878 31.8067 143.532 31.5357C133.79 31.3029 131.426 51.1992 119.789 52.5546H119.788Z" fill="#EFEFEF"/>
<path d="M269.195 181.9C265.22 180.574 249.005 175.162 246.422 179.535C243.527 184.435 257.414 202.18 275.651 206.224C284.916 208.279 297.325 207.245 298.625 202.811C300.293 197.122 283.449 186.658 269.196 181.9H269.195Z" fill="url(#paint0_linear_566_24335)"/>
<path d="M128.014 31.2955C127.507 36.2929 123.108 42.0259 117.3 42.0072C111.254 41.9876 107.543 35.7466 106.587 31.2955C105.338 25.4839 107.823 18.2413 112.449 16.6873C118.682 14.5942 128.876 22.8021 128.014 31.2955Z" fill="url(#paint1_linear_566_24335)"/>
<path d="M172.84 16.6874C167.192 18.4556 158.595 21.1467 156.817 28.4089C155.15 35.219 160.004 43.9038 165.805 45.2106C177.142 47.7651 193.981 22.5673 189.645 16.2963C186.876 12.2932 175.394 15.8876 172.84 16.6874Z" fill="url(#paint2_linear_566_24335)"/>
<path d="M115.612 286.272C108.485 287.407 100.548 285.136 95.5657 280.1L28.5889 212.388C22.7793 206.515 23.156 197.463 29.5234 191.987C36.0604 186.366 49.6417 185.325 55.9117 191.393L128.439 261.597C135.643 268.571 134.452 278.289 125.926 283.098C123.854 284.267 117.988 285.892 115.611 286.271L115.612 286.272Z" fill="url(#paint3_linear_566_24335)"/>
<g style="mix-blend-mode:multiply" opacity="0.3">
<path d="M29.5234 191.988C36.0604 186.367 49.6417 185.326 55.9117 191.394L121.952 255.318C114.959 255.553 107.496 257.567 98.337 254.093C83.4167 248.434 84.6295 235.782 71.8151 228.509C66.048 225.236 56.9155 222.794 41.9466 225.893L28.5889 212.389C22.7793 206.515 23.156 197.464 29.5234 191.988Z" fill="url(#paint4_linear_566_24335)"/>
</g>
<path d="M35.7823 227.358C46.9418 223.339 52.6134 210.713 48.4502 199.158C44.287 187.602 31.8656 181.493 20.7061 185.512C9.54656 189.531 3.87494 202.157 8.03814 213.712C12.2013 225.268 24.6228 231.377 35.7823 227.358Z" fill="url(#paint5_linear_566_24335)"/>
<path d="M19.7344 186.447C20.0521 202.007 24.9375 215.564 34.6102 227.73L169.592 237.251L118.684 91.2275L19.7344 186.447Z" fill="#FFEE02"/>
<g style="mix-blend-mode:multiply" opacity="0.3">
<path d="M116.774 206.299C102.948 205.206 92.6273 187.815 79.4383 191.924C69.539 195.007 70.5604 206.82 61.0058 208.805C51.5805 210.764 45.9499 199.758 34.9589 199.358C30.1065 199.181 25.9113 201.185 22.3359 204.266C24.7212 212.616 28.785 220.397 34.6143 227.73L169.597 237.251L143.223 190.735C132.39 203.425 123.705 206.848 116.774 206.299Z" fill="url(#paint6_linear_566_24335)"/>
</g>
<path d="M171.06 236.62C201.315 225.724 214.116 184.345 199.652 144.197C185.187 104.05 148.935 80.3374 118.68 91.2339C88.4249 102.13 75.6242 143.509 90.0887 183.657C104.553 223.804 140.805 247.517 171.06 236.62Z" fill="#D8DEE8"/>
<path d="M170.183 234.146C176.607 231.833 182.3 227.845 187.106 222.293C191.998 216.643 195.749 209.668 198.256 201.561C203.528 184.519 202.649 164.639 195.783 145.584C188.917 126.529 176.913 110.656 161.982 100.891C154.88 96.2457 147.541 93.2659 140.169 92.0326C132.926 90.8211 125.997 91.3798 119.573 93.6943C113.15 96.0078 107.457 99.9953 102.651 105.547C97.7591 111.197 94.0078 118.172 91.5004 126.28C89.2962 133.405 88.1672 141.027 88.102 148.877C88.0109 159.802 101.941 166.154 105.936 177.242C110.184 189.032 104.437 204.618 112.096 213.279C116.815 218.616 122.082 223.227 127.775 226.95C134.878 231.596 142.216 234.575 149.588 235.809C156.831 237.02 163.76 236.462 170.183 234.147V234.146Z" fill="url(#paint7_linear_566_24335)"/>
<mask id="mask0_566_24335" style="mask-type:luminance" maskUnits="userSpaceOnUse" x="88" y="91" width="114" height="146">
<path d="M170.186 234.146C176.609 231.833 182.303 227.845 187.109 222.293C192.001 216.643 195.752 209.668 198.259 201.561C203.531 184.519 202.652 164.639 195.786 145.584C188.92 126.529 176.916 110.656 161.985 100.891C154.883 96.2457 147.544 93.2659 140.172 92.0326C132.929 90.8211 126 91.3798 119.576 93.6943C113.153 96.0078 107.459 99.9953 102.654 105.547C97.762 111.197 94.0107 118.172 91.5033 126.28C86.2318 143.321 87.1104 163.201 93.9765 182.256C100.843 201.311 112.847 217.184 127.777 226.949C134.881 231.595 142.219 234.574 149.591 235.808C156.834 237.019 163.763 236.46 170.186 234.146Z" fill="white"/>
</mask>
<g mask="url(#mask0_566_24335)">
<path d="M149.738 163.251C156.374 181.667 145.919 201.954 126.663 208.469C107.703 214.883 87.3182 205.497 80.867 187.592C74.4158 169.687 84.194 149.64 102.97 142.717C122.041 135.686 143.101 144.834 149.738 163.251Z" fill="url(#paint8_linear_566_24335)"/>
<g style="mix-blend-mode:multiply" opacity="0.3">
<path d="M146.609 164.039C151.536 177.715 147.788 191.333 138.371 194.412C129.1 197.444 117.805 189.089 113.015 175.794C108.224 162.498 111.642 148.995 120.778 145.586C130.056 142.123 141.682 150.363 146.61 164.039H146.609Z" fill="url(#paint9_linear_566_24335)"/>
</g>
</g>
<path d="M163.289 146.821C163.289 146.821 172.419 139.55 177.033 129.307C167.145 120.386 160.587 108.768 159.058 95.7451C155.394 64.5173 181.761 34.858 219.551 29.2626C258.203 23.5389 294.22 44.9024 299.767 77.5445C299.77 77.5559 299.772 77.5663 299.774 77.5776C299.842 77.9832 299.906 78.3899 299.965 78.7985C299.973 78.8586 299.982 78.9175 299.99 78.9775C300.047 79.379 300.1 79.7804 300.147 80.185C300.367 82.0515 300.481 83.9056 300.497 85.7431C300.503 86.5305 300.492 87.3158 300.462 88.098C300.403 89.6613 300.271 91.2123 300.071 92.7477C299.97 93.5154 299.852 94.28 299.718 95.0394C299.628 95.5464 299.53 96.0513 299.426 96.5542C296.964 108.373 290.385 119.141 280.943 127.706C280.742 127.889 280.54 128.07 280.336 128.251C277.081 131.134 273.497 133.761 269.634 136.083C269.393 136.228 269.15 136.372 268.907 136.514C267.201 137.514 265.443 138.454 263.637 139.334C262.863 139.71 262.08 140.076 261.288 140.429C260.76 140.664 260.228 140.894 259.693 141.12C258.89 141.457 258.079 141.783 257.259 142.096C256.713 142.305 256.162 142.508 255.61 142.707C248.691 145.18 241.228 146.787 233.409 147.358C232.831 147.4 232.255 147.435 231.679 147.465C231.512 147.473 231.345 147.48 231.178 147.487C230.768 147.507 230.358 147.524 229.949 147.538C229.767 147.544 229.587 147.546 229.405 147.551C229.007 147.561 228.61 147.571 228.214 147.576C228.044 147.578 227.874 147.577 227.704 147.578C227.293 147.58 226.882 147.581 226.472 147.578C226.326 147.577 226.18 147.574 226.035 147.572C225.595 147.566 225.157 147.557 224.719 147.544C224.607 147.541 224.496 147.537 224.385 147.532C223.903 147.516 223.423 147.496 222.945 147.472C222.88 147.469 222.815 147.465 222.75 147.462C222.21 147.433 221.672 147.4 221.137 147.361C221.134 147.361 221.131 147.361 221.128 147.361C216.6 147.032 212.198 146.342 207.971 145.319C207.975 145.314 207.979 145.309 207.985 145.304C205.489 144.696 203.051 143.972 200.681 143.141C195.77 148.028 182.831 157.455 163.29 146.823L163.289 146.821Z" fill="url(#paint10_linear_566_24335)"/>
<path d="M153.98 96.1218C157.645 127.35 190.209 150.509 228.33 147.733C268.363 144.818 299.074 114.682 295.07 80.5617C291.066 46.44 254.159 23.7636 214.473 29.6393C176.682 35.2347 150.316 64.894 153.98 96.1218Z" fill="url(#paint11_linear_566_24335)"/>
<path d="M153.98 96.1218C157.645 127.35 190.209 150.509 228.33 147.733C268.363 144.818 299.074 114.682 295.07 80.5617C291.066 46.44 254.159 23.7636 214.473 29.6393C176.682 35.2347 150.316 64.894 153.98 96.1218Z" fill="white"/>
<path d="M197.815 141.008C197.815 141.008 183.572 160.998 158.211 147.198C158.211 147.198 175.586 133.366 174.513 116.976L197.815 141.008Z" fill="white"/>
<g style="mix-blend-mode:multiply" opacity="0.3">
<path d="M209.597 134.09C215.947 116.056 205.589 100.721 215.601 88.3163C225.92 75.5301 242.593 84.4954 258.406 73.0614C264.608 68.5762 271.214 60.5629 275.06 45.158C286.035 54.2174 293.416 66.4666 295.07 80.5606C299.074 114.682 268.363 144.817 228.33 147.732C219.434 148.38 210.854 147.62 202.891 145.694C206.233 141.747 208.298 137.782 209.597 134.089V134.09Z" fill="url(#paint12_linear_566_24335)"/>
</g>
<path d="M111.18 87.8413C107.343 76.3267 101.747 63.1142 95.6163 63.3884C91.0413 63.5922 89.9454 71.1369 85.0548 71.7246C74.3846 73.0055 65.6133 38.7679 58.3746 40.0467C54.2259 40.7802 51.6326 52.9943 53.9279 63.3884C58.1852 82.6701 79.4749 96.641 87.8344 92.2872C94.0579 89.0467 91.4987 76.4943 96.7278 75.0592C100.778 73.948 106.269 80.3908 111.18 87.8413Z" fill="url(#paint13_linear_566_24335)"/>
<path d="M130.632 81.1719C132.769 69.2838 131.697 65.7742 130.076 65.0552C127.777 64.035 125.2 68.9858 120.627 68.9454C112.805 68.8761 107.158 54.2803 106.731 54.4955C105.067 55.3346 111.626 79.3188 117.848 78.9484C120.075 78.816 121.048 75.6189 123.963 75.6138C126.673 75.6086 128.957 78.367 130.634 81.1709L130.632 81.1719Z" fill="url(#paint14_linear_566_24335)"/>
<path d="M205.118 197.879C205.275 195.557 229.211 193.032 231.242 198.991C232.225 201.871 227.107 203.862 226.796 208.438C226.008 219.989 257.18 228.319 256.256 231.78C255.196 235.75 212.5 231.089 211.232 220.109C210.601 214.643 220.565 210.479 219.014 205.103C217.379 199.437 205.004 199.555 205.118 197.878V197.879Z" fill="url(#paint15_linear_566_24335)"/>
<path d="M211.232 176.206C211.881 172.962 224.281 170.276 227.352 175.094C228.897 177.519 228.043 181.787 225.685 183.431C220.997 186.697 210.584 179.449 211.232 176.206Z" fill="url(#paint16_linear_566_24335)"/>
<path d="M268.47 99.9308L204.262 138.623C194.831 122.974 204.422 118.393 199.136 109.621L189.919 94.3262C182.416 81.875 183.567 69.9955 191.883 61.4691C190.061 57.6322 191.392 52.9728 195.077 50.7521C198.762 48.5314 203.495 49.537 206.036 52.9403C206.58 52.7783 207.125 52.6348 207.67 52.5124C210.915 51.7634 214.112 51.6473 217.195 52.1978C214.509 58.2721 214.723 65.5377 218.432 71.6929C223.88 80.7324 234.966 84.2568 244.36 80.414L245.223 81.8453C250.507 90.6142 259.038 84.2745 268.471 99.9264L268.47 99.9308Z" fill="url(#paint17_linear_566_24335)"/>
<path d="M191.654 61.7196C186.893 69.8734 187.376 80.2155 193.938 91.1056L203.628 107.185C209.022 116.135 200.119 120.67 208.659 135.975L204.265 138.623C194.834 122.973 204.426 118.392 199.14 109.621L189.923 94.3259C182.491 81.9937 183.547 70.2265 191.652 61.7168L191.654 61.7196Z" fill="#FFEE02"/>
<path d="M254.253 50.1154C260.265 60.091 257.128 73.0085 247.228 78.9743C246.3 79.5335 245.338 80.0176 244.365 80.416C234.972 84.2615 223.887 80.7327 218.441 71.696C214.732 65.5407 214.513 58.2741 217.202 52.2024C218.864 48.4308 221.662 45.1295 225.458 42.842C235.358 36.8762 248.244 40.1382 254.256 50.1138L254.253 50.1154Z" fill="#FFEE02"/>
<path d="M253.069 52.5887C258.65 61.8501 256.936 73.125 249.225 77.7717C248.503 78.2071 247.747 78.5742 246.975 78.8661C239.538 81.6617 230.229 77.7931 225.171 69.4003C221.726 63.6833 221.069 57.2123 222.866 51.9945C223.978 48.7538 226.05 46.0043 229.007 44.2222C236.718 39.5754 247.488 43.3274 253.069 52.5887Z" fill="url(#paint18_linear_566_24335)"/>
<path d="M249.454 112.134C249.454 112.134 255.691 125.268 243.645 132.527C240.488 134.429 237.628 134.991 235.13 134.774C228.107 134.185 223.938 127.511 223.938 127.511L249.454 112.134Z" fill="url(#paint19_linear_566_24335)"/>
<path d="M249.459 112.135C249.459 112.135 255.696 125.268 243.65 132.527C240.493 134.43 237.633 134.991 235.135 134.774C235.414 134.455 235.807 134.115 236.324 133.766C236.396 133.715 236.47 133.667 236.543 133.616C241.436 130.199 237.18 122.426 231.633 124.629C227.925 126.103 225.008 127.26 224.935 127.256L224.617 127.101L249.458 112.132L249.459 112.135Z" fill="#FFEE02"/>
<path d="M268.474 99.9299L267.697 100.398C267.451 100.38 267.21 100.183 266.976 99.7958C263.014 93.1843 254.853 90.6521 249.081 89.3175C243.312 87.9813 242.065 84.0154 242.065 84.0154C232.681 88.6339 221.199 82.648 215.286 72.8347C209.372 63.0215 213.727 54.636 213.727 54.636C213.727 54.636 210.976 53.3211 206.936 53.2145L207.672 52.5132C210.916 51.7642 214.114 51.6481 217.197 52.1986C214.51 58.2729 214.724 65.5385 218.434 71.6937C223.881 80.7332 234.967 84.2576 244.362 80.4148L245.224 81.8461C250.508 90.615 259.04 84.2753 268.472 99.9272L268.474 99.9299Z" fill="#FFEE02"/>
<path d="M224.839 41.8212C221.211 44.0076 218.34 47.132 216.494 50.8926C213.249 50.447 209.888 50.6723 206.471 51.5809C203.436 48.1656 198.419 47.3452 194.464 49.729C190.508 52.1127 188.882 56.9357 190.483 61.2152C182.044 70.3393 181.454 82.5856 188.9 94.9421L198.116 110.234C200.155 113.619 199.745 116.256 199.228 119.596C198.514 124.194 197.628 129.916 203.244 139.234C203.585 139.8 204.317 139.982 204.883 139.641L222.708 128.899C227.704 135.998 237.445 138.135 245 133.582C252.554 129.03 255.204 119.426 251.263 111.692L269.088 100.95C269.653 100.61 269.835 99.8768 269.494 99.3114C263.877 89.9905 258.403 88.1038 254.006 86.5856C250.812 85.4828 248.289 84.6133 246.249 81.2286L246.081 80.9499C246.678 80.6605 247.267 80.3419 247.844 79.9946C258.285 73.7028 261.617 60.0215 255.275 49.4967C248.932 38.9719 235.276 35.5282 224.838 41.8185L224.839 41.8212ZM243.769 131.54C237.343 135.412 229.069 133.641 224.757 127.668L249.216 112.929C252.483 119.531 250.186 127.672 243.769 131.54ZM253.23 88.8462C257.3 90.2513 261.891 91.8363 266.82 99.5321L204.688 136.974C200.187 129.02 200.929 124.217 201.59 119.965C202.134 116.45 202.651 113.133 200.164 109.007L190.949 93.7149C183.948 82.097 184.602 70.6491 192.744 62.3095C193.092 61.9518 193.182 61.4148 192.969 60.9639C191.384 57.6184 192.557 53.6701 195.701 51.7755C198.845 49.8809 202.875 50.6939 205.09 53.6595C205.39 54.0582 205.906 54.23 206.385 54.0888C209.51 53.1651 212.579 52.8607 215.53 53.1735C215.442 53.4186 215.364 53.6685 215.286 53.9184C215.242 54.0479 215.198 54.1775 215.157 54.3054C215.036 54.7104 214.927 55.1158 214.828 55.5218C214.825 55.5348 214.82 55.5451 214.82 55.5564C214.72 55.9781 214.633 56.403 214.557 56.8284C214.536 56.952 214.519 57.0766 214.501 57.2013C214.453 57.4999 214.406 57.8012 214.37 58.103C214.351 58.2618 214.339 58.4243 214.324 58.5841C214.3 58.8496 214.273 59.1168 214.255 59.3817C214.244 59.5584 214.242 59.7328 214.233 59.9078C214.223 60.1608 214.213 60.4138 214.213 60.6647C214.212 60.8462 214.22 61.0298 214.223 61.2124C214.226 61.4572 214.234 61.7032 214.247 61.9502C214.256 62.1365 214.272 62.3223 214.286 62.5054C214.307 62.7475 214.327 62.9896 214.353 63.2285C214.374 63.4154 214.398 63.6033 214.424 63.7869C214.457 64.0252 214.494 64.2646 214.534 64.5023C214.566 64.6897 214.599 64.8728 214.638 65.0596C214.685 65.2968 214.735 65.5324 214.789 65.769C214.83 65.9542 214.873 66.1351 214.922 66.3197C214.983 66.5558 215.051 66.7913 215.119 67.0269C215.171 67.2055 215.224 67.3842 215.28 67.564C215.357 67.8016 215.441 68.0388 215.523 68.2732C215.585 68.4426 215.643 68.618 215.707 68.7859C215.803 69.0305 215.904 69.272 216.005 69.5134C216.072 69.6725 216.136 69.829 216.205 69.9865C216.324 70.2507 216.455 70.511 216.586 70.7713C216.65 70.9023 216.71 71.0322 216.777 71.1615C216.98 71.548 217.194 71.9322 217.42 72.3083C217.593 72.5951 217.774 72.877 217.956 73.1545C218.02 73.2487 218.085 73.3385 218.148 73.4299C218.271 73.6101 218.396 73.793 218.525 73.9699C218.604 74.077 218.686 74.1825 218.77 74.2906C218.89 74.447 219.005 74.6022 219.127 74.7542C219.216 74.8662 219.31 74.9722 219.402 75.0826C219.521 75.2248 219.64 75.3671 219.76 75.505C219.856 75.6164 219.957 75.7218 220.059 75.83C220.18 75.9636 220.299 76.0944 220.424 76.2221C220.529 76.3286 220.636 76.4335 220.741 76.54C220.864 76.6649 220.988 76.7898 221.115 76.9088C221.225 77.012 221.338 77.1136 221.448 77.2169C221.573 77.3331 221.703 77.4504 221.829 77.5623C221.945 77.6623 222.063 77.7607 222.182 77.8591C222.311 77.9694 222.441 78.0753 222.573 78.1839C222.694 78.2807 222.816 78.3731 222.938 78.4655C223.069 78.5671 223.205 78.6697 223.339 78.7697C223.464 78.8605 223.591 78.9496 223.717 79.0361C223.852 79.1317 223.99 79.2257 224.126 79.317C224.256 79.4045 224.386 79.485 224.517 79.5682C224.656 79.6578 224.798 79.7459 224.937 79.8312C225.07 79.91 225.204 79.9916 225.339 80.0688C225.481 80.1525 225.622 80.2335 225.766 80.3128C225.904 80.3884 226.04 80.4613 226.179 80.5325C226.324 80.6076 226.468 80.6826 226.616 80.756C226.757 80.8256 226.897 80.8925 227.037 80.9594C227.183 81.0301 227.33 81.0964 227.48 81.1612C227.622 81.2264 227.766 81.2874 227.912 81.3467C228.06 81.4087 228.208 81.4707 228.359 81.5311C228.506 81.5904 228.653 81.6454 228.801 81.7004C228.952 81.7564 229.102 81.8098 229.254 81.8658C229.403 81.9165 229.551 81.9671 229.7 82.0177C229.853 82.0694 230.007 82.1168 230.159 82.1615C230.309 82.2078 230.459 82.2498 230.61 82.2917C230.765 82.3348 230.923 82.3762 231.076 82.4165C231.228 82.4542 231.381 82.4945 231.531 82.5294C231.69 82.5665 231.847 82.6009 232.003 82.6325C232.156 82.6658 232.307 82.6964 232.461 82.7254C232.619 82.7554 232.78 82.7838 232.939 82.8095C233.094 82.8341 233.247 82.8604 233.402 82.885C233.564 82.9091 233.723 82.9277 233.886 82.9475C234.04 82.965 234.193 82.987 234.349 83.0002C234.51 83.0172 234.673 83.0299 234.836 83.0426C234.991 83.0558 235.145 83.0664 235.299 83.0769C235.462 83.0853 235.629 83.092 235.791 83.0976C235.946 83.1039 236.098 83.1117 236.254 83.1136C236.421 83.1159 236.587 83.1156 236.756 83.1137C236.907 83.1145 237.062 83.1136 237.213 83.1074C237.384 83.1038 237.552 83.0948 237.723 83.0842C237.872 83.0752 238.021 83.0706 238.173 83.06C238.346 83.0478 238.519 83.0285 238.691 83.0135C238.837 82.9992 238.985 82.9875 239.129 82.9704C239.305 82.9495 239.481 82.9242 239.658 82.899C239.801 82.8792 239.941 82.8611 240.083 82.8386C240.267 82.8084 240.453 82.7739 240.637 82.7367C240.77 82.7121 240.904 82.6902 241.035 82.6628C241.239 82.6213 241.44 82.57 241.643 82.5214C241.756 82.4941 241.872 82.4722 241.983 82.4422C242.236 82.3783 242.486 82.3047 242.737 82.231C242.799 82.212 242.863 82.1956 242.926 82.1765C243.237 82.0811 243.545 81.9803 243.852 81.8724L244.2 82.4487C246.686 86.5748 249.862 87.6706 253.222 88.8284L253.23 88.8462ZM246.617 77.953C245.74 78.4813 244.833 78.9397 243.916 79.3153C241.688 80.2264 239.359 80.6892 237.04 80.7403C230.379 80.8858 223.806 77.629 219.95 71.8494C219.783 71.5962 219.62 71.3441 219.462 71.0816C218.859 70.0805 218.356 69.0376 217.94 67.9679C217.895 67.8509 217.852 67.7367 217.812 67.6209C216.05 62.807 216.183 57.4456 218.293 52.685C219.912 49.0061 222.603 45.9569 226.072 43.8666C235.385 38.2546 247.568 41.3354 253.231 50.732C258.894 60.1286 255.926 72.3399 246.613 77.9519L246.617 77.953Z" fill="#E31E25"/>
<path d="M242.485 73.0441C237.516 75.5756 233.254 73.3524 229.699 66.3745C227.855 62.7545 227.121 59.6572 227.496 57.0824C227.876 54.493 229.342 52.5481 231.894 51.2478C236.747 48.7757 240.98 51.0868 244.594 58.1812C246.394 61.7138 247.109 64.7601 246.738 67.3202C246.378 69.8754 244.96 71.7834 242.485 73.0441ZM233.478 54.86C231.488 55.8735 231.767 58.8794 234.313 63.8774C236.711 68.5843 238.885 70.4409 240.836 69.4471C242.738 68.478 242.453 65.5672 239.981 60.7148C237.509 55.8623 235.341 53.9107 233.478 54.86Z" fill="white"/>
<defs>
<linearGradient id="paint0_linear_566_24335" x1="272.39" y1="177.858" x2="272.39" y2="207.238" gradientUnits="userSpaceOnUse">
<stop stop-color="#F0801E"/>
<stop offset="1" stop-color="#FFEE02"/>
</linearGradient>
<linearGradient id="paint1_linear_566_24335" x1="117.166" y1="16.3569" x2="117.166" y2="42.0073" gradientUnits="userSpaceOnUse">
<stop stop-color="#FFEE02"/>
<stop offset="1" stop-color="#F0801E"/>
</linearGradient>
<linearGradient id="paint2_linear_566_24335" x1="173.413" y1="14.4392" x2="173.413" y2="45.3918" gradientUnits="userSpaceOnUse">
<stop stop-color="#FFEE02"/>
<stop offset="1" stop-color="#F0801E"/>
</linearGradient>
<linearGradient id="paint3_linear_566_24335" x1="26.1642" y1="218.176" x2="134.651" y2="228.321" gradientUnits="userSpaceOnUse">
<stop stop-color="#FFAA00"/>
<stop offset="0.24" stop-color="#FFBA1C"/>
<stop offset="0.75" stop-color="#FFD955"/>
<stop offset="1" stop-color="#FFE66C"/>
</linearGradient>
<linearGradient id="paint4_linear_566_24335" x1="103.821" y1="263.088" x2="33.9778" y2="413.479" gradientUnits="userSpaceOnUse">
<stop stop-color="#FE8C00"/>
<stop offset="1" stop-color="#F83600"/>
</linearGradient>
<linearGradient id="paint5_linear_566_24335" x1="-33" y1="206" x2="43.8181" y2="183.281" gradientUnits="userSpaceOnUse">
<stop stop-color="#FFAA00"/>
<stop offset="0.24" stop-color="#FFBA1C"/>
<stop offset="0.75" stop-color="#FFD955"/>
<stop offset="1" stop-color="#FFE66C"/>
</linearGradient>
<linearGradient id="paint6_linear_566_24335" x1="22.3359" y1="213.993" x2="169.597" y2="213.993" gradientUnits="userSpaceOnUse">
<stop stop-color="#FE8C00"/>
<stop offset="1" stop-color="#F83600"/>
</linearGradient>
<linearGradient id="paint7_linear_566_24335" x1="113.988" y1="172.907" x2="169.207" y2="164.877" gradientUnits="userSpaceOnUse">
<stop stop-color="#FFAA00"/>
<stop offset="1" stop-color="#FFEE02"/>
</linearGradient>
<linearGradient id="paint8_linear_566_24335" x1="79.6185" y1="166.879" x2="152.136" y2="171.546" gradientUnits="userSpaceOnUse">
<stop stop-color="#F0801E"/>
<stop offset="1" stop-color="#E31E25"/>
</linearGradient>
<linearGradient id="paint9_linear_566_24335" x1="111.235" y1="163.799" x2="149.064" y2="165.568" gradientUnits="userSpaceOnUse">
<stop stop-color="#F0801E"/>
<stop offset="1" stop-color="#E31E25"/>
</linearGradient>
<linearGradient id="paint10_linear_566_24335" x1="154.21" y1="44.2117" x2="178.567" y2="138.623" gradientUnits="userSpaceOnUse">
<stop stop-color="#FF1700"/>
<stop offset="1" stop-color="#550E00"/>
</linearGradient>
<linearGradient id="paint11_linear_566_24335" x1="244.99" y1="36.9103" x2="169.571" y2="227.024" gradientUnits="userSpaceOnUse">
<stop stop-color="#FF9085"/>
<stop offset="1" stop-color="#FB6FBB"/>
</linearGradient>
<linearGradient id="paint12_linear_566_24335" x1="204.327" y1="77.1469" x2="296.948" y2="84.2672" gradientUnits="userSpaceOnUse">
<stop stop-color="#FFAA00"/>
<stop offset="0.24" stop-color="#FFBA1C"/>
<stop offset="0.75" stop-color="#FFD955"/>
<stop offset="1" stop-color="#FFE66C"/>
</linearGradient>
<linearGradient id="paint13_linear_566_24335" x1="51.2222" y1="46.843" x2="62.1559" y2="87.2105" gradientUnits="userSpaceOnUse">
<stop stop-color="#FF1700"/>
<stop offset="1" stop-color="#550E00"/>
</linearGradient>
<linearGradient id="paint14_linear_566_24335" x1="105.662" y1="57.927" x2="111.855" y2="77.7748" gradientUnits="userSpaceOnUse">
<stop stop-color="#FF1700"/>
<stop offset="1" stop-color="#550E00"/>
</linearGradient>
<linearGradient id="paint15_linear_566_24335" x1="203.49" y1="200.182" x2="209.965" y2="229.678" gradientUnits="userSpaceOnUse">
<stop stop-color="#FF1700"/>
<stop offset="1" stop-color="#550E00"/>
</linearGradient>
<linearGradient id="paint16_linear_566_24335" x1="210.665" y1="173.986" x2="212.571" y2="183.216" gradientUnits="userSpaceOnUse">
<stop stop-color="#FF1700"/>
<stop offset="1" stop-color="#550E00"/>
</linearGradient>
<linearGradient id="paint17_linear_566_24335" x1="181.046" y1="84.4229" x2="221.909" y2="61.3597" gradientUnits="userSpaceOnUse">
<stop stop-color="#F82F1C"/>
<stop offset="1" stop-color="#F97612"/>
</linearGradient>
<linearGradient id="paint18_linear_566_24335" x1="223.531" y1="59.8682" x2="241.255" y2="49.79" gradientUnits="userSpaceOnUse">
<stop stop-color="#F82F1C"/>
<stop offset="1" stop-color="#F97612"/>
</linearGradient>
<linearGradient id="paint19_linear_566_24335" x1="228.707" y1="129.197" x2="245.223" y2="120.603" gradientUnits="userSpaceOnUse">
<stop stop-color="#F82F1C"/>
<stop offset="1" stop-color="#F97612"/>
</linearGradient>
</defs>
</svg>
