<svg width="301" height="313" viewBox="0 0 301 313" fill="none" xmlns="http://www.w3.org/2000/svg">
<g clip-path="url(#clip0_456_21378)">
<path d="M294.13 157.053C299.087 182.327 309.135 233.552 285.091 267.82C241.454 330.014 93.0502 325.631 30.3651 247.217C24.9461 240.44 -2.24035 205.077 0.725385 156.655C5.87056 72.6644 98.741 -1.77961 173.17 12.8414C216.729 21.3988 245.68 58.8343 257.599 74.2461C262.511 80.5978 285.008 110.54 294.13 157.053Z" fill="#EFEFEF"/>
<path d="M20.6837 264.303C14.968 264.637 10.2969 260.645 10.2969 255.403V66.4733C10.2969 61.2317 14.969 57.1364 20.6837 57.3437L290.457 67.1252C294.828 67.2838 298.369 71.1179 298.369 75.6723V239.832C298.369 244.387 294.827 248.299 290.457 248.554L20.6837 264.303Z" fill="#333333"/>
<path d="M196.561 285.215C192.249 283.715 189.026 279.879 188.117 275.164L181.841 242.601L128.156 244.599L121.549 278.522C120.624 283.273 124.328 288.039 128.594 289.789L151.054 299.001C155.232 300.714 159.722 301.397 164.186 300.996L211.653 296.739C213.041 296.615 214.154 295.472 214.315 294.004C214.477 292.537 215.449 290.889 214.125 290.43L196.56 285.213L196.561 285.215Z" fill="#A3A3A3"/>
<path d="M197.095 283.234C192.788 281.754 189.568 277.965 188.66 273.309L182.391 241.156L130.014 243.131L123.413 276.628C122.489 281.319 124.935 286.023 129.196 287.751L151.635 296.848C155.808 298.54 160.294 299.215 164.753 298.819L212.173 294.615C213.558 294.491 214.67 293.363 214.832 291.915C214.994 290.466 214.16 289.098 212.837 288.644L197.095 283.234Z" fill="#BFBFBF"/>
<path d="M22.8165 264.303C17.1008 264.637 12.4297 260.645 12.4297 255.403V66.4733C12.4297 61.2317 17.1018 57.1364 22.8165 57.3437L292.59 67.1252C296.961 67.2838 300.501 71.1179 300.501 75.6723V239.832C300.501 244.387 296.96 248.299 292.59 248.554L22.8165 264.303Z" fill="#A3A3A3"/>
<path d="M292.586 70.9861L22.8128 61.7478C19.7568 61.6431 17.2734 63.828 17.2734 66.6276V255.14C17.2734 257.941 19.7568 260.07 22.8128 259.898L292.586 244.692C294.928 244.561 296.824 242.473 296.824 240.03V75.554C296.824 73.111 294.929 71.0659 292.586 70.9851V70.9861Z" fill="#BFBFBF"/>
<path d="M22.8149 243.836C21.6251 243.894 20.6562 243.056 20.6562 241.966V66.7355C20.6562 65.6461 21.6251 64.791 22.8149 64.8304L292.588 73.6884C293.502 73.7185 294.245 74.5186 294.245 75.4712V228.801C294.245 229.754 293.502 230.566 292.588 230.61L22.8149 243.834V243.836Z" fill="#FFEE02"/>
<path opacity="0.68" d="M283.401 221.164L34.6484 232.079V91.0198L283.401 96.2365V221.164Z" fill="white"/>
<path d="M283.401 91.9693L34.6484 86.2011V74.1538L283.401 81.2995V91.9693Z" fill="#333333"/>
<path d="M264.513 86.1443C264.513 86.9061 263.912 87.5083 263.171 87.4897C262.43 87.471 261.828 86.8377 261.828 86.0749C261.828 85.312 262.43 84.7098 263.171 84.7295C263.912 84.7492 264.513 85.3825 264.513 86.1443Z" fill="#F0801E"/>
<path d="M270.022 86.2873C270.022 87.0471 269.424 87.6472 268.688 87.6296C267.95 87.6109 267.352 86.9787 267.352 86.2189C267.352 85.4591 267.95 84.858 268.688 84.8777C269.424 84.8974 270.022 85.5286 270.022 86.2884V86.2873Z" fill="#F0801E"/>
<path d="M275.49 86.4295C275.49 87.1872 274.897 87.7863 274.164 87.7676C273.43 87.7489 272.836 87.1188 272.836 86.3611C272.836 85.6034 273.43 85.0032 274.164 85.0229C274.896 85.0426 275.49 85.6728 275.49 86.4295Z" fill="#F0801E"/>
<path d="M233.059 198.651L40.0781 204.705V94.6838L233.059 98.4153V198.651Z" fill="white"/>
<path d="M280.744 132.724L236.43 132.635V130.472L280.744 130.611V132.724Z" fill="white"/>
<path d="M264.255 136.371L236.43 136.368V134.206L264.255 134.24V136.371Z" fill="white"/>
<path opacity="0.68" d="M280.744 168.949L236.43 169.691V140.825L280.744 140.732V168.949Z" fill="white"/>
<path d="M280.744 174.118L236.43 174.979V172.818L280.744 172.005V174.118Z" fill="white"/>
<path d="M264.255 178.12L236.43 178.712V176.551L264.255 175.989V178.12Z" fill="white"/>
<path d="M280.744 210.342L236.43 212.036V183.17L280.744 182.125V210.342Z" fill="white"/>
<path d="M280.744 215.511L236.43 217.323V215.162L280.744 213.399V215.511Z" fill="white"/>
<path d="M264.255 219.867L236.43 221.057V218.896L264.255 217.736V219.867Z" fill="white"/>
<path d="M173.627 212.148L40.0781 217.101V209.868L173.627 205.36V212.148Z" fill="white"/>
<path d="M233.062 209.944L214.008 210.65V203.997L233.062 203.354V209.944Z" fill="white"/>
<path d="M211.061 210.759L191.578 211.482V204.755L211.061 204.097V210.759Z" fill="white"/>
<path d="M101.176 223.329L40.0781 225.841V222.225L101.176 219.815V223.329Z" fill="white"/>
<path d="M280.744 127.555L236.43 127.346V98.4807L280.744 99.3379V127.555Z" fill="white"/>
<path d="M205.14 48.6236L52.6905 41.0146C49.7341 40.8674 47.2891 43.5333 47.2891 46.8937V149.418C47.2891 152.873 49.8679 155.796 52.9021 155.768L205.39 154.362C208.626 154.332 211.134 151.68 211.134 148.281V55.2002C211.134 51.6989 208.478 48.7905 205.14 48.6236Z" fill="url(#paint0_linear_456_21378)"/>
<path d="M207.992 48.663L55.1034 41.0406C52.1387 40.8923 49.6875 43.5624 49.6875 46.9279V149.593C49.6875 153.054 52.2736 155.981 55.315 155.953L208.242 154.561C211.487 154.532 214.003 151.876 214.003 148.471V55.249C214.003 51.7425 211.34 48.8299 207.992 48.663Z" fill="url(#paint1_linear_456_21378)"/>
<path d="M144.898 107.988L212.393 50.8707C211.3 49.5906 209.742 48.75 207.993 48.6629L55.1046 41.0405C53.7675 40.9741 52.5361 41.481 51.5859 42.3651L133.73 107.985C137.126 110.698 141.687 110.706 144.897 107.989L144.898 107.988Z" fill="url(#paint2_linear_456_21378)"/>
<path d="M144.896 107.989C141.686 110.705 137.124 110.697 133.729 107.984L51.5848 42.3652C50.4282 43.4422 49.6875 45.0788 49.6875 46.9279V149.593C49.6875 153.054 52.2736 155.981 55.315 155.953L208.242 154.561C211.487 154.531 214.003 151.876 214.003 148.471V55.249C214.003 53.5751 213.391 52.04 212.391 50.8708L144.896 107.989Z" fill="url(#paint3_linear_456_21378)"/>
<path d="M144.898 107.988L212.393 50.8707C211.3 49.5906 209.742 48.75 207.993 48.6629L55.1046 41.0405C53.7675 40.9741 52.5361 41.481 51.5859 42.3651L133.73 107.985C137.126 110.698 141.687 110.706 144.897 107.989L144.898 107.988Z" fill="url(#paint4_linear_456_21378)"/>
<path style="mix-blend-mode:multiply" opacity="0.37" d="M212.391 50.8708L144.896 107.989C141.686 110.705 137.124 110.697 133.729 107.984L51.5848 42.3652C50.4282 43.4422 49.6875 45.0788 49.6875 46.9279V62.0692C52.5205 60.7767 54.926 60.5684 56.8856 60.7974C62.3253 61.4328 63.6293 65.3187 74.1561 71.177C84.1135 76.7182 85.1643 74.5042 89.5948 78.4626C98.1922 86.1442 94.4225 94.5461 101.993 102.825C109.945 111.52 116.863 105.362 128.446 113.902C140.847 123.044 136.859 132.862 147.161 139.413C161.788 148.717 176.967 133.645 189.792 142.968C193.704 145.812 196.214 150.069 197.835 154.656L208.242 154.562C211.487 154.532 214.003 151.877 214.003 148.472V55.249C214.003 53.5751 213.391 52.04 212.391 50.8708Z" fill="url(#paint5_linear_456_21378)"/>
<path d="M156.836 108.309C157.343 107.523 158.269 105.852 158.328 103.608C158.443 99.2476 155.205 95.8458 154.771 96.0407C154.536 96.1464 154.834 97.4234 155 97.9904C155.346 99.1689 155.72 99.2829 155.689 99.825C155.624 100.939 154.015 100.983 153.165 102.462C152.553 103.527 152.504 105.045 153.165 106.245C154.261 108.237 156.732 108.308 156.837 108.309H156.836Z" fill="url(#paint6_linear_456_21378)"/>
<path d="M225.986 203.028L224.742 198.75L229.936 194.904L233.174 193.694L231.257 199.68L225.986 203.028Z" fill="url(#paint7_linear_456_21378)"/>
<path d="M219.556 289.189C219.556 289.189 222.397 296.33 221.649 299.498C224.7 299.438 226.673 299.05 226.673 299.05C226.673 299.05 225.447 295.793 225.207 294.179C224.883 292 224.908 288.472 224.908 288.472L219.555 289.19L219.556 289.189Z" fill="url(#paint8_linear_456_21378)"/>
<path d="M188.235 305.892C188.419 306.114 188.744 306.576 188.772 307.204C188.787 307.545 188.709 307.825 188.611 308.083C188.127 309.357 187.366 309.525 186.545 310.876C186.043 311.702 186.138 311.951 185.679 312.324C185.073 312.816 184.341 312.844 183.705 312.851C182.631 312.863 181.087 312.825 179.141 312.593C180.16 311.28 181.244 309.946 182.398 308.599C182.904 308.008 183.408 307.432 183.912 306.868L186.91 305.855C187.352 305.867 187.794 305.879 188.236 305.891L188.235 305.892Z" fill="#26264F"/>
<path d="M185.749 291.349C185.749 291.349 184.035 300.282 186.215 302.784C188.073 305.287 185.318 303.502 185.318 303.502L182.029 306.371L180.055 309.778C180.055 309.778 181.871 301.034 181.387 297.564C180.902 294.093 180.659 291.753 180.659 291.753L185.748 291.35L185.749 291.349Z" fill="url(#paint9_linear_456_21378)"/>
<path d="M179.283 193.623C179.283 193.623 174.68 197.739 174.68 214.685C174.68 231.63 176.86 268.43 176.86 268.43L180.35 294.775C180.35 294.775 183.968 294.904 186.391 294.177C188.572 284.252 192.126 267.46 190.428 253.419C189.701 238.167 196.485 219.041 196.485 219.041C196.485 219.041 202.301 238.409 206.419 248.092C210.538 257.776 218.379 288.113 219.107 290.292C223.926 290.728 225.985 289.455 225.985 289.455C225.985 289.455 222.895 256.807 219.987 244.46C217.08 232.113 217.322 202.336 212.476 193.862C201.573 189.505 179.282 193.62 179.282 193.62L179.283 193.623Z" fill="url(#paint10_linear_456_21378)"/>
<path d="M179.283 193.623C179.283 193.623 174.68 197.739 174.68 214.685C174.68 231.63 176.86 268.43 176.86 268.43L180.35 294.775C180.35 294.775 183.968 294.904 186.391 294.177C188.572 284.252 192.126 267.46 190.43 253.419C189.702 238.167 196.487 219.041 196.487 219.041C196.487 219.041 202.302 238.409 206.42 248.092C210.539 257.776 218.38 288.113 219.108 290.292C223.927 290.728 225.986 289.455 225.986 289.455C225.986 289.455 222.896 256.807 219.988 244.46C217.081 232.113 217.323 202.336 212.477 193.862C201.574 189.505 179.283 193.621 179.283 193.621V193.623Z" fill="url(#paint11_linear_456_21378)"/>
<path style="mix-blend-mode:multiply" opacity="0.37" d="M203.199 224.673C204.635 233.997 207.505 239.016 214.682 245.471C220.424 249.773 216.118 259.097 218.272 266.268C218.989 268.42 221.143 270.571 221.86 272.723C224.531 278.06 222.036 284.589 223.247 290.24C225.131 289.979 225.986 289.456 225.986 289.456C225.986 289.456 222.896 256.808 219.988 244.461C217.081 232.114 217.323 202.337 212.477 193.863C201.574 189.506 179.283 193.622 179.283 193.622C179.283 193.622 174.68 197.738 174.68 214.683C174.68 216.059 174.694 217.566 174.721 219.172C179.5 223.397 189.275 224.336 195.303 219.652C195.667 219.38 196.055 219.212 196.454 219.131C196.473 219.077 196.485 219.041 196.485 219.041C196.485 219.041 196.496 219.074 196.51 219.125C199.254 218.624 202.575 222.185 203.197 224.672L203.199 224.673Z" fill="url(#paint12_linear_456_21378)"/>
<path d="M220.903 302.207C220.903 302.207 220.194 302.207 220.254 303.121C220.313 304.035 219.935 307.179 223.534 307.326C227.133 307.474 227.688 307.071 227.806 307.071C227.925 307.071 226.862 304.064 226.862 304.064L225.712 302.591L222.614 302.266L220.903 302.207Z" fill="#26264F"/>
<path d="M228.886 305.363C228.81 304.605 228.384 303.41 227.957 302.448C227.321 301.019 227.843 300.484 227.236 299.184C227.026 298.734 226.822 298.307 226.378 297.884C226.276 297.786 225.283 296.869 223.837 296.916C223.552 296.925 223.114 296.944 222.639 297.197C222.081 297.494 221.801 297.94 221.563 298.332C221.187 298.947 221.273 299.137 220.696 300.901C220.649 301.043 220.547 301.351 220.469 301.776C220.409 302.101 220.385 302.374 220.375 302.561C221.319 302.561 224.949 302.708 225.715 303.269C226.483 303.828 226.866 304.773 226.866 305.716C226.866 306.659 227.338 307.102 227.81 307.071C228.232 307.045 229.069 306.265 228.886 305.362V305.363Z" fill="#444B8C"/>
<path d="M185.286 301.529C186.098 301.542 186.692 302.187 187.14 303.74C187.589 305.294 189.742 306.668 187.23 306.34C184.718 306.011 182.894 309.566 181.997 310.882C181.1 312.196 178.691 313.364 178.751 312.08C178.811 310.795 179.873 310.195 180.172 308.88C180.471 307.565 183.437 301.5 185.286 301.529Z" fill="#444B8C"/>
<path d="M227.892 195.668C228.489 194.011 232.209 183.133 226.195 173.213C221.273 165.092 212.755 162.441 211.54 162.084C204.147 159.902 200.441 162.705 198.109 160.126C194.15 155.749 198.634 140.838 207.308 137.851C217.084 134.485 228.814 147.43 233.567 155.932C239.802 167.087 238.267 178.173 237.907 180.457C236.969 186.39 234.79 190.916 233.175 193.695C231.414 194.353 229.654 195.01 227.892 195.669V195.668Z" fill="url(#paint13_linear_456_21378)"/>
<path d="M202.363 135.746C193.636 135.397 186.905 135.536 183.103 139.332C179.088 143.341 183.146 147.868 182.274 158.357C180.939 174.414 170.698 178.337 169.927 194.628C169.668 200.117 170.597 204.603 171.319 207.306C173.567 210.102 177.246 214.049 182.674 217.349C190.574 222.152 195.155 221.315 206.501 224.417C225.058 229.492 226.71 235.536 235.912 233.997C245.212 232.441 253.371 224.621 252.386 220.326C251.796 217.755 248.047 218.483 243.73 214.56C238.167 209.505 240.312 204.679 236.083 199.247C230.008 191.444 221.544 196.214 216.367 189.451C211.13 182.61 213.207 169.129 217.622 161.781C220.506 156.982 221.74 151.357 224.193 146.325C224.398 145.907 224.634 145.221 224.529 144.364C224.131 141.086 218.663 139.309 214.522 138.005C208.206 136.016 203.079 135.775 202.363 135.747V135.746Z" fill="url(#paint14_linear_456_21378)"/>
<path d="M195.008 135.386L196.729 134.856C196.729 134.856 197.179 137.184 202.713 137.475C205.785 137.475 207.771 135.756 207.771 135.756L208.948 136.612C208.948 136.612 206.368 139.832 202.264 139.75C196.968 139.645 195.009 135.385 195.009 135.385L195.008 135.386Z" fill="url(#paint15_linear_456_21378)"/>
<path d="M198.514 128.303C198.846 125.746 200.869 124.107 201.311 123.757C203.159 122.289 203.536 122.141 204.171 122.021L205.038 121.889C205.038 121.889 205.084 121.89 205.132 121.893C205.639 121.924 207.161 122.517 207.437 122.711C208.321 123.332 207.67 127.729 204.991 133.196C204.885 133.66 204.78 134.123 204.675 134.585C207.01 134.996 207.588 135.417 207.606 135.752C207.646 136.48 205.09 137.409 202.721 137.469C199.75 137.545 196.596 136.268 196.657 135.314C196.682 134.928 197.242 134.453 199.399 133.985C199.736 133.512 200.073 133.038 200.41 132.564C200.104 132.193 198.27 130.185 198.514 128.302V128.303Z" fill="url(#paint16_linear_456_21378)"/>
<path d="M202.186 127.34C202.861 126.937 203.373 127.804 203.056 128.56C202.738 129.317 201.672 129.791 201.024 129.34C200.377 128.889 201.279 127.882 202.185 127.34H202.186Z" fill="url(#paint17_linear_456_21378)"/>
<path d="M289.521 127.327C280.652 117.71 260.016 120.347 248.57 128.071C243.251 131.66 240.521 135.899 234.237 136.255C229.459 136.526 221.858 134.73 217.856 129.559C217.352 128.907 215.335 126.175 212.306 122.73C210.971 121.21 209.644 119.785 207.586 119.463C207.063 119.381 205.323 119.098 204.173 120.22C203.241 121.129 203.012 122.711 203.288 123.851C203.453 124.533 203.666 124.605 203.635 125.05C203.55 126.304 201.265 126.85 201.392 127.481C201.482 127.932 202.672 127.767 202.877 128.333C203.101 128.954 201.795 129.488 201.234 131.049C200.182 131.753 199.518 133.502 199.288 135.845C198.95 139.287 199.296 142.084 199.949 144.192C203.092 154.335 205.341 161.59 210.782 165.642C217.986 171.006 224.473 166.054 242.799 165.27C267.892 164.197 274.149 172.697 283.168 166.882C294.429 159.622 298.73 137.31 289.521 127.326V127.327Z" fill="url(#paint18_linear_456_21378)"/>
<path d="M157.9 107.698C157.676 109.796 156.919 119.077 163.326 126.913C169.312 134.235 177.791 135.697 179.366 135.936C186.989 137.086 190.276 133.804 192.94 136.04C197.46 139.836 195.058 155.219 186.874 159.362C177.65 164.032 164.26 152.811 158.388 145.038C150.685 134.84 150.688 123.648 150.733 121.338C150.85 115.332 152.389 110.551 153.609 107.577C154.11 107.427 154.873 107.26 155.808 107.292C156.699 107.323 157.418 107.523 157.899 107.698H157.9Z" fill="url(#paint19_linear_456_21378)"/>
<g style="mix-blend-mode:multiply" opacity="0.3">
<path d="M236.192 227.859C233.961 225.573 236.417 220.963 233.121 217.536C230.061 214.355 226.598 216.925 221.673 214.188C215.355 210.677 217.096 204.251 211.062 200.796C206.723 198.312 204.683 200.983 197.938 199.68C191.204 198.379 183.003 193.741 178.951 185.451C177.229 181.929 176.595 178.427 176.511 175.297C173.482 180.704 170.341 185.885 169.927 194.629C169.668 200.119 170.597 204.605 171.319 207.307C173.567 210.103 177.246 214.05 182.674 217.351C190.574 222.153 195.155 221.316 206.501 224.418C225.058 229.493 226.71 235.537 235.912 233.998C241.856 233.004 247.321 229.451 250.243 225.894C241.666 229.709 237.81 229.519 236.191 227.86L236.192 227.859Z" fill="url(#paint20_linear_456_21378)"/>
</g>
<path d="M211.888 38.5281C211.888 59.1411 194.92 76.4829 173.295 77.2862C150.864 78.1196 132.055 60.9612 132.055 38.9344C132.055 16.9076 150.864 -0.44249 173.295 0.16283C194.92 0.746384 211.888 17.9151 211.888 38.5281Z" fill="url(#paint21_linear_456_21378)"/>
<path d="M213.88 38.5281C213.88 59.1411 196.912 76.4829 175.287 77.2862C152.856 78.1196 134.047 60.9612 134.047 38.9344C134.047 16.9076 152.856 -0.44249 175.287 0.16283C196.912 0.746384 213.88 17.9151 213.88 38.5281Z" fill="url(#paint22_linear_456_21378)"/>
<path style="mix-blend-mode:multiply" opacity="0.3" d="M208.96 38.553C208.96 56.5384 194.121 71.6072 175.288 72.228C155.846 72.8686 139.617 57.9584 139.617 38.9054C139.617 19.8523 155.845 4.77735 175.287 5.22097C194.12 5.65008 208.959 20.5685 208.959 38.554L208.96 38.553Z" fill="url(#paint23_linear_456_21378)"/>
<path d="M206.511 38.5613C206.511 55.6834 192.373 70.01 174.455 70.5759C155.987 71.1594 140.594 56.9831 140.594 38.8971C140.594 20.8111 155.987 6.47829 174.455 6.8732C192.373 7.25671 206.511 21.4392 206.511 38.5613Z" fill="url(#paint24_linear_456_21378)"/>
<g filter="url(#filter0_d_456_21378)">
<path d="M185.43 38.0217C185.453 40.7872 185.255 43.2673 184.836 45.462C184.432 47.6559 183.761 49.5356 182.821 51.101C181.897 52.6657 180.674 53.8865 179.152 54.7635C177.629 55.6405 175.775 56.1362 173.591 56.2507C170.845 56.3946 168.584 55.8175 166.81 54.5193C165.035 53.2055 163.715 51.2582 162.851 48.6775C161.987 46.0811 161.54 42.947 161.51 39.2753C161.479 35.5723 161.836 32.3883 162.579 29.7233C163.337 27.0419 164.585 24.9523 166.321 23.4545C168.057 21.9567 170.384 21.1313 173.302 20.9784C176.032 20.8353 178.285 21.4207 180.06 22.7345C181.85 24.0318 183.185 25.9783 184.065 28.5738C184.944 31.1538 185.4 34.303 185.43 38.0217ZM168.695 38.8987C168.717 41.508 168.875 43.6802 169.17 45.4155C169.481 47.1342 169.983 48.4131 170.677 49.2521C171.371 50.0911 172.326 50.4787 173.543 50.4149C174.745 50.352 175.685 49.8728 176.365 48.9775C177.06 48.0657 177.548 46.7349 177.83 44.9851C178.112 43.2196 178.243 41.0244 178.221 38.3995C178.2 35.7902 178.034 33.6183 177.723 31.8839C177.412 30.1495 176.902 28.8632 176.193 28.0251C175.499 27.1705 174.551 26.7746 173.35 26.8376C172.133 26.9014 171.184 27.3966 170.505 28.3231C169.826 29.2341 169.345 30.5723 169.063 32.3378C168.796 34.1024 168.674 36.2894 168.695 38.8987Z" fill="white"/>
</g>
</g>
<defs>
<filter id="filter0_d_456_21378" x="157.367" y="20.3503" width="28.2109" height="38.5259" filterUnits="userSpaceOnUse" color-interpolation-filters="sRGB">
<feFlood flood-opacity="0" result="BackgroundImageFix"/>
<feColorMatrix in="SourceAlpha" type="matrix" values="0 0 0 0 0 0 0 0 0 0 0 0 0 0 0 0 0 0 127 0" result="hardAlpha"/>
<feOffset dx="-3" dy="1"/>
<feGaussianBlur stdDeviation="0.5"/>
<feComposite in2="hardAlpha" operator="out"/>
<feColorMatrix type="matrix" values="0 0 0 0 0 0 0 0 0 0 0 0 0 0 0 0 0 0 0.25 0"/>
<feBlend mode="normal" in2="BackgroundImageFix" result="effect1_dropShadow_456_21378"/>
<feBlend mode="normal" in="SourceGraphic" in2="effect1_dropShadow_456_21378" result="shape"/>
</filter>
<linearGradient id="paint0_linear_456_21378" x1="82.9962" y1="103.45" x2="15.5713" y2="111.675" gradientUnits="userSpaceOnUse">
<stop stop-color="#FFC444"/>
<stop offset="1" stop-color="#F36F56"/>
</linearGradient>
<linearGradient id="paint1_linear_456_21378" x1="118.274" y1="70.1661" x2="182.661" y2="207.168" gradientUnits="userSpaceOnUse">
<stop stop-color="#FFC444"/>
<stop offset="1" stop-color="#F36F56"/>
</linearGradient>
<linearGradient id="paint2_linear_456_21378" x1="218.606" y1="75.529" x2="51.1216" y2="44.4997" gradientUnits="userSpaceOnUse">
<stop stop-color="#FFAA00"/>
<stop offset="0.24" stop-color="#FFBA1C"/>
<stop offset="0.75" stop-color="#FFD955"/>
<stop offset="1" stop-color="#FFE66C"/>
</linearGradient>
<linearGradient id="paint3_linear_456_21378" x1="131.845" y1="42.3652" x2="131.845" y2="155.953" gradientUnits="userSpaceOnUse">
<stop stop-color="#FFEE02"/>
<stop offset="1" stop-color="#F0801E"/>
</linearGradient>
<linearGradient id="paint4_linear_456_21378" x1="113.952" y1="76.7525" x2="203.086" y2="-66.5564" gradientUnits="userSpaceOnUse">
<stop stop-color="#FFC444"/>
<stop offset="1" stop-color="#F36F56"/>
</linearGradient>
<linearGradient id="paint5_linear_456_21378" x1="134.868" y1="62.3878" x2="199.245" y2="199.368" gradientUnits="userSpaceOnUse">
<stop stop-color="#FFC444"/>
<stop offset="1" stop-color="#F36F56"/>
</linearGradient>
<linearGradient id="paint6_linear_456_21378" x1="155.057" y1="123.095" x2="155.303" y2="112.623" gradientUnits="userSpaceOnUse">
<stop stop-color="#311944"/>
<stop offset="1" stop-color="#893976"/>
</linearGradient>
<linearGradient id="paint7_linear_456_21378" x1="227.082" y1="217.124" x2="228.683" y2="199.26" gradientUnits="userSpaceOnUse">
<stop stop-color="#311944"/>
<stop offset="1" stop-color="#893976"/>
</linearGradient>
<linearGradient id="paint8_linear_456_21378" x1="222.674" y1="285.99" x2="224.152" y2="313.34" gradientUnits="userSpaceOnUse">
<stop stop-color="#311944"/>
<stop offset="1" stop-color="#893976"/>
</linearGradient>
<linearGradient id="paint9_linear_456_21378" x1="182.446" y1="288.163" x2="183.923" y2="315.514" gradientUnits="userSpaceOnUse">
<stop stop-color="#311944"/>
<stop offset="1" stop-color="#893976"/>
</linearGradient>
<linearGradient id="paint10_linear_456_21378" x1="174.679" y1="243.324" x2="225.985" y2="243.324" gradientUnits="userSpaceOnUse">
<stop stop-color="#311944"/>
<stop offset="1" stop-color="#893976"/>
</linearGradient>
<linearGradient id="paint11_linear_456_21378" x1="173.048" y1="205.108" x2="209.968" y2="267.169" gradientUnits="userSpaceOnUse">
<stop stop-color="#FF1700"/>
<stop offset="1" stop-color="#550E00"/>
</linearGradient>
<linearGradient id="paint12_linear_456_21378" x1="187.602" y1="196.452" x2="224.522" y2="258.512" gradientUnits="userSpaceOnUse">
<stop stop-color="#FFC444"/>
<stop offset="1" stop-color="#F36F56"/>
</linearGradient>
<linearGradient id="paint13_linear_456_21378" x1="217.496" y1="137.305" x2="217.496" y2="195.669" gradientUnits="userSpaceOnUse">
<stop stop-color="#FFEE02"/>
<stop offset="1" stop-color="#F0801E"/>
</linearGradient>
<linearGradient id="paint14_linear_456_21378" x1="211.175" y1="135.62" x2="211.175" y2="234.241" gradientUnits="userSpaceOnUse">
<stop stop-color="#FFEE02"/>
<stop offset="1" stop-color="#F0801E"/>
</linearGradient>
<linearGradient id="paint15_linear_456_21378" x1="197.101" y1="128.282" x2="204.669" y2="140.321" gradientUnits="userSpaceOnUse">
<stop stop-color="#E38DDD"/>
<stop offset="1" stop-color="#9571F6"/>
</linearGradient>
<linearGradient id="paint16_linear_456_21378" x1="541.383" y1="354.114" x2="523.267" y2="342.089" gradientUnits="userSpaceOnUse">
<stop stop-color="#311944"/>
<stop offset="1" stop-color="#893976"/>
</linearGradient>
<linearGradient id="paint17_linear_456_21378" x1="467.617" y1="224.418" x2="447.17" y2="217.012" gradientUnits="userSpaceOnUse">
<stop stop-color="#311944"/>
<stop offset="1" stop-color="#893976"/>
</linearGradient>
<linearGradient id="paint18_linear_456_21378" x1="200.828" y1="68.9506" x2="270.532" y2="179.828" gradientUnits="userSpaceOnUse">
<stop stop-color="#444B8C"/>
<stop offset="1" stop-color="#26264F"/>
</linearGradient>
<linearGradient id="paint19_linear_456_21378" x1="172.961" y1="107.288" x2="172.961" y2="160.463" gradientUnits="userSpaceOnUse">
<stop stop-color="#F0801E"/>
<stop offset="1" stop-color="#FFEE02"/>
</linearGradient>
<linearGradient id="paint20_linear_456_21378" x1="210.063" y1="175.297" x2="210.063" y2="234.242" gradientUnits="userSpaceOnUse">
<stop stop-color="#FFEE02"/>
<stop offset="1" stop-color="#F0801E"/>
</linearGradient>
<linearGradient id="paint21_linear_456_21378" x1="157.601" y1="6.0222" x2="207.357" y2="119.643" gradientUnits="userSpaceOnUse">
<stop stop-color="#311944"/>
<stop offset="1" stop-color="#893976"/>
</linearGradient>
<linearGradient id="paint22_linear_456_21378" x1="159.593" y1="6.0222" x2="209.348" y2="119.643" gradientUnits="userSpaceOnUse">
<stop stop-color="#5B0800"/>
<stop offset="1" stop-color="#FF0000"/>
</linearGradient>
<linearGradient id="paint23_linear_456_21378" x1="161.808" y1="10.3154" x2="205.03" y2="109.017" gradientUnits="userSpaceOnUse">
<stop stop-color="#FF1700"/>
<stop offset="1"/>
</linearGradient>
<linearGradient id="paint24_linear_456_21378" x1="176.962" y1="6.05333" x2="164.636" y2="124.304" gradientUnits="userSpaceOnUse">
<stop stop-color="#FF0101"/>
<stop offset="1" stop-color="#790000"/>
</linearGradient>
<clipPath id="clip0_456_21378">
<rect width="300" height="312" fill="white" transform="translate(0.5 0.5)"/>
</clipPath>
</defs>
</svg>
