<svg width="300" height="299" viewBox="0 0 300 299" fill="none" xmlns="http://www.w3.org/2000/svg">
<g clip-path="url(#clip0_407_22561)">
<path d="M295.578 126.37C288.177 77.7296 257.831 17.9706 197.881 11.717C197.881 11.717 152.365 6.15813 107.495 14.5834C80.8649 19.5832 57.5138 34.4677 42.7383 55.8607C27.9628 77.2537 23.0267 103.339 29.0176 128.209C32.9076 144.362 35.5369 161.08 34.8155 177.677C33.5603 206.565 34.2827 233.53 62.2037 250.757C87.1347 266.139 118.51 279.706 148.443 282.082C168.786 283.697 191.599 281.084 211.204 275.767C311.121 248.667 302.981 175.011 295.579 126.37H295.578Z" fill="#F4F7FA"/>
<path d="M158.981 230.269C150.492 232.629 143.883 222.807 149.232 215.781C150.892 213.6 152.469 211.249 153.92 208.714C164.702 189.893 159.13 177.537 168.84 143.466C174.98 121.923 179.48 106.951 192.446 101.669C202.607 97.5291 216.748 99.8354 223.629 107.88C229.351 114.569 230.723 126.008 230.053 133.748C229.507 140.056 227.576 144.24 230.233 148.322C232.949 152.495 237.252 151.641 239.953 154.91C245.431 161.539 237.385 176.735 236.084 179.191C221.619 206.511 189.857 219.255 175.934 224.647C171.244 226.464 165.571 228.436 158.98 230.269H158.981Z" fill="#F0801E"/>
<mask id="mask0_407_22561" style="mask-type:luminance" maskUnits="userSpaceOnUse" x="145" y="99" width="97" height="133">
<path d="M156.253 231.005C148.502 233.031 142.638 223.892 147.729 217.685C149.945 214.984 152.039 212.003 153.923 208.714C164.705 189.893 159.133 177.537 168.842 143.466C174.982 121.923 179.483 106.951 192.448 101.669C202.609 97.5291 216.751 99.8354 223.632 107.88C229.353 114.569 230.725 126.008 230.055 133.748C229.509 140.056 227.578 144.24 230.236 148.322C232.951 152.495 237.254 151.641 239.956 154.91C245.433 161.539 237.387 176.735 236.086 179.191C221.621 206.511 189.859 219.255 175.937 224.647C170.61 226.71 164.017 228.975 156.252 231.005H156.253Z" fill="white"/>
</mask>
<g mask="url(#mask0_407_22561)">
<g style="mix-blend-mode:soft-light" opacity="0.5">
<path d="M115.082 239.783L115 239.046C128.607 237.517 140.717 234.632 150.992 230.47C166.136 224.337 176.827 215.578 182.771 204.437C187.427 195.709 189.095 185.847 191.401 172.196C193.243 161.298 193.569 153.406 193.856 146.444C194.232 137.337 194.53 130.145 198.074 120.508C201.67 110.731 207.524 101.6 215.473 93.3684L216.002 93.8837C208.125 102.041 202.326 111.084 198.766 120.764C195.263 130.291 194.968 137.433 194.594 146.475C194.305 153.459 193.978 161.376 192.128 172.319C189.898 185.522 188.135 195.952 183.422 204.786C177.394 216.084 166.576 224.956 151.268 231.157C140.931 235.344 128.757 238.246 115.082 239.783Z" fill="white"/>
<path d="M193.038 164.674L192.71 164.417C192.647 164.368 186.369 159.387 181.164 150.247C176.361 141.81 171.503 127.997 175.641 110.096L176.359 110.264C172.276 127.931 177.066 141.559 181.805 149.879C186.266 157.714 191.506 162.433 192.842 163.567C203.595 145.781 217.01 136.346 226.401 131.556C236.655 126.325 244.476 125.348 244.554 125.34L244.641 126.075C244.565 126.084 236.848 127.052 226.703 132.232C217.345 137.011 203.945 146.456 193.254 164.315L193.039 164.674H193.038Z" fill="white"/>
<path d="M187.177 193.959L187.085 193.707C187.041 193.586 182.67 181.557 175.937 170.362C169.247 159.238 149.062 150.758 148.859 150.673L149.142 149.989C149.346 150.074 169.753 158.646 176.569 169.978C182.796 180.333 187.014 191.393 187.685 193.199C211.412 192.062 248.109 146.458 248.479 145.996L249.054 146.459C248.961 146.576 239.605 158.246 227.414 169.864C211.006 185.502 197.559 193.606 187.445 193.95L187.177 193.958V193.959Z" fill="white"/>
<path d="M169.501 230.207C161.28 230.207 156.025 229.519 155.95 229.508L155.221 229.41L155.736 228.882C163.863 220.533 165.679 210.03 161.13 197.664C157.726 188.406 151.84 181.541 151.781 181.472L152.338 180.986C152.398 181.055 158.371 188.024 161.822 197.407C166.314 209.622 164.568 220.48 156.777 228.859C159.447 229.149 169.194 230.019 181.938 228.944C195.725 227.778 215.94 224.03 233.946 212.789L268.932 190.944L269.322 191.573L234.336 213.418C216.201 224.741 195.855 228.514 181.982 229.683C177.368 230.073 173.144 230.207 169.502 230.207H169.501Z" fill="white"/>
</g>
</g>
<path d="M141.742 231.137C153.529 238.068 169.529 245.212 187.747 247.017C192.396 247.477 221.116 250.323 224.409 238.349C225.569 234.131 222.595 231.637 224.047 225.969C225.769 219.255 231.047 218.46 237.697 212.701C241.666 209.264 253.278 199.207 249.769 187.883C247.672 181.117 240.27 174.203 232.899 171.965C222.088 168.681 213.463 176.096 199.087 188.896C186.342 200.244 185.561 204.388 176.241 212.398C169.324 218.343 158.471 225.757 141.743 231.138L141.742 231.137Z" fill="#A3A3A3"/>
<mask id="mask1_407_22561" style="mask-type:luminance" maskUnits="userSpaceOnUse" x="141" y="171" width="110" height="77">
<path d="M141.742 231.136C153.529 238.068 169.529 245.211 187.747 247.016C192.396 247.477 221.116 250.322 224.409 238.348C225.569 234.13 222.595 231.636 224.047 225.969C225.769 219.255 231.047 218.459 237.697 212.7C241.666 209.264 253.278 199.206 249.769 187.883C247.672 181.116 240.27 174.203 232.899 171.964C222.088 168.68 213.463 176.096 199.087 188.896C186.342 200.243 185.561 204.388 176.241 212.397C169.324 218.342 158.471 225.757 141.743 231.137L141.742 231.136Z" fill="white"/>
</mask>
<g mask="url(#mask1_407_22561)">
<g style="mix-blend-mode:soft-light" opacity="0.5">
<path d="M147.798 231.295C140.429 231.295 133.207 230.254 126.156 228.17C112.486 224.128 99.9565 216.48 88.9141 205.438L89.4349 204.913C100.389 215.866 112.814 223.453 126.365 227.459C144.414 232.796 163.632 231.224 183.487 222.786C204.173 213.996 220.366 199.959 230.308 189.731C237.184 182.658 242.052 173.235 244.78 161.725L245.497 161.897C242.739 173.539 237.806 183.078 230.835 190.248C220.846 200.526 204.573 214.631 183.774 223.469C171.505 228.683 159.469 231.296 147.798 231.296V231.295Z" fill="white"/>
<path d="M208.536 209.155L208.484 208.826C208.446 208.585 204.836 184.431 220.116 168.952L220.64 169.474C206.592 183.704 208.794 205.447 209.167 208.381C243.562 206.502 254.037 187.682 256.435 181.943C256.502 181.783 256.546 181.683 256.566 181.649L257.202 182.026L256.884 181.837L257.205 182.018C257.189 182.051 257.159 182.122 257.115 182.229C254.668 188.088 243.958 207.341 208.866 209.138L208.535 209.156L208.536 209.155Z" fill="white"/>
<path d="M218.024 236.981C217.983 236.981 217.944 236.981 217.902 236.981C210.169 236.958 197.966 234.56 183.748 223.271L183.594 223.149L183.61 222.952C183.625 222.767 185.238 204.252 198.119 185.274L211.093 166.156L211.702 166.573L198.728 185.691C186.672 203.455 184.572 220.791 184.364 222.816C192.127 228.948 204.199 236.2 217.905 236.241C217.945 236.241 217.984 236.241 218.022 236.241C226.177 236.241 231.085 233.647 231.133 233.621L231.481 234.273C231.275 234.385 226.358 236.982 218.024 236.982V236.981Z" fill="white"/>
</g>
</g>
<path d="M297.356 263.992L7.10156 261.473V268.927C7.10156 270.95 8.36773 272.669 10.0817 272.977L92.1568 287.655C93.1309 287.829 94.1181 287.874 95.101 287.792L294.201 271.058C295.978 270.908 297.356 269.183 297.356 267.104V263.992Z" fill="#BFC8D6"/>
<path d="M195.486 121.362V246.05C195.486 247.624 194.915 249.091 194.003 250.18C193.117 251.246 191.897 251.948 190.551 252.05L57.1789 261.927L7.45206 265.622H7.44443L7.10773 265.629L6.02681 265.695C2.72519 265.939 0 263.335 0 259.893V121.958C0 118.515 2.7666 115.635 6.06821 115.635H190.547C193.269 115.635 195.487 118.249 195.487 121.361L195.486 121.362Z" fill="#BFC8D6"/>
<path d="M198.44 121.362V246.05C198.44 248.453 197.112 250.599 195.261 251.543C195.233 251.558 195.2 251.571 195.172 251.585C194.996 251.671 194.814 251.75 194.629 251.814C194.587 251.829 194.545 251.843 194.503 251.858C194.47 251.866 194.435 251.877 194.405 251.885C194.27 251.926 194.135 251.956 193.997 251.982C193.832 252.016 193.664 252.038 193.492 252.05L192.557 252.111L59.815 261.918H59.8073L9.00935 265.678C8.5201 265.716 8.04066 265.712 7.58519 265.626C7.54051 265.618 7.49911 265.622 7.45443 265.622H7.44681C7.33457 265.622 7.18529 265.554 7.07306 265.52C4.70309 264.87 2.95312 262.644 2.95312 259.892V121.958C2.95312 118.515 5.7121 115.635 9.01371 115.635H193.492C196.214 115.635 198.44 118.249 198.44 121.36V121.362Z" fill="white"/>
<path d="M187.741 243.257L15.9165 255.102C13.2305 255.286 11.0469 253.158 11.0469 250.348V129.588C11.0469 126.777 13.2305 124.49 15.9165 124.478L187.741 123.734C189.984 123.724 191.799 125.792 191.799 128.352V238.343C191.799 240.903 189.984 243.103 187.741 243.257Z" fill="#D8DEE8"/>
<path d="M107.764 119.498C107.764 120.779 106.815 121.822 105.643 121.825C104.469 121.829 103.516 120.79 103.516 119.506C103.516 118.222 104.468 117.179 105.643 117.179C106.815 117.179 107.764 118.216 107.764 119.498Z" fill="white"/>
<g style="mix-blend-mode:soft-light" opacity="0.48">
<path d="M9.00884 265.683L192.556 252.117L193.489 252.048C194.737 251.956 195.872 251.337 196.739 250.397C183.53 249.672 175.326 244.965 170.035 240.102C159.408 230.336 161.25 220.706 149.79 214.285C135.495 206.276 124.256 216.423 113.408 206.412C106.832 200.342 110.061 195.815 101.969 186.744C93.0071 176.697 87.1721 180.075 78.1651 171.031C66.7762 159.598 72.4728 150.702 62.6617 142.493C50.7606 132.534 37.9257 141.751 26.5967 132.201C21.7108 128.082 19.0292 122.094 17.629 115.725H9.00884C5.70722 115.725 3.02344 118.516 3.02344 121.959V259.892C3.02344 263.335 5.70722 265.927 9.00775 265.684L9.00884 265.683Z" fill="white"/>
</g>
<path d="M202.176 251.292L7.10156 265.643L92.1579 280.854C93.132 281.028 94.1192 281.074 95.1021 280.992L297.356 263.993L205.278 251.389C204.248 251.248 203.21 251.215 202.175 251.292H202.176Z" fill="url(#paint0_linear_407_22561)"/>
<path d="M35.5703 265.767L197.975 253.641L248.238 260.465L87.2313 273.428L35.5703 265.767Z" fill="#D8DEE8"/>
<g style="mix-blend-mode:multiply" opacity="0.3">
<path d="M183.683 115.636V240.142C183.683 241.291 183.454 242.413 183.121 243.476C182.653 244.981 181.851 246.366 180.841 247.557C178.897 249.846 176.08 251.404 172.939 251.645L39.3653 261.766L31.4883 262.363C29.589 262.51 27.7889 262.247 26.1774 261.654C22.94 260.472 20.5298 257.96 19.5698 254.754C19.2778 253.797 19.1797 252.779 19.1797 251.714V115.636H183.683Z" fill="#BFC8D6"/>
</g>
<path d="M175.931 39.832L34.4402 35.4547C27.5842 35.2425 21.9922 40.2598 21.9922 46.6633V249.085C21.9922 255.487 27.5831 260.254 34.4402 259.736L175.931 249.017C181.859 248.569 186.637 243.42 186.637 237.516V50.8535C186.637 44.9489 181.858 40.0147 175.931 39.832Z" fill="url(#paint1_linear_407_22561)"/>
<g style="mix-blend-mode:soft-light" opacity="0.74">
<path d="M25.9844 250.01V45.5606C25.9844 41.8758 29.1999 38.9832 33.152 39.098L177.052 43.2981C180.47 43.3976 183.233 46.2433 183.233 49.6534V238.87C183.233 242.28 180.47 245.249 177.052 245.502L33.152 256.152C29.1988 256.444 25.9844 253.696 25.9844 250.011V250.01Z" fill="white"/>
</g>
<path d="M175.931 39.832L34.4402 35.4547C27.5842 35.2425 21.9922 40.2598 21.9922 46.6633V54.9791L186.637 58.5227V50.8546C186.637 44.95 181.858 40.0158 175.931 39.8331V39.832Z" fill="url(#paint2_linear_407_22561)"/>
<path d="M44.0959 46.1144C44.0959 48.1876 42.298 49.8254 40.0751 49.7718C37.8479 49.7182 36.0391 47.9863 36.0391 45.9054C36.0391 43.8245 37.8479 42.1867 40.0751 42.248C42.298 42.3093 44.0959 44.0411 44.0959 46.1144Z" fill="white"/>
<path d="M58.0974 46.4785C58.0974 48.5386 56.3234 50.1654 54.13 50.1118C51.9322 50.0582 50.1484 48.3395 50.1484 46.2717C50.1484 44.204 51.9333 42.5771 54.13 42.6384C56.3223 42.6997 58.0974 44.4184 58.0974 46.4785Z" fill="white"/>
<path d="M71.9136 46.8373C71.9136 48.8832 70.1625 50.5002 67.9996 50.4477C65.8312 50.3952 64.0703 48.6874 64.0703 46.6338C64.0703 44.5803 65.8312 42.9644 67.9996 43.0246C70.1636 43.0847 71.9136 44.7915 71.9136 46.8384V46.8373Z" fill="white"/>
<path d="M102.394 97.2555L44.157 97.1625C43.2079 97.1614 42.4375 96.4514 42.4375 95.5772V91.8575C42.4375 90.9833 43.2079 90.2787 44.157 90.2842L102.394 90.6124C103.279 90.6179 103.995 91.3039 103.995 92.1474V95.7337C103.995 96.5761 103.279 97.2577 102.394 97.2566V97.2555Z" fill="white"/>
<path d="M46.4141 98.5648L51.421 117.001C51.737 118.166 52.8724 118.973 54.1723 118.958L92.9407 118.52C94.1796 118.506 95.2583 117.695 95.5591 116.554L100.28 98.6053L46.4141 98.5637V98.5648ZM60.7853 115.92C60.7853 116.652 60.1468 117.251 59.359 117.259L57.998 117.273C57.208 117.281 56.5673 116.693 56.5673 115.96V101.671C56.5673 100.938 57.208 100.343 57.998 100.343H59.359C60.1468 100.343 60.7853 100.935 60.7853 101.666V115.92ZM68.3518 115.847C68.3518 116.576 67.7187 117.172 66.9385 117.18L65.5896 117.194C64.8072 117.202 64.1719 116.617 64.1719 115.887V101.662C64.1719 100.932 64.8072 100.34 65.5896 100.339H66.9385C67.7198 100.339 68.3518 100.929 68.3518 101.657V115.845V115.847ZM75.8507 115.776C75.8507 116.502 75.2242 117.096 74.4494 117.103L73.1125 117.118C72.3366 117.125 71.7068 116.543 71.7068 115.817V101.656C71.7068 100.929 72.3366 100.339 73.1125 100.339H74.4494C75.2231 100.339 75.8507 100.926 75.8507 101.651V115.777V115.776ZM83.2821 115.705C83.2821 116.427 82.661 117.018 81.8939 117.026L80.5689 117.039C79.7996 117.047 79.1763 116.467 79.1763 115.744V101.646C79.1763 100.922 79.8007 100.335 80.5689 100.335H81.8939C82.661 100.335 83.2821 100.919 83.2821 101.641V115.704V115.705ZM90.648 115.635C90.648 116.354 90.0324 116.943 89.2718 116.95L87.9588 116.963C87.1972 116.971 86.5782 116.393 86.5782 115.674V101.638C86.5782 100.918 87.1972 100.334 87.9588 100.334H89.2718C90.0324 100.334 90.648 100.916 90.648 101.634V115.634V115.635Z" fill="white"/>
<path d="M52.9475 88.4577C52.0627 89.1644 50.7192 89.0714 49.9467 88.2465C49.173 87.4216 49.2656 86.1788 50.1526 85.472C51.0396 84.7664 52.382 84.8637 53.1535 85.6876C53.9239 86.5114 53.8312 87.7509 52.9475 88.4577Z" fill="#D8DEE8"/>
<path d="M71.6432 70.94C71.3512 70.6216 70.7486 70.6566 70.2953 71.0165L51.8553 85.7195C51.3922 86.0882 51.2593 86.6472 51.5578 86.9656C51.8564 87.285 52.4731 87.2435 52.9362 86.8748L71.3523 72.1686C71.8045 71.8075 71.9341 71.2572 71.6421 70.9389L71.6432 70.94Z" fill="white"/>
<path d="M94.0915 88.735C94.9327 89.4352 96.2076 89.3608 96.9387 88.5687C97.6688 87.7777 97.5816 86.5688 96.7437 85.8675C95.9046 85.1662 94.6298 85.2373 93.8964 86.0294C93.162 86.8215 93.2503 88.0337 94.0926 88.735H94.0915Z" fill="#D8DEE8"/>
<path d="M75.906 71.0145C76.1958 70.7071 76.7951 70.7629 77.244 71.1381L95.1381 86.0828C95.5773 86.4494 95.7037 86.9953 95.4203 87.3016C95.137 87.6079 94.5508 87.5598 94.1106 87.1922L76.1936 72.2508C75.7436 71.8755 75.615 71.3219 75.9049 71.0156L75.906 71.0145Z" fill="white"/>
<path d="M170.21 79.6772L110.156 78.907V71.4019L170.21 72.4478V79.6772Z" fill="white"/>
<path d="M170.21 92.3342L110.156 92.0464V84.5413L170.21 85.1047V92.3342Z" fill="white"/>
<path d="M170.21 104.991L110.156 105.187V97.6821L170.21 97.762V104.991Z" fill="white"/>
<path d="M170.21 117.65L110.156 118.327V110.822L170.21 110.419V117.65Z" fill="white"/>
<path d="M162.04 181.632C162.04 211.995 137.672 238.244 107.521 240.267C77.266 242.298 52.6641 219.183 52.6641 188.633C52.6641 158.082 77.266 131.818 107.521 129.975C137.672 128.139 162.04 151.269 162.04 181.632Z" fill="url(#paint3_linear_407_22561)"/>
<path d="M110.871 132.465C124.04 132.465 136.284 137.492 145.348 146.621C154.447 155.787 159.46 168.221 159.46 181.632C159.46 195.043 154.041 209.22 144.202 219.809C134.359 230.4 121.271 236.747 107.351 237.681C106.181 237.76 104.997 237.799 103.835 237.799C90.674 237.799 78.4363 232.781 69.3748 223.667C60.2654 214.506 55.2487 202.063 55.2487 188.631C55.2487 159.475 78.7697 134.322 107.68 132.561C108.74 132.497 109.814 132.464 110.872 132.464L110.871 132.465ZM110.867 129.873C109.761 129.873 108.644 129.907 107.521 129.975C77.266 131.818 52.6641 158.082 52.6641 188.633C52.6641 219.183 75.2905 240.392 103.831 240.392C105.05 240.392 106.281 240.35 107.52 240.267C137.671 238.243 162.039 211.994 162.039 181.632C162.039 151.27 139.455 129.871 110.865 129.872L110.867 129.873Z" fill="white"/>
<path d="M130.873 214.267C129.27 214.454 127.659 213.948 126.425 212.698L83.5546 169.308C80.7422 166.462 80.7422 161.639 83.5546 158.578C86.3452 155.541 90.8214 155.423 93.5553 158.272L135.264 201.744C137.663 204.245 137.663 208.683 135.264 211.693C134.057 213.206 132.47 214.08 130.874 214.266L130.873 214.267Z" fill="white"/>
<path d="M88.5898 219.207C86.7756 219.419 84.9515 218.893 83.5546 217.572C80.7422 214.917 80.7422 210.094 83.5546 206.842L126.425 157.264C128.89 154.414 132.847 154.309 135.264 156.993C137.663 159.657 137.663 164.095 135.264 166.942L93.5553 216.434C92.1911 218.054 90.3953 218.995 88.5909 219.206L88.5898 219.207Z" fill="white"/>
<path d="M208.641 146.031C205.079 142.212 214.939 127.868 220.217 121.582C224.827 116.091 229.566 110.447 235.386 111.161C240.495 111.788 245.466 117.198 245.765 122.383C246.566 136.331 213.705 151.457 208.642 146.029L208.641 146.031Z" fill="url(#paint4_linear_407_22561)"/>
<path d="M251.404 293.432C252.074 293.979 252.197 295.346 252.278 296.24C252.314 296.639 252.332 296.838 252.288 296.979C251.964 298.008 249.978 298.115 246.865 298.434C241.944 298.939 240.479 299.328 240.095 298.593C239.734 297.904 240.607 296.776 240.706 296.651C241.234 295.983 241.884 295.739 243.138 295.324C245.46 294.557 247.028 294.137 247.503 294.009C250.469 293.213 250.964 293.071 251.404 293.431V293.432Z" fill="url(#paint5_linear_407_22561)"/>
<path d="M248.477 288.919L247.984 294.549C248.124 294.821 249.791 295.637 251.115 294.938L252.38 289.404L248.477 288.921V288.919Z" fill="url(#paint6_linear_407_22561)"/>
<path d="M212.382 292.709C213.185 293.6 213.368 295.241 212.669 296.05C211.983 296.844 210.95 296.249 208.021 296.336C204.883 296.43 204.065 297.174 201.932 296.583C201.07 296.344 199.549 295.764 199.579 295.147C199.599 294.713 200.373 294.488 202.961 293.619C206.633 292.383 206.617 292.317 207.397 292.186C209.355 291.86 211.322 291.533 212.383 292.711L212.382 292.709Z" fill="url(#paint7_linear_407_22561)"/>
<path d="M210.37 287.572L208.797 292.828C208.916 293.11 210.515 294.05 211.888 293.454L214.225 288.353L210.37 287.572Z" fill="url(#paint8_linear_407_22561)"/>
<path d="M224.354 172.458C224.129 190.123 222.928 209.983 220.048 231.561C217.201 252.887 213.211 272.157 208.859 289.101C210.868 289.644 212.875 290.186 214.883 290.728C219.977 285.959 226.403 278.452 229.504 267.843C231.428 261.258 230.787 257.875 232.008 249.776C233.952 236.88 237.889 230.124 241.957 219.725C245.614 210.381 249.936 196.667 252.253 178.336C242.953 176.377 233.654 174.418 224.354 172.457V172.458Z" fill="url(#paint9_linear_407_22561)"/>
<path d="M242.478 170.772C243.707 193.237 244.717 216.122 245.483 239.411C246.058 256.887 246.48 274.141 246.76 291.169C248.811 291.423 250.861 291.678 252.913 291.931C254.895 288.227 257.527 282.563 259.33 275.303C261.52 266.486 261.012 261.25 261.974 252.112C263.051 241.863 264.616 239.63 267.389 226.701C273.017 200.462 275.832 187.343 269.553 179.181C267.515 176.531 261.127 169.886 242.477 170.772H242.478Z" fill="url(#paint10_linear_407_22561)"/>
<path d="M272.375 114.31C267.572 112.954 260.533 111.369 251.911 110.88C239.616 110.181 233.467 109.833 229.111 112.772C219.049 119.563 226.839 135.234 222.72 174.084C222.131 179.632 222 185.219 221.573 190.782C220.868 199.993 220.707 200.493 221.346 201.426C225.348 207.279 240.282 198.451 262.17 201.94C274.417 203.893 279.972 208.391 283.327 205.147C287.24 201.364 283.884 191.187 280.994 182.426C277.677 172.369 275.628 172.24 273.747 164.667C271.779 156.752 272.969 152.675 273.276 140.193C273.423 134.221 273.391 125.332 272.376 114.31H272.375Z" fill="url(#paint11_linear_407_22561)"/>
<g style="mix-blend-mode:multiply" opacity="0.3">
<path d="M242.604 187.245C248.325 186.795 252.036 190.043 256.975 187.512C263.747 184.042 265.922 173.244 265.49 165.603C264.834 153.991 258.231 150.93 259.37 143.425C259.985 139.366 262.872 133.977 273.234 128.472C273.373 133.105 273.346 137.054 273.269 140.192C272.963 152.675 271.773 156.751 273.74 164.666C275.623 172.239 277.671 172.369 280.987 182.425C283.876 191.186 287.233 201.363 283.32 205.146C279.965 208.391 274.41 203.892 262.163 201.939C243.304 198.933 229.615 205.063 223.625 203.075C230.862 191.067 237.426 187.651 242.603 187.244L242.604 187.245Z" fill="url(#paint12_linear_407_22561)"/>
</g>
<path d="M264.568 115.107C268.655 111.736 276.869 115.552 279.066 116.572C291.313 122.26 302.308 137.586 299.584 153.784C299.175 156.213 297.281 167.575 287.698 173.081C279.052 178.048 267.378 176.771 258.023 169.735C256.745 168.596 255.466 167.457 254.187 166.318C252.93 164.953 251.672 163.589 250.414 162.223C252.391 160.572 255.75 158.191 260.468 156.662C266.688 154.647 271.216 158.263 274.102 155.513C276.094 153.616 276.098 150.265 275.607 148.235C274.615 144.142 271.021 142.991 268.023 140.085C260.976 133.259 259.677 119.143 264.57 115.107H264.568Z" fill="url(#paint13_linear_407_22561)"/>
<path d="M205.85 167.984L260.616 167.163L246.053 174.219L205.711 171.569L205.85 167.984Z" fill="url(#paint14_linear_407_22561)"/>
<path d="M262.551 168.625C262.551 169.654 261.91 170.573 260.946 170.924L243.447 177.812L243.367 173.037L260.618 167.163C261.586 166.884 262.551 167.613 262.551 168.625Z" fill="url(#paint15_linear_407_22561)"/>
<path d="M254.113 165.371C254.449 165.295 252.476 161.347 250.926 161.803C249.377 162.259 241.799 166.668 241.111 168.483L240.422 170.298C240.422 170.298 243.727 170.558 245.777 169.866C247.827 169.175 251.38 165.982 254.113 165.371Z" fill="url(#paint16_linear_407_22561)"/>
<path d="M241.912 139.532L245.773 174.822C245.906 176.039 244.208 177.853 242.99 177.795L186.36 174.305C185.43 174.26 184.655 173.573 184.497 172.651L177.389 138.567C177.177 137.326 179.397 136.045 180.651 136.08L239.995 137.755C240.986 137.784 241.804 138.541 241.912 139.531V139.532Z" fill="url(#paint17_linear_407_22561)"/>
<path d="M240.616 140.561L244.477 175.852C244.61 177.07 243.628 178.119 242.41 178.061L185.064 175.334C184.134 175.291 183.359 174.602 183.201 173.68L177.342 139.44C177.129 138.199 178.101 137.074 179.354 137.109L238.698 138.784C239.689 138.812 240.508 139.57 240.616 140.559V140.561Z" fill="url(#paint18_linear_407_22561)"/>
<path style="mix-blend-mode:multiply" opacity="0.3" d="M206.94 167.064C211.947 164.933 210.18 160.87 216.093 155.807C223.894 149.128 231.844 152.023 234.628 146.846C235.494 145.234 235.908 142.725 234.399 138.664L238.697 138.786C239.687 138.813 240.507 139.571 240.614 140.56L244.475 175.851C244.608 177.068 243.626 178.118 242.408 178.06L185.062 175.333C184.132 175.29 183.357 174.601 183.199 173.679L182.391 168.954C184.131 167.981 186.21 167.097 188.635 166.604C197.048 164.891 201.176 169.516 206.941 167.063L206.94 167.064Z" fill="url(#paint19_linear_407_22561)"/>
<path d="M181.453 170.398C181.359 170.113 181.558 169.82 181.855 169.806C183.067 169.744 185.878 169.718 187.43 170.672C189.446 171.912 192.052 174.175 189.858 175.316L187.808 176.382C187.714 176.432 187.612 176.447 187.508 176.424C186.78 176.263 183.714 175.58 183.38 175.411C183.074 175.257 181.905 171.774 181.454 170.398H181.453Z" fill="url(#paint20_linear_407_22561)"/>
<path d="M250.989 97.3899C250.959 101.049 251.365 103.953 251.75 105.941C252.19 108.219 252.508 108.807 252.913 109.284C253.524 110.003 254.448 110.606 259.671 111.907C262.514 112.615 262.879 112.595 262.942 112.878C263.249 114.26 255.498 118.969 247.489 117.834C242.588 117.14 238.129 114.332 238.403 112.859C238.678 111.375 243.574 112.172 245.033 109.487C246.049 107.619 244.91 104.968 243.565 102.774C244.867 100.323 249.686 99.8427 250.989 97.3921V97.3899Z" fill="url(#paint21_linear_407_22561)"/>
<path d="M241.897 98.8374C240.741 97.2948 240.669 94.6012 242.001 92.8989C243.149 91.434 244.953 91.225 246.033 91.0992C249.163 90.736 253.115 92.0488 254.489 94.9415C255.303 96.6559 253.542 100.219 253.266 100.859C252.953 101.583 252.388 101.832 251.864 102.38C251.138 103.139 250.001 104.347 248.146 106.367C248.002 105.77 247.783 105.033 247.434 104.233C247.3 103.926 246.762 102.723 245.947 101.727C244.316 99.729 242.992 100.299 241.896 98.8363L241.897 98.8374Z" fill="url(#paint22_linear_407_22561)"/>
<path d="M250.792 104.669C250.792 104.669 248.734 108.059 244.636 107.791C240.967 107.552 240.429 99.2893 242.773 97.5367C243.555 96.9513 245.121 96.7085 246.394 97.0673C247.145 97.2785 247.4 97.5925 248.636 97.9141C249.776 98.2106 250.097 98.0848 250.442 98.3747C250.872 98.7379 251.187 99.6296 250.469 102.045C251.169 101.334 252.01 101.061 252.604 101.343C252.699 101.388 252.951 101.561 253.093 101.821C253.606 102.764 252.747 103.97 250.792 104.669Z" fill="url(#paint23_linear_407_22561)"/>
<path d="M250.608 97.8814C250.432 98.0138 250.972 98.6768 251.012 99.6155C251.091 101.437 249.255 103.623 247.382 103.808C246.275 103.917 245.971 103.248 244.14 103.053C243.007 102.933 242.063 103.077 241.47 103.207C240.895 105.205 241.437 107.196 242.766 108.12C244.198 109.114 246.026 108.511 246.79 108.258C247.301 108.09 248.94 107.552 249.796 106.043C250.689 104.471 249.813 103.522 250.837 102.459C251.353 101.923 252.031 101.69 252.693 100.652C252.872 100.369 252.991 100.12 253.065 99.9514C252.118 98.9437 250.865 97.6878 250.609 97.8803L250.608 97.8814Z" fill="url(#paint24_linear_407_22561)"/>
<path d="M242.8 103.948C242.8 103.948 243.592 104.364 244.961 104.286C245.028 104.281 245.102 104.301 245.11 104.336C245.141 104.466 244.263 105.052 243.453 104.823C242.879 104.661 242.431 104.114 242.509 103.975C242.541 103.917 242.671 103.925 242.8 103.947V103.948Z" fill="url(#paint25_linear_407_22561)"/>
</g>
<defs>
<linearGradient id="paint0_linear_407_22561" x1="74.9023" y1="266.141" x2="365.157" y2="266.141" gradientUnits="userSpaceOnUse">
<stop offset="0.49" stop-color="#EBEFF2"/>
<stop offset="1" stop-color="white"/>
</linearGradient>
<linearGradient id="paint1_linear_407_22561" x1="104.315" y1="35.4482" x2="104.315" y2="259.774" gradientUnits="userSpaceOnUse">
<stop stop-color="#F0801E"/>
<stop offset="1" stop-color="#FFEE02"/>
</linearGradient>
<linearGradient id="paint2_linear_407_22561" x1="105.19" y1="44.3548" x2="91.0141" y2="171.958" gradientUnits="userSpaceOnUse">
<stop stop-color="#2C2F50"/>
<stop offset="1" stop-color="#3C3B6B"/>
</linearGradient>
<linearGradient id="paint3_linear_407_22561" x1="52.6641" y1="185.133" x2="162.04" y2="185.133" gradientUnits="userSpaceOnUse">
<stop stop-color="#FF1700"/>
<stop offset="1" stop-color="#6C0101"/>
</linearGradient>
<linearGradient id="paint4_linear_407_22561" x1="225.322" y1="140.669" x2="189.651" y2="311.048" gradientUnits="userSpaceOnUse">
<stop stop-color="#FFC444"/>
<stop offset="1" stop-color="#F36F56"/>
</linearGradient>
<linearGradient id="paint5_linear_407_22561" x1="240.048" y1="295.964" x2="252.304" y2="296.318" gradientUnits="userSpaceOnUse">
<stop stop-color="#444B8C"/>
<stop offset="1" stop-color="#26264F"/>
</linearGradient>
<linearGradient id="paint6_linear_407_22561" x1="247.984" y1="292.067" x2="252.38" y2="292.067" gradientUnits="userSpaceOnUse">
<stop stop-color="#FFC444"/>
<stop offset="1" stop-color="#F36F56"/>
</linearGradient>
<linearGradient id="paint7_linear_407_22561" x1="200.299" y1="292.556" x2="212.867" y2="295.996" gradientUnits="userSpaceOnUse">
<stop stop-color="#444B8C"/>
<stop offset="1" stop-color="#26264F"/>
</linearGradient>
<linearGradient id="paint8_linear_407_22561" x1="208.797" y1="290.61" x2="214.225" y2="290.61" gradientUnits="userSpaceOnUse">
<stop stop-color="#FFC444"/>
<stop offset="1" stop-color="#F36F56"/>
</linearGradient>
<linearGradient id="paint9_linear_407_22561" x1="204.555" y1="271.274" x2="239.535" y2="192.741" gradientUnits="userSpaceOnUse">
<stop stop-color="#6C0101"/>
<stop offset="1" stop-color="#FF0000"/>
</linearGradient>
<linearGradient id="paint10_linear_407_22561" x1="221.597" y1="275" x2="265.939" y2="201.39" gradientUnits="userSpaceOnUse">
<stop stop-color="#FF0000"/>
<stop offset="1" stop-color="#6C0101"/>
</linearGradient>
<linearGradient id="paint11_linear_407_22561" x1="287.583" y1="158.343" x2="218.661" y2="154.678" gradientUnits="userSpaceOnUse">
<stop stop-color="#FFAA00"/>
<stop offset="0.24" stop-color="#FFBA1C"/>
<stop offset="0.75" stop-color="#FFD955"/>
<stop offset="1" stop-color="#FFE66C"/>
</linearGradient>
<linearGradient id="paint12_linear_407_22561" x1="267.162" y1="255.111" x2="251.504" y2="181.034" gradientUnits="userSpaceOnUse">
<stop stop-color="#FFC444"/>
<stop offset="1" stop-color="#F36F56"/>
</linearGradient>
<linearGradient id="paint13_linear_407_22561" x1="301.919" y1="144.91" x2="248.711" y2="141.545" gradientUnits="userSpaceOnUse">
<stop stop-color="#FFAA00"/>
<stop offset="0.24" stop-color="#FFBA1C"/>
<stop offset="0.75" stop-color="#FFD955"/>
<stop offset="1" stop-color="#FFE66C"/>
</linearGradient>
<linearGradient id="paint14_linear_407_22561" x1="225.098" y1="190.717" x2="231.771" y2="171.887" gradientUnits="userSpaceOnUse">
<stop stop-color="#1D1D3D"/>
<stop offset="1" stop-color="#3B3989"/>
</linearGradient>
<linearGradient id="paint15_linear_407_22561" x1="254.042" y1="163.412" x2="251.594" y2="180.259" gradientUnits="userSpaceOnUse">
<stop stop-color="#21203C"/>
<stop offset="1" stop-color="#3B3989"/>
</linearGradient>
<linearGradient id="paint16_linear_407_22561" x1="240.423" y1="166.057" x2="254.151" y2="166.057" gradientUnits="userSpaceOnUse">
<stop stop-color="#FFC444"/>
<stop offset="1" stop-color="#F36F56"/>
</linearGradient>
<linearGradient id="paint17_linear_407_22561" x1="205.907" y1="164.888" x2="218.893" y2="146.522" gradientUnits="userSpaceOnUse">
<stop stop-color="#181A26"/>
<stop offset="1" stop-color="#26264F"/>
</linearGradient>
<linearGradient id="paint18_linear_407_22561" x1="230.681" y1="195.364" x2="202.23" y2="137.807" gradientUnits="userSpaceOnUse">
<stop stop-color="#1F2134"/>
<stop offset="1" stop-color="#303561"/>
</linearGradient>
<linearGradient id="paint19_linear_407_22561" x1="244.486" y1="158.363" x2="182.39" y2="158.363" gradientUnits="userSpaceOnUse">
<stop stop-color="#311944"/>
<stop offset="1" stop-color="#893976"/>
</linearGradient>
<linearGradient id="paint20_linear_407_22561" x1="181.429" y1="173.107" x2="190.691" y2="173.107" gradientUnits="userSpaceOnUse">
<stop stop-color="#FFC444"/>
<stop offset="1" stop-color="#F36F56"/>
</linearGradient>
<linearGradient id="paint21_linear_407_22561" x1="251.582" y1="97.4249" x2="249.195" y2="137.843" gradientUnits="userSpaceOnUse">
<stop stop-color="#FFC444"/>
<stop offset="1" stop-color="#F36F56"/>
</linearGradient>
<linearGradient id="paint22_linear_407_22561" x1="255.531" y1="115.986" x2="246.281" y2="92.3325" gradientUnits="userSpaceOnUse">
<stop stop-color="#311944"/>
<stop offset="1" stop-color="#6B3976"/>
</linearGradient>
<linearGradient id="paint23_linear_407_22561" x1="241.359" y1="102.354" x2="253.239" y2="102.354" gradientUnits="userSpaceOnUse">
<stop stop-color="#FFC444"/>
<stop offset="1" stop-color="#F36F56"/>
</linearGradient>
<linearGradient id="paint24_linear_407_22561" x1="252.694" y1="117.108" x2="243.436" y2="93.4306" gradientUnits="userSpaceOnUse">
<stop stop-color="#311944"/>
<stop offset="1" stop-color="#6B3976"/>
</linearGradient>
<linearGradient id="paint25_linear_407_22561" x1="242.5" y1="104.403" x2="245.111" y2="104.403" gradientUnits="userSpaceOnUse">
<stop stop-color="#FFC444"/>
<stop offset="1" stop-color="#F36F56"/>
</linearGradient>
<clipPath id="clip0_407_22561">
<rect width="300" height="299" fill="white"/>
</clipPath>
</defs>
</svg>
