<svg width="300" height="331" viewBox="0 0 300 331" fill="none" xmlns="http://www.w3.org/2000/svg">
<g clip-path="url(#clip0_1847_186722)">
<path d="M295.604 159.925C287.472 106.701 254.134 41.3114 188.269 34.4683C188.269 34.4683 138.262 28.3855 88.9658 37.605C59.7085 43.0763 34.0548 59.3627 17.8219 82.7718C1.58797 106.18 -3.83406 134.724 2.74669 161.936C7.0207 179.61 9.90895 197.903 9.11648 216.065C8.11732 238.97 6.23465 263.053 16.3601 284.413C31.1965 315.708 67.3955 324.926 98.981 327.866C110.621 328.95 122.303 329.386 133.954 330.308C156.303 332.075 181.365 329.215 202.906 323.397C312.679 293.743 303.735 213.148 295.604 159.925Z" fill="#F4F7FA"/>
<path d="M124.557 293.238C127.099 293.378 132.754 291.442 134.019 290.33C142.443 282.926 159.116 270.089 160.592 258.326C160.844 256.317 152.305 252.823 151.399 250.768C146.496 247.219 144.574 246.292 141.57 240.627C132.702 223.905 164.182 201.444 135.254 186.122C114.065 174.899 93.6247 179.121 102.53 144.645C111.437 110.169 95.562 41.3833 54.1584 58.897C30.397 68.9475 46.3664 102.637 31.4079 122.522C17.1937 141.417 22.8353 160.193 42.63 176.794C62.4247 193.394 48.8274 200.803 38.7265 219.392C26.5931 241.722 62.3658 252.721 79.3141 256.39C92.9629 259.345 125.722 276.077 124.557 293.238Z" fill="#EFEFEF"/>
<mask id="mask0_1847_186722" style="mask-type:luminance" maskUnits="userSpaceOnUse" x="23" y="56" width="138" height="238">
<path d="M124.557 293.238C127.099 293.378 132.754 291.442 134.019 290.329C142.443 282.926 159.116 270.089 160.592 258.326C160.844 256.317 152.305 252.823 151.399 250.768C146.496 247.219 144.574 246.291 141.57 240.627C132.702 223.905 164.182 201.444 135.254 186.122C114.065 174.899 93.6247 179.12 102.53 144.645C111.437 110.169 95.562 41.383 54.1584 58.8967C30.397 68.9472 46.3664 102.637 31.4079 122.522C17.1937 141.417 22.8353 160.193 42.63 176.793C62.4247 193.394 48.8274 200.803 38.7265 219.392C26.5931 241.722 62.3658 252.721 79.3141 256.39C92.9629 259.345 125.722 276.077 124.557 293.238Z" fill="white"/>
</mask>
<g mask="url(#mask0_1847_186722)">
<g style="mix-blend-mode:soft-light">
<path d="M146.824 275.272L147.146 274.838C80.108 225.228 49.7691 141.22 65.987 50.1175L65.4537 50.0222C57.7677 93.1982 60.6988 136.426 73.9331 175.031C87.8454 215.617 113.05 250.279 146.824 275.272Z" fill="#FCFDFE"/>
<path d="M32.6275 228.093C55.2355 225.059 90.913 231.488 112.159 242.424L112.406 241.942C91.0768 230.963 55.2559 224.509 32.5547 227.556L32.6264 228.092L32.6275 228.093Z" fill="#FCFDFE"/>
<path d="M133.773 265.384L134.204 265.055C126.658 255.189 124.391 241.887 127.463 225.519C129.717 213.517 134.735 200.178 142.381 185.87L141.904 185.615C134.233 199.971 129.195 213.364 126.931 225.419C123.829 241.945 126.13 255.391 133.773 265.384Z" fill="#FCFDFE"/>
<path d="M72.2656 169.478L72.7122 169.172C59.4457 149.843 36.4136 141.054 19.4278 137.085L19.3047 137.613C36.1973 141.561 59.0987 150.294 72.2667 169.479L72.2656 169.478Z" fill="#FCFDFE"/>
<path d="M61.9453 116.815L62.484 116.875C65.4161 90.628 84.5566 70.5742 95.7047 60.9563L95.3513 60.5461C84.1432 70.2165 64.8989 90.385 61.9464 116.815H61.9453Z" fill="#FCFDFE"/>
</g>
</g>
<path d="M77.9523 96.7838L89.8416 95.9849L90.4627 108.615H70.8672L75.1305 98.9384C75.6392 97.784 76.7037 96.9701 77.9523 96.7838Z" fill="#F0801E"/>
<path d="M88.0761 97.5226C88.528 96.4892 89.5679 95.8381 90.6945 95.883L188.822 99.8208C190.13 99.8743 191.31 100.616 191.924 101.773L197.223 111.76L83.6875 107.568L88.0772 97.5237L88.0761 97.5226Z" fill="#FFEE02"/>
<path d="M52.6328 115.277V304.901C52.6328 309.098 55.5157 312.746 59.5991 313.715L80.1403 318.593L102.638 163.77L80.7882 103.692L60.5383 106.292C56.018 106.873 52.6328 110.721 52.6328 115.277Z" fill="#FFEE02"/>
<path d="M74.4062 111.584V310.585C74.4062 315.168 78.2969 318.787 84.0209 321.081L206.146 312.22C209.118 309.295 212.313 305.861 212.313 301.724V116.952C212.313 112.728 208.988 109.254 204.768 109.068L82.6437 103.7C78.1534 103.503 74.4062 107.089 74.4062 111.583V111.584Z" fill="url(#paint0_linear_1847_186722)"/>
<path d="M65.1451 308.675V113.276C65.1451 109.89 67.6982 106.454 70.8691 104.967L67.2409 105.432C64.0099 106.617 61.7578 109.709 61.7578 113.276V308.676C61.7578 311.111 62.8095 313.339 64.5208 314.885L69.6719 316.107C66.9442 314.7 65.144 311.863 65.144 308.676L65.1451 308.675Z" fill="#AE2320"/>
<path d="M204.763 109.068L102.648 104.58C102.676 105.797 102.759 107.035 102.91 108.293C105.654 131.134 126.961 134.783 135.165 160.222C142.681 183.533 127.564 189.072 136.455 209.572C144.787 228.782 160.345 229.187 169.677 253.439C173.772 264.08 171.705 266.417 175.16 277.63C178.116 287.222 183.65 298.544 194.406 310.363L204.987 309.595C209.113 309.296 212.307 305.861 212.307 301.725V116.952C212.307 112.728 208.981 109.254 204.762 109.069L204.763 109.068Z" fill="url(#paint1_linear_1847_186722)"/>
<path d="M93.2031 132.068V185.885C93.2031 189.705 96.2991 192.801 100.119 192.801H190.309C194.129 192.801 197.225 189.705 197.225 185.885V136.263C197.225 132.568 194.321 129.527 190.63 129.354L100.44 125.16C96.4994 124.977 93.2031 128.122 93.2031 132.068Z" fill="url(#paint2_linear_1847_186722)"/>
<path d="M194.098 185.884V136.262C194.098 132.567 191.194 129.525 187.503 129.353L99.0235 125.238C95.7401 125.76 93.2031 128.605 93.2031 132.066V185.882C93.2031 189.701 96.2991 192.798 100.119 192.798H187.182C191.001 192.798 194.098 189.702 194.098 185.882V185.884Z" fill="#D8DEE8"/>
<g style="mix-blend-mode:soft-light" opacity="0.7">
<path d="M162.07 136.721V139.967C162.07 141.371 163.181 142.522 164.584 142.574L185.816 143.35C187.292 143.404 188.52 142.221 188.52 140.743V137.498C188.52 136.094 187.409 134.942 186.006 134.891L164.774 134.115C163.298 134.061 162.07 135.243 162.07 136.721Z" fill="#F4F7FA"/>
</g>
<path d="M204.323 118.937C204.323 120.762 203.06 122.242 201.502 122.242C199.943 122.242 198.68 120.762 198.68 118.937C198.68 117.111 199.943 115.631 201.502 115.631C203.06 115.631 204.323 117.111 204.323 118.937Z" fill="#FFEE02"/>
<path d="M162.366 242.728L162.26 234.706C162.223 231.909 159.926 229.673 157.13 229.709L135.255 230C132.458 230.037 130.222 232.334 130.258 235.13L130.37 243.486C130.407 246.313 132.751 248.561 135.577 248.48L157.448 247.857C160.214 247.778 162.404 245.495 162.367 242.727L162.366 242.728Z" fill="url(#paint3_linear_1847_186722)"/>
<path d="M129.938 210.752L130.076 221.132C130.114 223.929 132.411 226.166 135.207 226.129L157.081 225.839C159.879 225.802 162.115 223.504 162.078 220.708L161.944 210.618C161.908 207.848 159.651 205.621 156.88 205.621H135.002C132.179 205.621 129.9 207.93 129.938 210.753V210.752Z" fill="url(#paint4_linear_1847_186722)"/>
<path d="M166.237 242.464C166.275 245.291 168.619 247.539 171.445 247.459L193.763 246.823C195.665 246.768 197.18 245.216 197.189 243.313C197.205 239.637 197.227 234.308 197.227 234.308C197.227 231.485 194.918 229.206 192.095 229.244L171.13 229.522C168.333 229.56 166.097 231.857 166.133 234.653L166.237 242.462V242.464Z" fill="url(#paint5_linear_1847_186722)"/>
<path d="M130.556 257.485L130.667 265.828C130.704 268.685 133.097 270.945 135.951 270.821L157.816 269.865C160.55 269.745 162.695 267.475 162.659 264.739L162.553 256.729C162.515 253.901 160.171 251.653 157.345 251.734L135.475 252.357C132.709 252.436 130.519 254.719 130.555 257.487L130.556 257.485Z" fill="url(#paint6_linear_1847_186722)"/>
<path d="M93.2031 244.477C93.2031 247.331 95.5591 249.621 98.412 249.54L121.583 248.88C124.35 248.801 126.54 246.517 126.503 243.75L126.39 235.182C126.352 232.385 124.055 230.149 121.259 230.185L97.052 230.506C94.9305 230.534 93.2235 232.258 93.2203 234.38C93.2128 238.501 93.2053 244.476 93.2053 244.476L93.2031 244.477Z" fill="url(#paint7_linear_1847_186722)"/>
<path d="M162.978 288.826L162.844 278.743C162.807 275.886 160.413 273.627 157.56 273.751L135.695 274.706C132.961 274.826 130.816 277.096 130.852 279.832L130.991 290.333C131.03 293.227 133.483 295.501 136.373 295.32L158.232 293.947C160.926 293.778 163.015 291.525 162.978 288.825V288.826Z" fill="url(#paint8_linear_1847_186722)"/>
<path d="M126.987 280.31C126.95 277.453 124.556 275.193 121.702 275.317L96.9802 276.398C94.9112 276.488 93.277 278.185 93.2663 280.256C93.2417 285.004 93.2031 292.638 93.2031 292.638C93.2031 295.56 95.6684 297.876 98.5845 297.693L122.383 296.199C125.078 296.03 127.166 293.777 127.13 291.078L126.987 280.311V280.31Z" fill="url(#paint9_linear_1847_186722)"/>
<path d="M126.203 221.184L126.063 210.617C126.027 207.847 123.77 205.62 120.999 205.62H98.2675C95.4702 205.62 93.2031 207.887 93.2031 210.685V221.554C93.2031 224.377 95.512 226.656 98.3349 226.619L121.206 226.315C124.004 226.277 126.24 223.98 126.203 221.184Z" fill="url(#paint10_linear_1847_186722)"/>
<path d="M166.711 278.266L166.842 288.082C166.88 290.976 169.334 293.25 172.223 293.069L192.479 291.797C195.148 291.628 197.227 289.416 197.227 286.742V277.307C197.227 274.423 194.822 272.122 191.942 272.248L171.555 273.139C168.821 273.259 166.676 275.529 166.712 278.266H166.711Z" fill="url(#paint11_linear_1847_186722)"/>
<path d="M197.227 255.807C197.227 252.953 194.871 250.664 192.018 250.745L171.342 251.334C168.576 251.414 166.386 253.697 166.422 256.464L166.526 264.262C166.564 267.12 168.957 269.379 171.811 269.255L193.797 268.294C195.673 268.212 197.156 266.676 197.169 264.798C197.195 261.135 197.227 255.809 197.227 255.809V255.807Z" fill="url(#paint12_linear_1847_186722)"/>
<path d="M165.946 220.657C165.983 223.454 168.28 225.69 171.076 225.654L193.729 225.353C195.656 225.327 197.206 223.763 197.209 221.836C197.216 217.512 197.225 210.686 197.225 210.686C197.225 207.888 194.958 205.621 192.161 205.621H170.877C168.054 205.621 165.775 207.93 165.813 210.753L165.945 220.657H165.946Z" fill="url(#paint13_linear_1847_186722)"/>
<path d="M126.687 257.749C126.65 254.922 124.306 252.674 121.479 252.754L97.0145 253.451C94.9198 253.511 93.2492 255.221 93.2417 257.316C93.2256 261.415 93.2031 267.398 93.2031 267.398C93.2031 270.282 95.6073 272.583 98.4881 272.457L121.958 271.431C124.692 271.311 126.837 269.041 126.801 266.305L126.687 257.749Z" fill="url(#paint14_linear_1847_186722)"/>
<path d="M164.062 242.851L163.956 234.829C163.918 232.031 161.621 229.795 158.825 229.832L136.95 230.122C134.153 230.159 131.916 232.457 131.954 235.253L132.065 243.608C132.102 246.435 134.447 248.683 137.273 248.603L159.143 247.979C161.909 247.9 164.099 245.617 164.063 242.85L164.062 242.851Z" fill="#FFECDD"/>
<path d="M131.633 210.875L131.771 221.256C131.809 224.053 134.106 226.29 136.902 226.253L158.777 225.962C161.574 225.925 163.81 223.628 163.773 220.832L163.64 210.742C163.603 207.971 161.347 205.745 158.575 205.745H136.698C133.875 205.745 131.596 208.054 131.633 210.876V210.875Z" fill="#FFECDD"/>
<path d="M167.932 242.587C167.97 245.415 170.314 247.662 173.14 247.582L195.458 246.946C197.36 246.891 198.875 245.34 198.884 243.437C198.9 239.76 198.923 234.431 198.923 234.431C198.923 231.608 196.614 229.329 193.791 229.367L172.825 229.645C170.028 229.683 167.792 231.98 167.829 234.776L167.932 242.585V242.587Z" fill="#FFECDD"/>
<path d="M132.252 257.608L132.362 265.951C132.399 268.809 134.792 271.068 137.647 270.944L159.512 269.989C162.246 269.869 164.391 267.598 164.354 264.862L164.248 256.852C164.211 254.025 161.867 251.777 159.04 251.857L137.17 252.48C134.404 252.56 132.214 254.843 132.25 257.61L132.252 257.608Z" fill="#FFECDD"/>
<path d="M94.8984 244.601C94.8984 247.454 97.2544 249.744 100.107 249.663L123.279 249.003C126.045 248.924 128.235 246.641 128.198 243.874L128.085 235.305C128.047 232.509 125.75 230.272 122.954 230.308L98.7473 230.63C96.6258 230.657 94.9188 232.382 94.9156 234.503C94.9081 238.624 94.9006 244.6 94.9006 244.6L94.8984 244.601Z" fill="#FFECDD"/>
<path d="M164.674 288.948L164.54 278.865C164.502 276.008 162.11 273.749 159.255 273.873L137.39 274.828C134.656 274.948 132.511 277.218 132.547 279.955L132.687 290.455C132.725 293.349 135.179 295.623 138.068 295.442L159.927 294.069C162.622 293.9 164.71 291.647 164.674 288.948Z" fill="#FFECDD"/>
<path d="M128.683 280.432C128.645 277.575 126.252 275.315 123.398 275.44L98.6755 276.52C96.6065 276.61 94.9723 278.308 94.9616 280.379C94.937 285.127 94.8984 292.761 94.8984 292.761C94.8984 295.682 97.3637 297.998 100.28 297.815L124.079 296.321C126.773 296.152 128.861 293.899 128.825 291.199L128.683 280.432Z" fill="#FFECDD"/>
<path d="M127.899 221.307L127.758 210.742C127.722 207.971 125.465 205.745 122.694 205.745H99.9628C97.1656 205.745 94.8984 208.012 94.8984 210.809V221.679C94.8984 224.502 97.2073 226.781 100.03 226.743L122.902 226.44C125.699 226.403 127.935 224.105 127.899 221.309V221.307Z" fill="#FFECDD"/>
<path d="M168.407 278.389L168.537 288.205C168.576 291.1 171.029 293.373 173.919 293.192L194.175 291.92C196.844 291.753 198.922 289.539 198.922 286.865V277.43C198.922 274.546 196.518 272.245 193.636 272.371L173.249 273.262C170.515 273.382 168.37 275.653 168.407 278.389Z" fill="#FFECDD"/>
<path d="M198.922 255.93C198.922 253.077 196.566 250.786 193.714 250.868L173.037 251.457C170.271 251.536 168.081 253.819 168.118 256.586L168.222 264.385C168.259 267.242 170.652 269.501 173.506 269.377L195.492 268.417C197.369 268.334 198.852 266.798 198.865 264.92C198.89 261.258 198.922 255.931 198.922 255.931V255.93Z" fill="#FFECDD"/>
<path d="M167.641 220.779C167.679 223.576 169.976 225.813 172.772 225.776L195.425 225.475C197.351 225.449 198.901 223.885 198.904 221.958C198.912 217.634 198.92 210.808 198.92 210.808C198.92 208.011 196.653 205.744 193.856 205.744H172.573C169.75 205.744 167.471 208.053 167.508 210.875L167.64 220.779H167.641Z" fill="#FFECDD"/>
<path d="M128.383 257.872C128.345 255.045 126.001 252.797 123.175 252.878L98.7098 253.575C96.6151 253.635 94.9456 255.344 94.937 257.44C94.9209 261.538 94.8984 267.521 94.8984 267.521C94.8984 270.405 97.3026 272.707 100.183 272.58L123.654 271.554C126.388 271.434 128.533 269.164 128.496 266.428L128.383 257.872Z" fill="#FFECDD"/>
<g style="mix-blend-mode:soft-light" opacity="0.3">
<path d="M193.864 205.744H172.58C169.758 205.744 167.479 208.053 167.516 210.875L167.648 220.779C167.685 223.575 169.982 225.813 172.779 225.776L195.432 225.475C197.358 225.449 198.908 223.885 198.911 221.958C198.918 217.634 198.927 210.808 198.927 210.808C198.927 208.011 196.66 205.744 193.863 205.744H193.864Z" fill="#F4F7FA"/>
<path d="M193.799 229.368L172.833 229.647C170.036 229.684 167.8 231.981 167.836 234.777L167.94 242.586C167.978 245.414 170.322 247.661 173.148 247.581L195.466 246.945C197.368 246.89 198.883 245.339 198.892 243.436C198.908 239.759 198.93 234.43 198.93 234.43C198.93 231.607 196.621 229.328 193.799 229.366V229.368Z" fill="#F4F7FA"/>
<path d="M198.926 286.865V277.43C198.926 274.546 196.522 272.245 193.641 272.371L173.969 273.231C174.274 274.545 174.659 275.991 175.164 277.631C176.601 282.296 178.651 287.37 181.612 292.71L194.18 291.921C196.849 291.754 198.927 289.54 198.927 286.866L198.926 286.865Z" fill="#F4F7FA"/>
<path d="M173.22 269.374C173.319 269.375 173.416 269.38 173.516 269.376L195.502 268.416C197.378 268.333 198.861 266.797 198.874 264.919C198.899 261.257 198.932 255.93 198.932 255.93C198.932 253.076 196.576 250.786 193.723 250.868L173.047 251.457C171.657 251.496 170.413 252.093 169.523 253.028C169.577 253.165 169.632 253.3 169.685 253.438C172.534 260.84 172.402 264.226 173.22 269.373V269.374Z" fill="#F4F7FA"/>
<path d="M158.837 229.832L153.023 229.909C156.802 233.351 160.616 237.072 164.068 242.336L163.968 234.829C163.931 232.031 161.634 229.795 158.837 229.832Z" fill="#F4F7FA"/>
<path d="M163.78 220.831L163.646 210.741C163.609 207.97 161.353 205.744 158.581 205.744H136.704C136.142 205.744 135.605 205.838 135.102 206.006C135.474 207.144 135.923 208.33 136.462 209.572C139.735 217.121 144.125 221.766 148.815 226.094L158.784 225.961C161.58 225.924 163.817 223.627 163.781 220.831H163.78Z" fill="#F4F7FA"/>
</g>
<g style="mix-blend-mode:soft-light" opacity="0.4">
<path d="M190.308 192.799C194.128 192.799 197.224 189.703 197.224 185.884V136.262C197.224 132.567 194.32 129.525 190.63 129.353L110.172 125.612C117.911 135.673 129.579 142.892 135.167 160.221C140.169 175.736 135.148 183.379 133.85 192.798H190.308V192.799Z" fill="white"/>
</g>
<path d="M192.913 120.961V121.156C192.913 122.825 191.472 124.118 189.805 124.047L100.524 120.212C98.9439 120.144 97.6406 118.774 97.6406 117.151V116.962C97.6406 115.339 98.8989 114.077 100.479 114.142L189.816 117.816C191.483 117.885 192.913 119.293 192.913 120.96V120.961Z" fill="#AE2320"/>
<path d="M190.716 120.881V121.076C190.716 122.742 189.402 124.035 187.739 123.964L100.491 120.213C98.9129 120.146 97.6406 118.774 97.6406 117.152V116.963C97.6406 115.34 98.8989 114.078 100.479 114.143L187.709 117.738C189.373 117.807 190.716 119.216 190.716 120.882V120.881Z" fill="#333333"/>
<path d="M191.284 45.4655L188.624 113.355L188.475 117.2C188.322 121.077 185.209 123.934 181.364 123.765L98.8672 120.035C103.359 119.538 103.594 115.536 103.594 115.536C103.594 115.536 103.785 45.3112 103.789 42.8953L109.533 49.2629L113.889 44.4684L118.445 49.4985L120.087 47.7154L122.894 44.6633L127.512 49.7416L132.057 44.8647L136.739 49.9879L141.385 45.0724L146.131 50.2364L150.875 45.278L155.687 50.4912L160.539 45.4901L165.417 50.7493L170.375 45.7043L175.322 51.0149L180.391 45.9249L185.411 51.2826L191.286 45.4644L191.284 45.4655Z" fill="#BFC8D6"/>
<path d="M192.042 45.4655L189.381 113.355L189.233 117.2C189.079 121.077 185.967 123.934 182.122 123.765L99.625 120.035C104.116 119.538 104.352 115.536 104.352 115.536C104.352 115.536 104.543 45.3112 104.547 42.8953L110.291 49.2629L114.647 44.4684L119.202 49.4985L120.845 47.7154L123.652 44.6633L128.27 49.7416L132.815 44.8647L137.497 49.9879L142.142 45.0724L146.889 50.2364L151.633 45.278L156.444 50.4912L161.297 45.4901L166.175 50.7493L171.133 45.7043L176.08 51.0149L181.149 45.9249L186.169 51.2826L192.044 45.4644L192.042 45.4655Z" fill="white"/>
<path d="M180.1 86.7748L169.06 86.3358C168.325 86.3069 167.73 86.8777 167.707 87.6326L167.555 92.7623C167.532 93.5687 168.172 94.2702 168.958 94.298L179.966 94.6889C180.708 94.7157 181.31 94.147 181.337 93.3931L181.517 88.3277C181.546 87.5138 180.9 86.807 180.1 86.7748Z" fill="url(#paint15_linear_1847_186722)"/>
<path d="M179.732 96.789L168.738 96.3767C168.013 96.3499 167.429 96.9089 167.408 97.651L167.251 102.962C167.227 103.765 167.872 104.47 168.658 104.498L179.616 104.909C180.351 104.936 180.943 104.38 180.97 103.636L181.157 98.3439C181.186 97.53 180.534 96.82 179.732 96.79V96.789Z" fill="url(#paint16_linear_1847_186722)"/>
<path d="M182.079 72.3669L182.416 62.8893C182.445 62.0626 181.801 61.359 180.997 61.3376L169.832 61.0495C169.085 61.0302 168.475 61.63 168.452 62.4053L168.173 71.8679C168.149 72.6818 168.785 73.38 169.573 73.4025L180.682 73.7109C181.437 73.7323 182.055 73.139 182.082 72.3658L182.079 72.3669Z" fill="url(#paint17_linear_1847_186722)"/>
<path d="M157.408 85.8721L115.561 84.209C114.897 84.1822 114.371 84.7273 114.366 85.4459L114.328 90.9439C114.323 91.7107 114.916 92.3779 115.626 92.4025L157.342 93.8857C158.053 93.9114 158.625 93.3535 158.645 92.6156L158.78 87.3938C158.8 86.596 158.176 85.9042 157.408 85.8742V85.8721Z" fill="url(#paint18_linear_1847_186722)"/>
<path d="M157.139 95.9418L115.471 94.3805C114.816 94.3558 114.301 94.8891 114.295 95.5949L114.258 101.052C114.252 101.817 114.849 102.485 115.559 102.512L157.094 104.066C157.799 104.093 158.362 103.546 158.381 102.818L158.519 97.4636C158.539 96.6669 157.908 95.9708 157.138 95.9429L157.139 95.9418Z" fill="url(#paint19_linear_1847_186722)"/>
<path d="M159.182 71.7595L159.426 62.2648C159.446 61.4552 158.823 60.7666 158.052 60.7463L115.753 59.6539C115.077 59.6368 114.538 60.2076 114.534 60.9455L114.469 70.4519C114.463 71.2262 115.052 71.8891 115.764 71.9095L157.851 73.0789C158.575 73.0992 159.162 72.5188 159.182 71.7606V71.7595Z" fill="url(#paint20_linear_1847_186722)"/>
<path style="mix-blend-mode:multiply" opacity="0.5" d="M189.381 113.355L189.233 117.2C189.079 121.077 185.967 123.934 182.122 123.765L99.625 120.035C104.116 119.538 104.352 115.536 104.352 115.536C104.352 115.536 104.543 45.3112 104.547 42.8953L110.291 49.2629L114.647 44.4684L119.202 49.4985L120.845 47.7154C124.11 50.5962 127.204 54.5607 129.539 60.0095C130.587 62.4619 131.484 65.2109 132.166 68.2973C132.485 69.7377 132.807 71.0977 133.134 72.3892C134.501 77.7567 135.952 81.8829 137.606 85.0828C139.702 89.1437 142.123 91.7171 145.087 93.4466C146.763 94.4265 148.616 95.1397 150.685 95.6966C152.997 96.3252 155.584 96.7664 158.498 97.1787C161.02 97.5375 163.786 97.878 166.841 98.3074C167.022 98.3331 167.203 98.3588 167.384 98.3878C172.838 99.2274 177.391 101.055 180.977 103.462C185.081 106.212 187.913 109.715 189.382 113.353L189.381 113.355Z" fill="url(#paint21_linear_1847_186722)"/>
<g style="mix-blend-mode:multiply" opacity="0.7">
<path d="M147.248 182.138C148.021 179.727 146.693 177.146 144.281 176.373C141.87 175.6 139.289 176.929 138.516 179.34C137.744 181.751 139.072 184.332 141.483 185.105C143.894 185.878 146.475 184.549 147.248 182.138Z" fill="#F0801E"/>
<path d="M142.883 142.311C133.305 142.311 124.547 145.817 117.818 151.614C116.438 152.804 116.338 154.907 117.628 156.195L117.757 156.325C118.904 157.472 120.746 157.555 121.972 156.495C127.582 151.649 134.887 148.715 142.883 148.715C150.878 148.715 158.183 151.649 163.794 156.495C165.021 157.555 166.863 157.471 168.009 156.325L168.138 156.195C169.427 154.907 169.328 152.804 167.948 151.614C161.219 145.817 152.461 142.311 142.883 142.311Z" fill="#F0801E"/>
<path d="M142.881 152.985C136.263 152.985 130.191 155.304 125.424 159.17C123.997 160.328 123.906 162.477 125.205 163.775L125.228 163.798C126.366 164.936 128.167 164.998 129.421 163.988C133.104 161.023 137.783 159.245 142.881 159.245C147.978 159.245 152.657 161.023 156.34 163.988C157.594 164.998 159.395 164.936 160.533 163.798L160.556 163.775C161.855 162.476 161.764 160.327 160.338 159.17C155.57 155.304 149.498 152.985 142.881 152.985Z" fill="#F0801E"/>
<path d="M132.847 171.411C133.974 172.537 135.722 172.665 137.057 171.793C138.733 170.698 140.735 170.062 142.887 170.062C145.038 170.062 147.041 170.698 148.717 171.793C150.051 172.665 151.799 172.537 152.927 171.411L152.942 171.396C154.323 170.014 154.106 167.717 152.492 166.616C149.756 164.75 146.45 163.657 142.888 163.657C139.326 163.657 136.02 164.75 133.284 166.616C131.67 167.717 131.453 170.014 132.834 171.396L132.849 171.411H132.847Z" fill="#F0801E"/>
</g>
<path d="M254.912 308.031C257.044 309.754 257.165 310.979 257.097 311.575C256.985 312.537 256.26 312.911 254.524 314.727C252.177 317.184 252.536 317.512 251.34 318.401C248.702 320.362 244.97 320.232 244.745 319.565C244.586 319.097 246.274 318.715 248.195 316.491C249.968 314.438 250.567 312.404 250.728 311.808C251.019 310.723 251.095 309.785 251.109 309.136L254.912 308.031Z" fill="url(#paint22_linear_1847_186722)"/>
<path d="M247.773 302.778L251.972 310.095C252.983 310.543 253.95 310.317 254.848 309.013L253.209 300.116L247.773 302.778Z" fill="url(#paint23_linear_1847_186722)"/>
<path d="M242.679 208.921C238.588 215.827 231.951 229.157 230.608 247.18C229.282 264.97 233.771 278.529 235.65 283.585C239.172 293.059 245.298 303.007 248.856 307.749C251.255 306.745 252.668 305.171 255.068 304.168C254.707 302.862 253.594 298.55 252.894 295.982C252.351 293.992 251.351 290.31 251.145 289.523C249.422 282.934 250.782 277.989 250.308 269.841C249.755 260.337 247.577 261.441 247.905 255.736C248.394 247.216 253.222 245.227 258.764 232.895C262.557 224.454 266.542 215.588 262.879 210.741C258.27 204.64 244.243 208.476 242.677 208.921H242.679Z" fill="#AE2320"/>
<path d="M272.282 314.723C273.562 315.537 274.333 317.47 273.75 318.687C273.177 319.884 271.717 319.505 268.17 320.596C264.37 321.763 263.618 322.943 260.818 322.94C259.686 322.939 257.635 322.744 257.464 321.983C257.344 321.449 258.215 320.916 261.081 318.989C265.152 316.255 265.109 316.178 266.018 315.758C268.3 314.704 270.592 313.646 272.281 314.721L272.282 314.723Z" fill="url(#paint24_linear_1847_186722)"/>
<path d="M266.211 308.927L267.77 316.049C267.988 316.369 270.209 317.13 271.764 316.049L271.191 308.927H266.211Z" fill="url(#paint25_linear_1847_186722)"/>
<g style="mix-blend-mode:multiply" opacity="0.3">
<path d="M262.886 210.74C258.277 204.639 244.25 208.475 242.685 208.92C241.003 211.758 238.895 215.696 236.898 220.583C241.87 219.605 244.027 220.493 245.033 221.672C248.935 226.248 236.716 236.353 239.229 251.686C240.212 257.683 242.777 260.381 242.307 267.705C241.957 273.155 240.264 275.915 239.094 279.904C238.391 282.299 237.847 285.243 237.822 288.8C241.336 296.526 245.955 303.874 248.862 307.749C251.262 306.745 252.674 305.171 255.074 304.168C254.713 302.862 253.6 298.55 252.9 295.981C252.357 293.991 251.357 290.309 251.151 289.522C249.428 282.933 250.788 277.988 250.314 269.84C249.761 260.336 247.583 261.44 247.911 255.735C248.4 247.216 253.228 245.226 258.77 232.894C262.563 224.453 266.548 215.587 262.885 210.74H262.886Z" fill="#333333"/>
</g>
<path d="M253.635 212.664C253.238 228.556 253.838 246.971 256.453 267.271C258.582 283.796 261.678 298.705 265.089 311.786C265.56 312.053 267.215 312.91 269.334 312.508C270.835 312.224 271.838 311.447 272.285 311.052C271.912 308.38 271.535 304.336 271.844 299.45C272.376 291.051 274.353 289.341 275.202 280.649C275.946 273.028 275.162 266.801 274.782 263.914C273.611 255.028 272.023 254.845 271.992 249.523C271.944 241.329 275.69 238.393 277.751 230.585C279.125 225.376 279.853 217.601 276.398 206.938C268.811 208.846 261.224 210.755 253.637 212.665L253.635 212.664Z" fill="#AE2320"/>
<path d="M245.527 149.253C242.74 150.818 238.87 153.41 235.263 157.541C226.943 167.069 221.799 182.746 227.146 187.875C230.783 191.365 239.412 190.307 242.384 186.166C244.569 183.121 242.996 179.379 242.241 174.061C241.429 168.339 241.458 160.04 245.527 149.253Z" fill="#333333"/>
<path d="M277.834 210.77C274.753 170.164 264.931 153.541 265.789 148.607C264.553 147.718 259.669 146.306 248.605 147.762C247.66 148.109 245.136 149.128 242.635 151.415C242.635 151.415 242.054 151.945 241.258 152.877C249.03 154.345 256.948 158.77 259.799 165.041C264.735 177.031 255.566 190.433 259.799 201.012C262.023 206.572 265.58 211.5 269.828 216.107C274.684 214.896 278.012 213.112 277.834 210.771V210.77Z" fill="url(#paint26_linear_1847_186722)"/>
<g style="mix-blend-mode:multiply" opacity="0.3">
<path d="M276.393 206.937C274.172 207.496 271.951 208.055 269.73 208.614C270.892 212.616 272.007 218.621 270.666 225.44C268.814 234.855 264.027 236.921 263.324 245.411C262.691 253.049 266.296 254.607 268.023 264.795C269.792 275.235 267.115 280.145 266.555 288.877C266.171 294.853 266.793 302.672 270.429 312.187C271.328 311.831 271.955 311.34 272.281 311.052C271.908 308.38 271.531 304.336 271.841 299.45C272.372 291.051 274.349 289.341 275.198 280.65C275.942 273.028 275.158 266.802 274.778 263.914C273.608 255.028 272.019 254.845 271.988 249.523C271.94 241.329 275.686 238.393 277.747 230.585C279.121 225.377 279.849 217.601 276.394 206.938L276.393 206.937Z" fill="#333333"/>
</g>
<path d="M242.635 151.414C242.635 151.414 239.691 154.092 237.974 158.028C235.388 163.957 238.174 169.047 239.009 178.73C239.926 189.351 238.629 207.045 235.641 213.383C235.588 213.494 235.46 213.809 235.512 214.209C236.32 220.336 278.455 218.947 277.835 210.77C274.754 170.164 264.932 153.541 265.79 148.607C264.554 147.718 259.67 146.306 248.606 147.762C247.661 148.109 245.137 149.128 242.635 151.415V151.414Z" fill="#333333"/>
<path d="M255.163 137.564C255.163 137.564 257.885 146.104 258.766 147.133C259.647 148.161 255.229 150.846 251.843 149.635C248.733 148.523 251.845 143.783 251.845 143.783L255.163 137.564Z" fill="white"/>
<path d="M244.416 142.211C242.582 141.433 241.127 139.065 241.441 136.853C241.712 134.95 243.223 133.826 244.127 133.154C246.747 131.205 250.967 130.327 253.695 132.198C255.311 133.306 255.573 137.402 255.657 138.116C255.751 138.925 255.372 139.441 255.186 140.202C254.926 141.256 254.532 142.925 253.912 145.69C253.475 145.233 252.897 144.688 252.172 144.154C251.893 143.949 250.788 143.155 249.544 142.687C247.049 141.75 246.157 142.945 244.418 142.208L244.416 142.211Z" fill="url(#paint27_linear_1847_186722)"/>
<path d="M255.408 142.803C255.408 142.803 255.315 146.899 251.502 148.786C248.088 150.476 243.337 143.377 244.532 140.594C244.93 139.666 246.209 138.637 247.536 138.296C248.32 138.095 248.71 138.243 249.984 137.889C251.159 137.563 251.383 137.283 251.841 137.364C252.415 137.465 253.158 138.097 253.762 140.628C254.023 139.629 254.634 138.948 255.314 138.892C255.422 138.883 255.737 138.906 255.999 139.065C256.947 139.641 256.8 141.163 255.408 142.803Z" fill="white"/>
<path d="M251.731 136.837C251.641 137.047 252.469 137.358 252.99 138.175C254.001 139.762 253.485 142.666 251.901 143.803C250.965 144.476 250.346 144.034 248.603 144.811C247.525 145.292 246.754 145.911 246.289 146.335C246.805 148.417 248.32 149.915 249.989 150.05C251.787 150.195 253.114 148.708 253.67 148.086C254.041 147.669 255.233 146.339 255.222 144.547C255.209 142.68 253.934 142.288 254.303 140.807C254.488 140.059 254.976 139.5 255.032 138.23C255.047 137.885 255.026 137.6 255.004 137.412C253.634 137.004 251.862 136.533 251.731 136.837Z" fill="url(#paint28_linear_1847_186722)"/>
<path d="M247.871 146.306C247.871 146.306 248.797 146.265 249.984 145.486C250.042 145.449 250.118 145.428 250.144 145.454C250.239 145.554 249.754 146.533 248.91 146.748C248.31 146.901 247.627 146.645 247.625 146.481C247.625 146.412 247.745 146.352 247.871 146.306Z" fill="white"/>
<g style="mix-blend-mode:multiply" opacity="0.4">
<path d="M265.952 174.915C261.354 176.529 255.253 181.065 254.843 186.878C254.215 195.805 267.509 200.704 265.738 206.959C265.255 208.665 263.728 210.203 253.775 213.794C249.747 215.248 246.006 216.433 242.609 217.414C254.788 219.209 278.296 216.893 277.832 210.77C276.653 195.226 274.485 183.206 272.308 174C270.102 173.914 267.956 174.211 265.952 174.915Z" fill="#AE2320"/>
</g>
<path d="M251.477 193.181C258.956 200.773 269.634 203.166 277.842 199.367C289.243 194.092 291.006 179.134 288.348 169.774C283.91 154.146 264.57 145.032 258.477 149.196C254.07 152.206 254.113 163.855 259.364 169.686C264.084 174.927 271.334 173.603 273.306 178.942C274.783 182.94 271.929 186.97 271.684 187.307C268.509 191.652 261.591 193.127 255.049 190.142C253.858 191.155 252.667 192.169 251.477 193.182V193.181Z" fill="#333333"/>
<path d="M236.668 180.095C237.278 178.138 239.256 177.136 240.813 176.92C242.337 176.708 244.847 177.054 245.847 179.046C246.782 180.908 246.047 183.514 243.898 184.928C243.596 184.177 243.053 183.19 242.099 182.891C240.343 182.341 238.821 184.628 237.524 184.031C236.49 183.554 236.222 181.531 236.669 180.096L236.668 180.095Z" fill="white"/>
<path d="M243.851 191.953L249.607 192.954C250.721 193.147 251.679 192.152 251.441 191.045L249.347 181.309C249.195 180.604 248.591 180.089 247.872 180.05L240.98 179.682C239.843 179.621 239.01 180.737 239.39 181.81L242.619 190.915C242.812 191.458 243.282 191.855 243.85 191.953H243.851Z" fill="url(#paint29_linear_1847_186722)"/>
<path d="M253.895 191.122C253.422 187.732 251.993 186.845 251.475 186.592C250.608 186.169 250.181 186.498 247.153 186.45C244.448 186.407 243.808 186.13 243.465 186.592C242.817 187.468 244.148 189.772 245.657 191.122C247.772 193.016 250.396 193.177 251.475 193.179L253.895 191.122Z" fill="white"/>
<path d="M82.4588 253.59C81.9672 253.59 81.5474 253.216 81.5003 252.717C80.6564 243.857 77.7671 235.441 73.3667 229.016C69.4686 223.324 64.8273 219.927 60.9495 219.927H60.9367C46.8135 219.955 43.8588 252.381 43.831 252.708C43.7849 253.239 43.3201 253.632 42.7879 253.587C42.2578 253.541 41.8648 253.074 41.9098 252.544C42.0308 251.134 45.055 218.029 60.9334 217.998H60.9506C65.5319 217.998 70.637 221.616 74.9581 227.925C79.5395 234.615 82.5455 243.355 83.4205 252.534C83.4708 253.064 83.082 253.535 82.5519 253.586C82.5209 253.589 82.4898 253.59 82.4599 253.59H82.4588Z" fill="url(#paint30_linear_1847_186722)"/>
<path d="M23.6198 320.326L42.212 329.739L53.4769 295.171L34.9158 248.827L29.6523 250.118L21.6665 316.676C21.4855 318.183 22.2662 319.641 23.6198 320.327V320.326Z" fill="url(#paint31_linear_1847_186722)"/>
<g style="mix-blend-mode:multiply" opacity="0.35">
<path d="M53.4756 295.17L34.9146 248.826L31.81 249.588C31.3795 255.776 31.5691 260.868 31.8614 264.575C33.1058 280.354 37.2385 284.745 35.2359 295.752C33.5717 304.905 29.9359 306.147 30.254 312.305C30.5999 319.011 35.2776 324.628 40.8389 329.044L42.2107 329.738L53.4756 295.17Z" fill="url(#paint32_linear_1847_186722)"/>
</g>
<path d="M34.9141 248.826H104.237L127.18 322.892L42.2113 329.739L34.9141 248.826Z" fill="url(#paint33_linear_1847_186722)"/>
<path d="M56.3912 255.175C55.9532 255.175 55.5581 254.875 55.4531 254.43C55.2561 253.591 50.7015 233.745 57.1237 224.005C58.9646 221.213 61.5359 219.509 64.7668 218.939C81.3681 216.015 91.5889 251.671 92.0162 253.19C92.1597 253.703 91.8609 254.235 91.349 254.379C90.8361 254.524 90.3038 254.224 90.1603 253.712C90.0607 253.356 79.9984 218.209 65.102 220.839C62.3755 221.32 60.2926 222.702 58.7333 225.067C52.7641 234.121 57.2844 253.793 57.3304 253.991C57.4525 254.51 57.1302 255.029 56.6118 255.15C56.538 255.167 56.4641 255.176 56.3912 255.176V255.175Z" fill="url(#paint34_linear_1847_186722)"/>
<g style="mix-blend-mode:multiply" opacity="0.35">
<path d="M104.243 248.826H69.8526C68.1563 250.552 66.9526 252.54 66.838 254.77C66.2972 265.249 90.3884 268.692 92.7112 283.054C94.3872 293.415 84.0743 305.369 74.873 310.695C65.1781 316.307 58.6091 313.465 52.053 319.695C49.1722 322.432 47.4181 325.855 46.375 329.403L127.186 322.892L104.244 248.826H104.243Z" fill="url(#paint35_linear_1847_186722)"/>
</g>
<path d="M59.0556 255.761C59.294 254.293 58.2966 252.909 56.8277 252.67C55.3589 252.432 53.9748 253.429 53.7364 254.898C53.498 256.367 54.4954 257.751 55.9643 257.989C57.4331 258.228 58.8172 257.23 59.0556 255.761Z" fill="url(#paint36_linear_1847_186722)"/>
<path d="M91.5382 257.764C93.0262 257.764 94.2326 256.558 94.2326 255.07C94.2326 253.582 93.0262 252.375 91.5382 252.375C90.0501 252.375 88.8438 253.582 88.8438 255.07C88.8438 256.558 90.0501 257.764 91.5382 257.764Z" fill="url(#paint37_linear_1847_186722)"/>
<path d="M236.64 37.3454C236.64 57.1339 220.351 73.782 199.591 74.5532C178.057 75.3532 160 58.8812 160 37.7355C160 16.5897 178.057 -0.0663527 199.591 0.514755C220.351 1.07497 236.64 17.5569 236.64 37.3454Z" fill="url(#paint38_linear_1847_186722)"/>
<path d="M238.554 37.3454C238.554 57.1339 222.265 73.782 201.505 74.5532C179.971 75.3532 161.914 58.8812 161.914 37.7355C161.914 16.5897 179.971 -0.0663527 201.505 0.514755C222.265 1.07497 238.554 17.5569 238.554 37.3454Z" fill="url(#paint39_linear_1847_186722)"/>
<path style="mix-blend-mode:multiply" opacity="0.3" d="M233.827 37.3692C233.827 54.6353 219.581 69.1012 201.502 69.6973C182.838 70.3122 167.258 55.9985 167.258 37.7075C167.258 19.4166 182.837 4.94461 201.501 5.37049C219.58 5.78244 233.826 20.1041 233.826 37.3702L233.827 37.3692Z" fill="url(#paint40_linear_1847_186722)"/>
<path d="M231.476 37.3772C231.476 53.8144 217.904 67.5679 200.703 68.1112C182.973 68.6714 168.195 55.0622 168.195 37.6996C168.195 20.337 182.973 6.57751 200.703 6.95662C217.904 7.32479 231.476 20.94 231.476 37.3772Z" fill="url(#paint41_linear_1847_186722)"/>
<g filter="url(#filter0_d_1847_186722)">
<path d="M211.245 36.899C211.267 39.5539 211.076 41.9348 210.674 44.0417C210.287 46.1478 209.642 47.9523 208.74 49.4552C207.853 50.9572 206.679 52.1292 205.217 52.9711C203.756 53.813 201.976 54.2889 199.879 54.3988C197.243 54.537 195.073 53.983 193.369 52.7367C191.665 51.4755 190.399 49.6061 189.569 47.1286C188.74 44.636 188.31 41.6273 188.281 38.1025C188.252 34.5476 188.594 31.4909 189.308 28.9326C190.036 26.3584 191.233 24.3524 192.9 22.9145C194.566 21.4766 196.8 20.6843 199.601 20.5375C202.223 20.4001 204.385 20.962 206.089 22.2233C207.808 23.4687 209.089 25.3373 209.934 27.8291C210.779 30.3058 211.216 33.3291 211.245 36.899ZM195.179 37.7409C195.2 40.2459 195.352 42.3312 195.635 43.997C195.934 45.6471 196.416 46.8748 197.082 47.6802C197.748 48.4856 198.665 48.8577 199.833 48.7965C200.987 48.7361 201.89 48.2761 202.542 47.4166C203.209 46.5413 203.678 45.2637 203.949 43.5838C204.22 41.889 204.345 39.7816 204.324 37.2617C204.304 34.7568 204.144 32.6718 203.846 31.0068C203.547 29.3417 203.058 28.1069 202.377 27.3022C201.711 26.4818 200.801 26.1018 199.648 26.1623C198.479 26.2235 197.569 26.6989 196.917 27.5884C196.265 28.4629 195.803 29.7476 195.532 31.4425C195.276 33.1365 195.159 35.236 195.179 37.7409Z" fill="white"/>
</g>
</g>
<defs>
<filter id="filter0_d_1847_186722" x="184.301" y="19.9346" width="27.0822" height="36.9847" filterUnits="userSpaceOnUse" color-interpolation-filters="sRGB">
<feFlood flood-opacity="0" result="BackgroundImageFix"/>
<feColorMatrix in="SourceAlpha" type="matrix" values="0 0 0 0 0 0 0 0 0 0 0 0 0 0 0 0 0 0 127 0" result="hardAlpha"/>
<feOffset dx="-2.88" dy="0.96"/>
<feGaussianBlur stdDeviation="0.48"/>
<feComposite in2="hardAlpha" operator="out"/>
<feColorMatrix type="matrix" values="0 0 0 0 0 0 0 0 0 0 0 0 0 0 0 0 0 0 0.25 0"/>
<feBlend mode="normal" in2="BackgroundImageFix" result="effect1_dropShadow_1847_186722"/>
<feBlend mode="normal" in="SourceGraphic" in2="effect1_dropShadow_1847_186722" result="shape"/>
</filter>
<linearGradient id="paint0_linear_1847_186722" x1="143.36" y1="103.692" x2="143.36" y2="321.081" gradientUnits="userSpaceOnUse">
<stop stop-color="#FFEE02"/>
<stop offset="1" stop-color="#F0801E"/>
</linearGradient>
<linearGradient id="paint1_linear_1847_186722" x1="157.478" y1="104.58" x2="157.478" y2="310.363" gradientUnits="userSpaceOnUse">
<stop stop-color="#F0801E"/>
<stop offset="1" stop-color="#FFEE02"/>
</linearGradient>
<linearGradient id="paint2_linear_1847_186722" x1="89.8949" y1="133.859" x2="100.164" y2="187.106" gradientUnits="userSpaceOnUse">
<stop stop-color="#FF1700"/>
<stop offset="1" stop-color="#550E00"/>
</linearGradient>
<linearGradient id="paint3_linear_1847_186722" x1="129.237" y1="232.125" x2="131.816" y2="247.004" gradientUnits="userSpaceOnUse">
<stop stop-color="#FF1700"/>
<stop offset="1" stop-color="#550E00"/>
</linearGradient>
<linearGradient id="paint4_linear_1847_186722" x1="128.915" y1="208.261" x2="131.974" y2="224.425" gradientUnits="userSpaceOnUse">
<stop stop-color="#FF1700"/>
<stop offset="1" stop-color="#550E00"/>
</linearGradient>
<linearGradient id="paint5_linear_1847_186722" x1="165.144" y1="231.588" x2="167.652" y2="246.025" gradientUnits="userSpaceOnUse">
<stop stop-color="#FF1700"/>
<stop offset="1" stop-color="#550E00"/>
</linearGradient>
<linearGradient id="paint6_linear_1847_186722" x1="129.534" y1="254.189" x2="132.2" y2="269.307" gradientUnits="userSpaceOnUse">
<stop stop-color="#FF1700"/>
<stop offset="1" stop-color="#550E00"/>
</linearGradient>
<linearGradient id="paint7_linear_1847_186722" x1="92.1441" y1="232.676" x2="94.7895" y2="248.023" gradientUnits="userSpaceOnUse">
<stop stop-color="#FF1700"/>
<stop offset="1" stop-color="#550E00"/>
</linearGradient>
<linearGradient id="paint8_linear_1847_186722" x1="129.83" y1="276.524" x2="133.206" y2="293.472" gradientUnits="userSpaceOnUse">
<stop stop-color="#FF1700"/>
<stop offset="1" stop-color="#550E00"/>
</linearGradient>
<linearGradient id="paint9_linear_1847_186722" x1="119.198" y1="317.315" x2="123.391" y2="331.508" gradientUnits="userSpaceOnUse">
<stop stop-color="#311944"/>
<stop offset="1" stop-color="#893976"/>
</linearGradient>
<linearGradient id="paint10_linear_1847_186722" x1="92.1536" y1="208.323" x2="95.2773" y2="224.877" gradientUnits="userSpaceOnUse">
<stop stop-color="#FF1700"/>
<stop offset="1" stop-color="#550E00"/>
</linearGradient>
<linearGradient id="paint11_linear_1847_186722" x1="165.74" y1="274.925" x2="169.049" y2="291.265" gradientUnits="userSpaceOnUse">
<stop stop-color="#FF1700"/>
<stop offset="1" stop-color="#550E00"/>
</linearGradient>
<linearGradient id="paint12_linear_1847_186722" x1="165.442" y1="253.126" x2="168.054" y2="267.778" gradientUnits="userSpaceOnUse">
<stop stop-color="#FF1700"/>
<stop offset="1" stop-color="#550E00"/>
</linearGradient>
<linearGradient id="paint13_linear_1847_186722" x1="164.813" y1="208.2" x2="167.8" y2="223.989" gradientUnits="userSpaceOnUse">
<stop stop-color="#FF1700"/>
<stop offset="1" stop-color="#550E00"/>
</linearGradient>
<linearGradient id="paint14_linear_1847_186722" x1="125.553" y1="315.438" x2="129.747" y2="329.63" gradientUnits="userSpaceOnUse">
<stop stop-color="#311944"/>
<stop offset="1" stop-color="#893976"/>
</linearGradient>
<linearGradient id="paint15_linear_1847_186722" x1="174.165" y1="46.7045" x2="175.372" y2="189.142" gradientUnits="userSpaceOnUse">
<stop offset="0.49" stop-color="#EBEFF2"/>
<stop offset="1" stop-color="white"/>
</linearGradient>
<linearGradient id="paint16_linear_1847_186722" x1="173.755" y1="47.7315" x2="174.938" y2="187.265" gradientUnits="userSpaceOnUse">
<stop offset="0.49" stop-color="#EBEFF2"/>
<stop offset="1" stop-color="white"/>
</linearGradient>
<linearGradient id="paint17_linear_1847_186722" x1="175.114" y1="46.2592" x2="176.341" y2="191.101" gradientUnits="userSpaceOnUse">
<stop offset="0.49" stop-color="#EBEFF2"/>
<stop offset="1" stop-color="white"/>
</linearGradient>
<linearGradient id="paint18_linear_1847_186722" x1="136.179" y1="44.929" x2="137.345" y2="182.64" gradientUnits="userSpaceOnUse">
<stop offset="0.49" stop-color="#EBEFF2"/>
<stop offset="1" stop-color="white"/>
</linearGradient>
<linearGradient id="paint19_linear_1847_186722" x1="135.95" y1="47.482" x2="137.062" y2="178.648" gradientUnits="userSpaceOnUse">
<stop offset="0.49" stop-color="#EBEFF2"/>
<stop offset="1" stop-color="white"/>
</linearGradient>
<linearGradient id="paint20_linear_1847_186722" x1="136.764" y1="44.5937" x2="137.95" y2="184.529" gradientUnits="userSpaceOnUse">
<stop offset="0.49" stop-color="#EBEFF2"/>
<stop offset="1" stop-color="white"/>
</linearGradient>
<linearGradient id="paint21_linear_1847_186722" x1="99.625" y1="83.334" x2="189.381" y2="83.334" gradientUnits="userSpaceOnUse">
<stop offset="0.49" stop-color="#EBEFF2"/>
<stop offset="1" stop-color="white"/>
</linearGradient>
<linearGradient id="paint22_linear_1847_186722" x1="245.003" y1="313.769" x2="256.977" y2="314.325" gradientUnits="userSpaceOnUse">
<stop stop-color="#444B8C"/>
<stop offset="1" stop-color="#26264F"/>
</linearGradient>
<linearGradient id="paint23_linear_1847_186722" x1="254.979" y1="299.881" x2="248.452" y2="310.603" gradientUnits="userSpaceOnUse">
<stop stop-color="#FFC444"/>
<stop offset="1" stop-color="#F36F56"/>
</linearGradient>
<linearGradient id="paint24_linear_1847_186722" x1="257.453" y1="318.608" x2="273.947" y2="318.608" gradientUnits="userSpaceOnUse">
<stop stop-color="#444B8C"/>
<stop offset="1" stop-color="#26264F"/>
</linearGradient>
<linearGradient id="paint25_linear_1847_186722" x1="266.436" y1="317.77" x2="272.793" y2="304.613" gradientUnits="userSpaceOnUse">
<stop stop-color="#FFC444"/>
<stop offset="1" stop-color="#F36F56"/>
</linearGradient>
<linearGradient id="paint26_linear_1847_186722" x1="249.588" y1="136.782" x2="273.485" y2="221.541" gradientUnits="userSpaceOnUse">
<stop stop-color="#311944"/>
<stop offset="1" stop-color="#893976"/>
</linearGradient>
<linearGradient id="paint27_linear_1847_186722" x1="265.505" y1="150.467" x2="245.035" y2="134.086" gradientUnits="userSpaceOnUse">
<stop stop-color="#311944"/>
<stop offset="1" stop-color="#6B3976"/>
</linearGradient>
<linearGradient id="paint28_linear_1847_186722" x1="263.54" y1="152.942" x2="243.047" y2="136.542" gradientUnits="userSpaceOnUse">
<stop stop-color="#311944"/>
<stop offset="1" stop-color="#6B3976"/>
</linearGradient>
<linearGradient id="paint29_linear_1847_186722" x1="234.98" y1="168.857" x2="250.533" y2="193.167" gradientUnits="userSpaceOnUse">
<stop stop-color="#40447E"/>
<stop offset="1" stop-color="#3C3B6B"/>
</linearGradient>
<linearGradient id="paint30_linear_1847_186722" x1="37.3852" y1="230.111" x2="45.8229" y2="233.245" gradientUnits="userSpaceOnUse">
<stop stop-color="#444B8C"/>
<stop offset="1" stop-color="#26264F"/>
</linearGradient>
<linearGradient id="paint31_linear_1847_186722" x1="20.6281" y1="259.242" x2="52.3774" y2="301.367" gradientUnits="userSpaceOnUse">
<stop stop-color="#FF1700"/>
<stop offset="1" stop-color="#550E00"/>
</linearGradient>
<linearGradient id="paint32_linear_1847_186722" x1="29.4952" y1="259.241" x2="62.5057" y2="291.215" gradientUnits="userSpaceOnUse">
<stop stop-color="#FF1700"/>
<stop offset="1" stop-color="#550E00"/>
</linearGradient>
<linearGradient id="paint33_linear_1847_186722" x1="31.9797" y1="259.241" x2="48.07" y2="321.112" gradientUnits="userSpaceOnUse">
<stop stop-color="#FF1700"/>
<stop offset="1" stop-color="#550E00"/>
</linearGradient>
<linearGradient id="paint34_linear_1847_186722" x1="67.6701" y1="215.57" x2="74.419" y2="258.599" gradientUnits="userSpaceOnUse">
<stop stop-color="#444B8C"/>
<stop offset="1" stop-color="#26264F"/>
</linearGradient>
<linearGradient id="paint35_linear_1847_186722" x1="43.8049" y1="259.198" x2="61.6918" y2="319.689" gradientUnits="userSpaceOnUse">
<stop stop-color="#FF1700"/>
<stop offset="1" stop-color="#550E00"/>
</linearGradient>
<linearGradient id="paint36_linear_1847_186722" x1="52.7701" y1="253.977" x2="53.856" y2="254.381" gradientUnits="userSpaceOnUse">
<stop stop-color="#444B8C"/>
<stop offset="1" stop-color="#26264F"/>
</linearGradient>
<linearGradient id="paint37_linear_1847_186722" x1="87.9024" y1="253.719" x2="88.9883" y2="254.123" gradientUnits="userSpaceOnUse">
<stop stop-color="#444B8C"/>
<stop offset="1" stop-color="#26264F"/>
</linearGradient>
<linearGradient id="paint38_linear_1847_186722" x1="184.525" y1="6.13975" x2="232.29" y2="115.216" gradientUnits="userSpaceOnUse">
<stop stop-color="#311944"/>
<stop offset="1" stop-color="#893976"/>
</linearGradient>
<linearGradient id="paint39_linear_1847_186722" x1="186.439" y1="6.13975" x2="234.203" y2="115.216" gradientUnits="userSpaceOnUse">
<stop stop-color="#5B0800"/>
<stop offset="1" stop-color="#FF0000"/>
</linearGradient>
<linearGradient id="paint40_linear_1847_186722" x1="188.561" y1="10.2611" x2="230.054" y2="105.015" gradientUnits="userSpaceOnUse">
<stop stop-color="#FF1700"/>
<stop offset="1"/>
</linearGradient>
<linearGradient id="paint41_linear_1847_186722" x1="203.108" y1="6.16954" x2="191.276" y2="119.69" gradientUnits="userSpaceOnUse">
<stop stop-color="#FF0101"/>
<stop offset="1" stop-color="#790000"/>
</linearGradient>
<clipPath id="clip0_1847_186722">
<rect width="300" height="330" fill="white" transform="translate(0 0.5)"/>
</clipPath>
</defs>
</svg>
