<svg width="125" height="82" viewBox="0 0 125 82" fill="none" xmlns="http://www.w3.org/2000/svg">
<path fill-rule="evenodd" clip-rule="evenodd" d="M60.5549 67.5324C35.6401 64.3365 25.9828 37.0567 36.5217 16.109C37.243 14.6056 38.6956 12.1664 40.9296 9.48819C40.4888 8.18394 38.6856 2.00118 39.5872 1.27438C40.7894 1.27438 43.5042 6.53122 44.2856 6.53122C49.3948 2.46912 54.8346 0.318596 61.3964 0C61.4565 0 61.5166 0 61.5667 0C80.8212 0.288728 92.5223 16.9851 92.6124 34.4482C92.6124 34.5975 92.6124 34.7369 92.6124 34.9161C91.0696 51.8913 81.6628 65.6208 63.6404 67.5424C62.6286 67.5324 61.6067 67.5324 60.5549 67.5324Z" fill="black"/>
<path fill-rule="evenodd" clip-rule="evenodd" d="M30.4408 62.3861C29.1786 60.1858 28.307 60.7931 26.5639 61.1615C26.0329 61.2312 25.0712 60.9524 24.4 61.0121C23.5585 61.0619 22.2061 61.4203 21.3946 61.1913C20.483 60.8827 19.3509 60.9424 18.4293 61.2411C18.6296 60.6139 18.82 59.9866 19.0704 59.3793C19.401 58.9512 19.8618 58.543 20.2125 58.1149C21.2443 56.7409 20.3728 55.0783 18.6897 55.0683C18.0987 55.0783 17.5277 55.2177 16.9366 55.2077C16.0951 55.1778 15.4539 54.9588 14.5323 55.0086C12.6689 55.2475 12.4485 56.3726 12.8593 58.1049V58.1149C12.3984 60.9026 11.3065 64.9647 10.1043 66.8265C10.2045 64.4669 10.7755 62.177 10.7855 59.7676C10.7855 57.4777 10.3748 54.909 7.68999 54.9389C6.98873 55.0384 6.14722 55.1878 5.44596 55.2276L2.39047 54.9887C-0.73514 55.1281 -0.514744 57.7863 1.43876 59.0607C4.99515 61.4004 0.617288 70.0125 7.94044 71.9041C6.69821 74.3633 5.09533 76.9021 2.48063 78.0172C-0.524762 79.5604 1.20835 82.0395 4.11357 81.9996H9.90397H9.94404H10.0342H10.1244H10.2145H10.3047H10.3848H10.465H10.5551H10.6152H10.6754H10.7355H10.7956H10.8657L10.9258 81.9897H10.9458H122.316C126.012 81.9698 125.351 79.4509 123.548 78.0371C122.837 75.9861 121.424 66.7269 120.893 63.9293C121.534 60.9723 119.11 59.8273 116.145 61.948C115.123 62.8042 114.502 63.6505 113.77 64.7357C111.747 61.9679 111.146 60.594 107.509 60.7831C106.878 62.5752 106.377 64.3474 105.576 66.0798C104.945 63.6107 103.482 60.8727 100.567 60.803C99.6752 60.803 98.8637 61.0719 98.0422 61.0918C97.1506 61.1017 96.4193 60.9922 95.5478 60.823C93.8547 61.3905 92.923 61.8584 91.7309 63.4713C90.2583 55.9544 79.4288 53.0771 73.1876 55.9345L72.9973 56.054L72.8169 56.1934L72.6466 56.3427L72.4863 56.502L72.3361 56.6812L72.2058 56.8704L72.0856 57.0595L71.9854 57.2587L71.8953 57.4677L71.8252 57.6768L71.7751 57.8859L71.735 58.095L71.7049 58.3041L71.6849 58.5131V58.7023V58.9612V59.1902V59.4092V59.6183V59.8174V60.0066V60.1957L71.6949 60.3749L71.7049 60.5442L71.715 60.7035L71.725 60.8528L71.735 60.9922L71.745 61.1316L71.755 61.261L71.7651 61.3905L71.7851 61.5199L71.8252 61.7588L71.8853 62.0177L71.9754 62.2865L72.1157 62.5852L72.3461 62.9137L72.7067 63.2423L73.1976 63.4812L73.2577 63.4912L73.2277 63.6007L73.1976 63.7301L73.1676 63.8695L71.9955 63.8894L71.9454 63.7501L71.8953 63.6107L71.8352 63.4613L71.7751 63.3219L71.715 63.1826L71.6448 63.0432L71.5747 62.9038L71.4946 62.7744L71.4144 62.6449L71.3243 62.5155L71.2341 62.3861L71.1439 62.2666L71.0438 62.1471L70.9436 62.0276L70.8334 61.9082L70.7232 61.7987L70.603 61.6891L70.4727 61.5796L70.3225 61.4601L70.1421 61.3407L69.9518 61.2312L69.7514 61.1415L69.531 61.0619L69.3006 61.0022L69.0702 60.9723L68.8699 60.9623H68.7196H68.5994H68.4791H68.3589L68.2287 60.9723L68.0985 60.9823L67.9682 60.9922L67.838 61.0022L67.7178 61.0121L67.6076 61.0221L67.5074 61.032H67.4273H67.3571H67.297H67.257L61.6769 60.813H61.5567L61.4565 60.823L61.3764 60.8329L61.3063 60.9325L61.2462 60.9424L61.1861 60.9524L61.136 60.9623L59.8036 60.8329C58.7417 60.8628 58.1807 61.1017 57.6798 62.1073C57.3091 61.1316 56.5377 60.8727 55.576 60.8329C54.9148 60.9225 54.1935 61.042 53.5323 61.0918C52.781 61.1216 51.9094 60.9225 51.128 60.9126C50.2965 60.9225 49.2747 61.0022 48.4432 61.0918H48.4332C47.5516 61.0719 46.6099 60.8926 45.7283 60.9225C44.6564 61.0221 43.895 61.4502 43.7047 62.6549C43.0134 61.5398 42.1919 60.8329 40.7994 60.8429C39.7175 60.8727 38.866 61.0918 37.8341 61.2312L37.794 61.2411L32.4545 61.0221C31.4727 61.0519 30.8215 61.3805 30.4408 62.3861Z" fill="black"/>
<path fill-rule="evenodd" clip-rule="evenodd" d="M21.8752 62.8535C21.5346 62.8535 21.2341 62.8137 20.9535 62.7241C20.673 62.6445 20.4126 62.5947 20.1721 62.5947C19.6913 62.5947 19.2805 62.6445 18.96 62.7341C18.6294 62.8336 18.4691 62.9531 18.4691 63.0925C18.4691 63.2817 18.5092 63.441 18.5793 63.5604C18.6494 63.6799 18.7396 63.8193 18.8297 63.9786C18.9299 64.1379 19.0101 64.3171 19.0802 64.5361C19.1503 64.7552 19.1904 65.0539 19.1904 65.4322C19.1904 67.4234 19.1804 69.0263 19.1703 70.231C19.1603 71.4457 19.1203 72.4015 19.0601 73.1084C19 73.8152 18.9199 74.333 18.8097 74.6715C18.6995 75.01 18.5492 75.2788 18.3589 75.4978C18.2587 75.6173 18.1886 75.697 18.1285 75.7467C18.0684 75.7965 18.0383 75.8463 18.0383 75.8861C18.0383 76.0753 18.2287 76.1748 18.6194 76.1748C19.0101 76.1748 19.4008 76.145 19.7915 76.0852C20.1922 76.0255 20.5528 75.9956 20.8934 75.9956C21.3543 75.9956 21.8251 76.0155 22.326 76.0653C22.8169 76.1151 23.2377 76.135 23.5783 76.135C23.9389 76.135 24.1192 76.0554 24.1192 75.8861C24.1192 75.7467 23.9389 75.5576 23.5783 75.3485C23.0673 75.01 22.7067 74.4923 22.4963 73.7854C22.2759 73.0785 22.1657 72.0032 22.1657 70.5695C22.1657 70.3107 22.1858 69.8029 22.2158 69.0562C22.2559 68.3095 22.326 67.5528 22.4462 66.7763C22.5664 65.9997 22.7568 65.3028 23.0072 64.7054C23.2577 64.108 23.6083 63.8093 24.0391 63.8093C24.4699 63.8093 24.8305 63.9089 25.121 64.0981C25.4116 64.2872 25.642 64.5461 25.8223 64.8746C26.0026 65.2032 26.1329 65.5616 26.203 65.9499C26.2731 66.3481 26.3132 66.7563 26.3132 67.1944C26.3132 67.4632 26.2631 67.9212 26.1729 68.5783C26.0727 69.2354 25.9726 69.9423 25.8624 70.699C25.7522 71.4556 25.662 72.1924 25.5718 72.9092C25.4917 73.6261 25.4416 74.1836 25.4416 74.562C25.4416 75.1892 25.5017 75.6073 25.6219 75.8363C25.7421 76.0653 25.9525 76.1748 26.233 76.1748C26.3532 76.1748 26.5837 76.1549 26.9243 76.1251C27.2649 76.0852 27.5253 76.0753 27.7157 76.0753C27.906 76.0753 28.1966 76.0952 28.5873 76.1251C28.978 76.1649 29.2885 76.1748 29.5289 76.1748C29.8696 76.1748 30.14 76.1151 30.3404 75.9956C30.5408 75.8762 30.651 75.7368 30.651 75.5675C30.651 75.448 30.5307 75.3684 30.2903 75.3186C29.9497 75.2489 29.6792 75.0996 29.4588 74.8706C29.2384 74.6416 29.0681 74.3728 28.9479 74.0641C28.8277 73.7555 28.7475 73.417 28.7175 73.0586C28.6774 72.7002 28.6674 72.3517 28.6674 72.0132C28.6674 71.7444 28.7075 71.3063 28.7976 70.6791C28.8778 70.0518 28.9679 69.3848 29.0481 68.6679C29.1282 67.9511 29.2184 67.2442 29.2985 66.5672C29.3787 65.8802 29.4288 65.3426 29.4288 64.9344C29.4288 64.6954 29.4087 64.4266 29.3586 64.1379C29.3086 63.8492 29.2284 63.5803 29.1282 63.3314C29.018 63.0825 28.8778 62.8635 28.6975 62.6843C28.5171 62.5051 28.3068 62.4155 28.0663 62.4155C27.9261 62.4155 27.6957 62.4653 27.3951 62.5748C27.0946 62.6843 26.8341 62.7341 26.6137 62.7341C26.223 62.7341 25.8323 62.7142 25.4416 62.6644C25.0409 62.6146 24.7504 62.5947 24.55 62.5947C24.3096 62.5947 23.9589 62.6345 23.4981 62.7241C23.0473 62.8137 22.5063 62.8535 21.8752 62.8535ZM38.455 70.7687C38.2646 70.699 38.1244 70.6592 38.0543 70.6592C37.914 70.6592 37.7437 70.7089 37.5433 70.8184C37.353 70.928 37.1727 71.0474 37.0024 71.1968C36.8321 71.3362 36.6918 71.4955 36.5716 71.6647C36.4514 71.834 36.3913 71.9634 36.3913 72.063C36.3913 72.282 36.4614 72.4712 36.5916 72.6404C36.7219 72.8097 36.8922 72.9491 37.1026 73.0586C37.3029 73.1681 37.5233 73.2477 37.7537 73.3075C37.9841 73.3672 38.1945 73.3971 38.3849 73.3971C39.1763 73.3971 39.8775 73.1781 40.4886 72.73C41.0897 72.282 41.6006 71.7344 42.0314 71.0773C42.4522 70.4202 42.7727 69.7034 42.9931 68.9367C43.2135 68.1701 43.3237 67.4732 43.3237 66.846C43.3237 66.607 43.2736 66.2386 43.1835 65.7309C43.0833 65.2231 42.943 64.7353 42.7527 64.2574C42.5624 63.7795 42.3119 63.3514 42.0114 62.983C41.7108 62.6146 41.3502 62.4254 40.9394 62.4254C40.669 62.4254 40.3684 62.4453 40.0378 62.4752C39.6972 62.515 39.3766 62.5549 39.0761 62.6146C38.7756 62.6743 38.5051 62.7241 38.2847 62.754C38.0543 62.7938 37.904 62.8038 37.8339 62.8038L32.4742 62.5847C32.1637 62.5847 32.0034 62.6843 32.0034 62.8735C32.0034 63.0626 32.1136 63.3115 32.344 63.6102C32.5744 63.9089 32.6846 64.1478 32.6846 64.3071C32.7047 64.4764 32.7247 64.9045 32.7347 65.5815C32.7447 66.2685 32.7547 67.2143 32.7547 68.4389C32.7547 70.2111 32.7547 71.605 32.7547 72.6105C32.7547 73.5962 32.7347 74.2035 32.6846 74.4425C32.6846 74.5819 32.6345 74.7312 32.5243 74.8706C32.4141 75.01 32.2939 75.1494 32.1637 75.2888C32.0334 75.4182 31.9132 75.5476 31.8231 75.6671C31.7229 75.7866 31.6828 75.8961 31.6828 75.9956C31.6828 76.1151 31.803 76.1748 32.0435 76.1748C32.6245 76.1251 33.0853 76.0852 33.436 76.0454C33.7866 76.0056 34.0671 75.9956 34.2875 75.9956C34.4277 75.9956 34.6281 76.0056 34.8886 76.0355C35.139 76.0554 35.4095 76.0852 35.7 76.1052C35.9906 76.1251 36.2711 76.1549 36.5315 76.1748C36.802 76.1948 37.0124 76.2147 37.1827 76.2147C37.6135 76.2147 37.8339 76.135 37.8339 75.9658C37.8339 75.8961 37.7036 75.7467 37.4331 75.5377C37.0224 75.1792 36.7018 74.7412 36.4514 74.2234C36.2109 73.7057 36.0306 73.1283 35.9104 72.4811C35.7902 71.834 35.71 71.137 35.68 70.3903C35.6399 69.6436 35.6299 68.877 35.6299 68.0905C35.6299 67.6126 35.6399 67.1247 35.67 66.6369C35.69 66.149 35.7601 65.701 35.8703 65.3028C35.9805 64.9045 36.1408 64.5859 36.3612 64.3271C36.5816 64.0782 36.8822 63.9487 37.2628 63.9487C37.8138 63.9487 38.2947 64.1478 38.6954 64.5461C39.0961 64.9443 39.4167 65.4222 39.6571 65.9897C39.8976 66.5572 40.0779 67.1446 40.1781 67.752C40.2883 68.3593 40.3384 68.8969 40.3384 69.3549C40.3384 70.1713 40.2081 70.8085 39.9577 71.2764C39.7072 71.7444 39.3566 71.9734 38.9258 71.9734C38.7355 71.9734 38.5752 71.9136 38.455 71.7941C38.3348 71.6747 38.2747 71.5353 38.2747 71.366C38.2346 71.1868 38.3147 70.9877 38.455 70.7687ZM49.1742 67.5329C48.8336 67.5827 48.5631 67.752 48.3628 68.0407C48.1624 68.3294 48.0522 68.6381 48.0522 68.9766C48.0522 69.2852 48.1624 69.5441 48.3828 69.7531C48.6032 69.9523 48.8737 70.0618 49.2143 70.0618C49.3145 70.0618 49.4948 70.0419 49.7553 69.9921C50.0157 69.9423 50.3063 69.8826 50.6068 69.8129C50.9073 69.7432 51.1979 69.6835 51.4784 69.6337C51.7589 69.5839 51.9793 69.564 52.1496 69.564C52.7807 69.564 53.0913 69.9622 53.0913 70.7488C53.0913 71.0574 53.0712 71.4656 53.0211 71.9534C52.9711 72.4413 52.9009 72.9391 52.8007 73.427C52.7006 73.9148 52.5804 74.3728 52.4201 74.781C52.2598 75.1892 52.0795 75.468 51.8591 75.6073C51.6687 75.7467 51.5685 75.8562 51.5685 75.9359C51.5685 76.0753 51.7388 76.1549 52.0795 76.1549C52.5904 76.135 52.9811 76.1151 53.2716 76.1052C53.5621 76.0952 53.7925 76.0852 53.9628 76.0852C54.594 76.0852 55.1049 76.1051 55.5056 76.1549C55.9063 76.2047 56.3171 76.2246 56.7579 76.2246C57.1686 76.2246 57.3689 76.145 57.3689 75.9757C57.3689 75.5874 57.2888 75.0398 57.1185 74.323C56.9482 73.6062 56.7579 72.7798 56.5575 71.8539C56.3571 70.928 56.1668 69.9324 55.9965 68.8471C55.8262 67.7719 55.746 66.6667 55.746 65.5417C55.746 64.9145 55.8262 64.4167 55.9865 64.0284C56.1468 63.6401 56.2169 63.2219 56.2169 62.7739C56.2169 62.5549 56.0366 62.4453 55.6759 62.4453C54.9546 62.5449 54.4437 62.6046 54.1532 62.6445C53.8627 62.6843 53.6623 62.6943 53.5421 62.6943C53.3517 62.6943 53.1313 62.6843 52.8909 62.6544C52.6505 62.6345 52.41 62.6146 52.1896 62.6046C51.9592 62.5947 51.7489 62.5748 51.5585 62.5549C51.3682 62.535 51.2279 62.515 51.1578 62.515C50.9875 62.515 50.7671 62.525 50.4866 62.5549C50.2061 62.5748 49.9356 62.5947 49.6551 62.6046C49.3746 62.6146 49.1241 62.6345 48.8937 62.6544C48.6633 62.6743 48.5331 62.6943 48.513 62.6943C48.3427 62.6943 48.1424 62.6843 47.9019 62.6544C47.6615 62.6345 47.4211 62.6146 47.1806 62.6046C46.9402 62.5947 46.7098 62.5748 46.4894 62.5549C46.269 62.535 46.1187 62.515 46.0186 62.515C45.5577 62.515 45.3273 62.6146 45.3273 62.8038C45.3273 63.0228 45.4275 63.2817 45.6178 63.5903C45.8082 63.8989 45.9084 64.1877 45.9084 64.4565C45.9084 65.3227 45.8583 66.1092 45.7681 66.8161C45.6679 67.523 45.5477 68.2199 45.4075 68.9069C45.2672 69.5938 45.1169 70.3007 44.9767 71.0275C44.8364 71.7543 44.7162 72.5707 44.616 73.4568C44.566 73.8451 44.5058 74.1537 44.4357 74.4126C44.3656 74.6615 44.2754 74.8805 44.1853 75.0598C44.0851 75.239 44.015 75.3983 43.9549 75.5277C43.8948 75.6571 43.8647 75.7965 43.8647 75.9459C43.8647 76.135 44.1051 76.2346 44.586 76.2346C45.0669 76.1848 45.4475 76.145 45.728 76.1052C46.0085 76.0653 46.269 76.0355 46.5094 75.9956C46.7499 75.9558 46.8801 75.9459 46.9102 75.9459C46.9803 75.9459 47.1005 75.9558 47.2708 75.9857C47.4411 76.0056 47.6315 76.0255 47.8519 76.0355C48.0723 76.0454 48.2726 76.0653 48.463 76.0852C48.6533 76.1051 48.8136 76.1251 48.9338 76.1251C49.605 76.1251 50.1259 76.0155 50.4866 75.7965C50.8472 75.5775 51.0276 75.2887 51.0276 74.9303C51.0276 74.8109 50.9875 74.6914 50.9174 74.5719C50.8472 74.4524 50.7471 74.3927 50.6268 74.3927C50.5066 74.3927 50.3864 74.4126 50.2662 74.4624C50.146 74.5122 50.0057 74.5321 49.8354 74.5321C49.3245 74.5321 48.9037 74.3827 48.5531 74.0841C48.2025 73.7854 47.922 73.417 47.7016 72.969C47.4812 72.5209 47.3309 72.043 47.2307 71.5253C47.1306 71.0076 47.0905 70.5198 47.0905 70.0717C47.0905 69.3549 47.1606 68.6181 47.3109 67.8814C47.4511 67.1347 47.7016 66.4577 48.0322 65.8503C48.3728 65.243 48.8136 64.7452 49.3546 64.3569C49.8955 63.9686 50.5768 63.7795 51.3982 63.7795C52.6805 63.7795 53.3217 64.4963 53.3217 65.94C53.3217 66.4875 53.2816 66.9256 53.2115 67.2342C53.1414 67.5429 53.0111 67.7818 52.8108 67.9511C52.6204 68.1203 52.36 68.2199 52.0294 68.2597C51.6988 68.2995 51.288 68.3095 50.7771 68.3095C50.3664 68.3095 50.0558 68.2398 49.8354 68.0905C49.5649 67.9312 49.3646 67.752 49.1742 67.5329ZM59.7432 62.4254C59.3826 62.4254 59.2022 62.5051 59.2022 62.6743C59.2022 62.744 59.2423 62.8336 59.3124 62.9232C59.4827 63.1124 59.613 63.3016 59.7132 63.4808C59.8133 63.66 59.8835 63.8492 59.9336 64.0383C59.9836 64.2275 60.0137 64.4565 60.0438 64.7253C60.0638 64.9941 60.0838 65.3127 60.0838 65.701C60.0838 67.8814 60.0137 70.4899 59.8634 73.5066C59.8434 74.0144 59.7933 74.4226 59.7232 74.7312C59.6531 75.0398 59.4427 75.3286 59.1121 75.5974C58.9217 75.6969 58.8216 75.7965 58.8216 75.9259C58.8216 76.0952 58.9518 76.1748 59.2223 76.1748L61.0656 76.0355C61.7168 76.0355 62.4381 76.0454 63.2195 76.0753C64.0009 76.0952 64.7522 76.1251 65.4635 76.145C66.1748 76.1649 66.7758 76.1948 67.2767 76.2147C67.7676 76.2346 68.0582 76.2545 68.1283 76.2545C68.5891 76.2545 69.0399 76.2047 69.4907 76.0952C69.9415 75.9857 70.3322 75.8264 70.6829 75.6073C71.0335 75.3883 71.314 75.0996 71.5344 74.7412C71.7548 74.3827 71.865 73.9546 71.865 73.4469C71.865 73.0586 71.7548 72.6504 71.5244 72.2023C71.294 71.7543 71.0135 71.3262 70.6728 70.9081C70.3322 70.4899 69.9716 70.1016 69.5909 69.7432C69.2002 69.3848 68.8596 69.0861 68.539 68.8471C68.1483 68.5584 67.958 68.3294 67.958 68.1602C67.958 67.971 68.1884 67.7121 68.6492 67.4035C69.9315 66.5174 70.5727 65.691 70.5727 64.9244C70.5727 64.7353 70.5226 64.5063 70.4324 64.2374C70.3322 63.9686 70.212 63.7297 70.0517 63.5007C69.8914 63.2717 69.7111 63.0726 69.5108 62.9033C69.3104 62.7341 69.09 62.6544 68.8796 62.6544C68.6392 62.6544 68.3387 62.6644 67.988 62.6943C67.6374 62.7142 67.407 62.7341 67.2868 62.7341L61.7067 62.515C61.6567 62.515 61.5865 62.525 61.4863 62.5549C61.3862 62.5748 61.286 62.5947 61.1558 62.5947L59.7432 62.4254ZM64.1912 69.3649C64.7222 69.3649 65.2331 69.4943 65.7139 69.7631C66.1948 70.022 66.6256 70.3605 66.9962 70.7687C67.3669 71.1769 67.6674 71.6349 67.8878 72.1526C68.1082 72.6703 68.2184 73.1781 68.2184 73.6858C68.2184 74.1438 67.978 74.5221 67.4971 74.8208C67.0163 75.1195 66.3952 75.2688 65.6538 75.2688C65.0027 75.2688 64.4917 75.0996 64.1111 74.7511C63.7404 74.4027 63.4499 73.9845 63.2595 73.4966C63.0692 73.0088 62.949 72.4911 62.8989 71.9534C62.8488 71.4158 62.8288 70.9678 62.8288 70.5994C62.8288 70.1414 62.9289 69.8228 63.1393 69.6436C63.3297 69.4545 63.6903 69.3649 64.1912 69.3649ZM64.5519 63.65C65.2731 63.65 65.9243 63.8691 66.5054 64.3171C67.0864 64.7651 67.3769 65.3525 67.3769 66.0992C67.3769 66.5074 67.2968 66.8559 67.1265 67.1446C66.9562 67.4334 66.7258 67.6624 66.4352 67.8416C66.1447 68.0208 65.8241 68.1502 65.4535 68.2398C65.0928 68.3195 64.7222 68.3692 64.3315 68.3692C63.6302 68.3692 63.1994 68.2796 63.0492 68.1004C62.8889 67.9212 62.8187 67.5031 62.8187 66.8559V65.0937C62.8688 64.5859 63.0191 64.2275 63.2695 63.9985C63.52 63.7596 63.9508 63.65 64.5519 63.65ZM79.8293 62.0272C79.2482 62.0969 78.6872 62.1566 78.1262 62.1865C77.5752 62.2263 77.0643 62.296 76.6035 62.4155C76.1427 62.535 75.752 62.7241 75.4314 62.973C75.1008 63.2219 74.8804 63.5903 74.7602 64.0682C74.66 64.4266 74.6199 65.1833 74.6199 66.3382C74.6199 66.5771 74.63 66.9455 74.66 67.4533C74.68 67.961 74.7101 68.4987 74.7502 69.0761C74.7902 69.6536 74.8203 70.2111 74.8403 70.7687C74.8604 71.3163 74.8804 71.7643 74.8804 72.1028C74.8804 72.5309 74.8103 72.9092 74.68 73.2378C74.5498 73.5663 74.4096 73.865 74.2593 74.1538C74.119 74.4425 73.9788 74.7113 73.8385 74.9602C73.7083 75.2091 73.6382 75.468 73.6382 75.7368C73.6382 76.0056 73.8786 76.135 74.3595 76.135C74.8203 76.135 75.3212 76.1151 75.8622 76.0653C76.4031 76.0155 76.7938 75.9956 77.0343 75.9956C77.3248 75.9956 77.7255 76.0056 78.2264 76.0355C78.7373 76.0554 79.2382 76.0852 79.7291 76.1052C80.22 76.1251 80.6508 76.1549 81.0114 76.1748C81.3721 76.1948 81.5424 76.2147 81.5223 76.2147C81.9531 76.1649 82.3538 76.135 82.6944 76.1251C83.0451 76.1151 83.4358 76.0952 83.8665 76.0753C84.2973 76.0554 84.7381 76.0355 85.1689 76.0355C85.4093 76.0355 85.7099 76.0454 86.0605 76.0753C86.4111 76.0952 86.7417 76.1251 87.0523 76.1649C87.3628 76.2047 87.6333 76.2346 87.8637 76.2545C88.0941 76.2744 88.2344 76.2943 88.2845 76.2943C88.6251 76.2943 88.7954 76.1748 88.7954 75.9359C88.7954 75.7467 88.7052 75.4879 88.5249 75.1593C88.3446 74.8308 88.2544 74.5321 88.2544 74.2434C88.2544 73.5265 88.3646 72.8794 88.585 72.3019C88.8054 71.7245 89.0358 71.137 89.2863 70.5198C89.5367 69.9124 89.7772 69.2354 89.9875 68.5086C90.2079 67.7818 90.3181 66.8858 90.3181 65.8304C90.3181 64.2474 90.0176 62.8735 89.4165 61.7086C88.8154 60.5437 87.994 59.5879 86.9521 58.8313C85.9102 58.0746 84.7081 57.5171 83.3356 57.1586C81.9631 56.8002 80.5105 56.621 78.9878 56.621C76.7638 56.621 75.1409 56.85 74.099 57.308C73.548 57.5967 73.2675 58.1045 73.2675 58.8213C73.2675 60.0957 73.2976 60.9519 73.3577 61.39C73.4178 61.838 73.548 62.0571 73.7383 62.0571C74.099 62.0571 74.4797 61.9675 74.8804 61.7882C75.2811 61.609 75.7019 61.4099 76.1427 61.1909C76.5935 60.9718 77.0643 60.7727 77.5552 60.5935C78.0461 60.4143 78.5871 60.3247 79.1681 60.3247C80.23 60.3247 81.2719 60.5238 82.2837 60.932C83.2955 61.3402 84.2072 61.8978 84.9986 62.6046C85.79 63.3115 86.4311 64.1379 86.922 65.0738C87.4029 66.0096 87.6433 67.0152 87.6433 68.1004C87.6433 68.8471 87.483 69.6038 87.1725 70.3804C86.8619 71.157 86.4412 71.8638 85.9102 72.501C85.3793 73.1382 84.7782 73.6559 84.097 74.0641C83.4257 74.4723 82.7045 74.6715 81.9631 74.6715C81.0014 74.6715 80.2901 74.2732 79.8293 73.4867C79.3685 72.7002 79.138 71.4457 79.138 69.7432C79.138 69.2155 79.2082 68.6082 79.3584 67.9113C79.4987 67.2143 79.659 66.5174 79.8092 65.8205C79.9695 65.1235 80.1198 64.4565 80.2601 63.8193C80.4003 63.1821 80.4805 62.6644 80.4805 62.2562C80.4805 62.0969 80.2701 62.0272 79.8293 62.0272ZM95.6577 62.4951C94.3554 62.9033 93.3836 63.7098 92.7425 64.9045C92.1013 66.0992 91.7808 67.4632 91.7808 68.9666C91.7808 69.5938 91.9811 70.3206 92.3919 71.157C92.8026 71.9933 93.3035 72.7898 93.8946 73.5365C94.4856 74.2832 95.1268 74.9104 95.828 75.4281C96.5293 75.9459 97.1704 76.2047 97.7515 76.2047C98.6932 76.2047 99.5647 75.9459 100.356 75.4281C101.148 74.9104 101.839 74.2633 102.42 73.4668C103.001 72.6802 103.452 71.824 103.782 70.9081C104.113 69.9921 104.273 69.1458 104.273 68.3493C104.273 67.8416 104.193 67.2542 104.033 66.5672C103.872 65.8802 103.642 65.2331 103.342 64.6257C103.041 64.0184 102.65 63.4907 102.179 63.0626C101.709 62.6345 101.158 62.4155 100.536 62.4155C100.126 62.4155 99.705 62.4653 99.2842 62.5549C98.8635 62.6544 98.4227 62.6943 97.9619 62.6943C97.1704 62.7142 96.399 62.6345 95.6577 62.4951ZM96.7797 63.7496C97.5812 63.7695 98.2824 63.9985 98.8935 64.4366C99.5046 64.8647 100.036 65.4123 100.466 66.0594C100.897 66.7066 101.228 67.4135 101.458 68.1801C101.689 68.9467 101.799 69.6835 101.799 70.3704C101.799 71.376 101.578 72.1625 101.148 72.73C100.717 73.2975 100.126 73.5763 99.3744 73.5763C98.623 73.5763 97.9318 73.3473 97.2906 72.8794C96.6495 72.4114 96.0985 71.834 95.6277 71.157C95.1568 70.47 94.7862 69.7432 94.5257 68.9766C94.2552 68.2099 94.125 67.513 94.125 66.8858C94.125 65.9698 94.3353 65.2231 94.7561 64.6357C95.1869 64.0483 95.8581 63.7496 96.7797 63.7496ZM122.887 80.446H122.746C122.616 80.446 122.496 80.446 122.376 80.4361C82.9449 80.4361 43.504 80.4361 4.07323 80.4361C3.87287 80.446 3.68253 80.456 3.49219 80.456C3.30185 80.456 3.12152 80.3962 2.95122 80.2768C2.78091 80.1573 2.70077 80.0378 2.70077 79.9183C2.70077 79.7292 2.98127 79.54 3.53226 79.3409C6.69794 78.2159 9.67329 72.5309 10.2042 70.6293L10.1642 70.5895C8.43106 70.5895 7.12872 70.1514 6.27719 69.2753C5.41564 68.3991 4.89471 67.0252 4.70436 65.1534C4.60418 64.2375 4.54408 63.4111 4.504 62.6743C4.46393 61.9276 4.38379 61.2606 4.25355 60.6632C4.12332 60.0658 3.91294 59.5282 3.64246 59.0603C3.36195 58.5923 2.9412 58.1642 2.36015 57.7859C1.92938 57.4972 1.70898 57.2582 1.70898 57.069C1.70898 56.7604 2.05961 56.6011 2.76087 56.6011L5.40562 56.85C5.59597 56.85 5.86645 56.8301 6.19704 56.7803C6.53766 56.7305 7.05859 56.6608 7.74983 56.5613C8.71156 56.5613 9.20244 57.6365 9.20244 59.797C9.20244 60.2251 9.16237 60.7727 9.09224 61.4298C9.02212 62.0869 8.94198 62.7739 8.85181 63.4808C8.77167 64.1877 8.69152 64.8647 8.6214 65.5118C8.55127 66.159 8.5112 66.6767 8.5112 67.055C8.5112 68.2995 8.97203 68.9268 9.88367 68.9268C10.3144 68.9268 10.7352 68.6679 11.1359 68.1502C11.5366 67.6325 11.8973 66.9953 12.2379 66.2287C12.5785 65.462 12.879 64.6257 13.1595 63.7098C13.4401 62.7938 13.6705 61.9376 13.8608 61.1411C14.0512 60.3346 14.2014 59.6576 14.3116 59.0901C14.4218 58.5226 14.4719 58.204 14.4719 58.1343C14.4719 58.0647 14.4519 57.9352 14.4218 57.756C14.3817 57.5768 14.3417 57.3179 14.2916 56.9794C14.2916 56.7106 14.4719 56.5812 14.8326 56.5812C15.1732 56.5812 15.5238 56.621 15.9045 56.6907C16.2751 56.7604 16.6558 56.8002 17.0465 56.8002C17.317 56.8002 17.5975 56.7803 17.9181 56.7305C18.2287 56.6808 18.4891 56.6608 18.6795 56.6608C18.9499 56.6608 19.0802 56.7405 19.0802 56.9097C19.0802 56.9794 19.0101 57.089 18.8798 57.2383C18.7496 57.3777 18.5993 57.5469 18.429 57.7261C18.2587 57.9054 18.0984 58.0846 17.9381 58.2638C17.7778 58.443 17.6777 58.5923 17.6276 58.7118C17.5074 59.0005 17.327 59.4884 17.1066 60.1853C16.8762 60.8822 16.6458 61.6289 16.4054 62.4354C16.1649 63.2418 15.9345 64.0085 15.7141 64.7353C15.4937 65.462 15.3535 65.9997 15.2834 66.3382C15.2633 66.4577 15.2032 66.7364 15.1231 67.1645C15.0429 67.5927 14.9528 68.1104 14.8526 68.6978C14.7524 69.2852 14.6422 69.9224 14.512 70.6094C14.3918 71.2266 13.3299 75.2589 13.0293 76.4835C12.7388 77.6583 13.41 77.6185 13.9209 77.6185H116.856C117.347 77.6185 118.459 77.947 118.308 76.2445C118.248 75.5974 117.477 70.7288 117.357 69.9821C117.236 69.2354 117.076 68.5584 116.866 67.9312C116.665 67.3039 116.415 66.9455 116.124 66.8559C115.764 66.8559 115.453 67.1546 115.183 67.742C114.912 68.3294 114.662 68.9865 114.401 69.7034C114.151 70.4202 113.88 71.0773 113.61 71.6647C113.329 72.2521 113.009 72.5508 112.648 72.5508C112.428 72.5508 112.278 72.4811 112.197 72.3318C112.117 72.1924 112.067 71.9037 112.067 71.4656C112.067 71.3461 111.987 71.0375 111.837 70.5297C111.676 70.022 111.476 69.4943 111.236 68.9467C110.995 68.3991 110.725 67.9013 110.434 67.4533C110.144 67.0053 109.863 66.7862 109.603 66.7862C109.312 66.7862 109.042 67.0053 108.791 67.4533C108.541 67.9013 108.31 68.3991 108.1 68.9666C107.9 69.5341 107.729 70.0717 107.609 70.5895C107.489 71.1072 107.429 71.4357 107.429 71.5751C107.429 72.1526 107.669 72.6305 108.15 73.0187C108.631 73.407 109.312 73.7655 110.174 74.094C110.875 74.3628 111.396 74.6018 111.727 74.8308C112.067 75.0598 112.237 75.3385 112.237 75.677C112.237 75.9459 112.127 76.0753 111.907 76.0753C111.687 76.0753 111.476 76.0255 111.256 75.9359C111.035 75.8363 110.795 75.7965 110.534 75.7965C110.464 75.7965 110.314 75.8164 110.104 75.8463C109.883 75.8861 109.623 75.9259 109.322 75.9857C109.022 76.0454 108.711 76.0952 108.381 76.1251C108.05 76.1549 107.759 76.1748 107.489 76.1748C106.718 76.1748 106.117 75.916 105.676 75.3983C105.245 74.8806 105.025 74.2434 105.025 73.4767C105.025 72.7798 105.075 72.1625 105.165 71.605C105.265 71.0574 105.415 70.4999 105.616 69.9523C105.816 69.4047 106.066 68.8173 106.357 68.2099C106.647 67.6026 106.988 66.8758 107.369 66.0296C107.469 65.8404 107.579 65.5417 107.709 65.1435C107.84 64.7452 107.98 64.3569 108.11 63.9587C108.24 63.5604 108.421 63.0527 108.631 62.4254C109.282 62.4254 109.863 62.6544 110.364 63.1224C110.875 63.5903 111.326 64.108 111.737 64.6855C112.147 65.2629 112.528 65.7807 112.879 66.2486C113.229 66.7165 113.56 66.9455 113.87 66.9455C114.111 66.9455 114.381 66.7165 114.662 66.2585C114.952 65.8006 115.293 65.3028 115.674 64.7651C116.064 64.2275 116.515 63.7297 117.036 63.2717C117.557 62.8137 118.168 62.5847 118.859 62.5847C119.22 62.5847 119.4 62.6445 119.4 62.7639L119.26 63.9885L121.935 78.2756C121.975 78.5145 122.105 78.8431 122.296 79.0621C122.486 79.2812 122.706 79.4902 122.947 79.7093C123.147 79.8984 123.237 80.0677 123.237 80.217C123.237 80.3664 123.127 80.446 122.887 80.446Z" fill="#FFF200"/>
<path fill-rule="evenodd" clip-rule="evenodd" d="M58.822 60.9821C62.2482 55.8846 70.1223 53.7241 75.8626 55.1976L75.7224 55.2175L75.5521 55.2474L75.3818 55.2773L75.2215 55.3071L75.0612 55.337L74.9009 55.3669L74.7506 55.4067L74.6004 55.4465L74.4501 55.4864L74.2998 55.5262L74.1495 55.566L74.0093 55.6158L73.869 55.6656L73.7288 55.7153L73.5885 55.7651L73.3982 55.8448L73.1778 55.9742L72.9875 56.0937L72.8071 56.2331L72.6368 56.3824L72.4765 56.5417L72.3263 56.7209L72.196 56.9101L72.0758 57.0992L71.9756 57.2984L71.8855 57.5074L71.8154 57.7165L71.7653 57.9256L71.7252 58.1347L71.6951 58.3438L71.6751 58.5528V58.742V59.0009V59.2299V59.4489V59.658V59.8571V60.0463V60.2354L71.6851 60.4146L71.6951 60.5839L71.7052 60.7432L71.7152 60.8925L71.7252 61.0319L71.7352 61.1713L71.7452 61.3007L71.7552 61.4302L71.7753 61.5596L71.8154 61.7985L71.8755 62.0574L71.9656 62.3262L72.1059 62.6249L72.3363 62.9534L72.4164 63.0331C72.186 63.1227 71.9556 63.2123 71.7252 63.292L71.6951 63.2322L71.625 63.0928L71.5549 62.9534L71.4747 62.824L71.3946 62.6946L71.3044 62.5652L71.2143 62.4357L71.1241 62.3163L71.0239 62.1968L70.9238 62.0773L70.8136 61.9578L70.7034 61.8483L70.5831 61.7388L70.4529 61.6293L70.3026 61.5098L70.1223 61.3903L69.932 61.2808L69.7316 61.1912L69.5112 61.1116L69.2808 61.0518L69.0504 61.022L68.85 61.012H68.6998H68.5795H68.4593H68.3391L68.2089 61.022L68.0786 61.0319L67.9484 61.0419L67.8182 61.0518L67.698 61.0618L67.5878 61.0717L67.4876 61.0817H67.4074H67.3373H67.2772H67.2371L61.6571 60.8627H61.5369L61.4367 60.8726L61.3566 60.8826L61.3065 60.9324L61.2464 60.9423L61.1863 60.9523L61.1362 60.9622L59.8038 60.8328L59.5032 60.8427L59.2528 60.8726L58.9723 60.9324L58.822 60.9821Z" fill="white"/>
<path fill-rule="evenodd" clip-rule="evenodd" d="M51.759 60.962C52.0295 60.3049 52.4403 59.618 52.6707 59.0704C53.4921 58.3436 58.7416 54.7494 55.646 58.2042C55.0049 59.3093 54.6542 59.5682 55.7061 58.8713C57.9001 56.4619 56.9784 58.702 55.8063 60.8525L55.5759 60.8426L55.3054 60.8824L55.1752 60.9023L55.0549 60.9222L54.9347 60.9421L54.8245 60.9521L54.7143 60.962L54.6142 60.972L54.514 60.982L54.4238 60.9919L54.3337 61.0019L54.2535 61.0118L54.1734 61.0218L54.1032 61.0317L54.0331 61.0417L53.973 61.0517L53.9229 61.0616L53.8328 61.0716L53.7526 61.0815L53.6725 61.0915L53.6124 61.1014H53.5623H53.5222H53.5022H53.4921H53.4521H53.402H53.3419H53.2818H53.2217L53.1515 61.0915L53.0914 61.0616L53.0113 61.0517L52.9211 61.0417L52.8209 61.0317L52.7208 61.0218L52.6206 61.0118L52.5204 61.0019L52.4202 60.9919L52.32 60.982H52.2299H52.1497H52.0796L52.0095 60.972L51.9494 60.962L51.8893 60.9521L51.8292 60.9421L51.7691 60.9322L51.759 60.962Z" fill="white"/>
<path fill-rule="evenodd" clip-rule="evenodd" d="M48.8443 61.0416C47.9728 60.4244 47.6722 59.8668 47.7924 58.2141C47.9627 57.0194 48.8143 50.8963 49.9563 51.4539C50.2168 52.5889 51.1284 58.3734 50.908 60.9022H50.8479H50.7477L50.6476 60.9122L50.5474 60.9222L50.4372 60.9321L50.327 60.9421L50.2268 60.952L50.1266 60.962L50.0264 60.9719L49.9263 60.9819L49.8361 60.9918L49.7359 61.0018L49.6357 61.0118H49.5356H49.4254L49.3152 61.0217L49.205 61.0317L49.0948 61.0416L48.9846 61.0516L48.8744 61.0615L48.8443 61.0416Z" fill="white"/>
<path fill-rule="evenodd" clip-rule="evenodd" d="M56.8179 60.9217C56.407 60.5133 57.6899 60.4037 57.4894 60.8022C57.279 60.832 57.0484 60.8619 56.8179 60.9217Z" fill="white"/>
<path fill-rule="evenodd" clip-rule="evenodd" d="M58.6015 60.6514C58.5113 60.5618 58.4311 60.4522 58.401 60.2729C58.9522 60.1335 58.8921 60.3626 58.6015 60.6514Z" fill="white"/>
<path fill-rule="evenodd" clip-rule="evenodd" d="M54.6846 60.1947C54.594 60.0453 54.594 60.0453 54.594 59.9058C54.8055 59.4974 55.1278 59.9855 54.6846 60.1947Z" fill="black"/>
<path fill-rule="evenodd" clip-rule="evenodd" d="M46.8009 59.2695C46.7405 59.2396 46.6801 59.2097 46.5995 59.1499C46.5995 58.7116 47.1232 58.9407 46.8009 59.2695Z" fill="white"/>
<path fill-rule="evenodd" clip-rule="evenodd" d="M59.3832 58.7438C59.3832 58.544 59.8242 58.6239 59.734 58.7138C59.6237 58.7138 59.5035 58.7138 59.3832 58.7438Z" fill="white"/>
<path fill-rule="evenodd" clip-rule="evenodd" d="M45.8688 58.7119C45.5781 58.4222 45.989 58.4821 46.2496 58.4521C46.1594 58.572 46.1594 58.572 45.8688 58.7119Z" fill="white"/>
<path fill-rule="evenodd" clip-rule="evenodd" d="M58.421 58.3631C57.9501 57.4372 57.1988 55.5455 57.0184 54.5599C63.1795 54.5599 69.6311 54.4404 74.7703 50.6172C75.732 49.542 75.0909 48.178 75.702 48.7853C76.0526 49.8904 77.4852 53.6638 76.3431 54.7889C71.5545 54.2711 68.0482 54.0322 63.3498 55.7446C62.7688 56.0135 58.8016 57.6064 58.421 58.3631Z" fill="white"/>
<path fill-rule="evenodd" clip-rule="evenodd" d="M60.7051 58.0137C60.7051 57.7547 61.0859 57.665 61.3165 57.665C61.1661 57.9041 60.9657 57.9838 60.7051 58.0137Z" fill="white"/>
<path fill-rule="evenodd" clip-rule="evenodd" d="M46.9509 57.9561C46.9207 57.9261 46.8905 57.8662 46.8301 57.8063C46.8301 57.5765 47.243 57.7563 46.9509 57.9561Z" fill="white"/>
<path fill-rule="evenodd" clip-rule="evenodd" d="M52.1096 57.9262C52.1096 56.5921 53.2817 53.5156 55.2352 54.4714C54.9748 54.7402 52.32 57.8764 52.1096 57.9262Z" fill="#FEE6D3"/>
<path fill-rule="evenodd" clip-rule="evenodd" d="M44.9267 57.9057C42.4723 55.9045 44.3457 54.7695 46.2692 53.0869C46.4695 53.0869 45.9786 54.3314 45.9185 54.5106C45.2273 55.4067 45.4577 56.8603 44.9267 57.9057Z" fill="white"/>
<path fill-rule="evenodd" clip-rule="evenodd" d="M45.8679 57.4665C45.8078 56.8289 46.1285 57.058 46.6297 57.0282C46.6196 57.1776 46.0083 57.4067 45.8679 57.4665Z" fill="white"/>
<path fill-rule="evenodd" clip-rule="evenodd" d="M47.181 56.6209C46.9204 56.3619 46.74 56.3918 47.2111 56.1527C47.4115 56.1627 47.2712 56.5412 47.181 56.6209Z" fill="white"/>
<path fill-rule="evenodd" clip-rule="evenodd" d="M46.2191 55.9845C45.7781 55.5463 47.1812 55.2873 46.8004 55.6658C46.62 55.7554 46.4195 55.865 46.2191 55.9845Z" fill="white"/>
<path fill-rule="evenodd" clip-rule="evenodd" d="M47.5022 55.0882C47.1195 54.7985 47.7037 54.5388 47.6533 54.9684C47.5929 55.0583 47.5929 55.0583 47.5022 55.0882Z" fill="white"/>
<path fill-rule="evenodd" clip-rule="evenodd" d="M55.6458 54.041C54.9746 53.374 52.4901 54.1904 52.9309 52.4182C53.4519 52.7965 56.1167 53.0255 56.1167 52.2489C55.1549 52.0797 53.4318 51.9004 52.9309 50.9148C55.5256 50.9148 52.2898 49.3517 51.0375 47.46C44.5559 42.3227 46.6296 32.257 49.5148 26.0444C49.5148 25.5466 48.523 25.9847 48.0221 25.6063C46.2089 22.7887 45.6579 23.864 46.85 26.0145C46.85 28.1352 42.7927 20.6183 46.7298 22.1814C47.0804 22.5299 49.3846 25.228 48.7434 22.9978C49.7051 21.0564 46.87 22.0122 48.1323 21.2854C50.4365 21.0564 48.9237 19.5132 46.3792 20.7677C44.3956 20.7677 51.0275 19.782 48.6833 18.8561C48.3026 17.8704 50.0858 19.4335 50.0858 18.2189C48.9438 15.6602 51.3681 13.8083 53.4719 12.1556C54.9045 12.8525 55.0147 13.8382 53.3817 13.5495C52.1295 13.5495 53.2916 14.5351 53.4118 14.8836C49.9356 17.6414 54.8143 18.657 54.1131 17.0042C52.7406 15.9887 55.6358 15.9887 55.9263 15.7896C55.9263 14.8338 58.0601 11.5184 55.5757 11.5184C54.6741 10.3038 57.7997 10.244 58.521 10.1843C63.6301 10.1843 72.7966 9.36789 74.4696 15.9887C72.0452 15.9887 79.2582 18.7167 79.2582 20.2599C77.6253 20.2599 76.5133 17.731 75.1108 17.2731C71.6946 17.2731 79.5788 21.3053 76.924 20.6681C76.343 20.23 71.8148 17.9202 74.0889 19.6824C76.4431 21.5044 75.9022 21.6139 73.9988 20.698C73.8585 20.6283 76.2228 24.3519 74.7902 23.3961C73.4177 20.0906 73.0671 22.1217 73.588 24.1527C75.1608 27.7469 77.2346 20.23 77.9659 23.9835C77.6453 26.9106 77.0943 23.6948 76.0925 25.6959C74.0789 28.3044 72.3859 27.727 74.0488 30.6043C78.3666 40.1522 74.7501 52.1991 63.4498 53.7025C61.2859 53.6627 57.5192 53.1151 55.6458 54.041Z" fill="#FEE6D3"/>
<path fill-rule="evenodd" clip-rule="evenodd" d="M47.7622 52.152C47.7622 51.8623 48.4939 51.7125 48.3435 52.0321C48.1731 52.0721 47.9727 52.1021 47.7622 52.152Z" fill="white"/>
<path fill-rule="evenodd" clip-rule="evenodd" d="M46.2197 51.2546C46.2197 50.8464 48.2033 47.5111 49.0548 47.9193C49.8963 51.5433 49.696 50.269 46.2197 51.2546Z" fill="white"/>
<path fill-rule="evenodd" clip-rule="evenodd" d="M61.6668 50.9343C59.3627 50.6456 56.5877 49.5106 55.3555 47.4497C55.3555 47.0713 55.3555 47.1908 55.646 47.1311C59.4128 49.859 63.3598 49.6002 66.9763 46.6631C67.6175 46.4939 67.8479 46.6631 67.8479 47.2406C66.4554 49.3413 64.1212 50.4962 61.6668 50.9343Z" fill="black"/>
<path fill-rule="evenodd" clip-rule="evenodd" d="M43.7346 48.7544C43.2638 48.4059 42.5926 48.4358 42.0416 48.376C40.1983 47.5895 37.1327 44.5728 36.0508 42.95C32.7549 34.8855 35.029 23.3264 39.3467 15.9888C40.9095 13.4699 41.5407 11.0804 43.0534 15.1724C43.0534 16.5364 41.5607 16.2775 42.262 18.4181C41.8813 20.4192 42.5525 21.0266 43.5743 22.5399C43.5743 24.4813 44.3958 25.5865 45.1772 27.3885C45.648 30.8134 41.15 33.6609 44.3257 36.4984C45.1171 38.4996 45.1171 40.7098 45.8985 42.711C47.321 45.3295 47.9422 48.2367 43.7346 48.7544Z" fill="#FFF9AE"/>
<path fill-rule="evenodd" clip-rule="evenodd" d="M77.8457 46.4656C75.9523 45.9977 78.3166 40.1932 78.0461 38.2518C77.986 37.9332 77.0543 35.1156 77.3749 34.797C81.4021 34.2494 74.5999 29.4605 77.9259 26.9914C78.7774 26.175 79.3584 25.4283 79.9094 24.4128C83.1753 22.3519 78.7674 14.4268 75.4114 13.9688C72.5462 11.9378 71.2038 9.9067 67.5573 8.74184C66.6556 8.74184 65.5737 5.81474 63.3797 5.89438C61.0756 6.59131 60.4345 7.66657 63.2094 6.74065C66.3952 6.22294 62.5382 8.54271 61.0155 8.30377C60.8452 6.47184 58.8015 8.65223 60.2642 6.96965C62.6885 4.99833 59.6531 6.24285 58.6913 7.57697C58.6913 6.27272 58.8917 5.54592 57.8999 7.80596C57.8999 9.86688 53.6022 9.31929 52.7006 10.6534C52.7006 13.6701 49.3746 11.3802 47.7918 12.5152C46.3892 14.2575 45.5177 11.0517 45.1069 9.34916C45.157 9.04052 45.718 8.73188 45.8583 8.51285C68.8596 -9.48783 95.3271 15.8505 89.3965 40.9897C88.8956 42.1546 87.5532 44.9921 85.78 43.8073C84.0569 43.8073 83.1553 45.6691 81.2819 45.5198C80.761 44.4345 78.6872 46.2067 77.8457 46.4656Z" fill="#FFF9AE"/>
<path fill-rule="evenodd" clip-rule="evenodd" d="M53.7527 42.2835C52.4704 41.6463 51.7091 39.1473 51.4486 40.1927C49.3148 42.3134 48.9942 36.3297 49.2246 35.3441C50.3366 32.7356 52.5205 31.282 53.7828 28.6735C54.0733 27.8272 56.9685 23.2773 56.1771 25.2784C54.0432 29.2509 51.8593 35.9016 58.341 36.8873C64.3017 36.8873 66.3754 31.3417 63.4201 26.5528C62.6888 24.1733 66.2552 29.4003 66.4555 29.6591C69.7815 31.8694 75.3615 38.9183 69.7214 41.497C69.3708 41.497 65.4237 40.7702 65.3135 40.6806C65.3135 40.3321 65.3135 37.7236 64.9929 37.7236C64.3518 42.8609 62.0777 37.8132 62.8891 40.0135C62.839 39.6949 57.0286 40.7503 56.698 41.0589C58.8318 37.863 57.6597 38.7988 55.9366 40.9992C55.2354 41.5567 54.5642 41.9948 53.7527 42.2835Z" fill="black"/>
<path fill-rule="evenodd" clip-rule="evenodd" d="M53.6024 41.2696C53.0214 40.3735 53.6024 38.7407 53.7728 37.8148C55.2053 34.9773 54.0733 41.0406 53.6024 41.2696Z" fill="white"/>
<path fill-rule="evenodd" clip-rule="evenodd" d="M55.1853 40.3725C54.6344 39.8249 55.6862 36.9476 56.5879 37.8436C56.5778 38.431 55.6161 40.1634 55.1853 40.3725Z" fill="white"/>
<path fill-rule="evenodd" clip-rule="evenodd" d="M69.6108 40.024C66.8959 38.0527 65.1428 33.6123 65.7839 30.2969C68.4988 30.2969 70.8029 36.161 70.9532 38.1622C70.4824 38.9786 67.3367 31.6011 67.3367 34.5681C67.8877 35.1754 70.9833 39.3569 69.6108 40.024Z" fill="white"/>
<path fill-rule="evenodd" clip-rule="evenodd" d="M59.5028 39.6746C59.3526 39.5253 59.6231 38.7487 59.8234 38.8283C59.8234 39.1469 59.8535 39.5551 59.5028 39.6746Z" fill="white"/>
<path fill-rule="evenodd" clip-rule="evenodd" d="M66.1951 39.5574C65.9045 39.2687 65.5539 35.0274 66.165 36.919C66.2151 37.4069 66.5156 39.2388 66.1951 39.5574Z" fill="white"/>
<path fill-rule="evenodd" clip-rule="evenodd" d="M63.3607 38.6595C62.9175 38.2212 63.6226 37.6136 63.4816 38.6296C63.4513 38.6296 63.4211 38.6296 63.3607 38.6595Z" fill="white"/>
<path fill-rule="evenodd" clip-rule="evenodd" d="M49.9255 38.1005C47.411 35.6015 55.6458 30.1156 51.7388 34.5561C51.298 35.2928 50.3864 37.8715 49.9255 38.1005Z" fill="white"/>
<path fill-rule="evenodd" clip-rule="evenodd" d="M44.757 35.0045C43.094 33.8994 45.4582 30.3052 46.1895 31.032C45.9792 31.7488 45.2478 34.7655 44.757 35.0045Z" fill="#FEE6D3"/>
<path fill-rule="evenodd" clip-rule="evenodd" d="M76.5032 32.387C75.6517 31.8394 74.69 29.8582 74.5197 28.7928C75.4213 28.7928 76.8739 32.0087 76.5032 32.387Z" fill="#FEE6D3"/>
<path fill-rule="evenodd" clip-rule="evenodd" d="M72.9367 26.8404C72.2355 25.9942 72.2054 24.6899 72.9969 23.9133C73.6981 23.9133 74.219 26.5218 72.9367 26.8404Z" fill="black"/>
<path fill-rule="evenodd" clip-rule="evenodd" d="M53.9632 23.7846C49.3048 23.2669 52.4705 16.5864 56.9285 18.6274C57.5696 16.656 56.0269 15.8994 59.0924 16.5366C60.8756 18.3088 58.2408 19.155 61.1861 18.1992C64.2316 17.5919 65.6241 19.0754 65.4638 20.5688C65.1933 23.1673 60.004 25.5767 59.0022 20.5688C58.912 19.2944 59.6734 16.8253 57.8301 16.8253C57.0687 17.9603 57.79 18.926 57.9403 20.1108C57.9203 22.4107 55.4057 23.8941 53.9632 23.7846Z" fill="black"/>
<path fill-rule="evenodd" clip-rule="evenodd" d="M54.0737 23.309C50.6776 22.7714 52.6311 18.3011 55.6165 18.9283C55.6165 18.9582 54.4744 22.6121 56.8186 21.2183C57.3796 21.0092 57.2594 19.5755 57.1692 19.5058C58.2211 21.3576 55.3259 23.3688 54.0737 23.309Z" fill="white"/>
<path fill-rule="evenodd" clip-rule="evenodd" d="M62.1282 22.9906C61.0062 23.1499 59.5836 21.6864 59.5836 20.3224C59.6537 20.3423 59.8741 20.7605 59.9643 20.8899C60.2348 21.2782 60.8058 21.4773 61.2166 21.2583C61.8677 20.8998 61.2967 19.058 61.3969 18.7493C61.6874 18.6398 62.6091 18.4805 63.2502 18.6995C66.4159 19.4363 64.3221 22.8512 62.1282 22.9906Z" fill="white"/>
<path fill-rule="evenodd" clip-rule="evenodd" d="M42.8328 19.0961C42.8328 15.3227 48.6733 16.627 48.1223 17.1845C46.0185 17.1845 43.8245 16.3382 42.9229 19.0961C42.8829 19.0961 42.8528 19.0961 42.8328 19.0961Z" fill="white"/>
<path fill-rule="evenodd" clip-rule="evenodd" d="M45.6577 19.0068C45.5375 18.8575 44.9865 17.7324 45.5074 17.9913C45.5976 18.3099 46.0083 18.8376 45.6577 19.0068Z" fill="#B11116"/>
<path fill-rule="evenodd" clip-rule="evenodd" d="M46.3296 18.8659C45.5682 17.8803 46.2394 17.1535 46.7704 18.7465C46.6001 18.8361 46.6001 18.8361 46.3296 18.8659Z" fill="#ED1C24"/>
<path fill-rule="evenodd" clip-rule="evenodd" d="M79.2683 18.747C78.4469 17.9007 77.4851 17.2337 76.5835 16.487C75.9724 14.8641 79.8895 18.1397 79.2683 18.747Z" fill="white"/>
<path fill-rule="evenodd" clip-rule="evenodd" d="M65.083 17.474C64.1514 17.0061 64.7324 16.5183 64.4719 15.7317C62.4283 15.443 56.6178 13.7007 60.7052 10.7935C62.7188 10.7935 60.615 12.7349 61.2061 12.7349C61.4665 12.5557 65.7342 8.73257 64.9428 11.9185C63.9811 13.3721 62.1077 12.9938 64.6823 13.4518C66.0748 14.1089 66.8662 17.036 65.083 17.474Z" fill="black"/>
<path fill-rule="evenodd" clip-rule="evenodd" d="M42.5926 17.3553C42.5025 16.6883 43.5844 15.842 43.3841 16.509C42.9132 17.0068 42.7128 17.2956 42.5926 17.3553Z" fill="white"/>
<path fill-rule="evenodd" clip-rule="evenodd" d="M48.8143 16.3976C48.3735 16.079 47.7324 15.8998 47.3517 15.6111C47.3517 14.5955 49.2852 16.1686 48.8143 16.3976Z" fill="white"/>
<path fill-rule="evenodd" clip-rule="evenodd" d="M44.3457 15.8999C42.853 14.4164 41.9814 9.91627 41.2501 7.51685C41.4805 7.51685 44.6362 14.4861 44.6362 15.7904C44.5761 15.8501 44.5761 15.8501 44.3457 15.8999Z" fill="#B11116"/>
<path fill-rule="evenodd" clip-rule="evenodd" d="M45.2776 15.6991C44.5162 14.5342 40.3387 3.39328 43.0035 8.6999C43.4743 10.044 46.1892 15.5298 45.2776 15.6991Z" fill="#ED1C24"/>
<path fill-rule="evenodd" clip-rule="evenodd" d="M46.3593 15.6111C44.7264 13.3511 43.6445 9.25913 42.5325 6.67053C42.5325 6.47141 43.0033 6.52119 43.1135 6.64067C43.4942 8.09426 47.0305 14.6255 46.5597 15.5813C46.5096 15.5813 46.4495 15.5813 46.3593 15.6111Z" fill="#F58220"/>
<path fill-rule="evenodd" clip-rule="evenodd" d="M76.9347 15.471C74.891 14.7143 75.9129 14.3957 76.9948 15.3217C76.9948 15.3515 76.9648 15.4113 76.9347 15.471Z" fill="white"/>
<path fill-rule="evenodd" clip-rule="evenodd" d="M48.613 14.6863C44.2652 13.5214 52.0291 13.7305 49.164 14.6564C48.9937 14.6564 48.8134 14.6564 48.613 14.6863Z" fill="white"/>
<path fill-rule="evenodd" clip-rule="evenodd" d="M49.9259 13.4896C46.8303 13.1411 49.5753 12.9122 50.8275 13.171C50.8275 13.3801 50.016 13.4896 49.9259 13.4896Z" fill="white"/>
<path fill-rule="evenodd" clip-rule="evenodd" d="M65.6341 8.68118C64.6123 8.62144 63.6505 8.74092 64.9629 8.10372C65.4037 8.09377 66.6259 8.44223 65.6341 8.68118Z" fill="#FFF9AE"/>
<path fill-rule="evenodd" clip-rule="evenodd" d="M41.1901 6.93922C40.2885 6.7401 40.2584 4.70905 40.579 4.04199C41.13 4.58958 42.5025 6.50115 41.1901 6.93922Z" fill="#D8CF84"/>
<path fill-rule="evenodd" clip-rule="evenodd" d="M42.6227 6.09364C40.048 4.18207 40.8094 2.23067 42.9733 5.68544C42.9733 6.09364 42.9132 6.03391 42.6227 6.09364Z" fill="#FFF9AE"/>
<path fill-rule="evenodd" clip-rule="evenodd" d="M56.9183 19.4849C57.1487 19.4849 57.329 19.684 57.329 19.9329C57.329 20.1818 57.1487 20.3809 56.9183 20.3809C56.6879 20.3809 56.5076 20.1818 56.5076 19.9329C56.5076 19.684 56.6979 19.4849 56.9183 19.4849Z" fill="white"/>
<path fill-rule="evenodd" clip-rule="evenodd" d="M61.166 19.2346C61.4064 19.2346 61.6068 19.4437 61.6068 19.7026C61.6068 19.9614 61.4064 20.1705 61.166 20.1705C60.9256 20.1705 60.7252 19.9614 60.7252 19.7026C60.7252 19.4437 60.9256 19.2346 61.166 19.2346Z" fill="white"/>
<path fill-rule="evenodd" clip-rule="evenodd" d="M74.2695 16.4685C75.3715 17.3247 79.2685 19.1069 79.2685 20.2319C77.6355 20.2319 76.5235 17.7031 75.121 17.2451C71.7049 17.2451 79.589 21.2773 76.9343 20.6401C76.3532 20.2021 71.8251 17.8922 74.0992 19.6545C76.4534 21.4764 75.9124 21.586 74.009 20.67C73.8688 20.6003 76.233 24.3239 74.8004 23.3681C73.428 20.0627 73.0774 22.0937 73.5983 24.1248C73.999 25.0407 74.4298 25.2399 74.8706 25.0806L73.428 26.1956L72.9772 24.1745L73.1475 21.3072L73.3779 18.7186L74.2695 16.4685Z" fill="white"/>
<path fill-rule="evenodd" clip-rule="evenodd" d="M48.8637 23.5666C48.8637 23.4272 48.8237 23.238 48.7535 22.9891C49.7153 21.0477 46.8802 22.0035 48.1424 21.2767C50.4466 21.0477 48.9339 19.5045 46.3893 20.759C44.4057 20.759 51.0376 19.7733 48.6934 18.8474C48.3628 17.9812 49.6852 19.0764 50.0158 18.5487L50.2863 20.301L49.7253 22.2125L48.8637 23.5666Z" fill="white"/>
</svg>
