<svg width="229" height="228" viewBox="0 0 229 228" fill="none" xmlns="http://www.w3.org/2000/svg">
<g clip-path="url(#clip0_569_25411)">
<path d="M114.5 228C177.46 228 228.5 176.96 228.5 114C228.5 51.0395 177.46 0 114.5 0C51.5395 0 0.5 51.0395 0.5 114C0.5 176.96 51.5395 228 114.5 228Z" fill="#EFEFEF"/>
<mask id="mask0_569_25411" style="mask-type:alpha" maskUnits="userSpaceOnUse" x="0" y="0" width="229" height="228">
<path d="M114.5 228C177.46 228 228.5 176.96 228.5 114C228.5 51.0395 177.46 0 114.5 0C51.5395 0 0.5 51.0395 0.5 114C0.5 176.96 51.5395 228 114.5 228Z" fill="#F6F7FA"/>
</mask>
<g mask="url(#mask0_569_25411)">
<path d="M146.443 364.432H-107.443C-121.834 364.432 -133.5 352.766 -133.5 338.375V78.0574C-133.5 63.6664 -121.834 52.0002 -107.443 52.0002H146.443C160.834 52.0002 172.5 63.6664 172.5 78.0574V338.375C172.5 352.766 160.834 364.432 146.443 364.432Z" fill="white"/>
<path d="M50.2143 135H-44.2143C-53.2086 135 -60.5 127.708 -60.5 118.714V89.2852C-60.5 80.2908 -53.2086 72.9995 -44.2143 72.9995H50.2143C59.2087 72.9995 66.5001 80.2908 66.5001 89.2852V118.714C66.5001 127.708 59.2087 135 50.2143 135Z" fill="#FFEE02"/>
<path d="M142.5 169H-48.5C-52.9183 169 -56.5 165.418 -56.5 161C-56.5 156.582 -52.9183 153 -48.5 153H142.5C146.918 153 150.5 156.582 150.5 161C150.5 165.418 146.918 169 142.5 169Z" fill="#FFEE02"/>
<path d="M134.214 253H28.7857C19.7914 253 12.5 245.709 12.5 236.715V201.286C12.5 192.292 19.7914 185 28.7857 185H134.214C143.209 185 150.5 192.292 150.5 201.286V236.715C150.5 245.709 143.209 253 134.214 253Z" fill="#FFEE02"/>
</g>
<path d="M127.449 100.211C130.156 98.4138 132.187 95.8488 133.246 92.888C134.306 89.9273 134.339 86.7247 133.341 83.7449C132.343 80.7651 130.366 78.1631 127.697 76.3162C125.027 74.4693 121.804 73.4736 118.495 73.4736C115.185 73.4736 111.962 74.4693 109.293 76.3162C106.623 78.1631 104.646 80.7651 103.648 83.7449C102.65 86.7247 102.683 89.9273 103.743 92.888C104.802 95.8488 106.833 98.4138 109.54 100.211C103.722 102.007 98.6527 105.492 95.0543 110.169C91.4558 114.845 89.5121 120.475 89.5 126.256C89.5 128.707 89.8015 132.145 92.3322 133.721C95.1966 135.511 98.9333 134.006 103.65 132.094C107.861 130.447 113.105 128.29 118.489 128.29C123.874 128.29 129.15 130.447 133.35 132.094C136.581 133.406 139.37 134.525 141.706 134.525C142.761 134.55 143.798 134.269 144.679 133.721C147.209 132.145 147.5 128.707 147.5 126.256C147.487 120.474 145.542 114.843 141.941 110.166C138.341 105.49 133.269 102.006 127.449 100.211ZM107.236 88.2102C107.236 86.1083 107.896 84.0535 109.132 82.3058C110.369 80.5581 112.127 79.1959 114.183 78.3915C116.239 77.5871 118.502 77.3766 120.685 77.7867C122.868 78.1968 124.873 79.209 126.446 80.6953C128.02 82.1816 129.092 84.0753 129.526 86.1369C129.96 88.1984 129.738 90.3353 128.886 92.2773C128.034 94.2192 126.592 95.8791 124.741 97.0469C122.891 98.2146 120.715 98.838 118.489 98.838C115.506 98.8353 112.645 97.7147 110.535 95.7222C108.425 93.7297 107.239 91.028 107.236 88.2102ZM142.31 130.325C141.373 130.914 137.862 129.491 135.051 128.352C130.486 126.511 124.81 124.222 118.5 124.222C112.19 124.222 106.525 126.511 101.959 128.352C99.1379 129.491 95.6381 130.914 94.7013 130.325C94.5505 130.233 93.8075 129.602 93.8075 126.256C93.8075 120.072 96.409 114.14 101.04 109.767C105.67 105.393 111.951 102.936 118.5 102.936C125.049 102.936 131.33 105.393 135.96 109.767C140.591 114.14 143.193 120.072 143.193 126.256C143.193 129.602 142.449 130.233 142.31 130.325Z" fill="#E31E25"/>
</g>
<defs>
<clipPath id="clip0_569_25411">
<rect width="228" height="228" fill="white" transform="translate(0.5)"/>
</clipPath>
</defs>
</svg>
