<svg xmlns="http://www.w3.org/2000/svg" width="292" height="341" fill="none" viewBox="0 0 292 341">
  <g clip-path="url(#a)">
    <path fill="#EEF5F9" d="M146.01 0 0 84.16l10.035 5.781L146 11.565 281.965 89.94 292 84.16 146.01 0Z"/>
    <path fill="#F4CB95" d="M281.965 239.339 146 160.962V11.565l135.965 78.377v149.397Z"/>
    <path fill="#DBB27C" d="M10.035 239.339 146 160.962V11.565L10.035 89.942v149.397Z"/>
    <path fill="#D4DBDF" d="m292 233.556-10.035 5.783V89.942L292 84.159v149.397Z"/>
    <path fill="#BBC2C6" d="m0 233.556 10.035 5.783V89.942L0 84.159v149.397Zm146 84.159V341L0 256.841v-23.285l146 84.159Z"/>
    <path fill="#D4DBDF" d="M292 256.841 146 341v-23.285l146-84.159v23.285Z"/>
    <path fill="#4E2617" d="M281.965 239.338 146 317.715v4.296l135.965-78.377v-4.296Z"/>
    <path fill="#350D00" d="M10.035 239.338v4.296L146 322.011v-4.296L10.035 239.338Z"/>
    <path fill="#673F30" d="M281.965 239.339 146 317.715 10.035 239.339 146 160.962l135.965 78.377Z"/>
    <path fill="#000" d="M10.035 89.873 145.046 12.1l1.45 150.252-135.01 77.775-1.45-150.253Z" opacity=".2" style="mix-blend-mode:multiply"/>
    <path fill="#000" d="m216.751 52.313-70.762-40.748-1.45 150.252 70.761 40.748 1.451-150.252Z" opacity=".2" style="mix-blend-mode:multiply"/>
    <path fill="url(#b)" d="m148.15 14.48-3.611-2.08v149.417l3.601 2.08.01-149.417Z"/>
    <path fill="url(#c)" d="m149.601 13.644-1.451.836v149.417l1.451-.836V13.644Z"/>
    <path fill="url(#d)" d="m145.989 11.565-1.45.835 1.45.836v-1.671Z"/>
    <path fill="#000" d="m148.151 14.48 1.45-.836-3.611-2.08v1.672l2.161 1.244Z" opacity=".2" style="mix-blend-mode:multiply"/>
    <path fill="url(#e)" d="m180.924 33.372-3.612-2.08V180.71l3.612 2.079V33.372Z"/>
    <path fill="url(#f)" d="m182.374 32.536-1.45.836v149.416l1.45-.835V32.536Z"/>
    <path fill="url(#g)" d="m178.763 30.456-1.451.836 1.451.836v-1.672Z"/>
    <path fill="#000" d="m180.924 33.372 1.451-.836-3.611-2.08v1.672l2.16 1.244Z" opacity=".2" style="mix-blend-mode:multiply"/>
    <path fill="url(#h)" d="m215.224 53.148-3.611-2.08v149.417l3.611 2.08V53.149Z"/>
    <path fill="url(#i)" d="m216.675 52.313-1.45.835v149.417l1.45-.836V52.313Z"/>
    <path fill="url(#j)" d="m213.073 50.233-1.46.836 1.46.836v-1.672Z"/>
    <path fill="#000" d="m215.225 53.149 1.451-.836-3.602-2.08v1.672l2.151 1.244Z" opacity=".2" style="mix-blend-mode:multiply"/>
    <path fill="url(#k)" d="m246.623 71.244-3.611-2.08v149.417l3.611 2.079V71.244Z"/>
    <path fill="url(#l)" d="m248.073 70.408-1.45.836V220.66l1.45-.836V70.408Z"/>
    <path fill="url(#m)" d="m244.462 68.328-1.45.836 1.45.836v-1.672Z"/>
    <path fill="#000" d="m246.624 71.244 1.45-.836-3.611-2.08V70l2.161 1.244Z" opacity=".2" style="mix-blend-mode:multiply"/>
    <path fill="url(#n)" d="m279.472 90.165-3.611-2.08v149.417l3.611 2.079V90.165Z"/>
    <path fill="url(#o)" d="m280.923 89.33-1.45.835V239.58l1.45-.835V89.329Z"/>
    <path fill="url(#p)" d="m277.312 87.25-1.451.835 1.451.836v-1.672Z"/>
    <path fill="#000" d="m279.473 90.165 1.451-.836-3.612-2.08v1.672l2.161 1.244Z" opacity=".2" style="mix-blend-mode:multiply"/>
    <path fill="url(#q)" d="m110.309 33.78 3.611-2.08.009 149.417-3.611 2.08-.009-149.417Z"/>
    <path fill="url(#r)" d="m108.867 32.944 1.441.836v149.417l-1.451-.836.01-149.417Z"/>
    <path fill="url(#s)" d="m112.469 30.865 1.45.836-1.45.835v-1.671Z"/>
    <path fill="#000" d="m110.308 33.78-1.451-.836 3.611-2.08v1.672l-2.16 1.244Z" opacity=".2" style="mix-blend-mode:multiply"/>
    <path fill="url(#t)" d="m76.768 53.06 3.61-2.079v149.417l-3.61 2.079V53.061Z"/>
    <path fill="url(#u)" d="m75.316 52.225 1.45.836-.01 149.416-1.44-.835V52.225Z"/>
    <path fill="url(#v)" d="m78.918 50.145 1.46.836-1.46.836v-1.672Z"/>
    <path fill="#000" d="m76.767 53.061-1.45-.836 3.6-2.08v1.672l-2.15 1.244Z" opacity=".2" style="mix-blend-mode:multiply"/>
    <path fill="url(#w)" d="m43.986 72.001 3.611-2.089v149.426l-3.61 2.08V72.001Z"/>
    <path fill="url(#x)" d="m42.535 71.166 1.45.835-.01 149.417-1.44-.836V71.166Z"/>
    <path fill="url(#y)" d="m46.137 69.086 1.46.826-1.46.846v-1.672Z"/>
    <path fill="#000" d="m43.985 72.002-1.45-.836 3.602-2.08v1.672l-2.152 1.244Z" opacity=".2" style="mix-blend-mode:multiply"/>
    <path fill="url(#z)" d="m11.486 90.71 3.611-2.08v149.416l-3.61 2.08V90.709Z"/>
    <path fill="url(#A)" d="m10.035 89.873 1.45.836v149.417l-1.45-.836V89.873Z"/>
    <path fill="url(#B)" d="m13.646 87.794 1.45.835-1.45.836v-1.671Z"/>
    <path fill="#000" d="m11.485 90.71-1.45-.837 3.611-2.08v1.672l-2.16 1.244Z" opacity=".2" style="mix-blend-mode:multiply"/>
    <path fill="url(#C)" d="m246.623 71.555-3.611-2.08-.01 149.416 3.611 2.08.01-149.416Z"/>
    <path fill="url(#D)" d="m246.623 71.555-3.611-2.08 1.45-.836 3.611 2.08-1.45.836Z"/>
    <path fill="url(#E)" d="m248.073 70.719-1.45.836V220.97l1.45-.836V70.719Z"/>
    <path fill="url(#F)" d="m279.463 90.583-3.602-2.08-.009 149.417 3.611 2.079V90.583Z"/>
    <path fill="url(#G)" d="m279.463 90.583-3.602-2.08 1.451-.835 3.611 2.08-1.46.835Z"/>
    <path fill="url(#H)" d="m280.913 89.747-1.45.836.01 149.416 1.45-.835-.01-149.417Z"/>
    <path fill="url(#I)" d="m177.828 33.197-34.67-19.98v149.377l34.67 19.981V33.197Z"/>
    <path fill="#EEF5F9" d="m177.828 33.197-34.67-19.98 1.412-.817 34.67 19.98-1.412.817Z"/>
    <path fill="#AFB4B8" d="m179.239 32.38-1.411.817v149.378l1.411-.817V32.381Z"/>
    <path fill="url(#J)" d="m112.654 33.984 33.259-19.174v149.456l-33.259 19.174V33.984Z"/>
    <path fill="#EEF5F9" d="m112.654 33.984 33.259-19.174-1.353-.777-33.259 19.174 1.353.777Z"/>
    <path fill="#AFB4B8" d="m111.301 33.207 1.353.777V183.45l-1.353-.787V33.207Z"/>
    <path fill="url(#K)" d="m79.394 53.158 33.259-19.174V183.44l-33.259 19.174V53.158Z"/>
    <path fill="#EEF5F9" d="m79.394 53.158 33.259-19.174-1.353-.777L78.041 52.38l1.353.777Z"/>
    <path fill="#AFB4B8" d="m78.041 52.38 1.353.778v149.465l-1.353-.787V52.381Z"/>
    <path fill="url(#L)" d="m46.137 72.332 33.258-19.174v149.456l-33.258 19.173V72.332Z"/>
    <path fill="#EEF5F9" d="m46.136 72.332 33.259-19.174-1.353-.777-33.259 19.174 1.353.777Z"/>
    <path fill="#AFB4B8" d="m44.783 71.555 1.353.777v149.465l-1.353-.787V71.555Z"/>
    <path fill="url(#M)" d="m12.877 91.506 33.259-19.174v149.455l-33.259 19.174V91.506Z"/>
    <path fill="#EEF5F9" d="m12.876 91.506 33.26-19.174-1.354-.777-33.259 19.174 1.353.777Z"/>
    <path fill="#A2A7AB" d="m11.523 90.728 1.363.778v149.465l-1.363-.787V90.728Z"/>
    <path fill="url(#N)" d="m212.498 53.188-34.67-19.99v149.377l34.67 19.99V53.188Z"/>
    <path fill="#EEF5F9" d="m212.498 53.187-34.67-19.99 1.411-.816 34.671 19.99-1.412.816Z"/>
    <path fill="#AFB4B8" d="m213.909 52.371-1.411.816v149.378l1.411-.816V52.371Z"/>
    <path fill="#2E383B" d="M78.713 55.277a.639.639 0 0 1-.282.486c-.156.087-.283.02-.283-.165s.127-.399.283-.486c.155-.088.282-.02.282.165Zm0 18.27a.639.639 0 0 1-.282.486c-.156.087-.283.02-.283-.165s.127-.399.283-.486c.155-.088.282-.02.282.165Zm0 18.261a.639.639 0 0 1-.282.485c-.156.088-.283.02-.283-.165a.61.61 0 0 1 .283-.486c.155-.087.282-.02.282.166Zm0 18.27a.622.622 0 0 1-.282.485c-.156.088-.283.02-.283-.165a.61.61 0 0 1 .283-.486c.155-.087.282-.019.282.166Zm0 18.26a.624.624 0 0 1-.282.486c-.156.087-.283.019-.283-.165 0-.185.127-.399.283-.486.155-.088.282-.02.282.165Zm0 18.27a.638.638 0 0 1-.282.486c-.156.087-.283.019-.283-.165 0-.185.127-.399.283-.486.155-.088.282-.02.282.165Zm0 18.261a.622.622 0 0 1-.282.485c-.156.088-.283.02-.283-.165a.61.61 0 0 1 .283-.486c.155-.087.282-.019.282.166Zm0 18.27a.622.622 0 0 1-.282.485c-.156.088-.283.02-.283-.165 0-.184.127-.388.283-.486.155-.087.282-.019.282.166Zm0 18.26a.622.622 0 0 1-.282.486c-.156.087-.283.019-.283-.165 0-.185.127-.389.283-.486.155-.088.282-.02.282.165ZM81.147 53.81a.639.639 0 0 1-.283.485c-.155.088-.282.02-.282-.165 0-.184.127-.398.282-.486.156-.087.283-.02.283.166Zm0 18.26a.623.623 0 0 1-.283.486c-.155.087-.282.02-.282-.165s.127-.399.282-.486c.156-.088.283-.02.283.165Zm0 18.27a.623.623 0 0 1-.283.486c-.155.087-.282.02-.282-.165s.127-.389.282-.486c.156-.088.283-.02.283.165Zm0 18.26a.622.622 0 0 1-.283.486c-.155.088-.282.02-.282-.165a.61.61 0 0 1 .282-.486c.156-.087.283-.019.283.165Zm0 18.27a.638.638 0 0 1-.283.486c-.155.088-.282.02-.282-.165 0-.184.127-.389.282-.486.156-.087.283-.019.283.165Zm0 18.261a.64.64 0 0 1-.283.486c-.155.087-.282.019-.282-.166 0-.184.127-.398.282-.485.156-.088.283-.02.283.165Zm0 18.27a.638.638 0 0 1-.283.486c-.155.087-.282.019-.282-.165 0-.185.127-.399.282-.486.156-.088.283-.02.283.165Zm0 18.26a.622.622 0 0 1-.283.486c-.155.088-.282.02-.282-.165s.127-.398.282-.486c.156-.087.283-.019.283.165Zm0 18.271a.638.638 0 0 1-.283.485c-.155.088-.282.02-.282-.165a.61.61 0 0 1 .282-.486c.156-.087.283-.019.283.166Zm30.972-164.15a.637.637 0 0 1-.282.486c-.156.088-.282.02-.282-.165s.126-.398.282-.486c.156-.087.282-.02.282.165Zm0 18.27a.622.622 0 0 1-.282.486c-.156.088-.282.02-.282-.165s.126-.398.282-.486c.156-.087.282-.02.282.165Zm0 18.261a.622.622 0 0 1-.282.486c-.156.087-.282.02-.282-.165s.126-.399.282-.486c.156-.088.282-.02.282.165Zm0 18.27a.637.637 0 0 1-.282.486c-.156.087-.282.02-.282-.165s.126-.399.282-.486c.156-.088.282-.02.282.165Zm0 18.26a.621.621 0 0 1-.282.486c-.156.088-.282.02-.282-.165s.126-.398.282-.486c.156-.087.282-.019.282.165Zm0 18.27a.621.621 0 0 1-.282.486c-.156.088-.282.02-.282-.165s.126-.389.282-.486c.156-.087.282-.019.282.165Zm0 18.261a.623.623 0 0 1-.282.486c-.156.087-.282.019-.282-.165 0-.185.126-.399.282-.486.156-.088.282-.02.282.165Zm0 18.27a.623.623 0 0 1-.282.486c-.156.087-.282.019-.282-.165 0-.185.126-.389.282-.486.156-.088.282-.02.282.165Zm0 18.26a.637.637 0 0 1-.282.486c-.156.088-.282.02-.282-.165s.126-.398.282-.486c.156-.087.282-.019.282.165Zm2.434-147.589a.624.624 0 0 1-.282.486c-.156.087-.283.02-.283-.166 0-.184.127-.398.283-.485.155-.088.282-.02.282.165Zm0 18.26a.624.624 0 0 1-.282.486c-.156.088-.283.02-.283-.165s.127-.389.283-.486c.155-.087.282-.02.282.165Zm0 18.27a.625.625 0 0 1-.282.486c-.156.088-.283.02-.283-.165s.127-.389.283-.486c.155-.087.282-.02.282.165Zm0 18.261a.625.625 0 0 1-.282.486c-.156.087-.283.02-.283-.165s.127-.399.283-.486c.155-.088.282-.02.282.165Zm0 18.27a.625.625 0 0 1-.282.486c-.156.087-.283.019-.283-.165 0-.185.127-.399.283-.486.155-.088.282-.02.282.165Zm0 18.26a.624.624 0 0 1-.282.486c-.156.087-.283.019-.283-.165 0-.185.127-.399.283-.486.155-.088.282-.02.282.165Zm0 18.27a.64.64 0 0 1-.282.486c-.156.088-.283.02-.283-.165s.127-.398.283-.486c.155-.087.282-.019.282.165Zm0 18.261a.625.625 0 0 1-.282.486c-.156.087-.283.019-.283-.166a.61.61 0 0 1 .283-.486c.155-.087.282-.019.282.166Zm0 18.27a.625.625 0 0 1-.282.486c-.156.087-.283.019-.283-.165 0-.185.127-.389.283-.486.155-.088.282-.02.282.165Zm63.976-144.694c0 .175.127.399.283.486.155.088.282.02.282-.165a.625.625 0 0 0-.282-.486c-.156-.087-.283-.02-.283.165Zm0 18.27c0 .175.127.399.283.486.155.088.282.02.282-.165a.625.625 0 0 0-.282-.486c-.156-.087-.283-.02-.283.165Zm0 18.271c0 .174.127.398.283.485.155.088.282.02.282-.165a.61.61 0 0 0-.282-.486c-.156-.087-.283-.02-.283.166Zm0 18.26c0 .175.127.389.283.486.155.087.282.02.282-.165a.61.61 0 0 0-.282-.486c-.156-.088-.283-.02-.283.165Zm0 18.26c0 .175.127.389.283.486.155.088.282.02.282-.165a.61.61 0 0 0-.282-.486c-.156-.087-.283-.019-.283.165Zm0 18.27c0 .175.127.399.283.486.155.088.282.02.282-.165a.61.61 0 0 0-.282-.486c-.156-.087-.283-.019-.283.165Zm0 18.261c0 .175.127.389.283.486.155.087.282.019.282-.165a.609.609 0 0 0-.282-.486c-.156-.088-.283-.02-.283.165Zm0 18.27c0 .175.127.398.283.486.155.087.282.019.282-.165a.624.624 0 0 0-.282-.486c-.156-.088-.283-.02-.283.165Zm0 18.26c0 .175.127.399.283.486.155.088.282.02.282-.165a.624.624 0 0 0-.282-.486c-.156-.087-.283-.019-.283.165Zm-2.433-147.589c0 .175.126.388.282.486.156.087.282.02.282-.166a.622.622 0 0 0-.282-.485c-.156-.088-.282-.02-.282.165Zm0 18.27c0 .175.126.389.282.486.156.087.282.02.282-.165a.622.622 0 0 0-.282-.486c-.156-.088-.282-.02-.282.165Zm0 18.26c0 .175.126.399.282.486.156.088.282.02.282-.165a.607.607 0 0 0-.282-.486c-.156-.087-.282-.02-.282.165Zm0 18.27c0 .175.126.399.282.486.156.088.282.02.282-.165a.607.607 0 0 0-.282-.486c-.156-.087-.282-.02-.282.165Zm0 18.261c0 .175.126.389.282.486.156.087.282.019.282-.165a.621.621 0 0 0-.282-.486c-.156-.088-.282-.02-.282.165Zm0 18.27c0 .175.126.389.282.486.156.087.282.019.282-.165a.621.621 0 0 0-.282-.486c-.156-.088-.282-.02-.282.165Zm0 18.26c0 .175.126.389.282.486.156.088.282.02.282-.165a.608.608 0 0 0-.282-.486c-.156-.087-.282-.019-.282.165Zm0 18.27c0 .175.126.399.282.486.156.088.282.02.282-.165a.621.621 0 0 0-.282-.486c-.156-.087-.282-.019-.282.165Zm0 18.261c0 .175.126.398.282.486.156.087.282.019.282-.165a.621.621 0 0 0-.282-.486c-.156-.088-.282-.02-.282.165Zm-30.709-164.12a.625.625 0 0 1-.282.486c-.156.087-.283.02-.283-.165s.127-.399.283-.486c.155-.088.282-.02.282.165Zm0 18.27a.625.625 0 0 1-.282.486c-.156.087-.283.02-.283-.165s.127-.399.283-.486c.155-.088.282-.02.282.165Zm0 18.261a.625.625 0 0 1-.282.485c-.156.088-.283.02-.283-.165a.61.61 0 0 1 .283-.486c.155-.087.282-.02.282.166Zm0 18.27a.624.624 0 0 1-.282.485c-.156.088-.283.02-.283-.165a.61.61 0 0 1 .283-.486c.155-.087.282-.02.282.166Zm0 18.26a.64.64 0 0 1-.282.486c-.156.087-.283.02-.283-.165s.127-.389.283-.486c.155-.088.282-.02.282.165Zm0 18.27a.64.64 0 0 1-.282.486c-.156.087-.283.019-.283-.165 0-.185.127-.389.283-.486.155-.088.282-.02.282.165Zm0 18.261a.624.624 0 0 1-.282.485c-.156.088-.283.02-.283-.165a.61.61 0 0 1 .283-.486c.155-.087.282-.019.282.166Zm0 18.27a.624.624 0 0 1-.282.485c-.156.088-.283.02-.283-.165a.61.61 0 0 1 .283-.486c.155-.087.282-.019.282.166Zm0 18.26a.64.64 0 0 1-.282.486c-.156.087-.283.019-.283-.165 0-.185.127-.399.283-.486.155-.088.282-.02.282.165Zm65-108.581c0 .175.126.398.282.486.156.087.282.02.282-.165a.607.607 0 0 0-.282-.486c-.156-.088-.282-.02-.282.165Zm0 18.261a.62.62 0 0 0 .282.485c.156.088.282.02.282-.165a.622.622 0 0 0-.282-.486c-.156-.087-.282-.02-.282.165Zm0 18.27c0 .174.126.388.282.485.156.088.282.02.282-.165a.607.607 0 0 0-.282-.486c-.156-.087-.282-.02-.282.166Zm0 18.26c0 .175.126.398.282.486.156.087.282.019.282-.166a.606.606 0 0 0-.282-.485c-.156-.088-.282-.02-.282.165Zm0 18.27c0 .175.126.398.282.486.156.087.282.019.282-.165a.606.606 0 0 0-.282-.486c-.156-.088-.282-.02-.282.165Zm0 18.26c0 .175.126.399.282.486.156.088.282.02.282-.165a.608.608 0 0 0-.282-.486c-.156-.087-.282-.019-.282.165Zm0 18.271c0 .174.126.388.282.485.156.088.282.02.282-.165a.609.609 0 0 0-.282-.486c-.156-.087-.282-.019-.282.166Zm0 18.26c0 .175.126.398.282.486.156.087.282.019.282-.166a.606.606 0 0 0-.282-.485c-.156-.088-.282-.02-.282.165Zm0 18.27c0 .175.126.399.282.486.156.087.282.019.282-.165a.606.606 0 0 0-.282-.486c-.156-.088-.282-.02-.282.165ZM14.932 92.157a.638.638 0 0 1-.283.486c-.155.088-.282.02-.282-.165s.127-.399.282-.486c.156-.088.283-.02.283.165Zm0 18.27a.638.638 0 0 1-.283.486c-.155.088-.282.019-.282-.165 0-.185.127-.399.282-.486.156-.088.283-.02.283.165Zm0 18.261a.64.64 0 0 1-.283.486c-.155.087-.282.019-.282-.166a.61.61 0 0 1 .282-.486c.156-.087.283-.019.283.166Zm0 18.27a.64.64 0 0 1-.283.486c-.155.087-.282.019-.282-.166a.61.61 0 0 1 .282-.486c.156-.087.283-.019.283.166Zm0 18.26a.622.622 0 0 1-.283.486c-.155.088-.282.02-.282-.165s.127-.399.282-.486c.156-.088.283-.019.283.165Zm0 18.27a.622.622 0 0 1-.283.486c-.155.088-.282.02-.282-.165s.127-.399.282-.486c.156-.087.283-.019.283.165Zm0 18.261a.624.624 0 0 1-.283.486c-.155.087-.282.019-.282-.166a.61.61 0 0 1 .282-.486c.156-.087.283-.019.283.156v.01Zm0 18.27a.624.624 0 0 1-.283.486c-.155.087-.282.019-.282-.166 0-.184.127-.388.282-.486.156-.087.283-.019.283.166Zm0 18.26a.622.622 0 0 1-.283.486c-.155.088-.282.02-.282-.165s.127-.399.282-.486c.156-.087.283-.019.283.165ZM45.338 74.276a.623.623 0 0 1-.282.486c-.156.087-.283.02-.283-.165s.127-.399.283-.486c.155-.088.282-.02.282.165Zm0 18.27a.639.639 0 0 1-.282.486c-.156.087-.283.02-.283-.165s.127-.399.283-.486c.155-.088.282-.02.282.165Zm0 18.26a.622.622 0 0 1-.282.486c-.156.088-.283.02-.283-.165s.127-.398.283-.486c.155-.087.282-.019.282.165Zm0 18.27a.622.622 0 0 1-.282.486c-.156.088-.283.02-.283-.165s.127-.398.283-.486c.155-.087.282-.019.282.165Zm0 18.261a.638.638 0 0 1-.282.486c-.156.087-.283.019-.283-.165 0-.185.127-.399.283-.486.155-.088.282-.02.282.165Zm0 18.27a.624.624 0 0 1-.282.486c-.156.087-.283.019-.283-.165 0-.185.127-.389.283-.486.155-.088.282-.02.282.165Zm0 18.26a.622.622 0 0 1-.282.486c-.156.088-.283.02-.283-.165s.127-.398.283-.486c.155-.087.282-.019.282.165Zm0 18.27a.638.638 0 0 1-.282.486c-.156.088-.283.02-.283-.165s.127-.398.283-.486c.155-.087.282-.019.282.165Zm0 18.261a.638.638 0 0 1-.282.486c-.156.087-.283.019-.283-.165 0-.185.127-.399.283-.486.155-.088.282-.02.282.165Zm2.434-147.59a.623.623 0 0 1-.283.486c-.155.088-.282.02-.282-.165s.127-.398.282-.486c.156-.087.283-.02.283.165Zm0 18.261a.638.638 0 0 1-.283.486c-.155.087-.282.02-.282-.166 0-.184.127-.398.282-.486.156-.087.283-.019.283.166Zm0 18.27a.64.64 0 0 1-.283.486c-.155.087-.282.019-.282-.166 0-.184.127-.398.282-.485.156-.088.283-.02.283.165Zm0 18.26a.638.638 0 0 1-.283.486c-.155.088-.282.02-.282-.165s.127-.398.282-.486c.156-.087.283-.019.283.165Zm0 18.27a.638.638 0 0 1-.283.486c-.155.088-.282.02-.282-.165s.127-.398.282-.486c.156-.087.283-.019.283.165Zm0 18.261a.622.622 0 0 1-.283.485c-.155.088-.282.02-.282-.165 0-.184.127-.388.282-.486.156-.087.283-.019.283.166Zm0 18.27a.624.624 0 0 1-.283.486c-.155.087-.282.019-.282-.166 0-.184.127-.398.282-.485.156-.088.283-.02.283.165Zm0 18.26a.624.624 0 0 1-.283.486c-.155.087-.282.019-.282-.165 0-.185.127-.389.282-.486.156-.088.283-.02.283.165Zm0 18.27a.622.622 0 0 1-.283.486c-.155.087-.282.019-.282-.155 0-.175.127-.399.282-.486.156-.088.283-.02.283.165v-.01Z"/>
    <path fill="url(#O)" d="m245.349 89.203-32.461-20.467-17.753 148.328 32.47 20.457 17.744-148.318Z"/>
    <path fill="#EEF5F9" d="m245.349 89.203-32.46-20.467 1.508-.787 32.471 20.467-1.519.787Z"/>
    <path fill="#AFB4B8" d="m246.868 88.415-1.519.788-17.753 148.328 1.518-.787 17.754-148.329Z"/>
    <path fill="#A2A9AD" d="M239.809 155.714s.214-.797.214-.991c0-.195-1.197-1.225-1.703-1.264-.506-.039-2.151-.233-2.57-.184-.418.038-.671 1.895-.613 2.439.068.544 3.787.894 4.682 0h-.01Z"/>
    <path fill="#4D1F00" d="M211.719 234.829c-.02.379.438 1.934.905 1.993.477.058 3.669.174 4.915.116 1.246-.058 3.261.515 3.222 2.818 0 0-.497 1.934-2.453 2.819-1.956.884-4.429.573-5.178.612a5.81 5.81 0 0 0-1.421.272l.136.865s-1.09.379-2.229.651c-1.148.272-3.124.379-4.01-.612 0 0-.311-1.876-.253-2.702.058-.826.419-2.07.73-2.954.321-.884.496-2.896.496-2.896l5.13-.982h.01Z"/>
    <path fill="#283539" d="M218.319 242.575c1.956-.885 2.452-2.819 2.452-2.819v-.243c-.477.846-1.255 2.002-2.112 2.449-1.401.729-4.146.69-5.353.729-1.207.039-2.764.632-3.494.943-.633.272-2.765.787-4.38-.671.078.719.194 1.4.194 1.4.886.981 2.862.884 4.01.612 1.149-.272 2.229-.651 2.229-.651l-.136-.865s.672-.233 1.421-.272c.75-.039 3.222.272 5.178-.612h-.009Z"/>
    <path fill="#4D1F00" d="M189.294 226.744s-.234 1.671-.458 2.624c-.214.942-.457 3.528-.477 4.441 0 0 .652.865 1.801 1.03 1.149.156 2.803-.155 3.455-1.953l.137-1.186s.788-1.185 1.557-1.185c.769 0 1.859-1.011 2.307-1.672.457-.671.418-1.691.331-2.527-.078-.826-.789-1.341-1.782-1.38-.983-.039-2.705.311-2.705.311l-4.186 1.497h.02Z"/>
    <path fill="#283539" d="M194.939 230.33c-.866.34-1.499 1.778-1.752 2.41-.253.632-1.363 1.244-2.871 1.127-.847-.068-1.499-.544-1.908-.952-.029.359-.049.68-.049.894 0 0 .652.865 1.801 1.03 1.149.156 2.803-.155 3.455-1.953l.137-1.186s.788-1.185 1.557-1.185c.769 0 1.859-1.011 2.307-1.672.156-.233.253-.505.311-.807-.847 1.4-2.248 2.012-2.998 2.304l.01-.01Z"/>
    <path fill="#004472" d="m200.322 186.151-1.12-3.965-5.061-2.721s-.876 3.615-1.149 4.879c-.272 1.263-1.177 6.443-.486 8.882 0 0-.477 10.836-.847 12.702-.36 1.865-1.207 4.091-1.694 4.995-.486.904-.934 3.43-1.022 6.385-.087 2.954-.593 13.547-.593 13.547s.827 2.128 3.309 1.234c2.482-.894 3.134-5.54 3.076-6.618-.059-1.089.272-6.2.905-8.552.633-2.352 1.09-6.142 1.693-6.988.604-.845 3.534-9.543 4.371-13.702.847-4.159-1.392-10.088-1.392-10.088l.01.01Z"/>
    <path fill="#00517F" d="M199.202 182.186s-1.849 4.898-1.45 8.406c.535 4.733 4.477 7.794 4.477 7.794s1.197 8.805 1.995 12.352c.799 3.538.312 6.861 0 8.678-.311 1.818-.331 6.065.438 10.486.76 4.432.409 11.691.409 11.691s4.828.885 6.921-.661c2.083-1.545 2.17-4.023 2.17-4.023s-1.596-6.696-1.421-10.408c.175-3.722.535-12.08.934-14.917.4-2.828.974-9.689 0-14.655-.973-4.957-2.433-8.319-2.433-8.319l-.662-6.016s-2.881 1.332-5.499 1.235c-2.618-.088-5.86-1.643-5.86-1.643h-.019Z"/>
    <path fill="#A70000" d="M204.595 148.95s.087.505-.321 1.205c-.4.7-3.31 4.276-4.215 5.199-.905.924-3.163 2.546-3.163 2.546l-4.371-4.888 9.977-5.432 1.606 1.059.487.321v-.01Z"/>
    <path fill="#8E0000" d="M196.896 157.9s2.258-1.623 3.164-2.546c.905-.923 3.815-4.509 4.214-5.199.399-.7.321-1.205.321-1.205l-.214-.136c-2.141 1.769-6.94 5.656-9.334 7.026l1.849 2.07v-.01Z"/>
    <path fill="#A70000" d="M195.746 152.896h-2.365s-4.321-.253-5.081 2.701c-.749 2.955-.272 4.548.536 7.542.808 2.993 3.153 7.57 3.348 7.949.185.379 3.251 2.575 3.251 2.575s7.835 4.092 10.57 4.199c2.735.107 4.03-2.158 4.03-4.014 0-1.72-.175-5.977-.204-7.444v-.292c0-1.078.058-4.771-.205-4.975-.253-.204-2.394-1.565-2.394-1.565l-1.635-1.263-9.851-5.423v.01Z"/>
    <path fill="#8E0000" d="M205.85 171.224c-.506 2.371-.934 4.645-1.051 6.443a6.48 6.48 0 0 0 1.197.204c2.735.107 4.03-2.157 4.03-4.013 0-1.497-.137-4.888-.185-6.715l-.38.174s-2.852.331-3.611 3.907Z"/>
    <path fill="#004472" d="M202.083 187.463s-.389-2.74 0-4.402l.604.087s-.516 3.042-.604 4.315Zm5.519-.447s-.068-2.119-.477-3.042l1.041-.175s-.233 2.177-.564 3.217Z"/>
    <path fill="#00517F" d="M210.025 173.848s-.107 2.546-2.735 2.731c-2.628.185-8.254-1.429-9.87-7.881 0 0 3.845-10.321 9.704-9.165l-1.528-1.253s-6.278-1.118-9.47 9.747l-.302-.156.097-.038c-3.192-7.6-.925-14.927-.925-14.927h-1.625c-1.499 6.841-.049 11.992.798 14.188-.097.535-.73 3.635-2.005 4.004 0 0 1.908 3.8 2.005 4.529.107.728-1.684 4.859-.681 5.471.993.612 4.282 3.061 8.867 3.634 4.584.574 8.273-.466 8.546-.728.263-.263-.886-8.329-.886-10.146l.01-.01Z"/>
    <path fill="#004472" d="M210.025 173.848s-.107 2.546-2.735 2.731a7.385 7.385 0 0 1-1.489-.068c.029.175.058.359.107.554.487 1.827 3.115 4.8 3.533 7.395.847-.185 1.372-.369 1.47-.466.263-.263-.886-8.329-.886-10.146Zm-16.148-5.53c-.311 1.098-.876 2.527-1.703 2.77 0 0 1.908 3.8 2.005 4.529.107.729-1.684 4.859-.681 5.471.253.155.661.428 1.197.768.233-1.205.574-2.488 1.051-3.479.964-1.993-1.119-8.047-1.859-10.068l-.01.009Z"/>
    <path fill="#A70000" d="m235.117 158.095-1.82.32s-2.55 1.079-4.176 1.895c-1.625.817-6.92 3.917-6.92 3.917s-1.557-.632-2.871-1.05c-1.305-.418-3.251-.719-3.251-.719s-2.259-2.527-5.967-3.265c-3.708-.739-4.789.291-5.168 1.496-.38 1.206.652 6.23 6.015 8.028 5.353 1.788 11.329 1.729 12.848 1.282 1.518-.447 10.862-7.774 11.349-8.59.487-.817-.029-3.305-.029-3.305l-.01-.009Z"/>
    <path fill="#D9906A" d="M194.928 148.513s1.216 2.526.574 3.926c-.642 1.399-.331 1.535-.331 1.535s5.723 2.964 7.719 3.1c0 0-.507-3.1.048-3.693.545-.592.662-1.03 1.256-1.185.594-.146 1.937-.438 1.878-1.419-.058-.982.215-2.07.253-2.702.039-.641-.009-1.166-.009-1.166s.866-.427.642-.933c-.224-.495-1.888-1.973-1.888-1.973l-10.133 4.5-.009.01Z"/>
    <path fill="#BF7650" d="M202.881 157.074s-.506-3.1.049-3.692c.545-.593.662-1.031 1.256-1.186.292-.078.788-.185 1.197-.398-1.489-.331-2.424-1.759-2.424-1.759s-.282.174-1.002-.35c-.73-.535-.507-3.003-.507-3.003s-1.975.67-2.073.69c-.097.029.253 1.448.613 3.207.283 1.36-.515 3.45-1.109 4.859 1.596.544 2.823 2.07 4.02 1.623l-.02.009Z"/>
    <path fill="#DB1919" d="M195.202 151.477s1.693.738 4.642 2.186c2.95 1.448 4.351 3.45 4.351 3.45l.575 1.157s-5.529-1.769-8.011-3.071c-2.492-1.302-2.579-2.556-2.579-2.556l1.022-1.166Z"/>
    <path fill="#320101" d="M195.687 151.457c.457.272 1.226.554 2.443.515 2.317-.077 2.949-2.74 2.832-3.838-.058-.545-.856-1.118-1.654-1.575l-4.38 1.944s.769 1.594.759 2.954Z"/>
    <path fill="#DB1919" d="M203.133 146.385s6.19-2.177 6.638-3.897c.448-1.73-3.932-2.177-6.774-1.264-2.852.914.136 5.161.136 5.161Z"/>
    <path fill="#A70000" d="M195.376 149.115s2.443 1.001 4.702-.048c2.258-1.04 5.236-3.8 5.966-6.793 0 0-.866-3.635-3.825-4.762-1.149-.438-2.823-.282-4.555.291-3.465 1.137-5.081 5.093-4.38 7.629.555 1.983 1.401 3.207 2.083 3.674l.009.009Z"/>
    <path fill="#320101" d="M194.589 148.309c.915.282 3.397.913 5.246 0 0 0-1.217-1.73-4.37-1.924-.828-.049-1.412.019-1.82.155.282.739.613 1.331.934 1.769h.01Z"/>
    <path fill="#BBC2C6" d="M235.029 152.682s-.486 1.244-.467 1.73c.02.486-.126 3.119-.272 3.284-.146.166-.993.72-.993.72s1.937 2.021 1.859 2.993c0 0 2.034-1.147 2.647-1.565 1.519-1.03 2.015-1.613 2.229-2.157.214-.545 0-2.945 0-2.945s-1.43-.418-2.005-.418c-.574 0-1.732-.126-1.752-.418-.019-.291.273-.797.273-.923s-.905-.612-1.519-.272v-.029Z"/>
    <path fill="#63747D" d="m153.123 138.698 18.055 44.859.983.447-18.269-45.384-.769.078Z"/>
    <path fill="#95A6AF" d="m155.139 135.986-1.733.262-.672 2.488 1.159-.116 18.269 45.383 1.645-1.661-18.668-46.356Z"/>
    <path fill="#AEBCC3" d="m154.195 126.764-.749-.428-21.706 79.242.983.447 21.725-79.3-.253.039Z"/>
    <path fill="#95A6AF" d="m154.447 126.725-21.724 79.3 1.635-.233 21.725-79.291-1.636.224Z"/>
    <path fill="#BCCDD6" d="M162.35 169.174c.448.262.448.68 0 .933l-4.847 2.789c-.448.252-1.168.252-1.616 0l-12.77-7.406c-.448-.252-.448-.68 0-.933l4.838-2.789c.447-.252 1.168-.252 1.615 0l12.77 7.406h.01Z"/>
    <path fill="#A3B4BD" d="m156.579 172.41-12.566-7.24c-.224-.127-.224-.34 0-.467l.156-.087s-.049.019-.068.029l-.205.116c-.223.127-.223.341 0 .467l12.566 7.24a.91.91 0 0 0 .808 0l.049-.029a.896.896 0 0 1-.74-.029Z"/>
    <path fill="#D6E6E6" d="m143.847 164.907.205-.116a.904.904 0 0 1 .808 0l12.565 7.24a.302.302 0 0 1 .166.223c.087-.116.048-.262-.117-.369l-12.566-7.24a.91.91 0 0 0-.808 0l-.204.117c-.117.068-.166.155-.166.243a.423.423 0 0 1 .117-.098Z"/>
    <path fill="#A3B4BD" d="m158.651 171.166-12.566-7.24c-.223-.127-.223-.34 0-.467l.156-.087s-.048.019-.068.029l-.204.117c-.224.126-.224.34 0 .466l12.565 7.24a.91.91 0 0 0 .808 0l.049-.029a.896.896 0 0 1-.74-.029Z"/>
    <path fill="#D6E6E6" d="m145.92 163.663.204-.116a.904.904 0 0 1 .808 0l12.566 7.24a.3.3 0 0 1 .165.223c.097-.116.058-.272-.117-.369l-12.566-7.24a.909.909 0 0 0-.807 0l-.205.117c-.117.068-.165.155-.165.242a.394.394 0 0 1 .117-.097Z"/>
    <path fill="#A3B4BD" d="m160.725 169.932-12.565-7.24c-.224-.127-.224-.341 0-.467l.155-.087s-.048.019-.068.029l-.204.116c-.224.127-.224.341 0 .467l12.566 7.24a.909.909 0 0 0 .807 0l.059-.029a.896.896 0 0 1-.74-.029h-.01Z"/>
    <path fill="#D6E6E6" d="m147.994 162.429.204-.116a.904.904 0 0 1 .808 0l12.566 7.24a.3.3 0 0 1 .165.223c.088-.117.049-.272-.117-.369l-12.565-7.24a.904.904 0 0 0-.808 0l-.205.116c-.116.068-.165.156-.165.243a.38.38 0 0 1 .117-.097Z"/>
    <path fill="#C24800" d="M162.68 169.64c0 .165-.107.34-.331.467l-4.847 2.789c-.448.252-1.168.252-1.616 0l-12.77-7.406c-.224-.126-.331-.301-.331-.466v1.215c0 .165.107.34.331.466l12.77 7.405c.448.253 1.168.263 1.616 0l4.847-2.789c.224-.126.331-.301.331-.466v-1.215Z"/>
    <path fill="#BCCDD6" d="M158.147 183.712c.448.253.448.68 0 .933l-4.847 2.789c-.448.253-1.178.253-1.616 0l-12.77-7.405c-.448-.263-.448-.681 0-.933l4.837-2.789c.448-.253 1.178-.253 1.616 0l12.77 7.405h.01Z"/>
    <path fill="#A3B4BD" d="m152.386 186.948-12.566-7.24c-.224-.126-.224-.34 0-.466l.156-.088s-.049.019-.069.029l-.204.117c-.224.126-.224.34 0 .466l12.566 7.24a.904.904 0 0 0 .808 0l.058-.029a.892.892 0 0 1-.74-.029h-.009Z"/>
    <path fill="#D6E6E6" d="m139.643 179.446.205-.117a.909.909 0 0 1 .807 0l12.566 7.24c.107.058.166.146.166.224.087-.117.048-.263-.117-.37l-12.566-7.24a.91.91 0 0 0-.808 0l-.204.117c-.117.068-.175.155-.166.243a.404.404 0 0 1 .117-.097Z"/>
    <path fill="#A3B4BD" d="m154.448 185.714-12.566-7.24c-.224-.126-.224-.34 0-.467l.156-.087s-.049.019-.068.029l-.204.117c-.224.126-.224.34 0 .466l12.565 7.24a.904.904 0 0 0 .808 0l.049-.029a.896.896 0 0 1-.74-.029Z"/>
    <path fill="#D6E6E6" d="m141.717 178.211.205-.116a.904.904 0 0 1 .808 0l12.565 7.24c.108.058.166.146.166.223.088-.116.049-.272-.117-.369l-12.566-7.24a.909.909 0 0 0-.807 0l-.205.117c-.117.068-.175.155-.165.243a.405.405 0 0 1 .116-.098Z"/>
    <path fill="#A3B4BD" d="m156.522 184.47-12.565-7.24c-.224-.126-.224-.34 0-.467l.155-.087s-.048.019-.068.029l-.204.117c-.224.126-.224.34 0 .466l12.566 7.24a.902.902 0 0 0 .807 0l.049-.029a.892.892 0 0 1-.74-.029Z"/>
    <path fill="#D6E6E6" d="m143.791 176.967.204-.116a.91.91 0 0 1 .808 0l12.566 7.24c.107.058.165.146.165.223.088-.116.049-.272-.117-.369l-12.565-7.24a.91.91 0 0 0-.808 0l-.205.117c-.117.068-.165.155-.165.243a.396.396 0 0 1 .117-.098Z"/>
    <path fill="#C24800" d="M158.477 184.178c0 .166-.107.341-.331.467l-4.847 2.789c-.448.253-1.178.253-1.616 0l-12.77-7.405c-.224-.127-.331-.302-.331-.467v1.215c0 .165.107.34.331.466l12.77 7.406c.448.252 1.168.252 1.616 0l4.847-2.789c.224-.127.331-.302.331-.467v-1.215Z"/>
    <path fill="#BCCDD6" d="M154.02 198.687c.448.263.448.681 0 .933l-4.837 2.79c-.448.252-1.178.252-1.616 0l-12.77-7.406c-.448-.262-.448-.68 0-.933l4.837-2.789c.448-.252 1.178-.252 1.616 0l12.77 7.405Z"/>
    <path fill="#A3B4BD" d="m148.259 201.933-12.566-7.24c-.224-.126-.224-.34 0-.466l.156-.088s-.049.02-.068.03l-.205.116c-.224.127-.224.34 0 .467l12.566 7.24a.91.91 0 0 0 .808 0l.048-.029a.89.89 0 0 1-.739-.03Z"/>
    <path fill="#D6E6E6" d="m135.526 194.431.204-.117a.91.91 0 0 1 .808 0l12.566 7.24a.304.304 0 0 1 .166.224c.097-.117.058-.263-.117-.37l-12.566-7.24a.91.91 0 0 0-.808 0l-.204.117c-.117.068-.175.156-.166.243a.38.38 0 0 1 .117-.097Z"/>
    <path fill="#A3B4BD" d="m150.321 200.689-12.566-7.24c-.223-.126-.223-.34 0-.466l.156-.087s-.049.019-.068.029l-.204.116c-.224.127-.224.34 0 .467l12.565 7.24a.91.91 0 0 0 .808 0l.049-.029a.892.892 0 0 1-.74-.03Z"/>
    <path fill="#D6E6E6" d="m137.589 193.187.205-.117a.91.91 0 0 1 .808 0l12.565 7.24a.301.301 0 0 1 .166.224c.088-.117.049-.272-.117-.369l-12.566-7.24a.902.902 0 0 0-.807 0l-.205.116c-.117.068-.165.156-.165.243a.387.387 0 0 1 .116-.097Z"/>
    <path fill="#A3B4BD" d="m152.395 199.455-12.565-7.24c-.224-.126-.224-.34 0-.466l.155-.088s-.048.02-.068.03l-.204.116c-.224.126-.224.34 0 .467l12.566 7.24a.909.909 0 0 0 .807 0l.049-.03a.888.888 0 0 1-.74-.029Z"/>
    <path fill="#D6E6E6" d="m139.664 191.953.204-.117a.91.91 0 0 1 .808 0l12.566 7.24a.302.302 0 0 1 .165.224c.088-.117.059-.272-.117-.37l-12.565-7.24a.91.91 0 0 0-.808 0l-.205.117c-.116.068-.165.156-.165.243a.38.38 0 0 1 .117-.097Z"/>
    <path fill="#C24800" d="M154.35 199.164c0 .165-.107.34-.331.466l-4.837 2.789c-.448.253-1.178.253-1.616 0l-12.77-7.405c-.224-.126-.331-.301-.331-.466v1.214c0 .166.107.341.331.467l12.77 7.405c.448.253 1.168.262 1.616 0l4.837-2.789c.224-.126.331-.301.331-.467v-1.214Z"/>
    <path fill="#BCCDD6" d="M174.956 150.738c.448.263.448.681 0 .933l-13.578 7.823c-.448.253-1.178.253-1.616 0l-12.77-7.405c-.448-.262-.448-.68 0-.933l13.578-7.823c.448-.253 1.178-.253 1.616 0l12.77 7.405Z"/>
    <path fill="#C24800" d="m174.955 151.681-13.578 7.823c-.448.253-1.178.253-1.616 0l-12.77-7.405c-.224-.126-.331-.301-.331-.467v1.215c0 .165.107.34.331.467l12.77 7.405c.448.262 1.178.262 1.616 0l13.578-7.823c.224-.127.331-.301.331-.467v-1.214c0 .165-.107.34-.331.466Z"/>
    <path fill="#A3B4BD" d="m160.598 158.892-12.565-7.24c-.224-.126-.224-.34 0-.467l.155-.087s-.048.019-.068.029l-.204.117c-.224.126-.224.34 0 .466l12.566 7.24a.91.91 0 0 0 .808 0l.048-.029a.896.896 0 0 1-.74-.029Z"/>
    <path fill="#D6E6E6" d="m147.869 151.389.204-.116a.904.904 0 0 1 .808 0l12.566 7.24c.107.058.165.146.165.223.088-.116.049-.272-.117-.369l-12.565-7.24a.91.91 0 0 0-.808 0l-.205.117c-.116.068-.165.155-.165.243a.396.396 0 0 1 .117-.098Z"/>
    <path fill="#A3B4BD" d="m162.692 157.697-12.565-7.24c-.224-.127-.224-.341 0-.467l.155-.087s-.048.019-.068.029l-.204.116c-.224.127-.224.34 0 .467l12.565 7.24a.91.91 0 0 0 .808 0l.049-.029a.896.896 0 0 1-.74-.029Z"/>
    <path fill="#D6E6E6" d="m149.961 150.194.204-.117a.91.91 0 0 1 .808 0l12.566 7.24c.107.059.165.146.165.224.088-.117.049-.262-.117-.369l-12.566-7.24a.902.902 0 0 0-.807 0l-.205.116c-.117.068-.165.156-.165.243a.38.38 0 0 1 .117-.097Z"/>
    <path fill="#A3B4BD" d="m164.784 156.491-12.566-7.24c-.224-.126-.224-.34 0-.466l.156-.087s-.049.019-.068.029l-.205.116c-.223.127-.223.34 0 .467l12.566 7.24a.91.91 0 0 0 .808 0l.058-.029a.89.89 0 0 1-.739-.03h-.01Z"/>
    <path fill="#D6E6E6" d="m152.054 148.989.205-.117a.91.91 0 0 1 .808 0l12.565 7.24c.107.059.166.146.166.224.087-.117.058-.272-.117-.369l-12.566-7.24a.904.904 0 0 0-.808 0l-.204.116c-.117.068-.165.156-.165.243a.387.387 0 0 1 .116-.097Z"/>
    <path fill="#A3B4BD" d="m166.878 155.286-12.566-7.24c-.224-.126-.224-.34 0-.466l.156-.088s-.049.02-.068.03l-.205.116c-.224.127-.224.34 0 .467l12.566 7.24a.91.91 0 0 0 .808 0l.058-.029a.89.89 0 0 1-.739-.03h-.01Z"/>
    <path fill="#D6E6E6" d="m154.146 147.784.204-.117a.91.91 0 0 1 .808 0l12.566 7.24c.107.059.166.146.166.224.087-.117.048-.263-.117-.369l-12.566-7.24a.904.904 0 0 0-.808 0l-.204.116c-.117.068-.166.156-.166.243a.38.38 0 0 1 .117-.097Z"/>
    <path fill="#A3B4BD" d="m168.97 154.081-12.566-7.24c-.224-.126-.224-.34 0-.466l.156-.088s-.049.02-.069.03l-.204.116c-.224.126-.224.34 0 .467l12.566 7.24a.91.91 0 0 0 .808 0l.058-.03c-.224.098-.545.088-.74-.029h-.009Z"/>
    <path fill="#D6E6E6" d="m156.238 146.579.204-.117a.91.91 0 0 1 .808 0l12.566 7.24a.3.3 0 0 1 .165.224c.088-.117.049-.263-.116-.37l-12.566-7.24a.91.91 0 0 0-.808 0l-.204.117c-.117.068-.166.156-.166.243a.38.38 0 0 1 .117-.097Z"/>
    <path fill="#A3B4BD" d="m171.063 152.886-12.565-7.24c-.224-.126-.224-.34 0-.466l.155-.088s-.048.019-.068.029l-.204.117c-.224.126-.224.34 0 .466l12.566 7.24a.902.902 0 0 0 .807 0l.059-.029a.892.892 0 0 1-.74-.029h-.01Z"/>
    <path fill="#D6E6E6" d="m158.331 145.384.204-.117a.91.91 0 0 1 .808 0l12.566 7.24a.3.3 0 0 1 .165.223c.088-.116.049-.262-.117-.369l-12.565-7.24a.91.91 0 0 0-.808 0l-.205.117c-.116.068-.175.155-.165.243a.38.38 0 0 1 .117-.097Z"/>
    <path fill="#A3B4BD" d="m173.155 151.681-12.566-7.24c-.223-.126-.223-.34 0-.467l.156-.087s-.049.019-.068.029l-.204.117c-.224.126-.224.34 0 .466l12.565 7.24a.904.904 0 0 0 .808 0l.059-.029a.892.892 0 0 1-.74-.029h-.01Z"/>
    <path fill="#D6E6E6" d="m160.423 144.178.205-.116a.904.904 0 0 1 .808 0l12.565 7.24a.3.3 0 0 1 .166.223c.088-.116.058-.262-.117-.369l-12.566-7.24a.909.909 0 0 0-.807 0l-.205.117c-.117.068-.165.155-.165.243a.405.405 0 0 1 .116-.098Z"/>
    <path fill="#BCCDD6" d="m153.581 135.627-.175.621 1.733-.262-.983-.447-.575.088Z"/>
    <path fill="#63747D" d="m168.502 147.483 18.055 44.859.983.447-18.269-45.374-.769.068Z"/>
    <path fill="#95A6AF" d="m169.846 135.432-21.744 79.388 1.635-.233 21.744-79.378-1.635.223Z"/>
    <path fill="#F4752A" d="m171.364 111.885-8.225-4.645c-2.239-1.264-4.623-.272-5.295 2.206l-4.594 16.773.954.535 4.691-17.026c.331-1.225 1.188-1.954 2.278-1.954.477 0 .954.136 1.431.408l8.224 4.646c1.801 1.02 2.872 3.566 2.317 5.559l-4.516 16.52.973.545 4.594-16.774c.681-2.478-.594-5.53-2.832-6.793Z"/>
    <path fill="url(#P)" d="m173.516 111.594-8.225-4.646c-.808-.456-1.635-.622-2.394-.524l-1.694.262c.633 0 1.295.185 1.937.544l8.225 4.645c2.238 1.264 3.513 4.325 2.832 6.793l-4.594 16.774 2.141-.292 4.594-16.773c.682-2.478-.593-5.53-2.832-6.793l.01.01Z"/>
    <path fill="#AEBCC3" d="m169.603 135.461-.759-.427-21.735 79.339.993.447 21.744-79.388-.243.029Z"/>
    <path fill="#C24800" d="M161.164 107.774c-1.09 0-1.946.729-2.277 1.954l-4.692 17.026 2.142-.292 4.691-17.026c.185-.67.516-1.185.964-1.516a2.8 2.8 0 0 0-.828-.136v-.01Z"/>
    <path fill="#BCCDD6" d="m168.96 144.412-.175.631 1.733-.272-.983-.447-.575.088Z"/>
    <path fill="#95A6AF" d="m170.517 144.771-1.732.272-.681 2.478 1.168-.106 18.269 45.374 1.645-1.652-18.669-46.366Z"/>
    <path fill="#F4752A" d="m148.753 211.37-.983-.457-.963 3.499.992.447.954-3.489Z"/>
    <path fill="#C24800" d="m151.011 211.039-2.258.331-.954 3.489 2.248-.321.964-3.499Z"/>
    <path fill="#F4752A" d="m133.521 202.546-.983-.457-.964 3.498.993.447.954-3.488Z"/>
    <path fill="#C24800" d="m135.778 202.215-2.258.331-.954 3.489 2.249-.321.963-3.499Zm25.21-30.641c0 .243-.176.544-.39.671-.214.126-.389.019-.389-.224s.175-.544.389-.67c.214-.127.39-.02.39.223Zm-3.854 14.645a.852.852 0 0 1-.389.671c-.214.126-.39.019-.39-.224s.176-.544.39-.67c.214-.127.389-.02.389.223Zm-4.01 14.645a.852.852 0 0 1-.389.671c-.214.126-.389.019-.389-.224s.175-.544.389-.67c.214-.126.389-.02.389.223Zm11.553-42.584a.852.852 0 0 1-.389.67c-.214.127-.39.02-.39-.223s.176-.545.39-.671c.214-.126.389-.019.389.224Zm8.613-5.151c0 .243-.175.544-.389.671-.214.126-.389.019-.389-.224s.175-.544.389-.671c.214-.126.389-.019.389.224Zm-5.187-7.026a.866.866 0 0 1-.389.67c-.215.127-.39.02-.39-.223s.175-.545.39-.671c.214-.126.389-.019.389.224Z"/>
    <path fill="#0035B4" d="M152.609 137.522a.865.865 0 0 1-.39.67c-.214.126-.389.02-.389-.223s.175-.545.389-.671c.215-.126.39-.019.39.224Z"/>
    <path fill="#C24800" d="m185.439 190.155.993.515.964 2.391-1.003-.515-.954-2.391Z"/>
    <path fill="#F4752A" d="m186.432 190.67 2.014-2.08.964 2.391-2.015 2.08-.963-2.391Z"/>
    <path fill="#C24800" d="m170.215 181.234 1.002.525.954 2.39-.993-.524-.963-2.391Z"/>
    <path fill="#F4752A" d="m171.219 181.759 1.859-1.915.954 2.391-1.859 1.914-.954-2.39Z"/>
    <path fill="#004472" d="M166.283 129.096s.856 1.38.116 2.585c-.73 1.205-8.38 12.682-9.022 14.655-.643 1.973-1.694 5.53-1.694 5.53s-.545 1.817-2.385 1.943c-1.83.117 3.154-22.138 3.154-22.138l9.821-2.565.01-.01Z"/>
    <path fill="#002B59" d="M156.443 131.72c-.098.447-.691 3.11-1.363 6.443.633.194 1.353-.078 2.132-1.263 2.696-4.082 7.407-5.938 7.407-5.938l1.09-1.72-9.111 2.371c-.048.039-.107.068-.155.107Z"/>
    <path fill="#00517F" d="M156.19 121.263s9.402 1.477 10.852 5.102c1.451 3.625-.107 4.694-.759 5.287-.642.593-10.599.806-10.599.806l.506-11.205v.01Z"/>
    <path fill="#004472" d="M167.607 128.484c-.866.787-2.414 1.652-4.769 1.117-3.709-.826-5.295-4.917-5.295-4.917s-.75 1.127-1.616 2.459l-.243 5.315s9.947-.213 10.599-.806c.497-.457 1.538-1.205 1.324-3.178v.01Z"/>
    <path fill="#4D1F00" d="M142.738 177.142s-.429.651-1.178 2.391c-.749 1.74-.74 3.878-.448 5.151 0 0 .867.68 2.443.583 1.577-.097 3.641-.7 3.641-.7v-.641s1.907.038 3.202.262c1.285.233 4.088-.146 5.081-.962.983-.816 1.44-2.021 1.207-2.906-.244-.884-1.733-1.632-2.94-1.749-1.207-.117-3.514-.671-4.575-.826-1.06-.156-1.08-1.361-1.06-1.701.019-.34-5.373 1.108-5.373 1.108v-.01Z"/>
    <path fill="#283539" d="M156.735 180.835a8.43 8.43 0 0 1-1.052 1.759c-.992 1.293-4.934 1.283-6.793.914-1.869-.37-3.991.466-5.87.505-.905.019-1.606-.369-2.092-.768.019.535.078 1.03.175 1.439 0 0 .866.68 2.443.583 1.577-.098 3.64-.7 3.64-.7v-.641s1.908.038 3.203.262c1.284.233 4.088-.146 5.08-.962.808-.671 1.256-1.584 1.266-2.391Z"/>
    <path fill="#4D1F00" d="M153.785 157.356s.72-.699 1.898-.457c1.178.243 2.618-.126 3.378-.602.759-.486 1.323-1.322 1.314-1.895-.01-.573-.234-1.565-1.091-1.992-.856-.438-6.278-.749-6.278-.749s-2.744.515-3.036.632c-.292.117-.312 6.647-.312 6.647s.905.632 2.064.467c1.158-.165 1.859-1.439 1.859-1.439l.194-.602.01-.01Z"/>
    <path fill="#283539" d="M155.683 156.899c1.178.243 2.618-.126 3.378-.602.759-.486 1.323-1.322 1.314-1.895 0-.107-.01-.224-.03-.35-.331.943-1.041 1.584-1.995 2.109-1.051.583-3.163.291-3.757.253-.594-.039-1.801 1.506-3.144 1.671-.701.087-1.333-.194-1.781-.496 0 .788-.01 1.351-.01 1.351s.905.632 2.064.467c1.158-.166 1.859-1.439 1.859-1.439l.194-.602s.721-.7 1.898-.457l.01-.01Z"/>
    <path fill="#004472" d="m146.903 125.257-.778-3.09-4.526-2.585s-2.852 4.596-2.93 9.388c-.078 4.791 3.903 7.22 6.989 7.482 3.085.263 1.245-11.214 1.245-11.214v.019Z"/>
    <path fill="#00517F" d="M146.124 122.167s4.264 2.614 7.3 2.526c3.037-.087 4.614-.816 4.614-.816v5.899c0 3.44 1.08 7.483-.681 14.393-1.762 6.899-4.478 11.554-5.256 14.723-.779 3.168-1.713 9.183-2.181 11.749-.467 2.565.341 7.288.341 7.288s.321 1.196-1.411 2.168c-1.733.971-7.641.524-7.641.524s.944-2.361 1.1-6.044c.156-3.684.282-9.407.905-12.216.623-2.809 2.219-6.317 2.219-8.96 0-2.644-.233-11.652.467-14.539 0 0-1.79-2.079-2.151-5.908-.35-3.829 2.385-10.797 2.385-10.797l-.01.01Z"/>
    <path fill="#8E0000" d="M157.329 92.653c.078.515.399 1.38-.048 1.992-.448.612-5.665 5.743-5.665 5.743l-3.971-4.596s6.638-3.674 8.059-4.267c1.421-.592 1.625 1.128 1.625 1.128Z"/>
    <path fill="#D39E00" d="M158.983 88.63c-.039-.282-.058-.593.058-.865.117-.272 1.383-1.652 1.762-1.837.38-.185 2.103-.66 2.502-.71.399-.038.749-.058.992.37.244.428.594 1.03.692 1.428.097.399-.03.836.175 1.42.194.582.535 1.117.194 1.68-.34.564-.769 1.02-.934.982-.156-.03-.594-.087-.594-.087s-2.053 1.934-3.698 1.934-1.178-3.237-1.178-3.237l.029-1.078Z"/>
    <path fill="#BC7100" d="M158.954 89.698v-.194l.36-.243 1.188-.719s.038-.214.311-.554c.273-.34.749-.797.925-.884.165-.078 1.294-.603 1.421-.622.126-.01.224-.04.457.31.224.35.039.545.74.662.302.048.526.058.701.048 0 .272 0 .564.126.923.195.584.536 1.118.195 1.682-.341.563-.769 1.02-.934.981-.156-.029-.594-.087-.594-.087s-2.054 1.934-3.699 1.934-1.178-3.237-1.178-3.237h-.019Z"/>
    <path fill="#A70000" d="M143.254 93.207h-2.365s-4.322-.253-5.081 2.701c-.749 2.955-.272 4.549.536 7.542.807 2.993 3.153 7.57 3.348 7.949.185.379 3.251 2.575 3.251 2.575s7.835 4.092 10.57 4.208c2.735.107 4.03-2.157 4.03-4.013 0-1.72-.175-5.977-.205-7.444v-.292c0-1.079.059-4.771-.204-4.975-.253-.205-2.394-1.565-2.394-1.565l-1.636-1.264-9.85-5.422Z"/>
    <path fill="#8E0000" d="M153.358 111.525c-.506 2.372-.935 4.646-1.051 6.444.457.116.866.184 1.197.204 2.735.107 4.029-2.158 4.029-4.014 0-1.497-.136-4.888-.184-6.715l-.38.175s-2.852.33-3.611 3.906Z"/>
    <path fill="#004472" d="M149.591 127.765s-.389-2.741 0-4.403l.603.088s-.515 3.042-.603 4.315Zm5.519-.447s-.068-2.119-.477-3.042l1.041-.175s-.233 2.177-.564 3.217Z"/>
    <path fill="#00517F" d="M157.533 114.149s-.107 2.547-2.735 2.731c-2.628.185-8.254-1.428-9.87-7.881 0 0 3.845-10.32 9.704-9.164l-1.528-1.254s-6.278-1.118-9.471 9.747l-.301-.155.097-.039c-3.193-7.6-.915-14.927-.915-14.927h-1.625c-1.499 6.841-.049 11.992.798 14.188-.098.535-.73 3.635-1.996 4.004 0 0 1.908 3.8 2.005 4.529.108.729-1.683 4.859-.681 5.471.993.612 4.283 3.061 8.867 3.635 4.585.573 8.283-.467 8.546-.729.263-.263-.886-8.329-.886-10.146l-.009-.01Z"/>
    <path fill="#004472" d="M157.533 114.149s-.107 2.547-2.735 2.731a7.31 7.31 0 0 1-1.489-.068c.029.175.058.36.107.554.486 1.827 3.114 4.801 3.533 7.396.847-.185 1.372-.37 1.47-.467.262-.262-.886-8.328-.886-10.146Zm-16.148-5.529c-.311 1.098-.876 2.527-1.703 2.77 0 0 1.907 3.799 2.005 4.528.107.729-1.684 4.859-.682 5.472.253.155.662.427 1.198.767.233-1.205.574-2.488 1.051-3.479.954-1.992-1.12-8.046-1.869-10.058Z"/>
    <path fill="#A70000" d="M152.822 99.232c1.022-.758 6.609 2.653 7.475 3.353 0 0 1.937-.399 5.869-.204 0 0 4.332-7.163 5.169-7.998.847-.846 3.163-1.186 3.163-1.186s.263 1.001 0 2.595c-.263 1.593-4.331 10.933-5.266 11.642-.934.71-8.107 1.759-12.906 1.769-4.798.01-5.83-2.09-6.404-4.121-.565-2.031 1.45-4.781 2.89-5.85h.01Z"/>
    <path fill="#8E0000" d="M166.176 102.39s4.331-7.162 5.168-7.998c.321-.32.847-.563 1.382-.748-.827 2.974-2.696 8.873-3.358 9.456-.798.699-3.202-.7-3.202-.7l.01-.01Z"/>
    <path fill="#BC7100" d="M173.097 85.996s-.632-1.195-.837-1.069c-.204.127-1.479.787-1.839 1.196-.37.408-.643.719-.672 1.156-.029.437.497 2.05.623 2.333.127.281 1.645-.224 1.645-.224l1.08-3.392Z"/>
    <path fill="#D39E00" d="M174.08 86.18c.749.253 1.518 1.05 1.586 2.148.068 1.108-.302 2.819-.379 3.188-.088.37-.127 3.032-.468 3.712 0 0-1.703-1.292-3.474-.835l.778-1.886s-1.061-1.147-1.187-1.273c-.127-.126-1.236-1.4-1.178-1.807.058-.409.555-.72 1.061-.836a2.187 2.187 0 0 0 1.402-1.001c.379-.612.399-.894.175-1.4-.224-.505-.497-1.234.058-1.331.555-.097 1.626 1.331 1.626 1.331v-.01Z"/>
    <path fill="#D39E00" d="M171.17 88.805s0-.467-.088-.836c-.087-.37-.496-1.341-1.002-1.244-.506.097-.156.894-.214 1.263-.059.38-.263 1.293-.117 1.575.146.291 1.071.291 1.071.291l.35-1.05Z"/>
    <path fill="#D9906A" d="M142.738 89.232s1.217 2.527.575 3.926c-.643 1.4-.331 1.536-.331 1.536s5.723 2.964 7.718 3.1c0 0-.506-3.1.049-3.693.545-.593.662-1.03 1.255-1.186.594-.146 1.937-.437 1.879-1.419-.058-.981.214-2.07.253-2.701.039-.642-.019-1.166-.019-1.166s.866-.428.642-.933c-.224-.496-1.888-1.973-1.888-1.973l-10.133 4.5v.01Z"/>
    <path fill="#BF7650" d="M150.702 97.803s-.507-3.1.048-3.692c.545-.593.662-1.03 1.256-1.186.292-.078.788-.185 1.197-.398-1.489-.33-2.424-1.76-2.424-1.76s-.282.175-1.002-.35c-.73-.534-.506-3.002-.506-3.002s-1.976.67-2.073.7c-.098.029.253 1.448.613 3.207.272 1.36-.516 3.45-1.11 4.859 1.596.544 2.823 2.07 4.02 1.623h-.019Z"/>
    <path fill="#DB1919" d="M143.022 92.206s1.694.738 4.643 2.186 4.351 3.45 4.351 3.45L152.59 99s-5.529-1.769-8.011-3.071c-2.491-1.302-2.579-2.556-2.579-2.556l1.022-1.166Z"/>
    <path fill="#320101" d="M143.497 92.186c.458.272 1.227.554 2.444.515 2.316-.077 2.949-2.74 2.832-3.838-.058-.544-.857-1.118-1.655-1.575l-4.38 1.944s.769 1.594.759 2.954Z"/>
    <path fill="#DB1919" d="M150.953 87.104s6.191-2.177 6.638-3.897c.448-1.73-3.932-2.177-6.774-1.263-2.852.913.136 5.16.136 5.16Z"/>
    <path fill="#A70000" d="M143.187 89.844s2.443 1.001 4.701-.048c2.258-1.04 5.237-3.8 5.967-6.793 0 0-.867-3.635-3.826-4.762-1.148-.438-2.822-.282-4.555.291-3.465 1.137-5.081 5.093-4.38 7.63.555 1.982 1.402 3.206 2.083 3.672l.01.01Z"/>
    <path fill="#320101" d="M142.399 89.038c.915.282 3.397.913 5.246 0 0 0-1.216-1.73-4.37-1.924-.827-.049-1.411.019-1.82.155.282.739.613 1.331.934 1.769h.01Z"/>
    <path fill="#A90B1B" d="M159.547 92.157c-.02-.116.049-.233.195-.32l4.078-2.352a1.09 1.09 0 0 1 .983 0l2.19 1.263c.146.088.214.194.204.301v2.955c0 .107-.068.204-.204.281l-4.078 2.352a1.094 1.094 0 0 1-.983 0l-2.19-1.263c-.137-.078-.205-.185-.205-.282v-2.935h.01Z"/>
    <path fill="#CF3141" d="M159.742 91.837c-.273.155-.273.408 0 .563l2.19 1.264c.272.155.71.155.983 0l4.078-2.352c.272-.156.272-.408 0-.564l-2.19-1.263a1.094 1.094 0 0 0-.983 0l-4.078 2.352Z"/>
    <path fill="#6F818C" d="m166.176 80.806 8.205-4.587s.087-.019.146.02a.446.446 0 0 1 .204.36c0 .067-.019.116-.058.135l-8.205 4.588s-.088.019-.146-.01a.447.447 0 0 1-.205-.36c0-.068.02-.116.059-.136v-.01Z"/>
    <path fill="url(#Q)" d="M172.802 77.444a1.043 1.043 0 0 0-.36-.38.544.544 0 0 0-.185-.067l-.827-.224a.475.475 0 0 0-.331.059c-.176.097-.283.32-.283.622 0 .3.107.65.283.952.175.301.418.564.681.72.263.155.506.164.681.067a.545.545 0 0 0 .224-.282l.244-.806s.019-.097.019-.156c0-.165-.058-.35-.146-.505Z"/>
    <path fill="url(#R)" d="M172.471 77.619a2.02 2.02 0 0 0-.681-.72c-.263-.155-.506-.164-.681-.067l-1.139.66c-.175.098-.282.321-.282.623 0 .3.107.65.282.952.175.301.418.564.681.72.263.155.506.164.681.067l1.139-.66c.175-.098.283-.321.283-.623 0-.3-.108-.65-.283-.952Z"/>
    <path fill="url(#S)" d="M171.946 79.106c0-.321-.117-.68-.302-1.001a2.086 2.086 0 0 0-.72-.758.85.85 0 0 0-.468-.136l-.486.282c-.175.097-.282.32-.282.622 0 .3.107.65.282.952.175.301.418.564.681.719.263.156.506.165.681.068l.516-.291a.973.973 0 0 0 .098-.448v-.01Z"/>
    <path fill="#000609" d="M171.323 78.28a2.032 2.032 0 0 0-.682-.72c-.262-.155-.506-.165-.681-.068-.175.098-.282.321-.282.622 0 .302.107.651.282.953.175.301.419.563.681.719.263.155.506.165.682.068.175-.097.282-.32.282-.622 0-.301-.107-.651-.282-.952Z"/>
    <path fill="url(#T)" d="M171.109 78.406c-.185-.31-.428-.583-.71-.748-.273-.156-.526-.175-.711-.068l-1.246.554c-.194.116-.321.36-.321.71 0 .349.127.738.321 1.088.205.35.477.65.779.826.302.175.584.194.779.077l1.099-.796c.185-.107.292-.33.292-.652 0-.32-.116-.67-.292-.99h.01Z"/>
    <path fill="#151F22" d="m166.944 78.93 1.08-.63c.234-.127.546-.108.896.087.701.408 1.265 1.39 1.265 2.196 0 .408-.146.69-.379.826l-1.081.632c-.233.126-.545.106-.895-.088-.701-.408-1.266-1.39-1.266-2.196 0-.408.146-.69.37-.826h.01Z"/>
    <path fill="#000609" d="M166.564 79.747c0 .807.565 1.788 1.266 2.197.35.204.662.223.895.087.234-.126.38-.418.38-.826 0-.807-.565-1.788-1.265-2.196-.351-.204-.662-.224-.896-.088-.234.136-.37.418-.37.826h-.01Z"/>
    <path fill="#283539" d="m161.494 86.064 1.324-.768c.37-.214.954-.214 1.324 0a.526.526 0 0 1 .272.32l-.029 5.851c.059.175-.029.35-.253.486l-1.324.758c-.37.214-.954.214-1.323 0-.137-.078-.224-.175-.253-.282l.019-5.88c-.068-.174.019-.359.253-.495l-.01.01Z"/>
    <path fill="#151F22" d="M162.507 92.838c-.341.087-.75.048-1.032-.117-.136-.078-.224-.175-.253-.282l.019-5.88c-.068-.174.02-.359.253-.495l1.285-.739.409.399s-.808 3.751-.672 7.104l-.009.01Z"/>
    <path fill="#CF3141" d="M159.752 82.352c0-.175.117-.36.35-.496l6.619-3.916c.467-.272 1.246-.272 1.713 0l1.168.67c.185.107.311.234.341.38.107.592.331 1.651.214 2.225-.029.165-.068.33-.652.67-3.942 2.245-3.417 3.644-4.643 4.315-1.227.67-.243.165-.419.272-1.528.972-2.54 1.118-3.017.943-.477-.175-1.343-.748-1.518-.894-.176-.146-.176-2.323-.176-2.809l.02-1.36Z"/>
    <path fill="#A90B1B" d="M170.147 81.215c-.029.165-.068.33-.652.67-3.942 2.245-3.416 3.644-4.643 4.315-1.226.67-.243.165-.418.272-1.529.972-2.541 1.118-3.018.943-.477-.175-1.343-.749-1.518-.894-.175-.146-.175-2.323-.175-2.809l.019-1.36v-.098c0-.019.01-.048.02-.068v-.01a.875.875 0 0 1 .116-.165c.176.554 1.198.924 1.558 1.128.409.233.934.291 1.615-.097.672-.39 5.315-3.168 6.386-3.79a1.86 1.86 0 0 0 .447-.34c0 .01.01.028.02.038 0 .01 0 .03.009.04.108.592.331 1.651.215 2.225h.019Z"/>
    <path fill="#000609" d="m163.178 84.247 1.781-1.03v-.224l-1.781 1.02v.234Zm0 .418 1.781-1.02v-.234l-1.781 1.02v.234Zm0 .417 1.781-1.02v-.233l-1.781 1.03v.223Zm0 .428 1.781-1.02v-.234l-1.781 1.02v.234Zm0 .418 1.781-1.02v-.234l-1.781 1.03v.224Z"/>
    <path fill="#D39E00" d="M164.424 87.871c-.048-.369-.934-.563-1.654-.272-.721.302-1.733.768-2.044.739-.312-.03-1.684-.583-1.684-.583s-1.236 2.157-1.674 2.517c-.438.36-1.655 1.253-1.655 1.253s.798 2.508 1.655 3.198l1.898-1.516.866-.272s.214-1.71.243-2.012c.029-.301.847-1.176 1.275-1.341.428-.175 2.881-.933 2.774-1.71Z"/>
    <path fill="#BC7100" d="M160.248 90.729c.126-.282.418-.506.779-.68-.331.32-.633.699-.643.874-.029.301-.243 2.012-.243 2.012l-.866.272-1.898 1.516c-.244-.204-.487-.554-.711-.953.623-.563 1.577-1.214 1.82-1.302.331-.117 1.373-.816 1.772-1.74h-.01Z"/>
    <path fill="url(#U)" d="m31.818 91.098 32.47-20.467L82.034 218.96l-32.461 20.467L31.818 91.098Z"/>
    <path fill="#EEF5F9" d="M31.82 91.098 64.29 70.63l-1.519-.787-32.47 20.467 1.518.787Z"/>
    <path fill="#AFB4B8" d="m30.3 90.31 1.52.788 17.753 148.328-1.519-.787L30.301 90.31Z"/>
    <path fill="url(#V)" d="m35.467 93.197 32.47-20.457 17.744 148.32-32.46 20.466L35.466 93.197Z"/>
    <path fill="#EEF5F9" d="m35.468 93.197 32.47-20.457-1.518-.787L33.95 92.42l1.518.778Z"/>
    <path fill="#AFB4B8" d="m33.95 92.42 1.518.787L53.22 241.525l-1.518-.778L33.949 92.419Z"/>
    <path fill="url(#W)" d="m39.935 94.966 32.47-20.457L90.15 222.827l-32.47 20.467L39.934 94.966Z"/>
    <path fill="#EEF5F9" d="m39.936 94.966 32.47-20.457-1.518-.787-32.47 20.466 1.518.778Z"/>
    <path fill="#AFB4B8" d="m38.418 94.188 1.518.778L57.69 243.294l-1.518-.787L38.418 94.188Z"/>
    <path fill="#000" d="M30.3 90.31v140.826l17.754 7.503L30.301 90.311Zm198.813 146.434 17.754-15.86V88.416l-17.754 148.328Z" opacity=".2" style="mix-blend-mode:multiply"/>
  </g>
  <defs>
    <linearGradient id="b" x1="146.34" x2="146.34" y1="164.713" y2="5.423" gradientUnits="userSpaceOnUse">
      <stop stop-color="#9EA5A9"/>
      <stop offset=".79" stop-color="#DEE5E9"/>
      <stop offset="1" stop-color="#D1D8DC"/>
    </linearGradient>
    <linearGradient id="c" x1="148.871" x2="148.871" y1="163.177" y2="-33.003" gradientUnits="userSpaceOnUse">
      <stop stop-color="#858C90"/>
      <stop offset=".79" stop-color="#C5CCD0"/>
      <stop offset="1" stop-color="#B8BFC3"/>
    </linearGradient>
    <linearGradient id="d" x1="142.018" x2="146.041" y1="8.708" y2="12.776" gradientUnits="userSpaceOnUse">
      <stop stop-color="#9EA5A9"/>
      <stop offset=".79" stop-color="#DEE5E9"/>
      <stop offset="1" stop-color="#D1D8DC"/>
    </linearGradient>
    <linearGradient id="e" x1="179.113" x2="179.113" y1="183.605" y2="24.305" gradientUnits="userSpaceOnUse">
      <stop stop-color="#9EA5A9"/>
      <stop offset=".79" stop-color="#DEE5E9"/>
      <stop offset="1" stop-color="#D1D8DC"/>
    </linearGradient>
    <linearGradient id="f" x1="181.654" x2="181.654" y1="182.069" y2="-14.111" gradientUnits="userSpaceOnUse">
      <stop stop-color="#858C90"/>
      <stop offset=".79" stop-color="#C5CCD0"/>
      <stop offset="1" stop-color="#B8BFC3"/>
    </linearGradient>
    <linearGradient id="g" x1="174.792" x2="178.815" y1="27.599" y2="31.668" gradientUnits="userSpaceOnUse">
      <stop stop-color="#9EA5A9"/>
      <stop offset=".79" stop-color="#DEE5E9"/>
      <stop offset="1" stop-color="#D1D8DC"/>
    </linearGradient>
    <linearGradient id="h" x1="213.424" x2="213.424" y1="203.381" y2="44.081" gradientUnits="userSpaceOnUse">
      <stop stop-color="#9EA5A9"/>
      <stop offset=".79" stop-color="#DEE5E9"/>
      <stop offset="1" stop-color="#D1D8DC"/>
    </linearGradient>
    <linearGradient id="i" x1="215.955" x2="215.955" y1="201.846" y2="5.666" gradientUnits="userSpaceOnUse">
      <stop stop-color="#858C90"/>
      <stop offset=".79" stop-color="#C5CCD0"/>
      <stop offset="1" stop-color="#B8BFC3"/>
    </linearGradient>
    <linearGradient id="j" x1="209.092" x2="213.125" y1="47.376" y2="51.444" gradientUnits="userSpaceOnUse">
      <stop stop-color="#9EA5A9"/>
      <stop offset=".79" stop-color="#DEE5E9"/>
      <stop offset="1" stop-color="#D1D8DC"/>
    </linearGradient>
    <linearGradient id="k" x1="244.812" x2="244.812" y1="221.477" y2="62.186" gradientUnits="userSpaceOnUse">
      <stop stop-color="#9EA5A9"/>
      <stop offset=".79" stop-color="#DEE5E9"/>
      <stop offset="1" stop-color="#D1D8DC"/>
    </linearGradient>
    <linearGradient id="l" x1="247.353" x2="247.353" y1="219.941" y2="23.761" gradientUnits="userSpaceOnUse">
      <stop stop-color="#858C90"/>
      <stop offset=".79" stop-color="#C5CCD0"/>
      <stop offset="1" stop-color="#B8BFC3"/>
    </linearGradient>
    <linearGradient id="m" x1="240.491" x2="244.514" y1="65.471" y2="69.54" gradientUnits="userSpaceOnUse">
      <stop stop-color="#9EA5A9"/>
      <stop offset=".79" stop-color="#DEE5E9"/>
      <stop offset="1" stop-color="#D1D8DC"/>
    </linearGradient>
    <linearGradient id="n" x1="277.662" x2="277.662" y1="240.398" y2="81.108" gradientUnits="userSpaceOnUse">
      <stop stop-color="#9EA5A9"/>
      <stop offset=".79" stop-color="#DEE5E9"/>
      <stop offset="1" stop-color="#D1D8DC"/>
    </linearGradient>
    <linearGradient id="o" x1="280.203" x2="280.203" y1="238.862" y2="42.692" gradientUnits="userSpaceOnUse">
      <stop stop-color="#858C90"/>
      <stop offset=".79" stop-color="#C5CCD0"/>
      <stop offset="1" stop-color="#B8BFC3"/>
    </linearGradient>
    <linearGradient id="p" x1="273.34" x2="277.364" y1="84.392" y2="88.461" gradientUnits="userSpaceOnUse">
      <stop stop-color="#9EA5A9"/>
      <stop offset=".79" stop-color="#DEE5E9"/>
      <stop offset="1" stop-color="#D1D8DC"/>
    </linearGradient>
    <linearGradient id="q" x1="112.119" x2="112.119" y1="184.013" y2="24.723" gradientUnits="userSpaceOnUse">
      <stop stop-color="#9EA5A9"/>
      <stop offset=".79" stop-color="#DEE5E9"/>
      <stop offset="1" stop-color="#D1D8DC"/>
    </linearGradient>
    <linearGradient id="r" x1="109.587" x2="109.587" y1="182.477" y2="-13.703" gradientUnits="userSpaceOnUse">
      <stop stop-color="#858C90"/>
      <stop offset=".79" stop-color="#C5CCD0"/>
      <stop offset="1" stop-color="#B8BFC3"/>
    </linearGradient>
    <linearGradient id="s" x1="116.45" x2="112.426" y1="28.008" y2="32.076" gradientUnits="userSpaceOnUse">
      <stop stop-color="#9EA5A9"/>
      <stop offset=".79" stop-color="#DEE5E9"/>
      <stop offset="1" stop-color="#D1D8DC"/>
    </linearGradient>
    <linearGradient id="t" x1="78.578" x2="78.578" y1="203.303" y2="44.004" gradientUnits="userSpaceOnUse">
      <stop stop-color="#9EA5A9"/>
      <stop offset=".79" stop-color="#DEE5E9"/>
      <stop offset="1" stop-color="#D1D8DC"/>
    </linearGradient>
    <linearGradient id="u" x1="76.037" x2="76.037" y1="201.758" y2="5.588" gradientUnits="userSpaceOnUse">
      <stop stop-color="#858C90"/>
      <stop offset=".79" stop-color="#C5CCD0"/>
      <stop offset="1" stop-color="#B8BFC3"/>
    </linearGradient>
    <linearGradient id="v" x1="82.899" x2="78.876" y1="47.298" y2="51.357" gradientUnits="userSpaceOnUse">
      <stop stop-color="#9EA5A9"/>
      <stop offset=".79" stop-color="#DEE5E9"/>
      <stop offset="1" stop-color="#D1D8DC"/>
    </linearGradient>
    <linearGradient id="w" x1="45.797" x2="45.797" y1="222.234" y2="62.934" gradientUnits="userSpaceOnUse">
      <stop stop-color="#9EA5A9"/>
      <stop offset=".79" stop-color="#DEE5E9"/>
      <stop offset="1" stop-color="#D1D8DC"/>
    </linearGradient>
    <linearGradient id="x" x1="43.255" x2="43.255" y1="220.699" y2="24.519" gradientUnits="userSpaceOnUse">
      <stop stop-color="#858C90"/>
      <stop offset=".79" stop-color="#C5CCD0"/>
      <stop offset="1" stop-color="#B8BFC3"/>
    </linearGradient>
    <linearGradient id="y" x1="50.118" x2="46.094" y1="66.229" y2="70.297" gradientUnits="userSpaceOnUse">
      <stop stop-color="#9EA5A9"/>
      <stop offset=".79" stop-color="#DEE5E9"/>
      <stop offset="1" stop-color="#D1D8DC"/>
    </linearGradient>
    <linearGradient id="z" x1="13.297" x2="13.297" y1="240.942" y2="81.642" gradientUnits="userSpaceOnUse">
      <stop stop-color="#9EA5A9"/>
      <stop offset=".79" stop-color="#DEE5E9"/>
      <stop offset="1" stop-color="#D1D8DC"/>
    </linearGradient>
    <linearGradient id="A" x1="10.765" x2="10.765" y1="239.406" y2="43.226" gradientUnits="userSpaceOnUse">
      <stop stop-color="#6C7377"/>
      <stop offset=".79" stop-color="#ACB3B7"/>
      <stop offset="1" stop-color="#9FA6AA"/>
    </linearGradient>
    <linearGradient id="B" x1="17.618" x2="13.594" y1="84.937" y2="89.005" gradientUnits="userSpaceOnUse">
      <stop stop-color="#9EA5A9"/>
      <stop offset=".79" stop-color="#DEE5E9"/>
      <stop offset="1" stop-color="#D1D8DC"/>
    </linearGradient>
    <linearGradient id="C" x1="244.812" x2="244.812" y1="221.787" y2="62.497" gradientUnits="userSpaceOnUse">
      <stop stop-color="#9EA5A9"/>
      <stop offset=".79" stop-color="#DEE5E9"/>
      <stop offset="1" stop-color="#D1D8DC"/>
    </linearGradient>
    <linearGradient id="D" x1="235.449" x2="246.527" y1="59.941" y2="71.125" gradientUnits="userSpaceOnUse">
      <stop stop-color="#9EA5A9"/>
      <stop offset=".79" stop-color="#DEE5E9"/>
      <stop offset="1" stop-color="#D1D8DC"/>
    </linearGradient>
    <linearGradient id="E" x1="247.343" x2="247.343" y1="220.252" y2="24.081" gradientUnits="userSpaceOnUse">
      <stop stop-color="#858C90"/>
      <stop offset=".79" stop-color="#C5CCD0"/>
      <stop offset="1" stop-color="#B8BFC3"/>
    </linearGradient>
    <linearGradient id="F" x1="277.662" x2="277.662" y1="240.816" y2="81.525" gradientUnits="userSpaceOnUse">
      <stop stop-color="#9EA5A9"/>
      <stop offset=".79" stop-color="#DEE5E9"/>
      <stop offset="1" stop-color="#D1D8DC"/>
    </linearGradient>
    <linearGradient id="G" x1="268.299" x2="279.377" y1="78.96" y2="90.153" gradientUnits="userSpaceOnUse">
      <stop stop-color="#9EA5A9"/>
      <stop offset=".79" stop-color="#DEE5E9"/>
      <stop offset="1" stop-color="#D1D8DC"/>
    </linearGradient>
    <linearGradient id="H" x1="280.193" x2="280.193" y1="239.28" y2="43.1" gradientUnits="userSpaceOnUse">
      <stop stop-color="#858C90"/>
      <stop offset=".79" stop-color="#C5CCD0"/>
      <stop offset="1" stop-color="#B8BFC3"/>
    </linearGradient>
    <linearGradient id="I" x1="176.894" x2="177.867" y1="97.891" y2="97.891" gradientUnits="userSpaceOnUse">
      <stop stop-color="#D4DBDF"/>
      <stop offset="1" stop-color="#AFB4B8"/>
    </linearGradient>
    <linearGradient id="J" x1="113.54" x2="112.606" y1="99.125" y2="99.125" gradientUnits="userSpaceOnUse">
      <stop stop-color="#C7CED2"/>
      <stop offset="1" stop-color="#A2A7AB"/>
    </linearGradient>
    <linearGradient id="K" x1="80.28" x2="79.346" y1="118.299" y2="118.299" gradientUnits="userSpaceOnUse">
      <stop stop-color="#C7CED2"/>
      <stop offset="1" stop-color="#A2A7AB"/>
    </linearGradient>
    <linearGradient id="L" x1="47.032" x2="46.098" y1="137.473" y2="137.473" gradientUnits="userSpaceOnUse">
      <stop stop-color="#C7CED2"/>
      <stop offset="1" stop-color="#A2A7AB"/>
    </linearGradient>
    <linearGradient id="M" x1="13.772" x2="12.838" y1="156.647" y2="156.647" gradientUnits="userSpaceOnUse">
      <stop stop-color="#C7CED2"/>
      <stop offset="1" stop-color="#A2A7AB"/>
    </linearGradient>
    <linearGradient id="N" x1="211.564" x2="212.537" y1="117.881" y2="117.881" gradientUnits="userSpaceOnUse">
      <stop stop-color="#D4DBDF"/>
      <stop offset="1" stop-color="#AFB4B8"/>
    </linearGradient>
    <linearGradient id="O" x1="252.315" x2="253.288" y1="154.549" y2="154.567" gradientUnits="userSpaceOnUse">
      <stop stop-color="#E1E8EC"/>
      <stop offset="1" stop-color="#BCC1C5"/>
    </linearGradient>
    <linearGradient id="P" x1="168.532" x2="170.862" y1="114.256" y2="120.119" gradientUnits="userSpaceOnUse">
      <stop offset=".02" stop-color="#FF9400"/>
      <stop offset="1" stop-color="#C24800"/>
    </linearGradient>
    <linearGradient id="Q" x1="172.559" x2="171.306" y1="78.814" y2="76.976" gradientUnits="userSpaceOnUse">
      <stop stop-color="#858C90"/>
      <stop offset=".79" stop-color="#C5CCD0"/>
      <stop offset="1" stop-color="#B8BFC3"/>
    </linearGradient>
    <linearGradient id="R" x1="170.525" x2="171.884" y1="77.123" y2="79.535" gradientUnits="userSpaceOnUse">
      <stop stop-color="#3D474A"/>
      <stop offset="1" stop-color="#0E1315"/>
    </linearGradient>
    <linearGradient id="S" x1="170.126" x2="171.582" y1="77.366" y2="79.982" gradientUnits="userSpaceOnUse">
      <stop stop-color="#858C90"/>
      <stop offset=".79" stop-color="#C5CCD0"/>
      <stop offset="1" stop-color="#B8BFC3"/>
    </linearGradient>
    <linearGradient id="T" x1="168.997" x2="170.541" y1="77.794" y2="80.537" gradientUnits="userSpaceOnUse">
      <stop stop-color="#3D474A"/>
      <stop offset="1" stop-color="#0E1315"/>
    </linearGradient>
    <linearGradient id="U" x1="20.999" x2="20.017" y1="154.882" y2="154.899" gradientUnits="userSpaceOnUse">
      <stop stop-color="#D4DBDF"/>
      <stop offset="1" stop-color="#AFB4B8"/>
    </linearGradient>
    <linearGradient id="V" x1="24.447" x2="23.464" y1="156.976" y2="156.993" gradientUnits="userSpaceOnUse">
      <stop stop-color="#D4DBDF"/>
      <stop offset="1" stop-color="#AFB4B8"/>
    </linearGradient>
    <linearGradient id="W" x1="28.747" x2="27.764" y1="158.738" y2="158.755" gradientUnits="userSpaceOnUse">
      <stop stop-color="#D4DBDF"/>
      <stop offset="1" stop-color="#AFB4B8"/>
    </linearGradient>
    <clipPath id="a">
      <path fill="#fff" d="M0 0h292v341H0z"/>
    </clipPath>
  </defs>
</svg>
