<svg xmlns="http://www.w3.org/2000/svg" width="292" height="341" fill="none" viewBox="0 0 292 341">
  <g clip-path="url(#a)">
    <path fill="#EEF5F9" d="M146.019 0 0 84.16l10.035 5.781L146 11.565 281.965 89.94 292 84.16 146.019 0Z"/>
    <path fill="#F4CB95" d="M281.965 239.339 146 160.962V11.565l135.965 78.377v149.397Z"/>
    <path fill="#DBB27C" d="M10.035 239.339 146 160.962V11.565L10.035 89.942v149.397Z"/>
    <path fill="#D4DBDF" d="m292 233.556-10.035 5.783V89.942L292 84.159v149.397Z"/>
    <path fill="#BBC2C6" d="m0 233.556 10.035 5.783V89.942L0 84.159v149.397Zm146 84.159V341L0 256.841v-23.285l146 84.159Z"/>
    <path fill="#D4DBDF" d="M292 256.841 146 341v-23.285l146-84.159v23.285Z"/>
    <path fill="#928372" d="M281.965 239.338 146 317.715v4.296l135.965-78.377v-4.296Z"/>
    <path fill="#796A59" d="M10.035 239.338v4.296L146 322.011v-4.296L10.035 239.338Z"/>
    <path fill="#AB9C8B" d="M281.965 239.339 146 317.715 10.035 239.339 146 160.962l135.965 78.377Z"/>
    <path fill="#000" d="m86.55 244.217-24.314-14.305c-.136-.078-.331-.068-.535.058-.419.243-.77.836-.77 1.322 0 .243.088.418.225.495l24.313 14.306c.137.077.331.068.536-.059.418-.243.759-.836.759-1.321 0-.243-.088-.418-.224-.496h.01Z" opacity=".1" style="mix-blend-mode:multiply"/>
    <path fill="url(#b)" d="M86.374 243.537 62.06 229.232c-.136-.078-.33-.068-.535.058-.419.243-.76.836-.76 1.322 0 .243.088.417.224.495l24.314 14.305c.137.078.331.068.536-.058.418-.243.759-.836.759-1.322 0-.243-.088-.417-.224-.495Z"/>
    <path fill="#FFC56B" d="m92.496 241.078-8.73 5.034-4.75-2.74 8.73-5.034 4.75 2.74Z"/>
    <path fill="#F09E44" d="M83.766 246.112v5.19l-4.75-2.731v-5.199l4.75 2.74Z"/>
    <path fill="#BE6C12" d="m92.496 246.277-8.73 5.025v-5.19l8.73-5.034v5.199Z"/>
    <path fill="#8B4900" d="M89.147 245.762c0 .476-.33 1.05-.74 1.283-.204.117-.389.126-.525.058-.136-.077-.224-.243-.224-.486 0-.476.331-1.049.74-1.282.204-.117.39-.127.526-.049s.223.243.223.476Z"/>
    <path fill="#91C5AC" d="m193.42 290.436 88.544-51.049v-1.419L145.999 161.01l-88.544 49.621v1.429l135.965 78.376Z"/>
    <path fill="#AADEC5" d="m193.42 289.008 88.544-51.04-135.965-78.377-88.544 51.04 135.965 78.377Z"/>
    <path fill="#E7D6BE" d="M74.217 198.396v1.166l47.206 27.211 10.084-5.811 89.917 51.836 60.502-34.869v-1.166l-207.71-38.367Z"/>
    <path fill="#D1C1AA" d="m131.507 219.795-10.084 5.812-47.206-27.211 10.084-5.812 47.206 27.211Z"/>
    <path fill="#CDBCA4" d="m180.583 236.462-10.084 5.811-86.247-49.718 10.084-5.811 86.247 49.718Z"/>
    <path fill="#D1C1AA" d="m231.507 265.82-10.084 5.812-50.925-29.359 10.084-5.811 50.925 29.358Zm-79.832-57.648-10.084 5.812-47.206-27.211 10.084-5.811 47.206 27.21Z"/>
    <path fill="#C5B399" d="m241.59 260.009-10.084 5.811-89.916-51.836 10.084-5.812 89.916 51.837Z"/>
    <path fill="#CDBCA4" d="m200.741 224.839-10.074 5.812-86.247-49.718 10.084-5.812 86.237 49.718Z"/>
    <path fill="#D1C1AA" d="m251.675 254.198-10.084 5.811-50.925-29.358 10.074-5.812 50.935 29.359Zm-79.834-57.649-10.084 5.812-47.216-27.211 10.084-5.811 47.216 27.21Z"/>
    <path fill="#CDBCA4" d="m261.758 248.386-10.084 5.812-89.916-51.837 10.084-5.811 89.916 51.836Z"/>
    <path fill="#C5B399" d="m220.907 213.216-10.084 5.812-86.237-49.719 10.074-5.811 86.247 49.718Z"/>
    <path fill="#D1C1AA" d="m271.842 242.575-10.083 5.811-50.935-29.358 10.084-5.812 50.934 29.359Zm-79.843-57.648-10.083 5.811-47.207-27.22 10.084-5.812 47.206 27.221Z"/>
    <path fill="#CDBCA4" d="m281.926 236.763-10.084 5.812-89.926-51.837L192 184.927l89.926 51.836Z"/>
    <path fill="#F4E3CB" d="m281.926 237.929-60.502 34.869v-1.166l60.502-34.869v1.166Zm-150.418-16.968-10.084 5.812v-1.166l10.084-5.812v1.166Z"/>
    <path fill="#000" d="m154.741 236.579-12.41-7.153-12.196-7.036-7.368 3.751 9.101 5.248c-.526 0-1.051.02-1.606.068-12.332 1.021-18.435 8.659-18.561 14.49-.127 5.831-29.541 15.335-10.493 26.006 3.329 1.866 8.848 4.227 16.693 0 7.854-4.228 20.517-20.253 17.16-22.955-3.359-2.701 7.329-2.944 10.015-5.519.448-.438.681-1.099.691-1.886l.136.078 1.908-1.098 64.873 37.395 7.368-3.751-65.311-37.648v.01Z" opacity=".1" style="mix-blend-mode:multiply"/>
    <path fill="#E7D6BE" d="m220.052 274.227-9.188-1.157-89.917-51.836.73-1.06 98.375 54.053Z"/>
    <path fill="#F4E3CB" d="m220.052 274.227-9.189-1.157.74-1.059 9.188 1.156-.739 1.06Z"/>
    <path fill="#B8A891" d="m220.792 273.167-9.188-1.156-89.926-51.837 9.198 1.166 89.916 51.827Z"/>
    <path fill="#A70000" d="m131.195 222.886-.876-1.118-3.095-2.818-.779 5.179 3.066.729s1.392-1.02 1.684-1.972Z"/>
    <path fill="#ECB700" d="M130.32 221.768s.554 1.701-.808 3.09l1.791 1.789c.788.787.866 1.03 1.323 1.496.458.467 3.621 2.235 4.069 2.138.438-.097 0-4.567 0-4.567l-2.287-2.216-4.088-1.73Z"/>
    <path fill="#D58A00" d="M136.695 230.271c.253-.058.214-1.593.136-2.876-1.547-.642-4.72-2.08-6.677-3.45a3.07 3.07 0 0 1-.633.904l1.791 1.788c.789.787.867 1.03 1.324 1.496.458.467 3.621 2.236 4.069 2.138h-.01Z"/>
    <path fill="#ECB700" d="M143.653 229.785s1.392-.262 2.093-.165c.7.097 1.333.778 1.674 1.672.34.904.243 1.584 0 2.458-.244.875-.244 1.507-.925 1.944-.681.437-1.139.583-2.141.292-1.003-.292-2.706-1.361-2.531-1.876.175-.505 1.83-4.325 1.83-4.325Z"/>
    <path fill="#D58A00" d="M146.505 235.694c.487-.311.623-.719.75-1.244-.604.049-1.275-.078-1.752-.622-.711-.826-1.986-1.448-2.842-1.72-.39.904-.759 1.788-.837 2.012-.166.515 1.538 1.584 2.53 1.875 1.003.292 1.46.146 2.142-.291l.009-.01Z"/>
    <path fill="#005D8B" d="M119.574 220.65s6.112-4.489 8.214-1.827c2.103 2.663-.545 16.988-2.044 23.431-1.498 6.433-9.918-5.219-9.918-5.219l3.748-16.385Z"/>
    <path fill="#004472" d="m117.705 231.826-1.081 1.711-.798 3.488s1.421 1.963 3.193 3.839l2.501.904 1.772-13.635c-2.093 3.081-5.597 3.693-5.597 3.693h.01Z"/>
    <path fill="#C00000" d="M122.046 225.597c.098 0 2.064-1.205 2.064-1.205s4.292-4.14 4.642-4.5c.361-.359 2.882-.359 3.271.515.389.875 5.12 12.012 5.966 13.013.847 1.001 4.439 1.234 5.451 1.04 1.003-.194 2.433.087 2.531-1.312.097-1.409-1.752-3.314-1.752-3.314l-1.947-1.691s-2.141-6.56-2.754-8.464c-.614-1.915-2.239-6.094-3.144-7.221-.906-1.137-3.952-3.372-3.952-3.372l-1.1-1.885-4.935-4.131-3.114-1.419-4.449-.048s-2.618-1.215-5.664.408c-3.047 1.623-4.507 5.928-5.315 8.445-.808 2.517-1.888 6.667-1.888 6.667s13.072 8.659 16.089 8.493v-.019Z"/>
    <path fill="#A70000" d="M131.838 220.165c-.38-.817-1.733-2.935-5.071-2.333-3.339.603-4.799 2.993-6.998 6.298a1.747 1.747 0 0 0-.292.767c1.099.457 2.005.729 2.559.7.098 0 2.064-1.205 2.064-1.205s4.292-4.14 4.643-4.5c.321-.32 2.384-.349 3.085.273h.01Z"/>
    <path fill="#2E383B" d="M113.676 251.739s-.039 1.759.126 1.992c.166.243 1.431.807 2.434.68 1.012-.126 2.618-.845 4.477-2.177l.088-.68s.992-.457 1.781-.729c.788-.272 2.969-1.535 3.387-2.322.419-.788.701-1.04.535-1.866 0 0-.399 1.467-1.683 2.342-1.285.874-3.728 1.759-4.711 2.196-.983.437-1.889 1.205-3.193 1.409-1.304.204-2.881-.252-3.241-.845Z"/>
    <path fill="#4D1F00" d="M123.156 244.197c-2.141-.058-2.589.875-3.65 1.186-1.061.311-3.981 1.613-4.691 2.216-.721.602-1.139 3.353-1.139 4.14.37.583 1.946 1.049 3.241.845 1.304-.204 2.219-.972 3.193-1.409.973-.437 3.426-1.322 4.71-2.196 1.285-.875 1.684-2.342 1.684-2.342 0 .029.01.058.02.087l.029-.087c.049-1.662-1.256-2.381-3.407-2.44h.01Z"/>
    <path fill="#0B6A98" d="M130.855 245.296c-2.424-2.644-5.879-6.181-11.797-9.913l.272-1.02s.458-2.527.166-3.985l4.623-5.986c-.175.126-.788.301-2.842.136-2.94-.233-7.105-4.188-4.876-9.32 0 0 8.127-6.812 16.147-6.025l-1.217-2.002s-6.813-1.176-16.984 6.385c.438-10.632 8.526-11.963 8.526-11.963l-3.669-.214c-7.943 3.693-6.794 11.73-6.794 11.74-.594.719-3.232 3.654-6.444 3.965 0 0-2.647 6.579-3.474 10.592-.03.127-.069.321-.059.564-1.557 3.742-4.847 13.78 3.816 15.384 2.336 3.061 6.609 3.421 9.791 4.256l4.361 2.819s-3.971 2.002-5.353 2.847c-1.392.846-6.687 2.886-6.687 2.886s3.095 6.725 3.105 8.446c0 0 4.857-3.266 6.813-3.81 1.966-.544 11.641-4.548 13.549-8.163 1.908-3.625 1.47-4.986-.954-7.619h-.019Z"/>
    <path fill="#F2A983" d="M126.162 201.263s1.655-2.041 1.635-3.198c-.019-1.166 3.563-5.665 6.531-5.383 2.969.281 6.181 4.985 6.181 4.985s-.311 2.187-.788 2.838c-.468.651-.867.466-1.081 1.137-.214.67-.827 1.924-1.684 2.808-.856.885-3.182 3.013-3.62 2.741-.448-.272-1.12-.914-2.122-.36-1.013.554-5.042-5.559-5.042-5.559l-.01-.009Z"/>
    <path fill="#D02F30" d="M138.533 199.057c-.097.126.351.884.351.884s2.102 1.497 3.27 1.681c1.158.185-.944-3.041-2.384-4.295-1.451-1.254-1.227 1.73-1.227 1.73h-.01Z"/>
    <path fill="#D88F69" d="M135.75 199.815c-.652 2.497-4.944 6.083-4.944 6.083l-.322.7c.302.224.555.311.721.224 1.012-.545 1.684.097 2.122.359.146.088.506-.087.953-.398-.077-1.468 1.548-4.267 1.548-4.267-1.051-.252.818-3.041.818-3.041l-.896.33v.01Z"/>
    <path fill="#4B1A1A" d="m133.248 195.84-3.923-.36c-.924 1.05-1.528 2.09-1.518 2.576 0 .418-.204.962-.487 1.467a14.843 14.843 0 0 0 3.475 1.662c2.346.758 3.718.476 4.954-1.613 1.237-2.09-2.501-3.742-2.501-3.742v.01Z"/>
    <path fill="#414E52" d="M111.106 271.408c-1.587-.972-1.129-3.275-1.285-4.966-.156-1.691-.895-5.199-1.791-7.172-.895-1.972-2.355-1.642-2.355-1.642l-1.782 1.011c-.525.194-.876 1.244.02 5.617l.681.175c-.009 1.244-.37 2.944-.233 3.936.155 1.098 1.684 1.865 3.981 3.216a36.866 36.866 0 0 0 4.438 2.216l.545-.923s-.642-.486-2.219-1.458v-.01Z"/>
    <path fill="#2E383B" d="m103.903 264.256 4.097 1.03s-.399-2.731-1.158-4.519c-.759-1.788-1.82-2.051-2.521-2.157-.691-.107-1.557.097-.428 5.636l.01.01Z"/>
    <path fill="#663817" d="M113.568 270.446c-.642-1.458-2.229-1.419-2.248-1.992 0 0 .165-4.606.107-6.433-.068-1.837-.779-4.86-1.645-5.365-.827-.476-3.193-.048-3.903.952.438-.009 1.46.137 2.151 1.662.895 1.973 1.635 5.481 1.791 7.172.156 1.691-.302 3.994 1.285 4.966 1.586.972 2.219 1.458 2.219 1.458s.584-1.633.243-2.42Z"/>
    <path fill="#2E383B" d="M109.218 267.443c.117-1.02-.399-2.322-.399-2.322l-.818.165-3.416-.865c-.01 1.244-.37 2.945-.234 3.936.156 1.098 1.684 1.866 3.981 3.216 2.287 1.351 4.438 2.216 4.438 2.216-4.973-3.042-3.679-5.316-3.552-6.336v-.01Z"/>
    <path fill="#005D8B" d="M120.118 250.845c3.095-.282 7.67 1.788 7.67 1.788.126-1.38-2.268-2.954-7.67-5.015-5.402-2.06-4.984-.816-9.402-1.389a14.312 14.312 0 0 1-1.558-.282c2.18 1.059 4.77 1.399 6.872 1.953l4.36 2.818s-.097.049-.262.136l-.01-.009Z"/>
    <path fill="#005D8B" d="M118.473 258.25c-3.271 1.03-5.879 2.867-7.602 4.344.341.981.574 1.827.574 2.303 0 0 4.857-3.265 6.814-3.809 1.966-.545 11.641-4.549 13.548-8.164 1.451-2.75 1.548-4.198.438-5.899.419 6.609-7.786 9.34-13.772 11.225Z"/>
    <path fill="#B61617" d="M139.984 199.368s-1.275.641-2.122.515c-.847-.127-5.577.836-10.415-2.022 0 0 .75-9.164 7.446-8.095 6.697 1.069 6.599 7.308 5.091 9.602Z"/>
    <path fill="#4B1A1A" d="M127.535 197.152c.74.379 2.988 1.458 5.441 1.808 0 0 .496-2.984-4.76-4.49a14.943 14.943 0 0 0-.681 2.682Z"/>
    <path fill="#F43232" d="m123.271 201.632 2.434-.982s5.324.768 5.752 6.317l-.126.204s-3.903-1.798-5.928-3.265c-2.015-1.467-2.132-2.284-2.132-2.284v.01Z"/>
    <path fill="#005D8B" d="m107.183 231.37 1.966.563-2.91-2.128s.487-2.663.759-3.751c-.487.913-1.81 2.876-1.81 2.876s-1.256-.797-2.628-1.642l-.088.418c-.029.126-.068.32-.058.563-1.558 3.742-4.847 13.781 3.815 15.384 0 0-2.891-6.938.944-12.274l.01-.009Zm-.01-5.773s-.097.146-.175.457c.127-.243.204-.408.175-.457Zm6.152 12.867 1.08-3.955s2.687 1.312 4.643.874l.272-1.02s.458-2.527.166-3.985l4.623-5.986c-.175.126-.788.301-2.842.136a4.801 4.801 0 0 1-1.499-.398c-.905 1.555-2.355 4.081-3.027 5.49-1.012 2.138-.574 4.101-.574 4.101s-3.076-.719-4.458-1.341l1.616 1.614s-.273 2.711 0 4.47Z"/>
    <path fill="#E7D6BE" d="M107.659 289.212v.982l-86.247-49.718v-.982l86.247 49.718Z"/>
    <path fill="#F4E3CB" d="m117.734 284.382-10.074 5.812v-.982l10.074-5.811v.981Z"/>
    <path fill="#C2B199" d="m117.734 284.003-10.074 5.812v-.224l10.074-5.811v.223Z"/>
    <path fill="#CDBCA4" d="m117.733 283.401-10.074 5.811-86.247-49.718 10.084-5.811 86.237 49.718Z"/>
    <path fill="#F4E3CB" d="m107.31 289.717.35-.194-86.247-49.718-.34.194 86.237 49.718Z"/>
    <path fill="#E7D6BE" d="M107.825 286.491v.982l-86.247-49.719v-.981l86.247 49.718Z"/>
    <path fill="#F4E3CB" d="m117.91 281.661-10.084 5.811v-.981l10.084-5.812v.982Z"/>
    <path fill="#C2B199" d="m117.91 281.282-10.084 5.811v-.223l10.084-5.812v.224Z"/>
    <path fill="#CDBCA4" d="m117.909 280.679-10.084 5.812-86.247-49.718 10.084-5.812 86.247 49.718Z"/>
    <path fill="#F4E3CB" d="m107.485 286.996.341-.194-86.247-49.718-.34.194 86.246 49.718Z"/>
    <path fill="#E7D6BE" d="M106.501 283.896v.982L20.254 235.16v-.982l86.247 49.718Z"/>
    <path fill="#F4E3CB" d="m116.576 279.066-10.074 5.812v-.982l10.074-5.811v.981Z"/>
    <path fill="#C2B199" d="m116.576 278.687-10.074 5.812v-.224l10.074-5.811v.223Z"/>
    <path fill="#CDBCA4" d="m116.575 278.085-10.074 5.811-86.247-49.718 10.084-5.811 86.237 49.718Z"/>
    <path fill="#F4E3CB" d="m106.151 284.392.351-.194-86.247-49.719-.34.205 86.236 49.708Z"/>
    <path fill="#000" d="M143.558 292.983c1.421.816 3.718.816 5.139 0 1.421-.817 1.421-2.148 0-2.964a6.687 6.687 0 0 0-.282-.146l-2.015-1.157a.83.83 0 0 0-.74 0l-4.38 2.527c-.204.117-.204.311 0 .428l2.015 1.156c.078.058.166.107.253.156h.01Z" opacity=".1" style="mix-blend-mode:multiply"/>
    <path fill="url(#c)" d="M149.759 289.543c.01-.506-.312-1.011-.983-1.4-.078-.048-.166-.087-.253-.136l-1.85-1.069a.762.762 0 0 0-.681 0l-4.03 2.323c-.097.058-.136.126-.136.194v1.992c0 .068.049.136.136.185l1.85 1.069c.068.049.146.097.233.146 1.305.758 3.427.758 4.731 0 .652-.379.983-.875.983-1.371v-1.933Z"/>
    <path fill="#2E383B" d="M149.359 288.59v3.819c.273-.291.409-.612.409-.933v-1.934c0-.33-.126-.66-.409-.952Z"/>
    <path fill="#FFCD00" d="M144.054 290.874c1.304.758 3.426.758 4.73 0 1.304-.748 1.304-1.973 0-2.731-.078-.048-.165-.087-.253-.136l-1.849-1.069a.765.765 0 0 0-.682 0l-4.029 2.323c-.185.107-.185.282 0 .388l1.849 1.069c.068.049.146.098.234.146v.01Z"/>
    <path fill="#414E52" d="M144.881 290.388c-.847-.486-.847-1.283 0-1.769s2.219-.486 3.076 0c.847.486.847 1.283 0 1.769s-2.219.486-3.076 0Z"/>
    <path fill="#2E383B" d="M141.971 289.659c-.185-.107-.185-.282 0-.388-.098.058-.137.126-.137.194v1.992c0 .068.049.136.137.185l1.703.981v-1.973l-1.703-.981v-.01Z"/>
    <path fill="#414E52" d="M148.784 288.143c-.078-.048-.165-.087-.253-.136l-1.849-1.069a.765.765 0 0 0-.682 0l-4.029 2.323c-.185.107-.185.282 0 .388l1.693.982.672-.389c-.584-.544-.467-1.263.35-1.739.954-.545 2.502-.545 3.446 0 .818.476.934 1.205.341 1.749l.876.175c.691-.729.496-1.662-.575-2.284h.01Z"/>
    <path fill="#FFCD00" d="M145.057 291.807v1.069c1.08.282 2.375.204 3.348-.214v-1.069c-.983.418-2.268.486-3.348.214Z" opacity=".5" style="mix-blend-mode:multiply"/>
    <path fill="#151F22" d="M145.35 292.011v.807l2.16.106.069-.126v-.807a5.727 5.727 0 0 1-2.229.02Z"/>
    <path fill="#2E383B" d="M145.281 292.137v.807a5.746 5.746 0 0 0 2.229-.019v-.807a5.746 5.746 0 0 1-2.229.019Z"/>
    <path fill="#414E52" d="m145.349 292.011-.068.126a5.746 5.746 0 0 0 2.229-.019l.068-.127a5.727 5.727 0 0 1-2.229.02Z"/>
    <path fill="#151F22" d="m142.419 291.749-.302-.156v-1.623l.302.156v1.623Zm-1.139.738-.301-.155v-1.623l.301.155v1.623Z"/>
    <path fill="#FFCD00" d="m141.279 292.487 1.139-.739v-1.623l-1.139.739v1.623Z"/>
    <path fill="#2E383B" d="m141.659 290.612-.38.252v1.623l.38-.243v-1.632Z"/>
    <path fill="#FF8300" d="M130.047 274.499c1.762 1.292 4.4 2.682 4.916 2.837.516.146 7.923.224 7.923.224s.311-.01.691-.224c.379-.213 3.922-2.264 4.243-2.449.322-.184.117-.301-.301-.544-.419-.243-3.368-1.982-4.4-2.633-1.032-.642-3.348-2.721-4.068-2.527-.273.078-.049.622-.808 1.011-.759.388-2.103.631-3.572 1.127-1.47.496-3.144 1.312-3.874 1.39-.73.077-1.684-.175-2.034-.02-.351.156-.468.525 1.294 1.817l-.01-.009Zm5.626-.739c1.012-.243 2.56-.709 3.679-1.224 1.11-.525 1.704-.787 2.589-.447.896.34 2.064 1.078 1.976 1.632-.107.719-1.654 1.273-2.852 1.594-1.197.321-3.708.525-5.022.544-1.324.02-2.18-.136-2.608-.806-.429-.671 1.236-1.05 2.238-1.293Z"/>
    <path fill="#E66A00" d="M135.673 273.76c1.012-.243 2.56-.709 3.679-1.224 1.11-.525 1.703-.787 2.589-.447.896.34 2.064 1.078 1.976 1.632a.634.634 0 0 1-.097.253c-.302-.476-1.178-.991-1.879-1.263-.895-.35-1.479-.078-2.589.447-1.109.525-2.667.981-3.679 1.224-.72.175-1.772.418-2.161.778-.029-.039-.058-.078-.078-.117-.428-.67 1.236-1.049 2.239-1.292v.009Z"/>
    <path fill="#E66A00" d="M128.539 272.934c-.01.253.331.7 1.508 1.565 1.762 1.292 4.4 2.682 4.916 2.837.516.146 7.923.224 7.923.224s.311-.01.691-.224c.379-.213 3.922-2.264 4.244-2.449.097-.058.146-.106.155-.145v.583c0 .058-.039.116-.155.194-.322.185-3.865 2.226-4.244 2.449-.38.214-.691.224-.691.224s-7.407-.078-7.923-.224c-.516-.146-3.154-1.545-4.916-2.838-1.216-.884-1.537-1.341-1.508-1.584 0 0-.039-.476 0-.602v-.01Z"/>
    <path fill="#E66A00" d="m146.78 274.858-3.738 2.158a1.105 1.105 0 0 1-.234.097c-3.27-.029-6.901-.107-7.533-.185-.175 0-.828-.349-.983-.447-.156-.097.603-.194 1.771-.194 1.392 0 4.02-.233 5.324-.583 1.421-.379 3.037-1.03 3.29-1.944.049-.184.156-.379.779-.019.525.301.983.583 1.275.748.253.146.204.292.058.379l-.009-.01Z"/>
    <path fill="#2E383B" d="M128.869 272.652c.419-.077 1.265.127 1.927.059.73-.078 2.395-.894 3.874-1.39 1.47-.496 2.813-.739 3.572-1.127.497-.253.575-.574.643-.778 1.781 1.186 5.207 3.246 5.207 3.246l-.321.632c-.331-.457-1.158-.933-1.83-1.196-.895-.34-1.479-.077-2.589.448-1.11.524-2.667.981-3.679 1.224-1.013.243-2.677.622-2.239 1.292.263.409.691.632 1.275.729-.487.214-1.071.447-1.557.166-.613-.35-2.881-1.662-3.757-2.566-.399-.418-.516-.632-.526-.729v-.01Zm15.963 1.808c.253-.146.672-.146.935 0 .253.146.253.389 0 .534-.253.146-.672.146-.935 0-.253-.145-.253-.388 0-.534Zm-2.783 1.613c.253-.146.672-.146.935 0 .253.146.253.389 0 .535-.254.145-.672.145-.935 0-.253-.146-.253-.389 0-.535Zm-3.65.272c.253-.146.671-.146.934 0 .253.146.253.389 0 .535-.253.145-.671.145-.934 0-.253-.146-.253-.389 0-.535Z"/>
    <path fill="#151F22" d="M135.673 273.76c1.012-.243 2.56-.709 3.679-1.224 1.11-.525 1.703-.787 2.589-.447.672.262 1.499.729 1.83 1.195v.632c-.331-.457-1.158-.933-1.83-1.196-.895-.349-1.479-.077-2.589.447-1.109.525-2.667.982-3.679 1.225-.72.175-1.772.418-2.161.777a.813.813 0 0 1-.078-.116c-.428-.671 1.236-1.05 2.239-1.293Z"/>
    <path fill="url(#d)" d="M138.555 277.803c2.092.048 4.321.068 4.321.068s.312-.01.691-.224c.38-.213 3.923-2.264 4.244-2.449a.326.326 0 0 0 .088-.058l28.732 16.57-1.936 1.117-.584.146.058-.369-.584.145.058-.369-.584.146.059-.369-.584.145.058-.369-.584.146.059-.369-.584.145.058-.369-.584.146.058-.369-.584.145.059-.369-.584.146.058-.369-.584.145.059-.369-.584.146.058-.37-.584.146.058-.369-.584.146.059-.37-.584.146.058-.369-.584.146.059-.37-.584.146.058-.369-.584.146.058-.37-.584.146.059-.369-.584.146.058-.37-.584.146.059-.369-.584.146.058-.37-.584.146.058-.369-.584.146.059-.37-.584.146.058-.369-.584.146.059-.37-.584.146.058-.369-.584.145.058-.369-.584.146.059-.369-.584.145.058-.369-.584.146.059-.369-.584.145.058-.369-.584.146.058-.369-.584.145.059-.369-.584.146.058-.369-.584.145.059-.369-.584.146.058-.369-.584.145.058-.369-.584.146.059-.37-.584.146.058-.369-.584.146.059-.37-.584.146.058-.369-.584.146.058-.37-.584.146.059-.369-.584.146.058-.37-.584.146.059-.369-.584.146.058-.37-.584.146.058-.369-.584.146.059-.37-.584.146.058-.369-.584.146.059-.37-.584.146.058-.369-.584.146.058-.37-.584.146.059-.369-.584.146.058-.37-.584.146.059-.369-.584.145.058-.369-.584.146.058-.369-.584.145.059-.369-.584.146.058-.369-.584.145.059-.369-.584.146.058-.369-.584.145.058-.369-.584.146.059-.369-.584.145.058-.369-.584.146.059-.369-.584.145.058-.369-.584.146.058-.369-.584.145.039-.282-.379.088Z"/>
    <path fill="#000" d="m44.317 126.142-8.721-1.818v100.389l12.74 7.327-4.02-105.898Z" opacity=".15" style="mix-blend-mode:multiply"/>
    <path fill="#E7D6BE" d="m36.51 124.577 11.72-6.638-1.13-.252-11.504 6.637 12.74 107.716.916.253-.03-.263-12.711-107.453Z"/>
    <path fill="#CDBCA4" d="m60.765 225.665-11.514 6.638L36.51 124.577l11.505-6.638 12.75 107.726Z"/>
  </g>
  <defs>
    <linearGradient id="b" x1="74.003" x2="73.43" y1="236.773" y2="237.775" gradientUnits="userSpaceOnUse">
      <stop stop-color="#F7C05C"/>
      <stop offset=".18" stop-color="#F0B852"/>
      <stop offset=".49" stop-color="#E0A538"/>
      <stop offset=".88" stop-color="#C6860E"/>
      <stop offset="1" stop-color="#BD7B00"/>
    </linearGradient>
    <linearGradient id="c" x1="149.72" x2="141.875" y1="290.135" y2="290.135" gradientUnits="userSpaceOnUse">
      <stop stop-color="#FFCD00"/>
      <stop offset=".28" stop-color="#FFC300"/>
      <stop offset=".75" stop-color="#FFA900"/>
      <stop offset="1" stop-color="#F90"/>
    </linearGradient>
    <linearGradient id="d" x1="176.641" x2="138.516" y1="284.042" y2="284.042" gradientUnits="userSpaceOnUse">
      <stop stop-color="#9EA5A9"/>
      <stop offset=".79" stop-color="#DEE5E9"/>
      <stop offset="1" stop-color="#D1D8DC"/>
    </linearGradient>
    <clipPath id="a">
      <path fill="#fff" d="M0 0h292v341H0z"/>
    </clipPath>
  </defs>
</svg>
